%TF.GenerationSoftware,KiCad,Pcbnew,8.0.5*%
%TF.CreationDate,2024-09-26T09:53:33+02:00*%
%TF.ProjectId,BL-R8812AF1 mount,424c2d52-3838-4313-9241-4631206d6f75,rev?*%
%TF.SameCoordinates,Original*%
%TF.FileFunction,Drillmap*%
%TF.FilePolarity,Positive*%
%FSLAX45Y45*%
G04 Gerber Fmt 4.5, Leading zero omitted, Abs format (unit mm)*
G04 Created by KiCad (PCBNEW 8.0.5) date 2024-09-26 09:53:33*
%MOMM*%
%LPD*%
G01*
G04 APERTURE LIST*
%ADD10C,0.050000*%
%ADD11C,0.100000*%
%ADD12C,0.200000*%
%ADD13C,0.300000*%
G04 APERTURE END LIST*
D10*
X7271000Y-14609800D02*
X7271000Y-15209800D01*
X8971000Y-16909800D02*
X9571000Y-16909800D01*
D11*
X7271000Y-15209800D02*
X8971000Y-16909800D01*
X11271000Y-14609800D02*
X9571000Y-12909800D01*
X9571000Y-16909800D02*
X11271000Y-15209800D01*
D10*
X11271000Y-14609800D02*
X11271000Y-15209800D01*
X8971000Y-12909800D02*
X9571000Y-12909800D01*
D11*
X8971000Y-12909800D02*
X7271000Y-14609800D01*
D12*
D11*
X9699990Y-13255990D02*
X9799990Y-13355990D01*
X9799990Y-13255990D02*
X9699990Y-13355990D01*
X9879595Y-13435595D02*
X9979595Y-13535595D01*
X9979595Y-13435595D02*
X9879595Y-13535595D01*
X10059200Y-13615200D02*
X10159200Y-13715200D01*
X10159200Y-13615200D02*
X10059200Y-13715200D01*
X10238805Y-13794805D02*
X10338805Y-13894805D01*
X10338805Y-13794805D02*
X10238805Y-13894805D01*
D13*
X9570100Y-14893800D02*
G75*
G02*
X9270100Y-14893800I-150000J0D01*
G01*
X9270100Y-14893800D02*
G75*
G02*
X9570100Y-14893800I150000J0D01*
G01*
X9570100Y-15433800D02*
G75*
G02*
X9270100Y-15433800I-150000J0D01*
G01*
X9270100Y-15433800D02*
G75*
G02*
X9570100Y-15433800I150000J0D01*
G01*
X10110100Y-14893800D02*
G75*
G02*
X9810100Y-14893800I-150000J0D01*
G01*
X9810100Y-14893800D02*
G75*
G02*
X10110100Y-14893800I150000J0D01*
G01*
X10110100Y-15433800D02*
G75*
G02*
X9810100Y-15433800I-150000J0D01*
G01*
X9810100Y-15433800D02*
G75*
G02*
X10110100Y-15433800I150000J0D01*
G01*
D12*
X7526777Y-17226284D02*
X7526777Y-17026284D01*
X7526777Y-17026284D02*
X7574396Y-17026284D01*
X7574396Y-17026284D02*
X7602967Y-17035808D01*
X7602967Y-17035808D02*
X7622015Y-17054855D01*
X7622015Y-17054855D02*
X7631539Y-17073903D01*
X7631539Y-17073903D02*
X7641062Y-17111998D01*
X7641062Y-17111998D02*
X7641062Y-17140570D01*
X7641062Y-17140570D02*
X7631539Y-17178665D01*
X7631539Y-17178665D02*
X7622015Y-17197712D01*
X7622015Y-17197712D02*
X7602967Y-17216760D01*
X7602967Y-17216760D02*
X7574396Y-17226284D01*
X7574396Y-17226284D02*
X7526777Y-17226284D01*
X7726777Y-17226284D02*
X7726777Y-17092950D01*
X7726777Y-17131046D02*
X7736301Y-17111998D01*
X7736301Y-17111998D02*
X7745824Y-17102474D01*
X7745824Y-17102474D02*
X7764872Y-17092950D01*
X7764872Y-17092950D02*
X7783920Y-17092950D01*
X7850586Y-17226284D02*
X7850586Y-17092950D01*
X7850586Y-17026284D02*
X7841062Y-17035808D01*
X7841062Y-17035808D02*
X7850586Y-17045331D01*
X7850586Y-17045331D02*
X7860110Y-17035808D01*
X7860110Y-17035808D02*
X7850586Y-17026284D01*
X7850586Y-17026284D02*
X7850586Y-17045331D01*
X7974396Y-17226284D02*
X7955348Y-17216760D01*
X7955348Y-17216760D02*
X7945824Y-17197712D01*
X7945824Y-17197712D02*
X7945824Y-17026284D01*
X8079158Y-17226284D02*
X8060110Y-17216760D01*
X8060110Y-17216760D02*
X8050586Y-17197712D01*
X8050586Y-17197712D02*
X8050586Y-17026284D01*
X8307729Y-17226284D02*
X8307729Y-17026284D01*
X8307729Y-17026284D02*
X8374396Y-17169141D01*
X8374396Y-17169141D02*
X8441063Y-17026284D01*
X8441063Y-17026284D02*
X8441063Y-17226284D01*
X8622015Y-17226284D02*
X8622015Y-17121522D01*
X8622015Y-17121522D02*
X8612491Y-17102474D01*
X8612491Y-17102474D02*
X8593444Y-17092950D01*
X8593444Y-17092950D02*
X8555348Y-17092950D01*
X8555348Y-17092950D02*
X8536301Y-17102474D01*
X8622015Y-17216760D02*
X8602967Y-17226284D01*
X8602967Y-17226284D02*
X8555348Y-17226284D01*
X8555348Y-17226284D02*
X8536301Y-17216760D01*
X8536301Y-17216760D02*
X8526777Y-17197712D01*
X8526777Y-17197712D02*
X8526777Y-17178665D01*
X8526777Y-17178665D02*
X8536301Y-17159617D01*
X8536301Y-17159617D02*
X8555348Y-17150093D01*
X8555348Y-17150093D02*
X8602967Y-17150093D01*
X8602967Y-17150093D02*
X8622015Y-17140570D01*
X8717253Y-17092950D02*
X8717253Y-17292950D01*
X8717253Y-17102474D02*
X8736301Y-17092950D01*
X8736301Y-17092950D02*
X8774396Y-17092950D01*
X8774396Y-17092950D02*
X8793444Y-17102474D01*
X8793444Y-17102474D02*
X8802967Y-17111998D01*
X8802967Y-17111998D02*
X8812491Y-17131046D01*
X8812491Y-17131046D02*
X8812491Y-17188189D01*
X8812491Y-17188189D02*
X8802967Y-17207236D01*
X8802967Y-17207236D02*
X8793444Y-17216760D01*
X8793444Y-17216760D02*
X8774396Y-17226284D01*
X8774396Y-17226284D02*
X8736301Y-17226284D01*
X8736301Y-17226284D02*
X8717253Y-17216760D01*
X8898205Y-17207236D02*
X8907729Y-17216760D01*
X8907729Y-17216760D02*
X8898205Y-17226284D01*
X8898205Y-17226284D02*
X8888682Y-17216760D01*
X8888682Y-17216760D02*
X8898205Y-17207236D01*
X8898205Y-17207236D02*
X8898205Y-17226284D01*
X8898205Y-17102474D02*
X8907729Y-17111998D01*
X8907729Y-17111998D02*
X8898205Y-17121522D01*
X8898205Y-17121522D02*
X8888682Y-17111998D01*
X8888682Y-17111998D02*
X8898205Y-17102474D01*
X8898205Y-17102474D02*
X8898205Y-17121522D01*
D11*
X7166000Y-17504800D02*
X7266000Y-17604800D01*
X7266000Y-17504800D02*
X7166000Y-17604800D01*
D12*
X7631539Y-17646284D02*
X7517253Y-17646284D01*
X7574396Y-17646284D02*
X7574396Y-17446284D01*
X7574396Y-17446284D02*
X7555348Y-17474855D01*
X7555348Y-17474855D02*
X7536301Y-17493903D01*
X7536301Y-17493903D02*
X7517253Y-17503427D01*
X7717253Y-17627236D02*
X7726777Y-17636760D01*
X7726777Y-17636760D02*
X7717253Y-17646284D01*
X7717253Y-17646284D02*
X7707729Y-17636760D01*
X7707729Y-17636760D02*
X7717253Y-17627236D01*
X7717253Y-17627236D02*
X7717253Y-17646284D01*
X7850586Y-17446284D02*
X7869634Y-17446284D01*
X7869634Y-17446284D02*
X7888682Y-17455808D01*
X7888682Y-17455808D02*
X7898205Y-17465331D01*
X7898205Y-17465331D02*
X7907729Y-17484379D01*
X7907729Y-17484379D02*
X7917253Y-17522474D01*
X7917253Y-17522474D02*
X7917253Y-17570093D01*
X7917253Y-17570093D02*
X7907729Y-17608189D01*
X7907729Y-17608189D02*
X7898205Y-17627236D01*
X7898205Y-17627236D02*
X7888682Y-17636760D01*
X7888682Y-17636760D02*
X7869634Y-17646284D01*
X7869634Y-17646284D02*
X7850586Y-17646284D01*
X7850586Y-17646284D02*
X7831539Y-17636760D01*
X7831539Y-17636760D02*
X7822015Y-17627236D01*
X7822015Y-17627236D02*
X7812491Y-17608189D01*
X7812491Y-17608189D02*
X7802967Y-17570093D01*
X7802967Y-17570093D02*
X7802967Y-17522474D01*
X7802967Y-17522474D02*
X7812491Y-17484379D01*
X7812491Y-17484379D02*
X7822015Y-17465331D01*
X7822015Y-17465331D02*
X7831539Y-17455808D01*
X7831539Y-17455808D02*
X7850586Y-17446284D01*
X8041062Y-17446284D02*
X8060110Y-17446284D01*
X8060110Y-17446284D02*
X8079158Y-17455808D01*
X8079158Y-17455808D02*
X8088682Y-17465331D01*
X8088682Y-17465331D02*
X8098205Y-17484379D01*
X8098205Y-17484379D02*
X8107729Y-17522474D01*
X8107729Y-17522474D02*
X8107729Y-17570093D01*
X8107729Y-17570093D02*
X8098205Y-17608189D01*
X8098205Y-17608189D02*
X8088682Y-17627236D01*
X8088682Y-17627236D02*
X8079158Y-17636760D01*
X8079158Y-17636760D02*
X8060110Y-17646284D01*
X8060110Y-17646284D02*
X8041062Y-17646284D01*
X8041062Y-17646284D02*
X8022015Y-17636760D01*
X8022015Y-17636760D02*
X8012491Y-17627236D01*
X8012491Y-17627236D02*
X8002967Y-17608189D01*
X8002967Y-17608189D02*
X7993443Y-17570093D01*
X7993443Y-17570093D02*
X7993443Y-17522474D01*
X7993443Y-17522474D02*
X8002967Y-17484379D01*
X8002967Y-17484379D02*
X8012491Y-17465331D01*
X8012491Y-17465331D02*
X8022015Y-17455808D01*
X8022015Y-17455808D02*
X8041062Y-17446284D01*
X8231539Y-17446284D02*
X8250586Y-17446284D01*
X8250586Y-17446284D02*
X8269634Y-17455808D01*
X8269634Y-17455808D02*
X8279158Y-17465331D01*
X8279158Y-17465331D02*
X8288682Y-17484379D01*
X8288682Y-17484379D02*
X8298205Y-17522474D01*
X8298205Y-17522474D02*
X8298205Y-17570093D01*
X8298205Y-17570093D02*
X8288682Y-17608189D01*
X8288682Y-17608189D02*
X8279158Y-17627236D01*
X8279158Y-17627236D02*
X8269634Y-17636760D01*
X8269634Y-17636760D02*
X8250586Y-17646284D01*
X8250586Y-17646284D02*
X8231539Y-17646284D01*
X8231539Y-17646284D02*
X8212491Y-17636760D01*
X8212491Y-17636760D02*
X8202967Y-17627236D01*
X8202967Y-17627236D02*
X8193443Y-17608189D01*
X8193443Y-17608189D02*
X8183920Y-17570093D01*
X8183920Y-17570093D02*
X8183920Y-17522474D01*
X8183920Y-17522474D02*
X8193443Y-17484379D01*
X8193443Y-17484379D02*
X8202967Y-17465331D01*
X8202967Y-17465331D02*
X8212491Y-17455808D01*
X8212491Y-17455808D02*
X8231539Y-17446284D01*
X8383920Y-17646284D02*
X8383920Y-17512950D01*
X8383920Y-17531998D02*
X8393444Y-17522474D01*
X8393444Y-17522474D02*
X8412491Y-17512950D01*
X8412491Y-17512950D02*
X8441063Y-17512950D01*
X8441063Y-17512950D02*
X8460110Y-17522474D01*
X8460110Y-17522474D02*
X8469634Y-17541522D01*
X8469634Y-17541522D02*
X8469634Y-17646284D01*
X8469634Y-17541522D02*
X8479158Y-17522474D01*
X8479158Y-17522474D02*
X8498205Y-17512950D01*
X8498205Y-17512950D02*
X8526777Y-17512950D01*
X8526777Y-17512950D02*
X8545825Y-17522474D01*
X8545825Y-17522474D02*
X8555348Y-17541522D01*
X8555348Y-17541522D02*
X8555348Y-17646284D01*
X8650586Y-17646284D02*
X8650586Y-17512950D01*
X8650586Y-17531998D02*
X8660110Y-17522474D01*
X8660110Y-17522474D02*
X8679158Y-17512950D01*
X8679158Y-17512950D02*
X8707729Y-17512950D01*
X8707729Y-17512950D02*
X8726777Y-17522474D01*
X8726777Y-17522474D02*
X8736301Y-17541522D01*
X8736301Y-17541522D02*
X8736301Y-17646284D01*
X8736301Y-17541522D02*
X8745825Y-17522474D01*
X8745825Y-17522474D02*
X8764872Y-17512950D01*
X8764872Y-17512950D02*
X8793444Y-17512950D01*
X8793444Y-17512950D02*
X8812491Y-17522474D01*
X8812491Y-17522474D02*
X8822015Y-17541522D01*
X8822015Y-17541522D02*
X8822015Y-17646284D01*
X9212491Y-17436760D02*
X9041063Y-17693903D01*
X9469634Y-17446284D02*
X9488682Y-17446284D01*
X9488682Y-17446284D02*
X9507729Y-17455808D01*
X9507729Y-17455808D02*
X9517253Y-17465331D01*
X9517253Y-17465331D02*
X9526777Y-17484379D01*
X9526777Y-17484379D02*
X9536301Y-17522474D01*
X9536301Y-17522474D02*
X9536301Y-17570093D01*
X9536301Y-17570093D02*
X9526777Y-17608189D01*
X9526777Y-17608189D02*
X9517253Y-17627236D01*
X9517253Y-17627236D02*
X9507729Y-17636760D01*
X9507729Y-17636760D02*
X9488682Y-17646284D01*
X9488682Y-17646284D02*
X9469634Y-17646284D01*
X9469634Y-17646284D02*
X9450587Y-17636760D01*
X9450587Y-17636760D02*
X9441063Y-17627236D01*
X9441063Y-17627236D02*
X9431539Y-17608189D01*
X9431539Y-17608189D02*
X9422015Y-17570093D01*
X9422015Y-17570093D02*
X9422015Y-17522474D01*
X9422015Y-17522474D02*
X9431539Y-17484379D01*
X9431539Y-17484379D02*
X9441063Y-17465331D01*
X9441063Y-17465331D02*
X9450587Y-17455808D01*
X9450587Y-17455808D02*
X9469634Y-17446284D01*
X9622015Y-17627236D02*
X9631539Y-17636760D01*
X9631539Y-17636760D02*
X9622015Y-17646284D01*
X9622015Y-17646284D02*
X9612491Y-17636760D01*
X9612491Y-17636760D02*
X9622015Y-17627236D01*
X9622015Y-17627236D02*
X9622015Y-17646284D01*
X9755348Y-17446284D02*
X9774396Y-17446284D01*
X9774396Y-17446284D02*
X9793444Y-17455808D01*
X9793444Y-17455808D02*
X9802968Y-17465331D01*
X9802968Y-17465331D02*
X9812491Y-17484379D01*
X9812491Y-17484379D02*
X9822015Y-17522474D01*
X9822015Y-17522474D02*
X9822015Y-17570093D01*
X9822015Y-17570093D02*
X9812491Y-17608189D01*
X9812491Y-17608189D02*
X9802968Y-17627236D01*
X9802968Y-17627236D02*
X9793444Y-17636760D01*
X9793444Y-17636760D02*
X9774396Y-17646284D01*
X9774396Y-17646284D02*
X9755348Y-17646284D01*
X9755348Y-17646284D02*
X9736301Y-17636760D01*
X9736301Y-17636760D02*
X9726777Y-17627236D01*
X9726777Y-17627236D02*
X9717253Y-17608189D01*
X9717253Y-17608189D02*
X9707729Y-17570093D01*
X9707729Y-17570093D02*
X9707729Y-17522474D01*
X9707729Y-17522474D02*
X9717253Y-17484379D01*
X9717253Y-17484379D02*
X9726777Y-17465331D01*
X9726777Y-17465331D02*
X9736301Y-17455808D01*
X9736301Y-17455808D02*
X9755348Y-17446284D01*
X9888682Y-17446284D02*
X10012491Y-17446284D01*
X10012491Y-17446284D02*
X9945825Y-17522474D01*
X9945825Y-17522474D02*
X9974396Y-17522474D01*
X9974396Y-17522474D02*
X9993444Y-17531998D01*
X9993444Y-17531998D02*
X10002968Y-17541522D01*
X10002968Y-17541522D02*
X10012491Y-17560570D01*
X10012491Y-17560570D02*
X10012491Y-17608189D01*
X10012491Y-17608189D02*
X10002968Y-17627236D01*
X10002968Y-17627236D02*
X9993444Y-17636760D01*
X9993444Y-17636760D02*
X9974396Y-17646284D01*
X9974396Y-17646284D02*
X9917253Y-17646284D01*
X9917253Y-17646284D02*
X9898206Y-17636760D01*
X9898206Y-17636760D02*
X9888682Y-17627236D01*
X10107729Y-17646284D02*
X10145825Y-17646284D01*
X10145825Y-17646284D02*
X10164872Y-17636760D01*
X10164872Y-17636760D02*
X10174396Y-17627236D01*
X10174396Y-17627236D02*
X10193444Y-17598665D01*
X10193444Y-17598665D02*
X10202968Y-17560570D01*
X10202968Y-17560570D02*
X10202968Y-17484379D01*
X10202968Y-17484379D02*
X10193444Y-17465331D01*
X10193444Y-17465331D02*
X10183920Y-17455808D01*
X10183920Y-17455808D02*
X10164872Y-17446284D01*
X10164872Y-17446284D02*
X10126777Y-17446284D01*
X10126777Y-17446284D02*
X10107729Y-17455808D01*
X10107729Y-17455808D02*
X10098206Y-17465331D01*
X10098206Y-17465331D02*
X10088682Y-17484379D01*
X10088682Y-17484379D02*
X10088682Y-17531998D01*
X10088682Y-17531998D02*
X10098206Y-17551046D01*
X10098206Y-17551046D02*
X10107729Y-17560570D01*
X10107729Y-17560570D02*
X10126777Y-17570093D01*
X10126777Y-17570093D02*
X10164872Y-17570093D01*
X10164872Y-17570093D02*
X10183920Y-17560570D01*
X10183920Y-17560570D02*
X10193444Y-17551046D01*
X10193444Y-17551046D02*
X10202968Y-17531998D01*
X10374396Y-17512950D02*
X10374396Y-17646284D01*
X10326777Y-17436760D02*
X10279158Y-17579617D01*
X10279158Y-17579617D02*
X10402968Y-17579617D01*
X10469634Y-17446284D02*
X10469634Y-17484379D01*
X10545825Y-17446284D02*
X10545825Y-17484379D01*
X10841063Y-17722474D02*
X10831539Y-17712950D01*
X10831539Y-17712950D02*
X10812491Y-17684379D01*
X10812491Y-17684379D02*
X10802968Y-17665331D01*
X10802968Y-17665331D02*
X10793444Y-17636760D01*
X10793444Y-17636760D02*
X10783920Y-17589141D01*
X10783920Y-17589141D02*
X10783920Y-17551046D01*
X10783920Y-17551046D02*
X10793444Y-17503427D01*
X10793444Y-17503427D02*
X10802968Y-17474855D01*
X10802968Y-17474855D02*
X10812491Y-17455808D01*
X10812491Y-17455808D02*
X10831539Y-17427236D01*
X10831539Y-17427236D02*
X10841063Y-17417712D01*
X11002968Y-17512950D02*
X11002968Y-17646284D01*
X10955349Y-17436760D02*
X10907730Y-17579617D01*
X10907730Y-17579617D02*
X11031539Y-17579617D01*
X11260110Y-17646284D02*
X11260110Y-17446284D01*
X11345825Y-17646284D02*
X11345825Y-17541522D01*
X11345825Y-17541522D02*
X11336301Y-17522474D01*
X11336301Y-17522474D02*
X11317253Y-17512950D01*
X11317253Y-17512950D02*
X11288682Y-17512950D01*
X11288682Y-17512950D02*
X11269634Y-17522474D01*
X11269634Y-17522474D02*
X11260110Y-17531998D01*
X11469634Y-17646284D02*
X11450587Y-17636760D01*
X11450587Y-17636760D02*
X11441063Y-17627236D01*
X11441063Y-17627236D02*
X11431539Y-17608189D01*
X11431539Y-17608189D02*
X11431539Y-17551046D01*
X11431539Y-17551046D02*
X11441063Y-17531998D01*
X11441063Y-17531998D02*
X11450587Y-17522474D01*
X11450587Y-17522474D02*
X11469634Y-17512950D01*
X11469634Y-17512950D02*
X11498206Y-17512950D01*
X11498206Y-17512950D02*
X11517253Y-17522474D01*
X11517253Y-17522474D02*
X11526777Y-17531998D01*
X11526777Y-17531998D02*
X11536301Y-17551046D01*
X11536301Y-17551046D02*
X11536301Y-17608189D01*
X11536301Y-17608189D02*
X11526777Y-17627236D01*
X11526777Y-17627236D02*
X11517253Y-17636760D01*
X11517253Y-17636760D02*
X11498206Y-17646284D01*
X11498206Y-17646284D02*
X11469634Y-17646284D01*
X11650587Y-17646284D02*
X11631539Y-17636760D01*
X11631539Y-17636760D02*
X11622015Y-17617712D01*
X11622015Y-17617712D02*
X11622015Y-17446284D01*
X11802968Y-17636760D02*
X11783920Y-17646284D01*
X11783920Y-17646284D02*
X11745825Y-17646284D01*
X11745825Y-17646284D02*
X11726777Y-17636760D01*
X11726777Y-17636760D02*
X11717253Y-17617712D01*
X11717253Y-17617712D02*
X11717253Y-17541522D01*
X11717253Y-17541522D02*
X11726777Y-17522474D01*
X11726777Y-17522474D02*
X11745825Y-17512950D01*
X11745825Y-17512950D02*
X11783920Y-17512950D01*
X11783920Y-17512950D02*
X11802968Y-17522474D01*
X11802968Y-17522474D02*
X11812491Y-17541522D01*
X11812491Y-17541522D02*
X11812491Y-17560570D01*
X11812491Y-17560570D02*
X11717253Y-17579617D01*
X11888682Y-17636760D02*
X11907730Y-17646284D01*
X11907730Y-17646284D02*
X11945825Y-17646284D01*
X11945825Y-17646284D02*
X11964872Y-17636760D01*
X11964872Y-17636760D02*
X11974396Y-17617712D01*
X11974396Y-17617712D02*
X11974396Y-17608189D01*
X11974396Y-17608189D02*
X11964872Y-17589141D01*
X11964872Y-17589141D02*
X11945825Y-17579617D01*
X11945825Y-17579617D02*
X11917253Y-17579617D01*
X11917253Y-17579617D02*
X11898206Y-17570093D01*
X11898206Y-17570093D02*
X11888682Y-17551046D01*
X11888682Y-17551046D02*
X11888682Y-17541522D01*
X11888682Y-17541522D02*
X11898206Y-17522474D01*
X11898206Y-17522474D02*
X11917253Y-17512950D01*
X11917253Y-17512950D02*
X11945825Y-17512950D01*
X11945825Y-17512950D02*
X11964872Y-17522474D01*
X12041063Y-17722474D02*
X12050587Y-17712950D01*
X12050587Y-17712950D02*
X12069634Y-17684379D01*
X12069634Y-17684379D02*
X12079158Y-17665331D01*
X12079158Y-17665331D02*
X12088682Y-17636760D01*
X12088682Y-17636760D02*
X12098206Y-17589141D01*
X12098206Y-17589141D02*
X12098206Y-17551046D01*
X12098206Y-17551046D02*
X12088682Y-17503427D01*
X12088682Y-17503427D02*
X12079158Y-17474855D01*
X12079158Y-17474855D02*
X12069634Y-17455808D01*
X12069634Y-17455808D02*
X12050587Y-17427236D01*
X12050587Y-17427236D02*
X12041063Y-17417712D01*
X7266000Y-17818800D02*
G75*
G02*
X7066000Y-17818800I-100000J0D01*
G01*
X7066000Y-17818800D02*
G75*
G02*
X7266000Y-17818800I100000J0D01*
G01*
X7507729Y-17710284D02*
X7631539Y-17710284D01*
X7631539Y-17710284D02*
X7564872Y-17786474D01*
X7564872Y-17786474D02*
X7593443Y-17786474D01*
X7593443Y-17786474D02*
X7612491Y-17795998D01*
X7612491Y-17795998D02*
X7622015Y-17805522D01*
X7622015Y-17805522D02*
X7631539Y-17824570D01*
X7631539Y-17824570D02*
X7631539Y-17872189D01*
X7631539Y-17872189D02*
X7622015Y-17891236D01*
X7622015Y-17891236D02*
X7612491Y-17900760D01*
X7612491Y-17900760D02*
X7593443Y-17910284D01*
X7593443Y-17910284D02*
X7536301Y-17910284D01*
X7536301Y-17910284D02*
X7517253Y-17900760D01*
X7517253Y-17900760D02*
X7507729Y-17891236D01*
X7717253Y-17891236D02*
X7726777Y-17900760D01*
X7726777Y-17900760D02*
X7717253Y-17910284D01*
X7717253Y-17910284D02*
X7707729Y-17900760D01*
X7707729Y-17900760D02*
X7717253Y-17891236D01*
X7717253Y-17891236D02*
X7717253Y-17910284D01*
X7850586Y-17710284D02*
X7869634Y-17710284D01*
X7869634Y-17710284D02*
X7888682Y-17719808D01*
X7888682Y-17719808D02*
X7898205Y-17729331D01*
X7898205Y-17729331D02*
X7907729Y-17748379D01*
X7907729Y-17748379D02*
X7917253Y-17786474D01*
X7917253Y-17786474D02*
X7917253Y-17834093D01*
X7917253Y-17834093D02*
X7907729Y-17872189D01*
X7907729Y-17872189D02*
X7898205Y-17891236D01*
X7898205Y-17891236D02*
X7888682Y-17900760D01*
X7888682Y-17900760D02*
X7869634Y-17910284D01*
X7869634Y-17910284D02*
X7850586Y-17910284D01*
X7850586Y-17910284D02*
X7831539Y-17900760D01*
X7831539Y-17900760D02*
X7822015Y-17891236D01*
X7822015Y-17891236D02*
X7812491Y-17872189D01*
X7812491Y-17872189D02*
X7802967Y-17834093D01*
X7802967Y-17834093D02*
X7802967Y-17786474D01*
X7802967Y-17786474D02*
X7812491Y-17748379D01*
X7812491Y-17748379D02*
X7822015Y-17729331D01*
X7822015Y-17729331D02*
X7831539Y-17719808D01*
X7831539Y-17719808D02*
X7850586Y-17710284D01*
X8041062Y-17710284D02*
X8060110Y-17710284D01*
X8060110Y-17710284D02*
X8079158Y-17719808D01*
X8079158Y-17719808D02*
X8088682Y-17729331D01*
X8088682Y-17729331D02*
X8098205Y-17748379D01*
X8098205Y-17748379D02*
X8107729Y-17786474D01*
X8107729Y-17786474D02*
X8107729Y-17834093D01*
X8107729Y-17834093D02*
X8098205Y-17872189D01*
X8098205Y-17872189D02*
X8088682Y-17891236D01*
X8088682Y-17891236D02*
X8079158Y-17900760D01*
X8079158Y-17900760D02*
X8060110Y-17910284D01*
X8060110Y-17910284D02*
X8041062Y-17910284D01*
X8041062Y-17910284D02*
X8022015Y-17900760D01*
X8022015Y-17900760D02*
X8012491Y-17891236D01*
X8012491Y-17891236D02*
X8002967Y-17872189D01*
X8002967Y-17872189D02*
X7993443Y-17834093D01*
X7993443Y-17834093D02*
X7993443Y-17786474D01*
X7993443Y-17786474D02*
X8002967Y-17748379D01*
X8002967Y-17748379D02*
X8012491Y-17729331D01*
X8012491Y-17729331D02*
X8022015Y-17719808D01*
X8022015Y-17719808D02*
X8041062Y-17710284D01*
X8231539Y-17710284D02*
X8250586Y-17710284D01*
X8250586Y-17710284D02*
X8269634Y-17719808D01*
X8269634Y-17719808D02*
X8279158Y-17729331D01*
X8279158Y-17729331D02*
X8288682Y-17748379D01*
X8288682Y-17748379D02*
X8298205Y-17786474D01*
X8298205Y-17786474D02*
X8298205Y-17834093D01*
X8298205Y-17834093D02*
X8288682Y-17872189D01*
X8288682Y-17872189D02*
X8279158Y-17891236D01*
X8279158Y-17891236D02*
X8269634Y-17900760D01*
X8269634Y-17900760D02*
X8250586Y-17910284D01*
X8250586Y-17910284D02*
X8231539Y-17910284D01*
X8231539Y-17910284D02*
X8212491Y-17900760D01*
X8212491Y-17900760D02*
X8202967Y-17891236D01*
X8202967Y-17891236D02*
X8193443Y-17872189D01*
X8193443Y-17872189D02*
X8183920Y-17834093D01*
X8183920Y-17834093D02*
X8183920Y-17786474D01*
X8183920Y-17786474D02*
X8193443Y-17748379D01*
X8193443Y-17748379D02*
X8202967Y-17729331D01*
X8202967Y-17729331D02*
X8212491Y-17719808D01*
X8212491Y-17719808D02*
X8231539Y-17710284D01*
X8383920Y-17910284D02*
X8383920Y-17776950D01*
X8383920Y-17795998D02*
X8393444Y-17786474D01*
X8393444Y-17786474D02*
X8412491Y-17776950D01*
X8412491Y-17776950D02*
X8441063Y-17776950D01*
X8441063Y-17776950D02*
X8460110Y-17786474D01*
X8460110Y-17786474D02*
X8469634Y-17805522D01*
X8469634Y-17805522D02*
X8469634Y-17910284D01*
X8469634Y-17805522D02*
X8479158Y-17786474D01*
X8479158Y-17786474D02*
X8498205Y-17776950D01*
X8498205Y-17776950D02*
X8526777Y-17776950D01*
X8526777Y-17776950D02*
X8545825Y-17786474D01*
X8545825Y-17786474D02*
X8555348Y-17805522D01*
X8555348Y-17805522D02*
X8555348Y-17910284D01*
X8650586Y-17910284D02*
X8650586Y-17776950D01*
X8650586Y-17795998D02*
X8660110Y-17786474D01*
X8660110Y-17786474D02*
X8679158Y-17776950D01*
X8679158Y-17776950D02*
X8707729Y-17776950D01*
X8707729Y-17776950D02*
X8726777Y-17786474D01*
X8726777Y-17786474D02*
X8736301Y-17805522D01*
X8736301Y-17805522D02*
X8736301Y-17910284D01*
X8736301Y-17805522D02*
X8745825Y-17786474D01*
X8745825Y-17786474D02*
X8764872Y-17776950D01*
X8764872Y-17776950D02*
X8793444Y-17776950D01*
X8793444Y-17776950D02*
X8812491Y-17786474D01*
X8812491Y-17786474D02*
X8822015Y-17805522D01*
X8822015Y-17805522D02*
X8822015Y-17910284D01*
X9212491Y-17700760D02*
X9041063Y-17957903D01*
X9469634Y-17710284D02*
X9488682Y-17710284D01*
X9488682Y-17710284D02*
X9507729Y-17719808D01*
X9507729Y-17719808D02*
X9517253Y-17729331D01*
X9517253Y-17729331D02*
X9526777Y-17748379D01*
X9526777Y-17748379D02*
X9536301Y-17786474D01*
X9536301Y-17786474D02*
X9536301Y-17834093D01*
X9536301Y-17834093D02*
X9526777Y-17872189D01*
X9526777Y-17872189D02*
X9517253Y-17891236D01*
X9517253Y-17891236D02*
X9507729Y-17900760D01*
X9507729Y-17900760D02*
X9488682Y-17910284D01*
X9488682Y-17910284D02*
X9469634Y-17910284D01*
X9469634Y-17910284D02*
X9450587Y-17900760D01*
X9450587Y-17900760D02*
X9441063Y-17891236D01*
X9441063Y-17891236D02*
X9431539Y-17872189D01*
X9431539Y-17872189D02*
X9422015Y-17834093D01*
X9422015Y-17834093D02*
X9422015Y-17786474D01*
X9422015Y-17786474D02*
X9431539Y-17748379D01*
X9431539Y-17748379D02*
X9441063Y-17729331D01*
X9441063Y-17729331D02*
X9450587Y-17719808D01*
X9450587Y-17719808D02*
X9469634Y-17710284D01*
X9622015Y-17891236D02*
X9631539Y-17900760D01*
X9631539Y-17900760D02*
X9622015Y-17910284D01*
X9622015Y-17910284D02*
X9612491Y-17900760D01*
X9612491Y-17900760D02*
X9622015Y-17891236D01*
X9622015Y-17891236D02*
X9622015Y-17910284D01*
X9822015Y-17910284D02*
X9707729Y-17910284D01*
X9764872Y-17910284D02*
X9764872Y-17710284D01*
X9764872Y-17710284D02*
X9745825Y-17738855D01*
X9745825Y-17738855D02*
X9726777Y-17757903D01*
X9726777Y-17757903D02*
X9707729Y-17767427D01*
X10012491Y-17910284D02*
X9898206Y-17910284D01*
X9955348Y-17910284D02*
X9955348Y-17710284D01*
X9955348Y-17710284D02*
X9936301Y-17738855D01*
X9936301Y-17738855D02*
X9917253Y-17757903D01*
X9917253Y-17757903D02*
X9898206Y-17767427D01*
X10126777Y-17795998D02*
X10107729Y-17786474D01*
X10107729Y-17786474D02*
X10098206Y-17776950D01*
X10098206Y-17776950D02*
X10088682Y-17757903D01*
X10088682Y-17757903D02*
X10088682Y-17748379D01*
X10088682Y-17748379D02*
X10098206Y-17729331D01*
X10098206Y-17729331D02*
X10107729Y-17719808D01*
X10107729Y-17719808D02*
X10126777Y-17710284D01*
X10126777Y-17710284D02*
X10164872Y-17710284D01*
X10164872Y-17710284D02*
X10183920Y-17719808D01*
X10183920Y-17719808D02*
X10193444Y-17729331D01*
X10193444Y-17729331D02*
X10202968Y-17748379D01*
X10202968Y-17748379D02*
X10202968Y-17757903D01*
X10202968Y-17757903D02*
X10193444Y-17776950D01*
X10193444Y-17776950D02*
X10183920Y-17786474D01*
X10183920Y-17786474D02*
X10164872Y-17795998D01*
X10164872Y-17795998D02*
X10126777Y-17795998D01*
X10126777Y-17795998D02*
X10107729Y-17805522D01*
X10107729Y-17805522D02*
X10098206Y-17815046D01*
X10098206Y-17815046D02*
X10088682Y-17834093D01*
X10088682Y-17834093D02*
X10088682Y-17872189D01*
X10088682Y-17872189D02*
X10098206Y-17891236D01*
X10098206Y-17891236D02*
X10107729Y-17900760D01*
X10107729Y-17900760D02*
X10126777Y-17910284D01*
X10126777Y-17910284D02*
X10164872Y-17910284D01*
X10164872Y-17910284D02*
X10183920Y-17900760D01*
X10183920Y-17900760D02*
X10193444Y-17891236D01*
X10193444Y-17891236D02*
X10202968Y-17872189D01*
X10202968Y-17872189D02*
X10202968Y-17834093D01*
X10202968Y-17834093D02*
X10193444Y-17815046D01*
X10193444Y-17815046D02*
X10183920Y-17805522D01*
X10183920Y-17805522D02*
X10164872Y-17795998D01*
X10393444Y-17910284D02*
X10279158Y-17910284D01*
X10336301Y-17910284D02*
X10336301Y-17710284D01*
X10336301Y-17710284D02*
X10317253Y-17738855D01*
X10317253Y-17738855D02*
X10298206Y-17757903D01*
X10298206Y-17757903D02*
X10279158Y-17767427D01*
X10469634Y-17710284D02*
X10469634Y-17748379D01*
X10545825Y-17710284D02*
X10545825Y-17748379D01*
X10841063Y-17986474D02*
X10831539Y-17976950D01*
X10831539Y-17976950D02*
X10812491Y-17948379D01*
X10812491Y-17948379D02*
X10802968Y-17929331D01*
X10802968Y-17929331D02*
X10793444Y-17900760D01*
X10793444Y-17900760D02*
X10783920Y-17853141D01*
X10783920Y-17853141D02*
X10783920Y-17815046D01*
X10783920Y-17815046D02*
X10793444Y-17767427D01*
X10793444Y-17767427D02*
X10802968Y-17738855D01*
X10802968Y-17738855D02*
X10812491Y-17719808D01*
X10812491Y-17719808D02*
X10831539Y-17691236D01*
X10831539Y-17691236D02*
X10841063Y-17681712D01*
X11002968Y-17776950D02*
X11002968Y-17910284D01*
X10955349Y-17700760D02*
X10907730Y-17843617D01*
X10907730Y-17843617D02*
X11031539Y-17843617D01*
X11260110Y-17910284D02*
X11260110Y-17710284D01*
X11345825Y-17910284D02*
X11345825Y-17805522D01*
X11345825Y-17805522D02*
X11336301Y-17786474D01*
X11336301Y-17786474D02*
X11317253Y-17776950D01*
X11317253Y-17776950D02*
X11288682Y-17776950D01*
X11288682Y-17776950D02*
X11269634Y-17786474D01*
X11269634Y-17786474D02*
X11260110Y-17795998D01*
X11469634Y-17910284D02*
X11450587Y-17900760D01*
X11450587Y-17900760D02*
X11441063Y-17891236D01*
X11441063Y-17891236D02*
X11431539Y-17872189D01*
X11431539Y-17872189D02*
X11431539Y-17815046D01*
X11431539Y-17815046D02*
X11441063Y-17795998D01*
X11441063Y-17795998D02*
X11450587Y-17786474D01*
X11450587Y-17786474D02*
X11469634Y-17776950D01*
X11469634Y-17776950D02*
X11498206Y-17776950D01*
X11498206Y-17776950D02*
X11517253Y-17786474D01*
X11517253Y-17786474D02*
X11526777Y-17795998D01*
X11526777Y-17795998D02*
X11536301Y-17815046D01*
X11536301Y-17815046D02*
X11536301Y-17872189D01*
X11536301Y-17872189D02*
X11526777Y-17891236D01*
X11526777Y-17891236D02*
X11517253Y-17900760D01*
X11517253Y-17900760D02*
X11498206Y-17910284D01*
X11498206Y-17910284D02*
X11469634Y-17910284D01*
X11650587Y-17910284D02*
X11631539Y-17900760D01*
X11631539Y-17900760D02*
X11622015Y-17881712D01*
X11622015Y-17881712D02*
X11622015Y-17710284D01*
X11802968Y-17900760D02*
X11783920Y-17910284D01*
X11783920Y-17910284D02*
X11745825Y-17910284D01*
X11745825Y-17910284D02*
X11726777Y-17900760D01*
X11726777Y-17900760D02*
X11717253Y-17881712D01*
X11717253Y-17881712D02*
X11717253Y-17805522D01*
X11717253Y-17805522D02*
X11726777Y-17786474D01*
X11726777Y-17786474D02*
X11745825Y-17776950D01*
X11745825Y-17776950D02*
X11783920Y-17776950D01*
X11783920Y-17776950D02*
X11802968Y-17786474D01*
X11802968Y-17786474D02*
X11812491Y-17805522D01*
X11812491Y-17805522D02*
X11812491Y-17824570D01*
X11812491Y-17824570D02*
X11717253Y-17843617D01*
X11888682Y-17900760D02*
X11907730Y-17910284D01*
X11907730Y-17910284D02*
X11945825Y-17910284D01*
X11945825Y-17910284D02*
X11964872Y-17900760D01*
X11964872Y-17900760D02*
X11974396Y-17881712D01*
X11974396Y-17881712D02*
X11974396Y-17872189D01*
X11974396Y-17872189D02*
X11964872Y-17853141D01*
X11964872Y-17853141D02*
X11945825Y-17843617D01*
X11945825Y-17843617D02*
X11917253Y-17843617D01*
X11917253Y-17843617D02*
X11898206Y-17834093D01*
X11898206Y-17834093D02*
X11888682Y-17815046D01*
X11888682Y-17815046D02*
X11888682Y-17805522D01*
X11888682Y-17805522D02*
X11898206Y-17786474D01*
X11898206Y-17786474D02*
X11917253Y-17776950D01*
X11917253Y-17776950D02*
X11945825Y-17776950D01*
X11945825Y-17776950D02*
X11964872Y-17786474D01*
X12041063Y-17986474D02*
X12050587Y-17976950D01*
X12050587Y-17976950D02*
X12069634Y-17948379D01*
X12069634Y-17948379D02*
X12079158Y-17929331D01*
X12079158Y-17929331D02*
X12088682Y-17900760D01*
X12088682Y-17900760D02*
X12098206Y-17853141D01*
X12098206Y-17853141D02*
X12098206Y-17815046D01*
X12098206Y-17815046D02*
X12088682Y-17767427D01*
X12088682Y-17767427D02*
X12079158Y-17738855D01*
X12079158Y-17738855D02*
X12069634Y-17719808D01*
X12069634Y-17719808D02*
X12050587Y-17691236D01*
X12050587Y-17691236D02*
X12041063Y-17681712D01*
M02*
