G04 #@! TF.GenerationSoftware,KiCad,Pcbnew,8.0.5*
G04 #@! TF.CreationDate,2024-09-26T09:52:47+02:00*
G04 #@! TF.ProjectId,BL-R8812AF1 mount,424c2d52-3838-4313-9241-4631206d6f75,rev?*
G04 #@! TF.SameCoordinates,Original*
G04 #@! TF.FileFunction,Soldermask,Top*
G04 #@! TF.FilePolarity,Negative*
%FSLAX46Y46*%
G04 Gerber Fmt 4.6, Leading zero omitted, Abs format (unit mm)*
G04 Created by KiCad (PCBNEW 8.0.5) date 2024-09-26 09:52:47*
%MOMM*%
%LPD*%
G01*
G04 APERTURE LIST*
G04 Aperture macros list*
%AMRoundRect*
0 Rectangle with rounded corners*
0 $1 Rounding radius*
0 $2 $3 $4 $5 $6 $7 $8 $9 X,Y pos of 4 corners*
0 Add a 4 corners polygon primitive as box body*
4,1,4,$2,$3,$4,$5,$6,$7,$8,$9,$2,$3,0*
0 Add four circle primitives for the rounded corners*
1,1,$1+$1,$2,$3*
1,1,$1+$1,$4,$5*
1,1,$1+$1,$6,$7*
1,1,$1+$1,$8,$9*
0 Add four rect primitives between the rounded corners*
20,1,$1+$1,$2,$3,$4,$5,0*
20,1,$1+$1,$4,$5,$6,$7,0*
20,1,$1+$1,$6,$7,$8,$9,0*
20,1,$1+$1,$8,$9,$2,$3,0*%
%AMHorizOval*
0 Thick line with rounded ends*
0 $1 width*
0 $2 $3 position (X,Y) of the first rounded end (center of the circle)*
0 $4 $5 position (X,Y) of the second rounded end (center of the circle)*
0 Add line between two ends*
20,1,$1,$2,$3,$4,$5,0*
0 Add two circle primitives to create the rounded ends*
1,1,$1,$2,$3*
1,1,$1,$4,$5*%
G04 Aperture macros list end*
%ADD10RoundRect,0.237500X0.250000X0.237500X-0.250000X0.237500X-0.250000X-0.237500X0.250000X-0.237500X0*%
%ADD11RoundRect,0.237500X-0.250000X-0.237500X0.250000X-0.237500X0.250000X0.237500X-0.250000X0.237500X0*%
%ADD12RoundRect,0.237500X-0.237500X0.300000X-0.237500X-0.300000X0.237500X-0.300000X0.237500X0.300000X0*%
%ADD13RoundRect,0.237500X0.287500X0.237500X-0.287500X0.237500X-0.287500X-0.237500X0.287500X-0.237500X0*%
%ADD14RoundRect,0.237500X-0.287500X-0.237500X0.287500X-0.237500X0.287500X0.237500X-0.287500X0.237500X0*%
%ADD15C,4.200000*%
%ADD16C,4.000000*%
%ADD17C,1.700000*%
%ADD18HorizOval,1.700000X0.000000X0.000000X0.000000X0.000000X0*%
%ADD19R,1.549400X0.900800*%
%ADD20R,1.549400X3.200400*%
%ADD21RoundRect,0.275000X0.825000X0.275000X-0.825000X0.275000X-0.825000X-0.275000X0.825000X-0.275000X0*%
G04 APERTURE END LIST*
D10*
X87550000Y-159639000D03*
X85725000Y-159639000D03*
D11*
X97870000Y-159639000D03*
X99695000Y-159639000D03*
D12*
X97282000Y-136705000D03*
X97282000Y-138430000D03*
X95504000Y-136705000D03*
X95504000Y-138430000D03*
X93726000Y-136678500D03*
X93726000Y-138403500D03*
D13*
X91426000Y-159639000D03*
X89676000Y-159639000D03*
D14*
X93994000Y-159639000D03*
X95744000Y-159639000D03*
D15*
X111094776Y-149098000D03*
D16*
X94201000Y-148938000D03*
X99601000Y-148938000D03*
X94201000Y-154338000D03*
X99601000Y-154338000D03*
D15*
X74325224Y-149098000D03*
X92710000Y-130713224D03*
X92710000Y-167482776D03*
D17*
X97499898Y-133059898D03*
D18*
X99295949Y-134855949D03*
X101092000Y-136652000D03*
X102888052Y-138448052D03*
D19*
X91795600Y-138825000D03*
X91795600Y-136525000D03*
X91795600Y-134225000D03*
D20*
X85344000Y-136525000D03*
D21*
X105710000Y-144098000D03*
X105710000Y-146098000D03*
X105710000Y-148098000D03*
X105710000Y-150098000D03*
X105710000Y-152098000D03*
X105710000Y-154098000D03*
X78710000Y-154748000D03*
X78710000Y-153248000D03*
X78710000Y-151748000D03*
X78710000Y-146448000D03*
X78710000Y-144948000D03*
X78710000Y-143448000D03*
M02*
