G04 #@! TF.GenerationSoftware,KiCad,Pcbnew,8.0.5*
G04 #@! TF.CreationDate,2024-09-26T09:52:47+02:00*
G04 #@! TF.ProjectId,BL-R8812AF1 mount,424c2d52-3838-4313-9241-4631206d6f75,rev?*
G04 #@! TF.SameCoordinates,Original*
G04 #@! TF.FileFunction,Copper,L2,Bot*
G04 #@! TF.FilePolarity,Positive*
%FSLAX46Y46*%
G04 Gerber Fmt 4.6, Leading zero omitted, Abs format (unit mm)*
G04 Created by KiCad (PCBNEW 8.0.5) date 2024-09-26 09:52:47*
%MOMM*%
%LPD*%
G01*
G04 APERTURE LIST*
G04 Aperture macros list*
%AMHorizOval*
0 Thick line with rounded ends*
0 $1 width*
0 $2 $3 position (X,Y) of the first rounded end (center of the circle)*
0 $4 $5 position (X,Y) of the second rounded end (center of the circle)*
0 Add line between two ends*
20,1,$1,$2,$3,$4,$5,0*
0 Add two circle primitives to create the rounded ends*
1,1,$1,$2,$3*
1,1,$1,$4,$5*%
G04 Aperture macros list end*
G04 #@! TA.AperFunction,ComponentPad*
%ADD10C,4.000000*%
G04 #@! TD*
G04 #@! TA.AperFunction,ComponentPad*
%ADD11C,1.700000*%
G04 #@! TD*
G04 #@! TA.AperFunction,ComponentPad*
%ADD12HorizOval,1.700000X0.000000X0.000000X0.000000X0.000000X0*%
G04 #@! TD*
G04 APERTURE END LIST*
D10*
X94201000Y-148938000D03*
X99601000Y-148938000D03*
X94201000Y-154338000D03*
X99601000Y-154338000D03*
D11*
X97499898Y-133059898D03*
D12*
X99295949Y-134855949D03*
X101092000Y-136652000D03*
X102888052Y-138448052D03*
G04 #@! TA.AperFunction,Conductor*
G36*
X90237228Y-129618185D02*
G01*
X90282983Y-129670989D01*
X90292927Y-129740147D01*
X90287232Y-129763448D01*
X90231776Y-129921933D01*
X90207196Y-129992181D01*
X90142202Y-130276938D01*
X90142199Y-130276952D01*
X90109500Y-130567176D01*
X90109500Y-130859271D01*
X90142199Y-131149495D01*
X90142202Y-131149509D01*
X90207196Y-131434268D01*
X90207197Y-131434270D01*
X90303665Y-131709962D01*
X90430393Y-131973114D01*
X90430395Y-131973117D01*
X90585792Y-132220430D01*
X90721652Y-132390793D01*
X90754720Y-132432260D01*
X90767902Y-132448789D01*
X90974435Y-132655322D01*
X91202794Y-132837432D01*
X91450107Y-132992829D01*
X91713263Y-133119559D01*
X91988955Y-133216027D01*
X92273714Y-133281022D01*
X92273723Y-133281023D01*
X92273728Y-133281024D01*
X92467210Y-133302823D01*
X92563953Y-133313723D01*
X92563956Y-133313724D01*
X92563959Y-133313724D01*
X92856044Y-133313724D01*
X92856045Y-133313723D01*
X93004371Y-133297011D01*
X93146271Y-133281024D01*
X93146274Y-133281023D01*
X93146286Y-133281022D01*
X93431045Y-133216027D01*
X93706737Y-133119559D01*
X93969893Y-132992829D01*
X94217206Y-132837432D01*
X94445565Y-132655322D01*
X94652098Y-132448789D01*
X94834208Y-132220430D01*
X94989605Y-131973117D01*
X95116335Y-131709961D01*
X95212803Y-131434269D01*
X95277798Y-131149510D01*
X95310500Y-130859265D01*
X95310500Y-130567183D01*
X95277798Y-130276938D01*
X95212803Y-129992179D01*
X95132768Y-129763452D01*
X95129208Y-129693676D01*
X95163937Y-129633048D01*
X95225930Y-129600821D01*
X95249811Y-129598500D01*
X95451324Y-129598500D01*
X95518363Y-129618185D01*
X95539005Y-129634819D01*
X97503967Y-131599781D01*
X97537452Y-131661104D01*
X97532468Y-131730796D01*
X97490596Y-131786729D01*
X97427094Y-131810990D01*
X97281921Y-131823691D01*
X97281918Y-131823691D01*
X97070575Y-131880320D01*
X97070566Y-131880324D01*
X96872259Y-131972796D01*
X96872255Y-131972798D01*
X96693019Y-132098300D01*
X96538300Y-132253019D01*
X96412798Y-132432255D01*
X96412796Y-132432259D01*
X96320324Y-132630566D01*
X96320320Y-132630575D01*
X96263691Y-132841918D01*
X96263691Y-132841922D01*
X96244621Y-133059895D01*
X96244621Y-133059900D01*
X96263691Y-133277873D01*
X96263691Y-133277877D01*
X96320320Y-133489220D01*
X96320322Y-133489224D01*
X96320323Y-133489228D01*
X96366559Y-133588382D01*
X96412795Y-133687536D01*
X96412796Y-133687537D01*
X96538300Y-133866775D01*
X96693021Y-134021496D01*
X96872259Y-134147000D01*
X97070568Y-134239473D01*
X97281921Y-134296105D01*
X97464824Y-134312106D01*
X97499896Y-134315175D01*
X97499898Y-134315175D01*
X97499900Y-134315175D01*
X97528152Y-134312703D01*
X97717875Y-134296105D01*
X97929228Y-134239473D01*
X98127537Y-134147000D01*
X98306775Y-134021496D01*
X98461496Y-133866775D01*
X98587000Y-133687537D01*
X98679473Y-133489228D01*
X98736105Y-133277875D01*
X98748805Y-133132699D01*
X98774257Y-133067633D01*
X98830848Y-133026655D01*
X98900610Y-133022776D01*
X98960014Y-133055828D01*
X101096069Y-135191883D01*
X101129554Y-135253206D01*
X101124570Y-135322898D01*
X101082698Y-135378831D01*
X101019196Y-135403092D01*
X100874023Y-135415793D01*
X100874020Y-135415793D01*
X100662677Y-135472422D01*
X100662668Y-135472426D01*
X100464361Y-135564898D01*
X100464357Y-135564900D01*
X100285121Y-135690402D01*
X100130402Y-135845121D01*
X100004900Y-136024357D01*
X100004898Y-136024361D01*
X99912426Y-136222668D01*
X99912422Y-136222677D01*
X99855793Y-136434020D01*
X99855793Y-136434024D01*
X99836723Y-136651997D01*
X99836723Y-136652002D01*
X99855793Y-136869975D01*
X99855793Y-136869979D01*
X99912422Y-137081322D01*
X99912424Y-137081326D01*
X99912425Y-137081330D01*
X99958661Y-137180484D01*
X100004897Y-137279638D01*
X100004898Y-137279639D01*
X100130402Y-137458877D01*
X100285123Y-137613598D01*
X100464361Y-137739102D01*
X100662670Y-137831575D01*
X100874023Y-137888207D01*
X101056926Y-137904208D01*
X101091998Y-137907277D01*
X101092000Y-137907277D01*
X101092002Y-137907277D01*
X101120254Y-137904805D01*
X101309977Y-137888207D01*
X101521330Y-137831575D01*
X101563228Y-137812037D01*
X101632303Y-137801545D01*
X101696087Y-137830063D01*
X101734328Y-137888539D01*
X101734883Y-137958407D01*
X101728015Y-137976823D01*
X101708476Y-138018724D01*
X101708474Y-138018729D01*
X101651845Y-138230072D01*
X101651845Y-138230076D01*
X101632775Y-138448049D01*
X101632775Y-138448054D01*
X101651845Y-138666027D01*
X101651845Y-138666031D01*
X101708474Y-138877374D01*
X101708476Y-138877378D01*
X101708477Y-138877382D01*
X101754713Y-138976536D01*
X101800949Y-139075690D01*
X101800950Y-139075691D01*
X101926454Y-139254929D01*
X102081175Y-139409650D01*
X102260413Y-139535154D01*
X102458722Y-139627627D01*
X102670075Y-139684259D01*
X102852978Y-139700260D01*
X102888050Y-139703329D01*
X102888052Y-139703329D01*
X102888054Y-139703329D01*
X102916306Y-139700857D01*
X103106029Y-139684259D01*
X103317382Y-139627627D01*
X103515691Y-139535154D01*
X103694929Y-139409650D01*
X103849650Y-139254929D01*
X103975154Y-139075691D01*
X104067627Y-138877382D01*
X104124259Y-138666029D01*
X104136959Y-138520853D01*
X104162411Y-138455787D01*
X104219002Y-138414809D01*
X104288764Y-138410930D01*
X104348168Y-138443982D01*
X112173181Y-146268995D01*
X112206666Y-146330318D01*
X112209500Y-146356676D01*
X112209500Y-146558188D01*
X112189815Y-146625227D01*
X112137011Y-146670982D01*
X112067853Y-146680926D01*
X112044546Y-146675230D01*
X111815822Y-146595197D01*
X111815820Y-146595196D01*
X111596056Y-146545036D01*
X111531062Y-146530202D01*
X111531059Y-146530201D01*
X111531047Y-146530199D01*
X111240823Y-146497500D01*
X111240817Y-146497500D01*
X110948735Y-146497500D01*
X110948728Y-146497500D01*
X110658504Y-146530199D01*
X110658490Y-146530202D01*
X110373731Y-146595196D01*
X110373729Y-146595197D01*
X110098037Y-146691665D01*
X109834885Y-146818393D01*
X109587571Y-146973791D01*
X109359211Y-147155901D01*
X109152677Y-147362435D01*
X108970567Y-147590795D01*
X108815169Y-147838109D01*
X108688441Y-148101261D01*
X108591973Y-148376953D01*
X108591972Y-148376955D01*
X108526978Y-148661714D01*
X108526975Y-148661728D01*
X108494276Y-148951952D01*
X108494276Y-149244047D01*
X108526975Y-149534271D01*
X108526978Y-149534285D01*
X108591972Y-149819044D01*
X108591973Y-149819046D01*
X108688441Y-150094738D01*
X108815169Y-150357890D01*
X108815171Y-150357893D01*
X108970568Y-150605206D01*
X109152678Y-150833565D01*
X109359211Y-151040098D01*
X109587570Y-151222208D01*
X109834883Y-151377605D01*
X110098039Y-151504335D01*
X110373731Y-151600803D01*
X110658490Y-151665798D01*
X110658499Y-151665799D01*
X110658504Y-151665800D01*
X110851986Y-151687599D01*
X110948729Y-151698499D01*
X110948732Y-151698500D01*
X110948735Y-151698500D01*
X111240820Y-151698500D01*
X111240821Y-151698499D01*
X111389147Y-151681787D01*
X111531047Y-151665800D01*
X111531050Y-151665799D01*
X111531062Y-151665798D01*
X111815821Y-151600803D01*
X112044547Y-151520768D01*
X112114324Y-151517208D01*
X112174952Y-151551937D01*
X112207179Y-151613930D01*
X112209500Y-151637811D01*
X112209500Y-151839324D01*
X112189815Y-151906363D01*
X112173181Y-151927005D01*
X95539005Y-168561181D01*
X95477682Y-168594666D01*
X95451324Y-168597500D01*
X95249811Y-168597500D01*
X95182772Y-168577815D01*
X95137017Y-168525011D01*
X95127073Y-168455853D01*
X95132767Y-168432551D01*
X95212803Y-168203821D01*
X95277798Y-167919062D01*
X95310500Y-167628817D01*
X95310500Y-167336735D01*
X95277798Y-167046490D01*
X95212803Y-166761731D01*
X95116335Y-166486039D01*
X94989605Y-166222883D01*
X94834208Y-165975570D01*
X94652098Y-165747211D01*
X94445565Y-165540678D01*
X94217206Y-165358568D01*
X93969893Y-165203171D01*
X93969890Y-165203169D01*
X93706738Y-165076441D01*
X93431046Y-164979973D01*
X93431044Y-164979972D01*
X93211280Y-164929812D01*
X93146286Y-164914978D01*
X93146283Y-164914977D01*
X93146271Y-164914975D01*
X92856047Y-164882276D01*
X92856041Y-164882276D01*
X92563959Y-164882276D01*
X92563952Y-164882276D01*
X92273728Y-164914975D01*
X92273714Y-164914978D01*
X91988955Y-164979972D01*
X91988953Y-164979973D01*
X91713261Y-165076441D01*
X91450109Y-165203169D01*
X91202795Y-165358567D01*
X90974435Y-165540677D01*
X90767901Y-165747211D01*
X90585791Y-165975571D01*
X90430393Y-166222885D01*
X90303665Y-166486037D01*
X90207197Y-166761729D01*
X90207196Y-166761731D01*
X90142202Y-167046490D01*
X90142199Y-167046504D01*
X90109500Y-167336728D01*
X90109500Y-167628823D01*
X90142199Y-167919047D01*
X90142201Y-167919059D01*
X90142202Y-167919062D01*
X90207197Y-168203821D01*
X90287231Y-168432547D01*
X90290792Y-168502324D01*
X90256063Y-168562952D01*
X90194070Y-168595179D01*
X90170189Y-168597500D01*
X89968676Y-168597500D01*
X89901637Y-168577815D01*
X89880995Y-168561181D01*
X73246819Y-151927005D01*
X73213334Y-151865682D01*
X73210500Y-151839324D01*
X73210500Y-151637811D01*
X73230185Y-151570772D01*
X73282989Y-151525017D01*
X73352147Y-151515073D01*
X73375448Y-151520767D01*
X73604179Y-151600803D01*
X73888938Y-151665798D01*
X73888947Y-151665799D01*
X73888952Y-151665800D01*
X74082434Y-151687599D01*
X74179177Y-151698499D01*
X74179180Y-151698500D01*
X74179183Y-151698500D01*
X74471268Y-151698500D01*
X74471269Y-151698499D01*
X74619595Y-151681787D01*
X74761495Y-151665800D01*
X74761498Y-151665799D01*
X74761510Y-151665798D01*
X75046269Y-151600803D01*
X75321961Y-151504335D01*
X75585117Y-151377605D01*
X75832430Y-151222208D01*
X76060789Y-151040098D01*
X76267322Y-150833565D01*
X76449432Y-150605206D01*
X76604829Y-150357893D01*
X76731559Y-150094737D01*
X76828027Y-149819045D01*
X76893022Y-149534286D01*
X76925724Y-149244041D01*
X76925724Y-148951959D01*
X76893022Y-148661714D01*
X76828027Y-148376955D01*
X76731559Y-148101263D01*
X76604829Y-147838107D01*
X76449432Y-147590794D01*
X76267322Y-147362435D01*
X76060789Y-147155902D01*
X75832430Y-146973792D01*
X75585117Y-146818395D01*
X75585114Y-146818393D01*
X75321962Y-146691665D01*
X75046270Y-146595197D01*
X75046268Y-146595196D01*
X74826504Y-146545036D01*
X74761510Y-146530202D01*
X74761507Y-146530201D01*
X74761495Y-146530199D01*
X74471271Y-146497500D01*
X74471265Y-146497500D01*
X74179183Y-146497500D01*
X74179176Y-146497500D01*
X73888952Y-146530199D01*
X73888938Y-146530202D01*
X73604179Y-146595196D01*
X73604177Y-146595197D01*
X73375454Y-146675230D01*
X73305675Y-146678791D01*
X73245048Y-146644062D01*
X73212821Y-146582068D01*
X73210500Y-146558188D01*
X73210500Y-146356676D01*
X73230185Y-146289637D01*
X73246819Y-146268995D01*
X89880995Y-129634819D01*
X89942318Y-129601334D01*
X89968676Y-129598500D01*
X90170189Y-129598500D01*
X90237228Y-129618185D01*
G37*
G04 #@! TD.AperFunction*
G04 #@! TA.AperFunction,NonConductor*
G36*
X102552116Y-136647930D02*
G01*
X102892121Y-136987935D01*
X102925606Y-137049258D01*
X102920622Y-137118950D01*
X102878750Y-137174883D01*
X102815248Y-137199144D01*
X102670075Y-137211845D01*
X102670072Y-137211845D01*
X102458729Y-137268474D01*
X102458724Y-137268476D01*
X102416823Y-137288015D01*
X102347745Y-137298506D01*
X102283961Y-137269985D01*
X102245722Y-137211509D01*
X102245169Y-137141641D01*
X102252033Y-137123236D01*
X102271575Y-137081330D01*
X102328207Y-136869977D01*
X102340907Y-136724801D01*
X102366359Y-136659735D01*
X102422950Y-136618757D01*
X102492712Y-136614878D01*
X102552116Y-136647930D01*
G37*
G04 #@! TD.AperFunction*
M02*
