G04 #@! TF.GenerationSoftware,KiCad,Pcbnew,8.0.5*
G04 #@! TF.CreationDate,2024-09-26T09:52:47+02:00*
G04 #@! TF.ProjectId,BL-R8812AF1 mount,424c2d52-3838-4313-9241-4631206d6f75,rev?*
G04 #@! TF.SameCoordinates,Original*
G04 #@! TF.FileFunction,Legend,Top*
G04 #@! TF.FilePolarity,Positive*
%FSLAX46Y46*%
G04 Gerber Fmt 4.6, Leading zero omitted, Abs format (unit mm)*
G04 Created by KiCad (PCBNEW 8.0.5) date 2024-09-26 09:52:47*
%MOMM*%
%LPD*%
G01*
G04 APERTURE LIST*
G04 Aperture macros list*
%AMRoundRect*
0 Rectangle with rounded corners*
0 $1 Rounding radius*
0 $2 $3 $4 $5 $6 $7 $8 $9 X,Y pos of 4 corners*
0 Add a 4 corners polygon primitive as box body*
4,1,4,$2,$3,$4,$5,$6,$7,$8,$9,$2,$3,0*
0 Add four circle primitives for the rounded corners*
1,1,$1+$1,$2,$3*
1,1,$1+$1,$4,$5*
1,1,$1+$1,$6,$7*
1,1,$1+$1,$8,$9*
0 Add four rect primitives between the rounded corners*
20,1,$1+$1,$2,$3,$4,$5,0*
20,1,$1+$1,$4,$5,$6,$7,0*
20,1,$1+$1,$6,$7,$8,$9,0*
20,1,$1+$1,$8,$9,$2,$3,0*%
%AMHorizOval*
0 Thick line with rounded ends*
0 $1 width*
0 $2 $3 position (X,Y) of the first rounded end (center of the circle)*
0 $4 $5 position (X,Y) of the second rounded end (center of the circle)*
0 Add line between two ends*
20,1,$1,$2,$3,$4,$5,0*
0 Add two circle primitives to create the rounded ends*
1,1,$1,$2,$3*
1,1,$1,$4,$5*%
G04 Aperture macros list end*
%ADD10C,0.150000*%
%ADD11C,0.120000*%
%ADD12C,0.000000*%
%ADD13C,0.152400*%
%ADD14C,0.100000*%
%ADD15RoundRect,0.237500X0.250000X0.237500X-0.250000X0.237500X-0.250000X-0.237500X0.250000X-0.237500X0*%
%ADD16RoundRect,0.237500X-0.250000X-0.237500X0.250000X-0.237500X0.250000X0.237500X-0.250000X0.237500X0*%
%ADD17RoundRect,0.237500X-0.237500X0.300000X-0.237500X-0.300000X0.237500X-0.300000X0.237500X0.300000X0*%
%ADD18RoundRect,0.237500X0.287500X0.237500X-0.287500X0.237500X-0.287500X-0.237500X0.287500X-0.237500X0*%
%ADD19RoundRect,0.237500X-0.287500X-0.237500X0.287500X-0.237500X0.287500X0.237500X-0.287500X0.237500X0*%
%ADD20C,4.200000*%
%ADD21C,4.000000*%
%ADD22C,1.700000*%
%ADD23HorizOval,1.700000X0.000000X0.000000X0.000000X0.000000X0*%
%ADD24R,1.549400X0.900800*%
%ADD25R,1.549400X3.200400*%
%ADD26RoundRect,0.275000X0.825000X0.275000X-0.825000X0.275000X-0.825000X-0.275000X0.825000X-0.275000X0*%
G04 APERTURE END LIST*
D10*
X76305568Y-150924435D02*
X76278631Y-150843623D01*
X76278631Y-150843623D02*
X76197819Y-150762811D01*
X76197819Y-150762811D02*
X76090069Y-150708936D01*
X76090069Y-150708936D02*
X75982319Y-150708936D01*
X75982319Y-150708936D02*
X75901507Y-150735873D01*
X75901507Y-150735873D02*
X75766820Y-150816685D01*
X75766820Y-150816685D02*
X75686008Y-150897498D01*
X75686008Y-150897498D02*
X75605196Y-151032185D01*
X75605196Y-151032185D02*
X75578258Y-151112997D01*
X75578258Y-151112997D02*
X75578258Y-151220746D01*
X75578258Y-151220746D02*
X75632133Y-151328496D01*
X75632133Y-151328496D02*
X75686008Y-151382371D01*
X75686008Y-151382371D02*
X75793758Y-151436246D01*
X75793758Y-151436246D02*
X75847632Y-151436246D01*
X75847632Y-151436246D02*
X76036194Y-151247684D01*
X76036194Y-151247684D02*
X75928445Y-151139934D01*
X76036194Y-151732557D02*
X76601880Y-151166872D01*
X76601880Y-151166872D02*
X76359443Y-152055806D01*
X76359443Y-152055806D02*
X76925128Y-151490120D01*
X76628817Y-152325180D02*
X77194502Y-151759494D01*
X77194502Y-151759494D02*
X77329189Y-151894181D01*
X77329189Y-151894181D02*
X77383064Y-152001931D01*
X77383064Y-152001931D02*
X77383064Y-152109680D01*
X77383064Y-152109680D02*
X77356127Y-152190493D01*
X77356127Y-152190493D02*
X77275314Y-152325180D01*
X77275314Y-152325180D02*
X77194502Y-152405992D01*
X77194502Y-152405992D02*
X77059815Y-152486804D01*
X77059815Y-152486804D02*
X76979003Y-152513741D01*
X76979003Y-152513741D02*
X76871253Y-152513741D01*
X76871253Y-152513741D02*
X76763504Y-152459867D01*
X76763504Y-152459867D02*
X76628817Y-152325180D01*
X75867435Y-146706431D02*
X75786623Y-146733368D01*
X75786623Y-146733368D02*
X75705811Y-146814180D01*
X75705811Y-146814180D02*
X75651936Y-146921930D01*
X75651936Y-146921930D02*
X75651936Y-147029680D01*
X75651936Y-147029680D02*
X75678873Y-147110492D01*
X75678873Y-147110492D02*
X75759685Y-147245179D01*
X75759685Y-147245179D02*
X75840498Y-147325991D01*
X75840498Y-147325991D02*
X75975185Y-147406803D01*
X75975185Y-147406803D02*
X76055997Y-147433741D01*
X76055997Y-147433741D02*
X76163746Y-147433741D01*
X76163746Y-147433741D02*
X76271496Y-147379866D01*
X76271496Y-147379866D02*
X76325371Y-147325991D01*
X76325371Y-147325991D02*
X76379246Y-147218241D01*
X76379246Y-147218241D02*
X76379246Y-147164367D01*
X76379246Y-147164367D02*
X76190684Y-146975805D01*
X76190684Y-146975805D02*
X76082934Y-147083554D01*
X76675557Y-146975805D02*
X76109872Y-146410119D01*
X76109872Y-146410119D02*
X76998806Y-146652556D01*
X76998806Y-146652556D02*
X76433120Y-146086871D01*
X77268180Y-146383182D02*
X76702494Y-145817497D01*
X76702494Y-145817497D02*
X76837181Y-145682810D01*
X76837181Y-145682810D02*
X76944931Y-145628935D01*
X76944931Y-145628935D02*
X77052680Y-145628935D01*
X77052680Y-145628935D02*
X77133493Y-145655872D01*
X77133493Y-145655872D02*
X77268180Y-145736685D01*
X77268180Y-145736685D02*
X77348992Y-145817497D01*
X77348992Y-145817497D02*
X77429804Y-145952184D01*
X77429804Y-145952184D02*
X77456741Y-146032996D01*
X77456741Y-146032996D02*
X77456741Y-146140746D01*
X77456741Y-146140746D02*
X77402867Y-146248495D01*
X77402867Y-146248495D02*
X77268180Y-146383182D01*
X100972476Y-139203839D02*
X101538162Y-138638154D01*
X101538162Y-138638154D02*
X101672849Y-138772841D01*
X101672849Y-138772841D02*
X101726723Y-138880590D01*
X101726723Y-138880590D02*
X101726723Y-138988340D01*
X101726723Y-138988340D02*
X101699786Y-139069152D01*
X101699786Y-139069152D02*
X101618974Y-139203839D01*
X101618974Y-139203839D02*
X101538162Y-139284651D01*
X101538162Y-139284651D02*
X101403475Y-139365463D01*
X101403475Y-139365463D02*
X101322662Y-139392401D01*
X101322662Y-139392401D02*
X101214913Y-139392401D01*
X101214913Y-139392401D02*
X101107163Y-139338526D01*
X101107163Y-139338526D02*
X100972476Y-139203839D01*
X101753661Y-139554025D02*
X102184659Y-139985024D01*
X101753661Y-139985024D02*
X102184659Y-139554025D01*
X98149568Y-135303435D02*
X98122631Y-135222623D01*
X98122631Y-135222623D02*
X98041819Y-135141811D01*
X98041819Y-135141811D02*
X97934069Y-135087936D01*
X97934069Y-135087936D02*
X97826319Y-135087936D01*
X97826319Y-135087936D02*
X97745507Y-135114873D01*
X97745507Y-135114873D02*
X97610820Y-135195685D01*
X97610820Y-135195685D02*
X97530008Y-135276498D01*
X97530008Y-135276498D02*
X97449196Y-135411185D01*
X97449196Y-135411185D02*
X97422258Y-135491997D01*
X97422258Y-135491997D02*
X97422258Y-135599746D01*
X97422258Y-135599746D02*
X97476133Y-135707496D01*
X97476133Y-135707496D02*
X97530008Y-135761371D01*
X97530008Y-135761371D02*
X97637758Y-135815246D01*
X97637758Y-135815246D02*
X97691632Y-135815246D01*
X97691632Y-135815246D02*
X97880194Y-135626684D01*
X97880194Y-135626684D02*
X97772445Y-135518934D01*
X97880194Y-136111557D02*
X98445880Y-135545872D01*
X98445880Y-135545872D02*
X98203443Y-136434806D01*
X98203443Y-136434806D02*
X98769128Y-135869120D01*
X98472817Y-136704180D02*
X99038502Y-136138494D01*
X99038502Y-136138494D02*
X99173189Y-136273181D01*
X99173189Y-136273181D02*
X99227064Y-136380931D01*
X99227064Y-136380931D02*
X99227064Y-136488680D01*
X99227064Y-136488680D02*
X99200127Y-136569493D01*
X99200127Y-136569493D02*
X99119314Y-136704180D01*
X99119314Y-136704180D02*
X99038502Y-136784992D01*
X99038502Y-136784992D02*
X98903815Y-136865804D01*
X98903815Y-136865804D02*
X98823003Y-136892741D01*
X98823003Y-136892741D02*
X98715253Y-136892741D01*
X98715253Y-136892741D02*
X98607504Y-136838867D01*
X98607504Y-136838867D02*
X98472817Y-136704180D01*
X107213523Y-145739295D02*
X107708761Y-145739295D01*
X107708761Y-145739295D02*
X107442095Y-146044057D01*
X107442095Y-146044057D02*
X107556380Y-146044057D01*
X107556380Y-146044057D02*
X107632571Y-146082152D01*
X107632571Y-146082152D02*
X107670666Y-146120247D01*
X107670666Y-146120247D02*
X107708761Y-146196438D01*
X107708761Y-146196438D02*
X107708761Y-146386914D01*
X107708761Y-146386914D02*
X107670666Y-146463104D01*
X107670666Y-146463104D02*
X107632571Y-146501200D01*
X107632571Y-146501200D02*
X107556380Y-146539295D01*
X107556380Y-146539295D02*
X107327809Y-146539295D01*
X107327809Y-146539295D02*
X107251618Y-146501200D01*
X107251618Y-146501200D02*
X107213523Y-146463104D01*
X107937333Y-145739295D02*
X108204000Y-146539295D01*
X108204000Y-146539295D02*
X108470666Y-145739295D01*
X108661142Y-145739295D02*
X109156380Y-145739295D01*
X109156380Y-145739295D02*
X108889714Y-146044057D01*
X108889714Y-146044057D02*
X109003999Y-146044057D01*
X109003999Y-146044057D02*
X109080190Y-146082152D01*
X109080190Y-146082152D02*
X109118285Y-146120247D01*
X109118285Y-146120247D02*
X109156380Y-146196438D01*
X109156380Y-146196438D02*
X109156380Y-146386914D01*
X109156380Y-146386914D02*
X109118285Y-146463104D01*
X109118285Y-146463104D02*
X109080190Y-146501200D01*
X109080190Y-146501200D02*
X109003999Y-146539295D01*
X109003999Y-146539295D02*
X108775428Y-146539295D01*
X108775428Y-146539295D02*
X108699237Y-146501200D01*
X108699237Y-146501200D02*
X108661142Y-146463104D01*
X107245238Y-150476295D02*
X107245238Y-149676295D01*
X107245238Y-149676295D02*
X107435714Y-149676295D01*
X107435714Y-149676295D02*
X107550000Y-149714390D01*
X107550000Y-149714390D02*
X107626190Y-149790580D01*
X107626190Y-149790580D02*
X107664285Y-149866771D01*
X107664285Y-149866771D02*
X107702381Y-150019152D01*
X107702381Y-150019152D02*
X107702381Y-150133438D01*
X107702381Y-150133438D02*
X107664285Y-150285819D01*
X107664285Y-150285819D02*
X107626190Y-150362009D01*
X107626190Y-150362009D02*
X107550000Y-150438200D01*
X107550000Y-150438200D02*
X107435714Y-150476295D01*
X107435714Y-150476295D02*
X107245238Y-150476295D01*
X108045238Y-150171533D02*
X108654762Y-150171533D01*
X108350000Y-150476295D02*
X108350000Y-149866771D01*
X96594754Y-133694746D02*
X96325380Y-133425372D01*
X96325380Y-133425372D02*
X96029069Y-133667809D01*
X96029069Y-133667809D02*
X96082944Y-133667809D01*
X96082944Y-133667809D02*
X96163756Y-133694746D01*
X96163756Y-133694746D02*
X96298443Y-133829433D01*
X96298443Y-133829433D02*
X96325380Y-133910245D01*
X96325380Y-133910245D02*
X96325380Y-133964120D01*
X96325380Y-133964120D02*
X96298443Y-134044932D01*
X96298443Y-134044932D02*
X96163756Y-134179619D01*
X96163756Y-134179619D02*
X96082944Y-134206557D01*
X96082944Y-134206557D02*
X96029069Y-134206557D01*
X96029069Y-134206557D02*
X95948257Y-134179619D01*
X95948257Y-134179619D02*
X95813570Y-134044932D01*
X95813570Y-134044932D02*
X95786632Y-133964120D01*
X95786632Y-133964120D02*
X95786632Y-133910245D01*
X96783316Y-133883308D02*
X96406193Y-134637555D01*
X96406193Y-134637555D02*
X97160440Y-134260432D01*
X107245238Y-148571295D02*
X107245238Y-147771295D01*
X107245238Y-147771295D02*
X107435714Y-147771295D01*
X107435714Y-147771295D02*
X107550000Y-147809390D01*
X107550000Y-147809390D02*
X107626190Y-147885580D01*
X107626190Y-147885580D02*
X107664285Y-147961771D01*
X107664285Y-147961771D02*
X107702381Y-148114152D01*
X107702381Y-148114152D02*
X107702381Y-148228438D01*
X107702381Y-148228438D02*
X107664285Y-148380819D01*
X107664285Y-148380819D02*
X107626190Y-148457009D01*
X107626190Y-148457009D02*
X107550000Y-148533200D01*
X107550000Y-148533200D02*
X107435714Y-148571295D01*
X107435714Y-148571295D02*
X107245238Y-148571295D01*
X108045238Y-148266533D02*
X108654762Y-148266533D01*
X99321476Y-137552839D02*
X99887162Y-136987154D01*
X99887162Y-136987154D02*
X100021849Y-137121841D01*
X100021849Y-137121841D02*
X100075723Y-137229590D01*
X100075723Y-137229590D02*
X100075723Y-137337340D01*
X100075723Y-137337340D02*
X100048786Y-137418152D01*
X100048786Y-137418152D02*
X99967974Y-137552839D01*
X99967974Y-137552839D02*
X99887162Y-137633651D01*
X99887162Y-137633651D02*
X99752475Y-137714463D01*
X99752475Y-137714463D02*
X99671662Y-137741401D01*
X99671662Y-137741401D02*
X99563913Y-137741401D01*
X99563913Y-137741401D02*
X99456163Y-137687526D01*
X99456163Y-137687526D02*
X99321476Y-137552839D01*
X100102661Y-137903025D02*
X100533659Y-138334024D01*
X80416476Y-139135295D02*
X80416476Y-139782914D01*
X80416476Y-139782914D02*
X80454571Y-139859104D01*
X80454571Y-139859104D02*
X80492666Y-139897200D01*
X80492666Y-139897200D02*
X80568857Y-139935295D01*
X80568857Y-139935295D02*
X80721238Y-139935295D01*
X80721238Y-139935295D02*
X80797428Y-139897200D01*
X80797428Y-139897200D02*
X80835523Y-139859104D01*
X80835523Y-139859104D02*
X80873619Y-139782914D01*
X80873619Y-139782914D02*
X80873619Y-139135295D01*
X81673618Y-139935295D02*
X81216475Y-139935295D01*
X81445047Y-139935295D02*
X81445047Y-139135295D01*
X81445047Y-139135295D02*
X81368856Y-139249580D01*
X81368856Y-139249580D02*
X81292666Y-139325771D01*
X81292666Y-139325771D02*
X81216475Y-139363866D01*
X75740435Y-143785431D02*
X75659623Y-143812368D01*
X75659623Y-143812368D02*
X75578811Y-143893180D01*
X75578811Y-143893180D02*
X75524936Y-144000930D01*
X75524936Y-144000930D02*
X75524936Y-144108680D01*
X75524936Y-144108680D02*
X75551873Y-144189492D01*
X75551873Y-144189492D02*
X75632685Y-144324179D01*
X75632685Y-144324179D02*
X75713498Y-144404991D01*
X75713498Y-144404991D02*
X75848185Y-144485803D01*
X75848185Y-144485803D02*
X75928997Y-144512741D01*
X75928997Y-144512741D02*
X76036746Y-144512741D01*
X76036746Y-144512741D02*
X76144496Y-144458866D01*
X76144496Y-144458866D02*
X76198371Y-144404991D01*
X76198371Y-144404991D02*
X76252246Y-144297241D01*
X76252246Y-144297241D02*
X76252246Y-144243367D01*
X76252246Y-144243367D02*
X76063684Y-144054805D01*
X76063684Y-144054805D02*
X75955934Y-144162554D01*
X76548557Y-144054805D02*
X75982872Y-143489119D01*
X75982872Y-143489119D02*
X76871806Y-143731556D01*
X76871806Y-143731556D02*
X76306120Y-143165871D01*
X77141180Y-143462182D02*
X76575494Y-142896497D01*
X76575494Y-142896497D02*
X76710181Y-142761810D01*
X76710181Y-142761810D02*
X76817931Y-142707935D01*
X76817931Y-142707935D02*
X76925680Y-142707935D01*
X76925680Y-142707935D02*
X77006493Y-142734872D01*
X77006493Y-142734872D02*
X77141180Y-142815685D01*
X77141180Y-142815685D02*
X77221992Y-142896497D01*
X77221992Y-142896497D02*
X77302804Y-143031184D01*
X77302804Y-143031184D02*
X77329741Y-143111996D01*
X77329741Y-143111996D02*
X77329741Y-143219746D01*
X77329741Y-143219746D02*
X77275867Y-143327495D01*
X77275867Y-143327495D02*
X77141180Y-143462182D01*
X76007351Y-153227714D02*
X76573037Y-152662029D01*
X76573037Y-152662029D02*
X76330600Y-153550963D01*
X76330600Y-153550963D02*
X76896286Y-152985278D01*
X76977098Y-154089711D02*
X76923223Y-154089711D01*
X76923223Y-154089711D02*
X76815473Y-154035836D01*
X76815473Y-154035836D02*
X76761598Y-153981961D01*
X76761598Y-153981961D02*
X76707724Y-153874212D01*
X76707724Y-153874212D02*
X76707724Y-153766462D01*
X76707724Y-153766462D02*
X76734661Y-153685650D01*
X76734661Y-153685650D02*
X76815473Y-153550963D01*
X76815473Y-153550963D02*
X76896285Y-153470151D01*
X76896285Y-153470151D02*
X77030972Y-153389338D01*
X77030972Y-153389338D02*
X77111785Y-153362401D01*
X77111785Y-153362401D02*
X77219534Y-153362401D01*
X77219534Y-153362401D02*
X77327284Y-153416276D01*
X77327284Y-153416276D02*
X77381159Y-153470151D01*
X77381159Y-153470151D02*
X77435033Y-153577900D01*
X77435033Y-153577900D02*
X77435033Y-153631775D01*
X76519714Y-145607648D02*
X75954029Y-145041962D01*
X75954029Y-145041962D02*
X76842963Y-145284399D01*
X76842963Y-145284399D02*
X76277278Y-144718713D01*
X77381711Y-144637901D02*
X77381711Y-144691776D01*
X77381711Y-144691776D02*
X77327836Y-144799526D01*
X77327836Y-144799526D02*
X77273961Y-144853401D01*
X77273961Y-144853401D02*
X77166212Y-144907275D01*
X77166212Y-144907275D02*
X77058462Y-144907275D01*
X77058462Y-144907275D02*
X76977650Y-144880338D01*
X76977650Y-144880338D02*
X76842963Y-144799526D01*
X76842963Y-144799526D02*
X76762151Y-144718714D01*
X76762151Y-144718714D02*
X76681338Y-144584027D01*
X76681338Y-144584027D02*
X76654401Y-144503214D01*
X76654401Y-144503214D02*
X76654401Y-144395465D01*
X76654401Y-144395465D02*
X76708276Y-144287715D01*
X76708276Y-144287715D02*
X76762151Y-144233840D01*
X76762151Y-144233840D02*
X76869900Y-144179966D01*
X76869900Y-144179966D02*
X76923775Y-144179966D01*
X107594476Y-151619390D02*
X107518286Y-151581295D01*
X107518286Y-151581295D02*
X107404000Y-151581295D01*
X107404000Y-151581295D02*
X107289714Y-151619390D01*
X107289714Y-151619390D02*
X107213524Y-151695580D01*
X107213524Y-151695580D02*
X107175429Y-151771771D01*
X107175429Y-151771771D02*
X107137333Y-151924152D01*
X107137333Y-151924152D02*
X107137333Y-152038438D01*
X107137333Y-152038438D02*
X107175429Y-152190819D01*
X107175429Y-152190819D02*
X107213524Y-152267009D01*
X107213524Y-152267009D02*
X107289714Y-152343200D01*
X107289714Y-152343200D02*
X107404000Y-152381295D01*
X107404000Y-152381295D02*
X107480191Y-152381295D01*
X107480191Y-152381295D02*
X107594476Y-152343200D01*
X107594476Y-152343200D02*
X107632572Y-152305104D01*
X107632572Y-152305104D02*
X107632572Y-152038438D01*
X107632572Y-152038438D02*
X107480191Y-152038438D01*
X107975429Y-152381295D02*
X107975429Y-151581295D01*
X107975429Y-151581295D02*
X108432572Y-152381295D01*
X108432572Y-152381295D02*
X108432572Y-151581295D01*
X108813524Y-152381295D02*
X108813524Y-151581295D01*
X108813524Y-151581295D02*
X109004000Y-151581295D01*
X109004000Y-151581295D02*
X109118286Y-151619390D01*
X109118286Y-151619390D02*
X109194476Y-151695580D01*
X109194476Y-151695580D02*
X109232571Y-151771771D01*
X109232571Y-151771771D02*
X109270667Y-151924152D01*
X109270667Y-151924152D02*
X109270667Y-152038438D01*
X109270667Y-152038438D02*
X109232571Y-152190819D01*
X109232571Y-152190819D02*
X109194476Y-152267009D01*
X109194476Y-152267009D02*
X109118286Y-152343200D01*
X109118286Y-152343200D02*
X109004000Y-152381295D01*
X109004000Y-152381295D02*
X108813524Y-152381295D01*
X107562714Y-154413295D02*
X107181762Y-154413295D01*
X107181762Y-154413295D02*
X107181762Y-153613295D01*
X107829381Y-153994247D02*
X108096047Y-153994247D01*
X108210333Y-154413295D02*
X107829381Y-154413295D01*
X107829381Y-154413295D02*
X107829381Y-153613295D01*
X107829381Y-153613295D02*
X108210333Y-153613295D01*
X108553191Y-154413295D02*
X108553191Y-153613295D01*
X108553191Y-153613295D02*
X108743667Y-153613295D01*
X108743667Y-153613295D02*
X108857953Y-153651390D01*
X108857953Y-153651390D02*
X108934143Y-153727580D01*
X108934143Y-153727580D02*
X108972238Y-153803771D01*
X108972238Y-153803771D02*
X109010334Y-153956152D01*
X109010334Y-153956152D02*
X109010334Y-154070438D01*
X109010334Y-154070438D02*
X108972238Y-154222819D01*
X108972238Y-154222819D02*
X108934143Y-154299009D01*
X108934143Y-154299009D02*
X108857953Y-154375200D01*
X108857953Y-154375200D02*
X108743667Y-154413295D01*
X108743667Y-154413295D02*
X108553191Y-154413295D01*
X107194429Y-144507295D02*
X107194429Y-143707295D01*
X107194429Y-143707295D02*
X107651572Y-144507295D01*
X107651572Y-144507295D02*
X107651572Y-143707295D01*
X108489667Y-144431104D02*
X108451571Y-144469200D01*
X108451571Y-144469200D02*
X108337286Y-144507295D01*
X108337286Y-144507295D02*
X108261095Y-144507295D01*
X108261095Y-144507295D02*
X108146809Y-144469200D01*
X108146809Y-144469200D02*
X108070619Y-144393009D01*
X108070619Y-144393009D02*
X108032524Y-144316819D01*
X108032524Y-144316819D02*
X107994428Y-144164438D01*
X107994428Y-144164438D02*
X107994428Y-144050152D01*
X107994428Y-144050152D02*
X108032524Y-143897771D01*
X108032524Y-143897771D02*
X108070619Y-143821580D01*
X108070619Y-143821580D02*
X108146809Y-143745390D01*
X108146809Y-143745390D02*
X108261095Y-143707295D01*
X108261095Y-143707295D02*
X108337286Y-143707295D01*
X108337286Y-143707295D02*
X108451571Y-143745390D01*
X108451571Y-143745390D02*
X108489667Y-143783485D01*
X76305568Y-153972435D02*
X76278631Y-153891623D01*
X76278631Y-153891623D02*
X76197819Y-153810811D01*
X76197819Y-153810811D02*
X76090069Y-153756936D01*
X76090069Y-153756936D02*
X75982319Y-153756936D01*
X75982319Y-153756936D02*
X75901507Y-153783873D01*
X75901507Y-153783873D02*
X75766820Y-153864685D01*
X75766820Y-153864685D02*
X75686008Y-153945498D01*
X75686008Y-153945498D02*
X75605196Y-154080185D01*
X75605196Y-154080185D02*
X75578258Y-154160997D01*
X75578258Y-154160997D02*
X75578258Y-154268746D01*
X75578258Y-154268746D02*
X75632133Y-154376496D01*
X75632133Y-154376496D02*
X75686008Y-154430371D01*
X75686008Y-154430371D02*
X75793758Y-154484246D01*
X75793758Y-154484246D02*
X75847632Y-154484246D01*
X75847632Y-154484246D02*
X76036194Y-154295684D01*
X76036194Y-154295684D02*
X75928445Y-154187934D01*
X76036194Y-154780557D02*
X76601880Y-154214872D01*
X76601880Y-154214872D02*
X76359443Y-155103806D01*
X76359443Y-155103806D02*
X76925128Y-154538120D01*
X76628817Y-155373180D02*
X77194502Y-154807494D01*
X77194502Y-154807494D02*
X77329189Y-154942181D01*
X77329189Y-154942181D02*
X77383064Y-155049931D01*
X77383064Y-155049931D02*
X77383064Y-155157680D01*
X77383064Y-155157680D02*
X77356127Y-155238493D01*
X77356127Y-155238493D02*
X77275314Y-155373180D01*
X77275314Y-155373180D02*
X77194502Y-155453992D01*
X77194502Y-155453992D02*
X77059815Y-155534804D01*
X77059815Y-155534804D02*
X76979003Y-155561741D01*
X76979003Y-155561741D02*
X76871253Y-155561741D01*
X76871253Y-155561741D02*
X76763504Y-155507867D01*
X76763504Y-155507867D02*
X76628817Y-155373180D01*
X86480667Y-161398295D02*
X86214000Y-161017342D01*
X86023524Y-161398295D02*
X86023524Y-160598295D01*
X86023524Y-160598295D02*
X86328286Y-160598295D01*
X86328286Y-160598295D02*
X86404476Y-160636390D01*
X86404476Y-160636390D02*
X86442571Y-160674485D01*
X86442571Y-160674485D02*
X86480667Y-160750676D01*
X86480667Y-160750676D02*
X86480667Y-160864961D01*
X86480667Y-160864961D02*
X86442571Y-160941152D01*
X86442571Y-160941152D02*
X86404476Y-160979247D01*
X86404476Y-160979247D02*
X86328286Y-161017342D01*
X86328286Y-161017342D02*
X86023524Y-161017342D01*
X86785428Y-160674485D02*
X86823524Y-160636390D01*
X86823524Y-160636390D02*
X86899714Y-160598295D01*
X86899714Y-160598295D02*
X87090190Y-160598295D01*
X87090190Y-160598295D02*
X87166381Y-160636390D01*
X87166381Y-160636390D02*
X87204476Y-160674485D01*
X87204476Y-160674485D02*
X87242571Y-160750676D01*
X87242571Y-160750676D02*
X87242571Y-160826866D01*
X87242571Y-160826866D02*
X87204476Y-160941152D01*
X87204476Y-160941152D02*
X86747333Y-161398295D01*
X86747333Y-161398295D02*
X87242571Y-161398295D01*
X98545667Y-161398295D02*
X98279000Y-161017342D01*
X98088524Y-161398295D02*
X98088524Y-160598295D01*
X98088524Y-160598295D02*
X98393286Y-160598295D01*
X98393286Y-160598295D02*
X98469476Y-160636390D01*
X98469476Y-160636390D02*
X98507571Y-160674485D01*
X98507571Y-160674485D02*
X98545667Y-160750676D01*
X98545667Y-160750676D02*
X98545667Y-160864961D01*
X98545667Y-160864961D02*
X98507571Y-160941152D01*
X98507571Y-160941152D02*
X98469476Y-160979247D01*
X98469476Y-160979247D02*
X98393286Y-161017342D01*
X98393286Y-161017342D02*
X98088524Y-161017342D01*
X99307571Y-161398295D02*
X98850428Y-161398295D01*
X99079000Y-161398295D02*
X99079000Y-160598295D01*
X99079000Y-160598295D02*
X99002809Y-160712580D01*
X99002809Y-160712580D02*
X98926619Y-160788771D01*
X98926619Y-160788771D02*
X98850428Y-160826866D01*
X97148667Y-139859104D02*
X97110571Y-139897200D01*
X97110571Y-139897200D02*
X96996286Y-139935295D01*
X96996286Y-139935295D02*
X96920095Y-139935295D01*
X96920095Y-139935295D02*
X96805809Y-139897200D01*
X96805809Y-139897200D02*
X96729619Y-139821009D01*
X96729619Y-139821009D02*
X96691524Y-139744819D01*
X96691524Y-139744819D02*
X96653428Y-139592438D01*
X96653428Y-139592438D02*
X96653428Y-139478152D01*
X96653428Y-139478152D02*
X96691524Y-139325771D01*
X96691524Y-139325771D02*
X96729619Y-139249580D01*
X96729619Y-139249580D02*
X96805809Y-139173390D01*
X96805809Y-139173390D02*
X96920095Y-139135295D01*
X96920095Y-139135295D02*
X96996286Y-139135295D01*
X96996286Y-139135295D02*
X97110571Y-139173390D01*
X97110571Y-139173390D02*
X97148667Y-139211485D01*
X97910571Y-139935295D02*
X97453428Y-139935295D01*
X97682000Y-139935295D02*
X97682000Y-139135295D01*
X97682000Y-139135295D02*
X97605809Y-139249580D01*
X97605809Y-139249580D02*
X97529619Y-139325771D01*
X97529619Y-139325771D02*
X97453428Y-139363866D01*
X95370667Y-139859104D02*
X95332571Y-139897200D01*
X95332571Y-139897200D02*
X95218286Y-139935295D01*
X95218286Y-139935295D02*
X95142095Y-139935295D01*
X95142095Y-139935295D02*
X95027809Y-139897200D01*
X95027809Y-139897200D02*
X94951619Y-139821009D01*
X94951619Y-139821009D02*
X94913524Y-139744819D01*
X94913524Y-139744819D02*
X94875428Y-139592438D01*
X94875428Y-139592438D02*
X94875428Y-139478152D01*
X94875428Y-139478152D02*
X94913524Y-139325771D01*
X94913524Y-139325771D02*
X94951619Y-139249580D01*
X94951619Y-139249580D02*
X95027809Y-139173390D01*
X95027809Y-139173390D02*
X95142095Y-139135295D01*
X95142095Y-139135295D02*
X95218286Y-139135295D01*
X95218286Y-139135295D02*
X95332571Y-139173390D01*
X95332571Y-139173390D02*
X95370667Y-139211485D01*
X95675428Y-139211485D02*
X95713524Y-139173390D01*
X95713524Y-139173390D02*
X95789714Y-139135295D01*
X95789714Y-139135295D02*
X95980190Y-139135295D01*
X95980190Y-139135295D02*
X96056381Y-139173390D01*
X96056381Y-139173390D02*
X96094476Y-139211485D01*
X96094476Y-139211485D02*
X96132571Y-139287676D01*
X96132571Y-139287676D02*
X96132571Y-139363866D01*
X96132571Y-139363866D02*
X96094476Y-139478152D01*
X96094476Y-139478152D02*
X95637333Y-139935295D01*
X95637333Y-139935295D02*
X96132571Y-139935295D01*
X93592667Y-139859104D02*
X93554571Y-139897200D01*
X93554571Y-139897200D02*
X93440286Y-139935295D01*
X93440286Y-139935295D02*
X93364095Y-139935295D01*
X93364095Y-139935295D02*
X93249809Y-139897200D01*
X93249809Y-139897200D02*
X93173619Y-139821009D01*
X93173619Y-139821009D02*
X93135524Y-139744819D01*
X93135524Y-139744819D02*
X93097428Y-139592438D01*
X93097428Y-139592438D02*
X93097428Y-139478152D01*
X93097428Y-139478152D02*
X93135524Y-139325771D01*
X93135524Y-139325771D02*
X93173619Y-139249580D01*
X93173619Y-139249580D02*
X93249809Y-139173390D01*
X93249809Y-139173390D02*
X93364095Y-139135295D01*
X93364095Y-139135295D02*
X93440286Y-139135295D01*
X93440286Y-139135295D02*
X93554571Y-139173390D01*
X93554571Y-139173390D02*
X93592667Y-139211485D01*
X93859333Y-139135295D02*
X94354571Y-139135295D01*
X94354571Y-139135295D02*
X94087905Y-139440057D01*
X94087905Y-139440057D02*
X94202190Y-139440057D01*
X94202190Y-139440057D02*
X94278381Y-139478152D01*
X94278381Y-139478152D02*
X94316476Y-139516247D01*
X94316476Y-139516247D02*
X94354571Y-139592438D01*
X94354571Y-139592438D02*
X94354571Y-139782914D01*
X94354571Y-139782914D02*
X94316476Y-139859104D01*
X94316476Y-139859104D02*
X94278381Y-139897200D01*
X94278381Y-139897200D02*
X94202190Y-139935295D01*
X94202190Y-139935295D02*
X93973619Y-139935295D01*
X93973619Y-139935295D02*
X93897428Y-139897200D01*
X93897428Y-139897200D02*
X93859333Y-139859104D01*
X89960524Y-161431295D02*
X89960524Y-160631295D01*
X89960524Y-160631295D02*
X90151000Y-160631295D01*
X90151000Y-160631295D02*
X90265286Y-160669390D01*
X90265286Y-160669390D02*
X90341476Y-160745580D01*
X90341476Y-160745580D02*
X90379571Y-160821771D01*
X90379571Y-160821771D02*
X90417667Y-160974152D01*
X90417667Y-160974152D02*
X90417667Y-161088438D01*
X90417667Y-161088438D02*
X90379571Y-161240819D01*
X90379571Y-161240819D02*
X90341476Y-161317009D01*
X90341476Y-161317009D02*
X90265286Y-161393200D01*
X90265286Y-161393200D02*
X90151000Y-161431295D01*
X90151000Y-161431295D02*
X89960524Y-161431295D01*
X90722428Y-160707485D02*
X90760524Y-160669390D01*
X90760524Y-160669390D02*
X90836714Y-160631295D01*
X90836714Y-160631295D02*
X91027190Y-160631295D01*
X91027190Y-160631295D02*
X91103381Y-160669390D01*
X91103381Y-160669390D02*
X91141476Y-160707485D01*
X91141476Y-160707485D02*
X91179571Y-160783676D01*
X91179571Y-160783676D02*
X91179571Y-160859866D01*
X91179571Y-160859866D02*
X91141476Y-160974152D01*
X91141476Y-160974152D02*
X90684333Y-161431295D01*
X90684333Y-161431295D02*
X91179571Y-161431295D01*
X94278524Y-161398295D02*
X94278524Y-160598295D01*
X94278524Y-160598295D02*
X94469000Y-160598295D01*
X94469000Y-160598295D02*
X94583286Y-160636390D01*
X94583286Y-160636390D02*
X94659476Y-160712580D01*
X94659476Y-160712580D02*
X94697571Y-160788771D01*
X94697571Y-160788771D02*
X94735667Y-160941152D01*
X94735667Y-160941152D02*
X94735667Y-161055438D01*
X94735667Y-161055438D02*
X94697571Y-161207819D01*
X94697571Y-161207819D02*
X94659476Y-161284009D01*
X94659476Y-161284009D02*
X94583286Y-161360200D01*
X94583286Y-161360200D02*
X94469000Y-161398295D01*
X94469000Y-161398295D02*
X94278524Y-161398295D01*
X95497571Y-161398295D02*
X95040428Y-161398295D01*
X95269000Y-161398295D02*
X95269000Y-160598295D01*
X95269000Y-160598295D02*
X95192809Y-160712580D01*
X95192809Y-160712580D02*
X95116619Y-160788771D01*
X95116619Y-160788771D02*
X95040428Y-160826866D01*
X87909476Y-131896295D02*
X87909476Y-132543914D01*
X87909476Y-132543914D02*
X87947571Y-132620104D01*
X87947571Y-132620104D02*
X87985666Y-132658200D01*
X87985666Y-132658200D02*
X88061857Y-132696295D01*
X88061857Y-132696295D02*
X88214238Y-132696295D01*
X88214238Y-132696295D02*
X88290428Y-132658200D01*
X88290428Y-132658200D02*
X88328523Y-132620104D01*
X88328523Y-132620104D02*
X88366619Y-132543914D01*
X88366619Y-132543914D02*
X88366619Y-131896295D01*
X88709475Y-131972485D02*
X88747571Y-131934390D01*
X88747571Y-131934390D02*
X88823761Y-131896295D01*
X88823761Y-131896295D02*
X89014237Y-131896295D01*
X89014237Y-131896295D02*
X89090428Y-131934390D01*
X89090428Y-131934390D02*
X89128523Y-131972485D01*
X89128523Y-131972485D02*
X89166618Y-132048676D01*
X89166618Y-132048676D02*
X89166618Y-132124866D01*
X89166618Y-132124866D02*
X89128523Y-132239152D01*
X89128523Y-132239152D02*
X88671380Y-132696295D01*
X88671380Y-132696295D02*
X89166618Y-132696295D01*
X79510523Y-141155009D02*
X79653380Y-141202628D01*
X79653380Y-141202628D02*
X79700999Y-141250247D01*
X79700999Y-141250247D02*
X79748618Y-141345485D01*
X79748618Y-141345485D02*
X79748618Y-141488342D01*
X79748618Y-141488342D02*
X79700999Y-141583580D01*
X79700999Y-141583580D02*
X79653380Y-141631200D01*
X79653380Y-141631200D02*
X79558142Y-141678819D01*
X79558142Y-141678819D02*
X79177190Y-141678819D01*
X79177190Y-141678819D02*
X79177190Y-140678819D01*
X79177190Y-140678819D02*
X79510523Y-140678819D01*
X79510523Y-140678819D02*
X79605761Y-140726438D01*
X79605761Y-140726438D02*
X79653380Y-140774057D01*
X79653380Y-140774057D02*
X79700999Y-140869295D01*
X79700999Y-140869295D02*
X79700999Y-140964533D01*
X79700999Y-140964533D02*
X79653380Y-141059771D01*
X79653380Y-141059771D02*
X79605761Y-141107390D01*
X79605761Y-141107390D02*
X79510523Y-141155009D01*
X79510523Y-141155009D02*
X79177190Y-141155009D01*
X80653380Y-141678819D02*
X80177190Y-141678819D01*
X80177190Y-141678819D02*
X80177190Y-140678819D01*
X80986714Y-141297866D02*
X81748619Y-141297866D01*
X82796237Y-141678819D02*
X82462904Y-141202628D01*
X82224809Y-141678819D02*
X82224809Y-140678819D01*
X82224809Y-140678819D02*
X82605761Y-140678819D01*
X82605761Y-140678819D02*
X82700999Y-140726438D01*
X82700999Y-140726438D02*
X82748618Y-140774057D01*
X82748618Y-140774057D02*
X82796237Y-140869295D01*
X82796237Y-140869295D02*
X82796237Y-141012152D01*
X82796237Y-141012152D02*
X82748618Y-141107390D01*
X82748618Y-141107390D02*
X82700999Y-141155009D01*
X82700999Y-141155009D02*
X82605761Y-141202628D01*
X82605761Y-141202628D02*
X82224809Y-141202628D01*
X83367666Y-141107390D02*
X83272428Y-141059771D01*
X83272428Y-141059771D02*
X83224809Y-141012152D01*
X83224809Y-141012152D02*
X83177190Y-140916914D01*
X83177190Y-140916914D02*
X83177190Y-140869295D01*
X83177190Y-140869295D02*
X83224809Y-140774057D01*
X83224809Y-140774057D02*
X83272428Y-140726438D01*
X83272428Y-140726438D02*
X83367666Y-140678819D01*
X83367666Y-140678819D02*
X83558142Y-140678819D01*
X83558142Y-140678819D02*
X83653380Y-140726438D01*
X83653380Y-140726438D02*
X83700999Y-140774057D01*
X83700999Y-140774057D02*
X83748618Y-140869295D01*
X83748618Y-140869295D02*
X83748618Y-140916914D01*
X83748618Y-140916914D02*
X83700999Y-141012152D01*
X83700999Y-141012152D02*
X83653380Y-141059771D01*
X83653380Y-141059771D02*
X83558142Y-141107390D01*
X83558142Y-141107390D02*
X83367666Y-141107390D01*
X83367666Y-141107390D02*
X83272428Y-141155009D01*
X83272428Y-141155009D02*
X83224809Y-141202628D01*
X83224809Y-141202628D02*
X83177190Y-141297866D01*
X83177190Y-141297866D02*
X83177190Y-141488342D01*
X83177190Y-141488342D02*
X83224809Y-141583580D01*
X83224809Y-141583580D02*
X83272428Y-141631200D01*
X83272428Y-141631200D02*
X83367666Y-141678819D01*
X83367666Y-141678819D02*
X83558142Y-141678819D01*
X83558142Y-141678819D02*
X83653380Y-141631200D01*
X83653380Y-141631200D02*
X83700999Y-141583580D01*
X83700999Y-141583580D02*
X83748618Y-141488342D01*
X83748618Y-141488342D02*
X83748618Y-141297866D01*
X83748618Y-141297866D02*
X83700999Y-141202628D01*
X83700999Y-141202628D02*
X83653380Y-141155009D01*
X83653380Y-141155009D02*
X83558142Y-141107390D01*
X84320047Y-141107390D02*
X84224809Y-141059771D01*
X84224809Y-141059771D02*
X84177190Y-141012152D01*
X84177190Y-141012152D02*
X84129571Y-140916914D01*
X84129571Y-140916914D02*
X84129571Y-140869295D01*
X84129571Y-140869295D02*
X84177190Y-140774057D01*
X84177190Y-140774057D02*
X84224809Y-140726438D01*
X84224809Y-140726438D02*
X84320047Y-140678819D01*
X84320047Y-140678819D02*
X84510523Y-140678819D01*
X84510523Y-140678819D02*
X84605761Y-140726438D01*
X84605761Y-140726438D02*
X84653380Y-140774057D01*
X84653380Y-140774057D02*
X84700999Y-140869295D01*
X84700999Y-140869295D02*
X84700999Y-140916914D01*
X84700999Y-140916914D02*
X84653380Y-141012152D01*
X84653380Y-141012152D02*
X84605761Y-141059771D01*
X84605761Y-141059771D02*
X84510523Y-141107390D01*
X84510523Y-141107390D02*
X84320047Y-141107390D01*
X84320047Y-141107390D02*
X84224809Y-141155009D01*
X84224809Y-141155009D02*
X84177190Y-141202628D01*
X84177190Y-141202628D02*
X84129571Y-141297866D01*
X84129571Y-141297866D02*
X84129571Y-141488342D01*
X84129571Y-141488342D02*
X84177190Y-141583580D01*
X84177190Y-141583580D02*
X84224809Y-141631200D01*
X84224809Y-141631200D02*
X84320047Y-141678819D01*
X84320047Y-141678819D02*
X84510523Y-141678819D01*
X84510523Y-141678819D02*
X84605761Y-141631200D01*
X84605761Y-141631200D02*
X84653380Y-141583580D01*
X84653380Y-141583580D02*
X84700999Y-141488342D01*
X84700999Y-141488342D02*
X84700999Y-141297866D01*
X84700999Y-141297866D02*
X84653380Y-141202628D01*
X84653380Y-141202628D02*
X84605761Y-141155009D01*
X84605761Y-141155009D02*
X84510523Y-141107390D01*
X85653380Y-141678819D02*
X85081952Y-141678819D01*
X85367666Y-141678819D02*
X85367666Y-140678819D01*
X85367666Y-140678819D02*
X85272428Y-140821676D01*
X85272428Y-140821676D02*
X85177190Y-140916914D01*
X85177190Y-140916914D02*
X85081952Y-140964533D01*
X86034333Y-140774057D02*
X86081952Y-140726438D01*
X86081952Y-140726438D02*
X86177190Y-140678819D01*
X86177190Y-140678819D02*
X86415285Y-140678819D01*
X86415285Y-140678819D02*
X86510523Y-140726438D01*
X86510523Y-140726438D02*
X86558142Y-140774057D01*
X86558142Y-140774057D02*
X86605761Y-140869295D01*
X86605761Y-140869295D02*
X86605761Y-140964533D01*
X86605761Y-140964533D02*
X86558142Y-141107390D01*
X86558142Y-141107390D02*
X85986714Y-141678819D01*
X85986714Y-141678819D02*
X86605761Y-141678819D01*
X86986714Y-141393104D02*
X87462904Y-141393104D01*
X86891476Y-141678819D02*
X87224809Y-140678819D01*
X87224809Y-140678819D02*
X87558142Y-141678819D01*
X88224809Y-141155009D02*
X87891476Y-141155009D01*
X87891476Y-141678819D02*
X87891476Y-140678819D01*
X87891476Y-140678819D02*
X88367666Y-140678819D01*
X89272428Y-141678819D02*
X88701000Y-141678819D01*
X88986714Y-141678819D02*
X88986714Y-140678819D01*
X88986714Y-140678819D02*
X88891476Y-140821676D01*
X88891476Y-140821676D02*
X88796238Y-140916914D01*
X88796238Y-140916914D02*
X88701000Y-140964533D01*
D11*
X86892224Y-160161500D02*
X86382776Y-160161500D01*
X86892224Y-159116500D02*
X86382776Y-159116500D01*
X98527776Y-159116500D02*
X99037224Y-159116500D01*
X98527776Y-160161500D02*
X99037224Y-160161500D01*
X97792000Y-137421233D02*
X97792000Y-137713767D01*
X96772000Y-137421233D02*
X96772000Y-137713767D01*
X96014000Y-137421233D02*
X96014000Y-137713767D01*
X94994000Y-137421233D02*
X94994000Y-137713767D01*
X94236000Y-137394733D02*
X94236000Y-137687267D01*
X93216000Y-137394733D02*
X93216000Y-137687267D01*
X92211000Y-160374000D02*
X92211000Y-158904000D01*
X92211000Y-158904000D02*
X89751000Y-158904000D01*
X89751000Y-160374000D02*
X92211000Y-160374000D01*
X93209000Y-158904000D02*
X93209000Y-160374000D01*
X93209000Y-160374000D02*
X95669000Y-160374000D01*
X95669000Y-158904000D02*
X93209000Y-158904000D01*
D12*
G36*
X88723989Y-162112255D02*
G01*
X88873201Y-162167454D01*
X89002840Y-162260147D01*
X89105019Y-162383309D01*
X89171850Y-162529918D01*
X89195447Y-162692951D01*
X89167923Y-162865384D01*
X89100784Y-163010320D01*
X88986770Y-163138041D01*
X88835619Y-163227018D01*
X88665779Y-163271277D01*
X88495701Y-163264846D01*
X88404588Y-163235703D01*
X88226991Y-163125246D01*
X88104537Y-162979611D01*
X88039712Y-162802435D01*
X88029498Y-162687000D01*
X88058378Y-162496057D01*
X88146676Y-162334356D01*
X88237783Y-162241847D01*
X88398393Y-162142429D01*
X88563091Y-162101572D01*
X88723989Y-162112255D01*
G37*
G36*
X88131302Y-163805339D02*
G01*
X88198233Y-163850842D01*
X88217625Y-163865276D01*
X88402239Y-163969481D01*
X88591472Y-164008235D01*
X88780280Y-163981425D01*
X88963621Y-163888942D01*
X88973558Y-163881868D01*
X89056198Y-163824555D01*
X89105997Y-163803241D01*
X89143550Y-163813967D01*
X89178161Y-163842547D01*
X89263215Y-163934599D01*
X89289249Y-164008357D01*
X89258230Y-164072636D01*
X89234397Y-164094414D01*
X89027709Y-164223280D01*
X88800810Y-164299386D01*
X88567590Y-164320759D01*
X88341939Y-164285421D01*
X88220775Y-164238540D01*
X88110129Y-164179177D01*
X88012786Y-164117651D01*
X87974930Y-164088733D01*
X87895971Y-164020069D01*
X87984973Y-163903535D01*
X88043184Y-163832781D01*
X88085283Y-163791422D01*
X88094159Y-163787000D01*
X88131302Y-163805339D01*
G37*
G36*
X88904246Y-161094851D02*
G01*
X88931111Y-161105209D01*
X89045029Y-161160465D01*
X89154607Y-161226754D01*
X89243989Y-161292916D01*
X89297312Y-161347794D01*
X89305532Y-161368630D01*
X89283191Y-161414926D01*
X89227604Y-161481624D01*
X89208042Y-161501139D01*
X89110553Y-161594417D01*
X88999435Y-161510448D01*
X88816201Y-161408306D01*
X88626199Y-161372117D01*
X88432616Y-161401911D01*
X88238635Y-161497721D01*
X88230890Y-161502942D01*
X88153346Y-161553619D01*
X88101449Y-161583552D01*
X88092004Y-161587000D01*
X88062915Y-161563960D01*
X88008983Y-161506365D01*
X87988490Y-161482529D01*
X87900468Y-161378058D01*
X87977179Y-161294784D01*
X88119886Y-161183763D01*
X88303631Y-161104347D01*
X88508729Y-161060449D01*
X88715496Y-161055979D01*
X88904246Y-161094851D01*
G37*
G36*
X95019955Y-162333295D02*
G01*
X95111192Y-162369320D01*
X95178642Y-162419125D01*
X95226551Y-162494484D01*
X95257616Y-162605352D01*
X95274538Y-162761679D01*
X95280015Y-162973420D01*
X95280039Y-162991974D01*
X95280039Y-163353667D01*
X95129842Y-163353667D01*
X94979645Y-163353667D01*
X94979645Y-163034808D01*
X94975138Y-162847212D01*
X94959775Y-162717235D01*
X94930791Y-162636320D01*
X94885421Y-162595912D01*
X94834949Y-162587000D01*
X94769959Y-162595143D01*
X94725667Y-162626385D01*
X94698317Y-162690946D01*
X94684149Y-162799042D01*
X94679405Y-162960895D01*
X94679251Y-163010333D01*
X94679251Y-163353667D01*
X94529054Y-163353667D01*
X94378857Y-163353667D01*
X94378857Y-162853667D01*
X94378857Y-162353667D01*
X94529054Y-162353667D01*
X94626668Y-162359702D01*
X94671757Y-162380924D01*
X94679251Y-162406086D01*
X94687810Y-162434989D01*
X94722459Y-162422451D01*
X94767195Y-162389419D01*
X94888480Y-162329116D01*
X95019955Y-162333295D01*
G37*
G36*
X95803641Y-162027434D02*
G01*
X96131156Y-162037000D01*
X96131156Y-162153667D01*
X96123032Y-162235536D01*
X96090627Y-162272297D01*
X96056058Y-162280985D01*
X96024857Y-162288078D01*
X96003768Y-162306352D01*
X95990812Y-162347004D01*
X95984011Y-162421232D01*
X95981387Y-162540233D01*
X95980959Y-162705985D01*
X95980959Y-163120333D01*
X96064402Y-163120333D01*
X96120831Y-163129050D01*
X96143932Y-163168275D01*
X96147845Y-163237000D01*
X96147845Y-163353667D01*
X95814073Y-163353667D01*
X95480302Y-163353667D01*
X95480302Y-163237000D01*
X95486536Y-163158103D01*
X95514591Y-163125804D01*
X95563745Y-163120333D01*
X95647188Y-163120333D01*
X95647188Y-162705985D01*
X95646704Y-162533768D01*
X95643934Y-162417019D01*
X95636899Y-162344541D01*
X95623621Y-162305135D01*
X95602120Y-162287603D01*
X95572089Y-162280985D01*
X95519819Y-162259913D01*
X95494207Y-162203578D01*
X95486558Y-162144101D01*
X95476125Y-162017869D01*
X95803641Y-162027434D01*
G37*
G36*
X96955411Y-162024733D02*
G01*
X97105745Y-162040601D01*
X97212839Y-162071941D01*
X97288243Y-162122754D01*
X97343503Y-162197044D01*
X97361610Y-162232236D01*
X97409857Y-162393764D01*
X97407602Y-162553394D01*
X97358568Y-162695574D01*
X97266477Y-162804754D01*
X97217006Y-162836436D01*
X97118742Y-162867065D01*
X96979866Y-162884501D01*
X96900488Y-162887000D01*
X96681879Y-162887000D01*
X96681879Y-163120333D01*
X96681879Y-163353667D01*
X96531682Y-163353667D01*
X96381485Y-163353667D01*
X96381485Y-162687000D01*
X96381485Y-162620333D01*
X96681879Y-162620333D01*
X96829346Y-162620333D01*
X96932641Y-162615911D01*
X97013113Y-162604843D01*
X97029609Y-162600100D01*
X97070691Y-162549197D01*
X97082405Y-162453667D01*
X97074267Y-162368341D01*
X97041018Y-162317949D01*
X96969404Y-162293761D01*
X96846170Y-162287046D01*
X96829346Y-162287000D01*
X96681879Y-162287000D01*
X96681879Y-162453667D01*
X96681879Y-162620333D01*
X96381485Y-162620333D01*
X96381485Y-162453667D01*
X96381485Y-162020333D01*
X96750291Y-162020333D01*
X96955411Y-162024733D01*
G37*
G36*
X87936820Y-161777911D02*
G01*
X87993238Y-161838842D01*
X88016992Y-161868687D01*
X88104838Y-161983708D01*
X87712215Y-162321075D01*
X87576573Y-162438648D01*
X87460051Y-162541584D01*
X87371572Y-162621848D01*
X87320058Y-162671403D01*
X87310699Y-162682700D01*
X87331724Y-162711448D01*
X87395559Y-162775139D01*
X87493816Y-162865941D01*
X87618105Y-162976018D01*
X87704482Y-163050444D01*
X88107158Y-163393931D01*
X88027588Y-163496976D01*
X87967879Y-163566349D01*
X87920464Y-163608071D01*
X87913389Y-163611550D01*
X87878810Y-163594235D01*
X87801963Y-163539271D01*
X87690821Y-163452906D01*
X87553359Y-163341384D01*
X87397552Y-163210950D01*
X87348848Y-163169428D01*
X87190756Y-163032916D01*
X87051464Y-162910397D01*
X86938453Y-162808636D01*
X86859199Y-162734395D01*
X86821182Y-162694439D01*
X86818935Y-162690156D01*
X86843036Y-162661271D01*
X86909273Y-162597522D01*
X87008548Y-162506779D01*
X87131765Y-162396916D01*
X87269825Y-162275804D01*
X87413633Y-162151315D01*
X87554090Y-162031322D01*
X87682100Y-161923697D01*
X87788564Y-161836311D01*
X87864386Y-161777037D01*
X87900468Y-161753748D01*
X87901177Y-161753666D01*
X87936820Y-161777911D01*
G37*
G36*
X89346628Y-161774317D02*
G01*
X89419332Y-161831086D01*
X89523681Y-161916206D01*
X89650582Y-162021910D01*
X89790942Y-162140428D01*
X89935669Y-162263991D01*
X90075669Y-162384831D01*
X90201850Y-162495181D01*
X90305119Y-162587270D01*
X90376383Y-162653330D01*
X90406549Y-162685594D01*
X90406978Y-162686898D01*
X90382749Y-162715182D01*
X90316143Y-162778109D01*
X90216276Y-162867903D01*
X90092266Y-162976786D01*
X89953230Y-163096979D01*
X89808285Y-163220705D01*
X89666550Y-163340186D01*
X89537140Y-163447645D01*
X89429174Y-163535302D01*
X89351769Y-163595382D01*
X89314042Y-163620105D01*
X89312780Y-163620333D01*
X89274018Y-163596002D01*
X89215908Y-163534977D01*
X89193444Y-163506899D01*
X89106809Y-163393464D01*
X89506565Y-163053011D01*
X89642994Y-162935397D01*
X89759408Y-162832321D01*
X89847155Y-162751665D01*
X89897580Y-162701309D01*
X89906320Y-162688961D01*
X89882275Y-162660283D01*
X89815885Y-162596453D01*
X89715768Y-162505373D01*
X89590544Y-162394948D01*
X89507070Y-162322805D01*
X89107820Y-161980245D01*
X89198332Y-161866957D01*
X89259107Y-161797679D01*
X89304751Y-161757622D01*
X89314662Y-161753667D01*
X89346628Y-161774317D01*
G37*
G36*
X91566282Y-162013251D02*
G01*
X91728259Y-162078779D01*
X91799800Y-162131531D01*
X91902946Y-162241988D01*
X91967905Y-162366748D01*
X92001083Y-162523072D01*
X92009080Y-162695533D01*
X91990751Y-162920476D01*
X91933687Y-163095458D01*
X91834770Y-163226903D01*
X91709958Y-163312000D01*
X91525455Y-163373284D01*
X91337256Y-163379283D01*
X91189685Y-163340113D01*
X91047800Y-163243750D01*
X90939698Y-163099451D01*
X90869273Y-162918888D01*
X90840418Y-162713737D01*
X90844016Y-162666495D01*
X91175107Y-162666495D01*
X91180234Y-162829317D01*
X91198053Y-162939675D01*
X91233518Y-163011324D01*
X91291585Y-163058016D01*
X91321352Y-163072399D01*
X91454562Y-163100190D01*
X91573290Y-163064497D01*
X91599971Y-163045704D01*
X91646521Y-162975041D01*
X91680114Y-162859997D01*
X91696521Y-162722288D01*
X91691514Y-162583626D01*
X91690874Y-162578842D01*
X91651060Y-162427065D01*
X91579395Y-162331931D01*
X91472639Y-162289856D01*
X91427403Y-162287000D01*
X91309965Y-162312425D01*
X91229766Y-162390000D01*
X91185508Y-162521672D01*
X91175107Y-162666495D01*
X90844016Y-162666495D01*
X90857026Y-162495670D01*
X90877884Y-162405231D01*
X90954099Y-162244325D01*
X91074626Y-162120642D01*
X91225885Y-162038214D01*
X91394297Y-162001073D01*
X91566282Y-162013251D01*
G37*
G36*
X98332328Y-162037272D02*
G01*
X98480802Y-162120222D01*
X98523633Y-162160093D01*
X98594429Y-162247379D01*
X98609944Y-162309117D01*
X98568680Y-162359243D01*
X98498049Y-162398327D01*
X98419448Y-162432685D01*
X98373724Y-162433963D01*
X98333700Y-162398193D01*
X98312052Y-162371167D01*
X98220958Y-162304404D01*
X98106007Y-162287524D01*
X97988962Y-162321743D01*
X97945563Y-162350710D01*
X97905877Y-162389331D01*
X97882255Y-162437272D01*
X97870631Y-162511682D01*
X97866938Y-162629711D01*
X97866767Y-162683031D01*
X97869188Y-162822941D01*
X97878986Y-162914029D01*
X97899963Y-162974044D01*
X97935923Y-163020734D01*
X97940012Y-163024877D01*
X98045513Y-163089038D01*
X98161956Y-163093972D01*
X98271570Y-163040639D01*
X98307948Y-163005046D01*
X98388104Y-162911982D01*
X98502928Y-162973738D01*
X98587713Y-163029729D01*
X98612384Y-163084561D01*
X98580857Y-163155922D01*
X98551906Y-163194943D01*
X98430744Y-163298699D01*
X98272211Y-163363610D01*
X98095907Y-163385577D01*
X97921434Y-163360498D01*
X97862733Y-163339114D01*
X97730628Y-163247733D01*
X97631970Y-163111729D01*
X97567262Y-162944461D01*
X97537008Y-162759288D01*
X97541711Y-162569571D01*
X97581873Y-162388669D01*
X97657998Y-162229942D01*
X97770590Y-162106748D01*
X97815176Y-162076556D01*
X97980365Y-162013181D01*
X98159132Y-162000839D01*
X98332328Y-162037272D01*
G37*
G36*
X93975560Y-162375323D02*
G01*
X94102942Y-162468282D01*
X94184440Y-162609550D01*
X94219303Y-162791723D01*
X94228660Y-162937000D01*
X93919921Y-162946584D01*
X93765172Y-162954047D01*
X93668261Y-162965886D01*
X93620333Y-162983659D01*
X93611183Y-163000836D01*
X93639636Y-163068884D01*
X93711590Y-163112840D01*
X93806935Y-163128830D01*
X93905561Y-163112979D01*
X93977211Y-163071346D01*
X94026508Y-163033180D01*
X94062510Y-163039330D01*
X94110531Y-163090790D01*
X94161898Y-163173287D01*
X94155070Y-163239498D01*
X94086829Y-163301014D01*
X94045606Y-163324780D01*
X93893970Y-163375305D01*
X93727046Y-163382835D01*
X93572649Y-163347528D01*
X93521209Y-163321800D01*
X93405524Y-163231804D01*
X93334396Y-163122339D01*
X93300181Y-162977502D01*
X93294100Y-162849243D01*
X93299823Y-162708084D01*
X93305843Y-162679337D01*
X93617205Y-162679337D01*
X93617243Y-162724890D01*
X93645483Y-162746724D01*
X93718183Y-162753359D01*
X93759058Y-162753667D01*
X93865359Y-162745181D01*
X93909805Y-162719196D01*
X93911577Y-162710037D01*
X93893103Y-162650142D01*
X93864757Y-162602463D01*
X93818827Y-162559917D01*
X93758080Y-162560768D01*
X93722904Y-162571763D01*
X93642327Y-162624654D01*
X93617205Y-162679337D01*
X93305843Y-162679337D01*
X93320178Y-162610880D01*
X93359939Y-162535651D01*
X93363227Y-162531111D01*
X93490166Y-162410132D01*
X93647474Y-162341597D01*
X93802619Y-162331033D01*
X93975560Y-162375323D01*
G37*
G36*
X92901286Y-162349769D02*
G01*
X93015651Y-162426276D01*
X93093871Y-162532158D01*
X93096466Y-162538143D01*
X93129256Y-162667288D01*
X93142021Y-162830276D01*
X93134761Y-162997354D01*
X93107476Y-163138767D01*
X93096466Y-163169190D01*
X93019112Y-163279397D01*
X92905502Y-163353449D01*
X92774942Y-163385034D01*
X92646736Y-163367846D01*
X92585461Y-163336189D01*
X92546968Y-163311986D01*
X92524470Y-163314544D01*
X92512582Y-163355289D01*
X92505916Y-163445644D01*
X92502936Y-163511189D01*
X92493048Y-163737000D01*
X92351196Y-163747250D01*
X92209343Y-163757500D01*
X92209343Y-163088916D01*
X92208944Y-162883988D01*
X92208747Y-162851677D01*
X92509737Y-162851677D01*
X92512825Y-162968351D01*
X92520911Y-163057088D01*
X92531988Y-163098111D01*
X92595517Y-163122296D01*
X92684933Y-163118516D01*
X92768048Y-163091681D01*
X92808957Y-163055858D01*
X92836072Y-162964536D01*
X92843148Y-162848786D01*
X92831356Y-162735863D01*
X92801868Y-162653020D01*
X92791059Y-162639381D01*
X92698564Y-162591319D01*
X92582504Y-162600309D01*
X92562533Y-162607233D01*
X92532697Y-162634856D01*
X92516160Y-162698032D01*
X92510000Y-162810287D01*
X92509737Y-162851677D01*
X92208747Y-162851677D01*
X92207833Y-162701953D01*
X92206134Y-162553277D01*
X92203974Y-162448429D01*
X92201479Y-162397875D01*
X92200999Y-162395333D01*
X92225778Y-162378928D01*
X92298208Y-162365073D01*
X92351196Y-162360173D01*
X92453538Y-162360631D01*
X92505494Y-162376676D01*
X92509737Y-162386029D01*
X92534853Y-162399070D01*
X92604195Y-162373243D01*
X92608211Y-162371189D01*
X92699092Y-162335046D01*
X92776754Y-162320333D01*
X92901286Y-162349769D01*
G37*
D13*
X86588600Y-133045200D02*
X86588600Y-140004800D01*
X86588600Y-140004800D02*
X90551000Y-140004800D01*
X90551000Y-133045200D02*
X86588600Y-133045200D01*
X90551000Y-140004800D02*
X90551000Y-133045200D01*
D14*
X105710000Y-157998000D02*
X78710000Y-157998000D01*
X78710000Y-140198000D01*
X105710000Y-140198000D01*
X105710000Y-157998000D01*
%LPC*%
D15*
X87550000Y-159639000D03*
X85725000Y-159639000D03*
D16*
X97870000Y-159639000D03*
X99695000Y-159639000D03*
D17*
X97282000Y-136705000D03*
X97282000Y-138430000D03*
X95504000Y-136705000D03*
X95504000Y-138430000D03*
X93726000Y-136678500D03*
X93726000Y-138403500D03*
D18*
X91426000Y-159639000D03*
X89676000Y-159639000D03*
D19*
X93994000Y-159639000D03*
X95744000Y-159639000D03*
D20*
X111094776Y-149098000D03*
D21*
X94201000Y-148938000D03*
X99601000Y-148938000D03*
X94201000Y-154338000D03*
X99601000Y-154338000D03*
D20*
X74325224Y-149098000D03*
X92710000Y-130713224D03*
X92710000Y-167482776D03*
D22*
X97499898Y-133059898D03*
D23*
X99295949Y-134855949D03*
X101092000Y-136652000D03*
X102888052Y-138448052D03*
D24*
X91795600Y-138825000D03*
X91795600Y-136525000D03*
X91795600Y-134225000D03*
D25*
X85344000Y-136525000D03*
D26*
X105710000Y-144098000D03*
X105710000Y-146098000D03*
X105710000Y-148098000D03*
X105710000Y-150098000D03*
X105710000Y-152098000D03*
X105710000Y-154098000D03*
X78710000Y-154748000D03*
X78710000Y-153248000D03*
X78710000Y-151748000D03*
X78710000Y-146448000D03*
X78710000Y-144948000D03*
X78710000Y-143448000D03*
%LPD*%
M02*
