G04 #@! TF.GenerationSoftware,KiCad,Pcbnew,8.0.5*
G04 #@! TF.CreationDate,2024-09-26T09:52:47+02:00*
G04 #@! TF.ProjectId,BL-R8812AF1 mount,424c2d52-3838-4313-9241-4631206d6f75,rev?*
G04 #@! TF.SameCoordinates,Original*
G04 #@! TF.FileFunction,Legend,Bot*
G04 #@! TF.FilePolarity,Positive*
%FSLAX46Y46*%
G04 Gerber Fmt 4.6, Leading zero omitted, Abs format (unit mm)*
G04 Created by KiCad (PCBNEW 8.0.5) date 2024-09-26 09:52:47*
%MOMM*%
%LPD*%
G01*
G04 APERTURE LIST*
G04 Aperture macros list*
%AMHorizOval*
0 Thick line with rounded ends*
0 $1 width*
0 $2 $3 position (X,Y) of the first rounded end (center of the circle)*
0 $4 $5 position (X,Y) of the second rounded end (center of the circle)*
0 Add line between two ends*
20,1,$1,$2,$3,$4,$5,0*
0 Add two circle primitives to create the rounded ends*
1,1,$1,$2,$3*
1,1,$1,$4,$5*%
G04 Aperture macros list end*
%ADD10C,0.200000*%
%ADD11C,0.000000*%
%ADD12C,4.200000*%
%ADD13C,4.000000*%
%ADD14C,1.700000*%
%ADD15HorizOval,1.700000X0.000000X0.000000X0.000000X0.000000X0*%
G04 APERTURE END LIST*
D10*
X90122523Y-148018414D02*
X89965380Y-148070795D01*
X89965380Y-148070795D02*
X89912999Y-148123176D01*
X89912999Y-148123176D02*
X89860618Y-148227938D01*
X89860618Y-148227938D02*
X89860618Y-148385081D01*
X89860618Y-148385081D02*
X89912999Y-148489843D01*
X89912999Y-148489843D02*
X89965380Y-148542224D01*
X89965380Y-148542224D02*
X90070142Y-148594604D01*
X90070142Y-148594604D02*
X90489190Y-148594604D01*
X90489190Y-148594604D02*
X90489190Y-147494604D01*
X90489190Y-147494604D02*
X90122523Y-147494604D01*
X90122523Y-147494604D02*
X90017761Y-147546985D01*
X90017761Y-147546985D02*
X89965380Y-147599366D01*
X89965380Y-147599366D02*
X89912999Y-147704128D01*
X89912999Y-147704128D02*
X89912999Y-147808890D01*
X89912999Y-147808890D02*
X89965380Y-147913652D01*
X89965380Y-147913652D02*
X90017761Y-147966033D01*
X90017761Y-147966033D02*
X90122523Y-148018414D01*
X90122523Y-148018414D02*
X90489190Y-148018414D01*
X88865380Y-148594604D02*
X89389190Y-148594604D01*
X89389190Y-148594604D02*
X89389190Y-147494604D01*
X88498714Y-148175557D02*
X87660619Y-148175557D01*
X86508237Y-148594604D02*
X86874904Y-148070795D01*
X87136809Y-148594604D02*
X87136809Y-147494604D01*
X87136809Y-147494604D02*
X86717761Y-147494604D01*
X86717761Y-147494604D02*
X86612999Y-147546985D01*
X86612999Y-147546985D02*
X86560618Y-147599366D01*
X86560618Y-147599366D02*
X86508237Y-147704128D01*
X86508237Y-147704128D02*
X86508237Y-147861271D01*
X86508237Y-147861271D02*
X86560618Y-147966033D01*
X86560618Y-147966033D02*
X86612999Y-148018414D01*
X86612999Y-148018414D02*
X86717761Y-148070795D01*
X86717761Y-148070795D02*
X87136809Y-148070795D01*
X85879666Y-147966033D02*
X85984428Y-147913652D01*
X85984428Y-147913652D02*
X86036809Y-147861271D01*
X86036809Y-147861271D02*
X86089190Y-147756509D01*
X86089190Y-147756509D02*
X86089190Y-147704128D01*
X86089190Y-147704128D02*
X86036809Y-147599366D01*
X86036809Y-147599366D02*
X85984428Y-147546985D01*
X85984428Y-147546985D02*
X85879666Y-147494604D01*
X85879666Y-147494604D02*
X85670142Y-147494604D01*
X85670142Y-147494604D02*
X85565380Y-147546985D01*
X85565380Y-147546985D02*
X85512999Y-147599366D01*
X85512999Y-147599366D02*
X85460618Y-147704128D01*
X85460618Y-147704128D02*
X85460618Y-147756509D01*
X85460618Y-147756509D02*
X85512999Y-147861271D01*
X85512999Y-147861271D02*
X85565380Y-147913652D01*
X85565380Y-147913652D02*
X85670142Y-147966033D01*
X85670142Y-147966033D02*
X85879666Y-147966033D01*
X85879666Y-147966033D02*
X85984428Y-148018414D01*
X85984428Y-148018414D02*
X86036809Y-148070795D01*
X86036809Y-148070795D02*
X86089190Y-148175557D01*
X86089190Y-148175557D02*
X86089190Y-148385081D01*
X86089190Y-148385081D02*
X86036809Y-148489843D01*
X86036809Y-148489843D02*
X85984428Y-148542224D01*
X85984428Y-148542224D02*
X85879666Y-148594604D01*
X85879666Y-148594604D02*
X85670142Y-148594604D01*
X85670142Y-148594604D02*
X85565380Y-148542224D01*
X85565380Y-148542224D02*
X85512999Y-148489843D01*
X85512999Y-148489843D02*
X85460618Y-148385081D01*
X85460618Y-148385081D02*
X85460618Y-148175557D01*
X85460618Y-148175557D02*
X85512999Y-148070795D01*
X85512999Y-148070795D02*
X85565380Y-148018414D01*
X85565380Y-148018414D02*
X85670142Y-147966033D01*
X84832047Y-147966033D02*
X84936809Y-147913652D01*
X84936809Y-147913652D02*
X84989190Y-147861271D01*
X84989190Y-147861271D02*
X85041571Y-147756509D01*
X85041571Y-147756509D02*
X85041571Y-147704128D01*
X85041571Y-147704128D02*
X84989190Y-147599366D01*
X84989190Y-147599366D02*
X84936809Y-147546985D01*
X84936809Y-147546985D02*
X84832047Y-147494604D01*
X84832047Y-147494604D02*
X84622523Y-147494604D01*
X84622523Y-147494604D02*
X84517761Y-147546985D01*
X84517761Y-147546985D02*
X84465380Y-147599366D01*
X84465380Y-147599366D02*
X84412999Y-147704128D01*
X84412999Y-147704128D02*
X84412999Y-147756509D01*
X84412999Y-147756509D02*
X84465380Y-147861271D01*
X84465380Y-147861271D02*
X84517761Y-147913652D01*
X84517761Y-147913652D02*
X84622523Y-147966033D01*
X84622523Y-147966033D02*
X84832047Y-147966033D01*
X84832047Y-147966033D02*
X84936809Y-148018414D01*
X84936809Y-148018414D02*
X84989190Y-148070795D01*
X84989190Y-148070795D02*
X85041571Y-148175557D01*
X85041571Y-148175557D02*
X85041571Y-148385081D01*
X85041571Y-148385081D02*
X84989190Y-148489843D01*
X84989190Y-148489843D02*
X84936809Y-148542224D01*
X84936809Y-148542224D02*
X84832047Y-148594604D01*
X84832047Y-148594604D02*
X84622523Y-148594604D01*
X84622523Y-148594604D02*
X84517761Y-148542224D01*
X84517761Y-148542224D02*
X84465380Y-148489843D01*
X84465380Y-148489843D02*
X84412999Y-148385081D01*
X84412999Y-148385081D02*
X84412999Y-148175557D01*
X84412999Y-148175557D02*
X84465380Y-148070795D01*
X84465380Y-148070795D02*
X84517761Y-148018414D01*
X84517761Y-148018414D02*
X84622523Y-147966033D01*
X83365380Y-148594604D02*
X83993952Y-148594604D01*
X83679666Y-148594604D02*
X83679666Y-147494604D01*
X83679666Y-147494604D02*
X83784428Y-147651747D01*
X83784428Y-147651747D02*
X83889190Y-147756509D01*
X83889190Y-147756509D02*
X83993952Y-147808890D01*
X82946333Y-147599366D02*
X82893952Y-147546985D01*
X82893952Y-147546985D02*
X82789190Y-147494604D01*
X82789190Y-147494604D02*
X82527285Y-147494604D01*
X82527285Y-147494604D02*
X82422523Y-147546985D01*
X82422523Y-147546985D02*
X82370142Y-147599366D01*
X82370142Y-147599366D02*
X82317761Y-147704128D01*
X82317761Y-147704128D02*
X82317761Y-147808890D01*
X82317761Y-147808890D02*
X82370142Y-147966033D01*
X82370142Y-147966033D02*
X82998714Y-148594604D01*
X82998714Y-148594604D02*
X82317761Y-148594604D01*
X81898714Y-148280319D02*
X81374904Y-148280319D01*
X82003476Y-148594604D02*
X81636809Y-147494604D01*
X81636809Y-147494604D02*
X81270142Y-148594604D01*
X80536809Y-148018414D02*
X80903476Y-148018414D01*
X80903476Y-148594604D02*
X80903476Y-147494604D01*
X80903476Y-147494604D02*
X80379666Y-147494604D01*
X79384428Y-148594604D02*
X80013000Y-148594604D01*
X79698714Y-148594604D02*
X79698714Y-147494604D01*
X79698714Y-147494604D02*
X79803476Y-147651747D01*
X79803476Y-147651747D02*
X79908238Y-147756509D01*
X79908238Y-147756509D02*
X80013000Y-147808890D01*
X90672523Y-150365542D02*
X91039190Y-149841733D01*
X91301095Y-150365542D02*
X91301095Y-149265542D01*
X91301095Y-149265542D02*
X90882047Y-149265542D01*
X90882047Y-149265542D02*
X90777285Y-149317923D01*
X90777285Y-149317923D02*
X90724904Y-149370304D01*
X90724904Y-149370304D02*
X90672523Y-149475066D01*
X90672523Y-149475066D02*
X90672523Y-149632209D01*
X90672523Y-149632209D02*
X90724904Y-149736971D01*
X90724904Y-149736971D02*
X90777285Y-149789352D01*
X90777285Y-149789352D02*
X90882047Y-149841733D01*
X90882047Y-149841733D02*
X91301095Y-149841733D01*
X90358238Y-149265542D02*
X89729666Y-149265542D01*
X90043952Y-150365542D02*
X90043952Y-149265542D01*
X88839190Y-150365542D02*
X89363000Y-150365542D01*
X89363000Y-150365542D02*
X89363000Y-149265542D01*
X88315381Y-149736971D02*
X88420143Y-149684590D01*
X88420143Y-149684590D02*
X88472524Y-149632209D01*
X88472524Y-149632209D02*
X88524905Y-149527447D01*
X88524905Y-149527447D02*
X88524905Y-149475066D01*
X88524905Y-149475066D02*
X88472524Y-149370304D01*
X88472524Y-149370304D02*
X88420143Y-149317923D01*
X88420143Y-149317923D02*
X88315381Y-149265542D01*
X88315381Y-149265542D02*
X88105857Y-149265542D01*
X88105857Y-149265542D02*
X88001095Y-149317923D01*
X88001095Y-149317923D02*
X87948714Y-149370304D01*
X87948714Y-149370304D02*
X87896333Y-149475066D01*
X87896333Y-149475066D02*
X87896333Y-149527447D01*
X87896333Y-149527447D02*
X87948714Y-149632209D01*
X87948714Y-149632209D02*
X88001095Y-149684590D01*
X88001095Y-149684590D02*
X88105857Y-149736971D01*
X88105857Y-149736971D02*
X88315381Y-149736971D01*
X88315381Y-149736971D02*
X88420143Y-149789352D01*
X88420143Y-149789352D02*
X88472524Y-149841733D01*
X88472524Y-149841733D02*
X88524905Y-149946495D01*
X88524905Y-149946495D02*
X88524905Y-150156019D01*
X88524905Y-150156019D02*
X88472524Y-150260781D01*
X88472524Y-150260781D02*
X88420143Y-150313162D01*
X88420143Y-150313162D02*
X88315381Y-150365542D01*
X88315381Y-150365542D02*
X88105857Y-150365542D01*
X88105857Y-150365542D02*
X88001095Y-150313162D01*
X88001095Y-150313162D02*
X87948714Y-150260781D01*
X87948714Y-150260781D02*
X87896333Y-150156019D01*
X87896333Y-150156019D02*
X87896333Y-149946495D01*
X87896333Y-149946495D02*
X87948714Y-149841733D01*
X87948714Y-149841733D02*
X88001095Y-149789352D01*
X88001095Y-149789352D02*
X88105857Y-149736971D01*
X87267762Y-149736971D02*
X87372524Y-149684590D01*
X87372524Y-149684590D02*
X87424905Y-149632209D01*
X87424905Y-149632209D02*
X87477286Y-149527447D01*
X87477286Y-149527447D02*
X87477286Y-149475066D01*
X87477286Y-149475066D02*
X87424905Y-149370304D01*
X87424905Y-149370304D02*
X87372524Y-149317923D01*
X87372524Y-149317923D02*
X87267762Y-149265542D01*
X87267762Y-149265542D02*
X87058238Y-149265542D01*
X87058238Y-149265542D02*
X86953476Y-149317923D01*
X86953476Y-149317923D02*
X86901095Y-149370304D01*
X86901095Y-149370304D02*
X86848714Y-149475066D01*
X86848714Y-149475066D02*
X86848714Y-149527447D01*
X86848714Y-149527447D02*
X86901095Y-149632209D01*
X86901095Y-149632209D02*
X86953476Y-149684590D01*
X86953476Y-149684590D02*
X87058238Y-149736971D01*
X87058238Y-149736971D02*
X87267762Y-149736971D01*
X87267762Y-149736971D02*
X87372524Y-149789352D01*
X87372524Y-149789352D02*
X87424905Y-149841733D01*
X87424905Y-149841733D02*
X87477286Y-149946495D01*
X87477286Y-149946495D02*
X87477286Y-150156019D01*
X87477286Y-150156019D02*
X87424905Y-150260781D01*
X87424905Y-150260781D02*
X87372524Y-150313162D01*
X87372524Y-150313162D02*
X87267762Y-150365542D01*
X87267762Y-150365542D02*
X87058238Y-150365542D01*
X87058238Y-150365542D02*
X86953476Y-150313162D01*
X86953476Y-150313162D02*
X86901095Y-150260781D01*
X86901095Y-150260781D02*
X86848714Y-150156019D01*
X86848714Y-150156019D02*
X86848714Y-149946495D01*
X86848714Y-149946495D02*
X86901095Y-149841733D01*
X86901095Y-149841733D02*
X86953476Y-149789352D01*
X86953476Y-149789352D02*
X87058238Y-149736971D01*
X85801095Y-150365542D02*
X86429667Y-150365542D01*
X86115381Y-150365542D02*
X86115381Y-149265542D01*
X86115381Y-149265542D02*
X86220143Y-149422685D01*
X86220143Y-149422685D02*
X86324905Y-149527447D01*
X86324905Y-149527447D02*
X86429667Y-149579828D01*
X85382048Y-149370304D02*
X85329667Y-149317923D01*
X85329667Y-149317923D02*
X85224905Y-149265542D01*
X85224905Y-149265542D02*
X84963000Y-149265542D01*
X84963000Y-149265542D02*
X84858238Y-149317923D01*
X84858238Y-149317923D02*
X84805857Y-149370304D01*
X84805857Y-149370304D02*
X84753476Y-149475066D01*
X84753476Y-149475066D02*
X84753476Y-149579828D01*
X84753476Y-149579828D02*
X84805857Y-149736971D01*
X84805857Y-149736971D02*
X85434429Y-150365542D01*
X85434429Y-150365542D02*
X84753476Y-150365542D01*
X84334429Y-150051257D02*
X83810619Y-150051257D01*
X84439191Y-150365542D02*
X84072524Y-149265542D01*
X84072524Y-149265542D02*
X83705857Y-150365542D01*
X83339191Y-149265542D02*
X83339191Y-150156019D01*
X83339191Y-150156019D02*
X83286810Y-150260781D01*
X83286810Y-150260781D02*
X83234429Y-150313162D01*
X83234429Y-150313162D02*
X83129667Y-150365542D01*
X83129667Y-150365542D02*
X82920143Y-150365542D01*
X82920143Y-150365542D02*
X82815381Y-150313162D01*
X82815381Y-150313162D02*
X82763000Y-150260781D01*
X82763000Y-150260781D02*
X82710619Y-150156019D01*
X82710619Y-150156019D02*
X82710619Y-149265542D01*
X81453477Y-149265542D02*
X81191572Y-150365542D01*
X81191572Y-150365542D02*
X80982048Y-149579828D01*
X80982048Y-149579828D02*
X80772524Y-150365542D01*
X80772524Y-150365542D02*
X80510620Y-149265542D01*
X80091572Y-150365542D02*
X80091572Y-149265542D01*
X79201095Y-149789352D02*
X79567762Y-149789352D01*
X79567762Y-150365542D02*
X79567762Y-149265542D01*
X79567762Y-149265542D02*
X79043952Y-149265542D01*
X78624905Y-150365542D02*
X78624905Y-149265542D01*
X89991570Y-152136480D02*
X89991570Y-151403147D01*
X89991570Y-151507909D02*
X89939189Y-151455528D01*
X89939189Y-151455528D02*
X89834427Y-151403147D01*
X89834427Y-151403147D02*
X89677284Y-151403147D01*
X89677284Y-151403147D02*
X89572522Y-151455528D01*
X89572522Y-151455528D02*
X89520141Y-151560290D01*
X89520141Y-151560290D02*
X89520141Y-152136480D01*
X89520141Y-151560290D02*
X89467760Y-151455528D01*
X89467760Y-151455528D02*
X89362998Y-151403147D01*
X89362998Y-151403147D02*
X89205855Y-151403147D01*
X89205855Y-151403147D02*
X89101094Y-151455528D01*
X89101094Y-151455528D02*
X89048713Y-151560290D01*
X89048713Y-151560290D02*
X89048713Y-152136480D01*
X88367760Y-152136480D02*
X88472522Y-152084100D01*
X88472522Y-152084100D02*
X88524903Y-152031719D01*
X88524903Y-152031719D02*
X88577284Y-151926957D01*
X88577284Y-151926957D02*
X88577284Y-151612671D01*
X88577284Y-151612671D02*
X88524903Y-151507909D01*
X88524903Y-151507909D02*
X88472522Y-151455528D01*
X88472522Y-151455528D02*
X88367760Y-151403147D01*
X88367760Y-151403147D02*
X88210617Y-151403147D01*
X88210617Y-151403147D02*
X88105855Y-151455528D01*
X88105855Y-151455528D02*
X88053474Y-151507909D01*
X88053474Y-151507909D02*
X88001093Y-151612671D01*
X88001093Y-151612671D02*
X88001093Y-151926957D01*
X88001093Y-151926957D02*
X88053474Y-152031719D01*
X88053474Y-152031719D02*
X88105855Y-152084100D01*
X88105855Y-152084100D02*
X88210617Y-152136480D01*
X88210617Y-152136480D02*
X88367760Y-152136480D01*
X87058236Y-151403147D02*
X87058236Y-152136480D01*
X87529665Y-151403147D02*
X87529665Y-151979338D01*
X87529665Y-151979338D02*
X87477284Y-152084100D01*
X87477284Y-152084100D02*
X87372522Y-152136480D01*
X87372522Y-152136480D02*
X87215379Y-152136480D01*
X87215379Y-152136480D02*
X87110617Y-152084100D01*
X87110617Y-152084100D02*
X87058236Y-152031719D01*
X86534427Y-151403147D02*
X86534427Y-152136480D01*
X86534427Y-151507909D02*
X86482046Y-151455528D01*
X86482046Y-151455528D02*
X86377284Y-151403147D01*
X86377284Y-151403147D02*
X86220141Y-151403147D01*
X86220141Y-151403147D02*
X86115379Y-151455528D01*
X86115379Y-151455528D02*
X86062998Y-151560290D01*
X86062998Y-151560290D02*
X86062998Y-152136480D01*
X85696332Y-151403147D02*
X85277284Y-151403147D01*
X85539189Y-151036480D02*
X85539189Y-151979338D01*
X85539189Y-151979338D02*
X85486808Y-152084100D01*
X85486808Y-152084100D02*
X85382046Y-152136480D01*
X85382046Y-152136480D02*
X85277284Y-152136480D01*
X84072523Y-152136480D02*
X84072523Y-151036480D01*
X84072523Y-151455528D02*
X83967761Y-151403147D01*
X83967761Y-151403147D02*
X83758237Y-151403147D01*
X83758237Y-151403147D02*
X83653475Y-151455528D01*
X83653475Y-151455528D02*
X83601094Y-151507909D01*
X83601094Y-151507909D02*
X83548713Y-151612671D01*
X83548713Y-151612671D02*
X83548713Y-151926957D01*
X83548713Y-151926957D02*
X83601094Y-152031719D01*
X83601094Y-152031719D02*
X83653475Y-152084100D01*
X83653475Y-152084100D02*
X83758237Y-152136480D01*
X83758237Y-152136480D02*
X83967761Y-152136480D01*
X83967761Y-152136480D02*
X84072523Y-152084100D01*
X82920142Y-152136480D02*
X83024904Y-152084100D01*
X83024904Y-152084100D02*
X83077285Y-152031719D01*
X83077285Y-152031719D02*
X83129666Y-151926957D01*
X83129666Y-151926957D02*
X83129666Y-151612671D01*
X83129666Y-151612671D02*
X83077285Y-151507909D01*
X83077285Y-151507909D02*
X83024904Y-151455528D01*
X83024904Y-151455528D02*
X82920142Y-151403147D01*
X82920142Y-151403147D02*
X82762999Y-151403147D01*
X82762999Y-151403147D02*
X82658237Y-151455528D01*
X82658237Y-151455528D02*
X82605856Y-151507909D01*
X82605856Y-151507909D02*
X82553475Y-151612671D01*
X82553475Y-151612671D02*
X82553475Y-151926957D01*
X82553475Y-151926957D02*
X82605856Y-152031719D01*
X82605856Y-152031719D02*
X82658237Y-152084100D01*
X82658237Y-152084100D02*
X82762999Y-152136480D01*
X82762999Y-152136480D02*
X82920142Y-152136480D01*
X81610618Y-152136480D02*
X81610618Y-151560290D01*
X81610618Y-151560290D02*
X81662999Y-151455528D01*
X81662999Y-151455528D02*
X81767761Y-151403147D01*
X81767761Y-151403147D02*
X81977285Y-151403147D01*
X81977285Y-151403147D02*
X82082047Y-151455528D01*
X81610618Y-152084100D02*
X81715380Y-152136480D01*
X81715380Y-152136480D02*
X81977285Y-152136480D01*
X81977285Y-152136480D02*
X82082047Y-152084100D01*
X82082047Y-152084100D02*
X82134428Y-151979338D01*
X82134428Y-151979338D02*
X82134428Y-151874576D01*
X82134428Y-151874576D02*
X82082047Y-151769814D01*
X82082047Y-151769814D02*
X81977285Y-151717433D01*
X81977285Y-151717433D02*
X81715380Y-151717433D01*
X81715380Y-151717433D02*
X81610618Y-151665052D01*
X81086809Y-152136480D02*
X81086809Y-151403147D01*
X81086809Y-151612671D02*
X81034428Y-151507909D01*
X81034428Y-151507909D02*
X80982047Y-151455528D01*
X80982047Y-151455528D02*
X80877285Y-151403147D01*
X80877285Y-151403147D02*
X80772523Y-151403147D01*
X79934428Y-152136480D02*
X79934428Y-151036480D01*
X79934428Y-152084100D02*
X80039190Y-152136480D01*
X80039190Y-152136480D02*
X80248714Y-152136480D01*
X80248714Y-152136480D02*
X80353476Y-152084100D01*
X80353476Y-152084100D02*
X80405857Y-152031719D01*
X80405857Y-152031719D02*
X80458238Y-151926957D01*
X80458238Y-151926957D02*
X80458238Y-151612671D01*
X80458238Y-151612671D02*
X80405857Y-151507909D01*
X80405857Y-151507909D02*
X80353476Y-151455528D01*
X80353476Y-151455528D02*
X80248714Y-151403147D01*
X80248714Y-151403147D02*
X80039190Y-151403147D01*
X80039190Y-151403147D02*
X79934428Y-151455528D01*
X89991570Y-153593133D02*
X89467760Y-153593133D01*
X90096332Y-153907418D02*
X89729665Y-152807418D01*
X89729665Y-152807418D02*
X89362998Y-153907418D01*
X88996332Y-153907418D02*
X88996332Y-153174085D01*
X88996332Y-153383609D02*
X88943951Y-153278847D01*
X88943951Y-153278847D02*
X88891570Y-153226466D01*
X88891570Y-153226466D02*
X88786808Y-153174085D01*
X88786808Y-153174085D02*
X88682046Y-153174085D01*
X88472523Y-153174085D02*
X88053475Y-153174085D01*
X88315380Y-152807418D02*
X88315380Y-153750276D01*
X88315380Y-153750276D02*
X88262999Y-153855038D01*
X88262999Y-153855038D02*
X88158237Y-153907418D01*
X88158237Y-153907418D02*
X88053475Y-153907418D01*
X87215380Y-153174085D02*
X87215380Y-153907418D01*
X87686809Y-153174085D02*
X87686809Y-153750276D01*
X87686809Y-153750276D02*
X87634428Y-153855038D01*
X87634428Y-153855038D02*
X87529666Y-153907418D01*
X87529666Y-153907418D02*
X87372523Y-153907418D01*
X87372523Y-153907418D02*
X87267761Y-153855038D01*
X87267761Y-153855038D02*
X87215380Y-153802657D01*
X86691571Y-153907418D02*
X86691571Y-153174085D01*
X86691571Y-153383609D02*
X86639190Y-153278847D01*
X86639190Y-153278847D02*
X86586809Y-153226466D01*
X86586809Y-153226466D02*
X86482047Y-153174085D01*
X86482047Y-153174085D02*
X86377285Y-153174085D01*
X85172524Y-153907418D02*
X85172524Y-152807418D01*
X85172524Y-152807418D02*
X84753476Y-152807418D01*
X84753476Y-152807418D02*
X84648714Y-152859799D01*
X84648714Y-152859799D02*
X84596333Y-152912180D01*
X84596333Y-152912180D02*
X84543952Y-153016942D01*
X84543952Y-153016942D02*
X84543952Y-153174085D01*
X84543952Y-153174085D02*
X84596333Y-153278847D01*
X84596333Y-153278847D02*
X84648714Y-153331228D01*
X84648714Y-153331228D02*
X84753476Y-153383609D01*
X84753476Y-153383609D02*
X85172524Y-153383609D01*
X83653476Y-153855038D02*
X83758238Y-153907418D01*
X83758238Y-153907418D02*
X83967762Y-153907418D01*
X83967762Y-153907418D02*
X84072524Y-153855038D01*
X84072524Y-153855038D02*
X84124905Y-153750276D01*
X84124905Y-153750276D02*
X84124905Y-153331228D01*
X84124905Y-153331228D02*
X84072524Y-153226466D01*
X84072524Y-153226466D02*
X83967762Y-153174085D01*
X83967762Y-153174085D02*
X83758238Y-153174085D01*
X83758238Y-153174085D02*
X83653476Y-153226466D01*
X83653476Y-153226466D02*
X83601095Y-153331228D01*
X83601095Y-153331228D02*
X83601095Y-153435990D01*
X83601095Y-153435990D02*
X84124905Y-153540752D01*
X83863000Y-153907418D02*
X83967762Y-154012180D01*
X83967762Y-154012180D02*
X84020143Y-154116942D01*
X84020143Y-154116942D02*
X83967762Y-154221704D01*
X83967762Y-154221704D02*
X83863000Y-154274085D01*
X83863000Y-154274085D02*
X83758238Y-154274085D01*
X83129667Y-153907418D02*
X83129667Y-152807418D01*
X83024905Y-153488371D02*
X82710619Y-153907418D01*
X82710619Y-153174085D02*
X83129667Y-153593133D01*
X82082048Y-153907418D02*
X82186810Y-153855038D01*
X82186810Y-153855038D02*
X82239191Y-153802657D01*
X82239191Y-153802657D02*
X82291572Y-153697895D01*
X82291572Y-153697895D02*
X82291572Y-153383609D01*
X82291572Y-153383609D02*
X82239191Y-153278847D01*
X82239191Y-153278847D02*
X82186810Y-153226466D01*
X82186810Y-153226466D02*
X82082048Y-153174085D01*
X82082048Y-153174085D02*
X81924905Y-153174085D01*
X81924905Y-153174085D02*
X81820143Y-153226466D01*
X81820143Y-153226466D02*
X81767762Y-153278847D01*
X81767762Y-153278847D02*
X81715381Y-153383609D01*
X81715381Y-153383609D02*
X81715381Y-153697895D01*
X81715381Y-153697895D02*
X81767762Y-153802657D01*
X81767762Y-153802657D02*
X81820143Y-153855038D01*
X81820143Y-153855038D02*
X81924905Y-153907418D01*
X81924905Y-153907418D02*
X82082048Y-153907418D01*
X81296334Y-153855038D02*
X81191572Y-153907418D01*
X81191572Y-153907418D02*
X80982048Y-153907418D01*
X80982048Y-153907418D02*
X80877286Y-153855038D01*
X80877286Y-153855038D02*
X80824905Y-153750276D01*
X80824905Y-153750276D02*
X80824905Y-153697895D01*
X80824905Y-153697895D02*
X80877286Y-153593133D01*
X80877286Y-153593133D02*
X80982048Y-153540752D01*
X80982048Y-153540752D02*
X81139191Y-153540752D01*
X81139191Y-153540752D02*
X81243953Y-153488371D01*
X81243953Y-153488371D02*
X81296334Y-153383609D01*
X81296334Y-153383609D02*
X81296334Y-153331228D01*
X81296334Y-153331228D02*
X81243953Y-153226466D01*
X81243953Y-153226466D02*
X81139191Y-153174085D01*
X81139191Y-153174085D02*
X80982048Y-153174085D01*
X80982048Y-153174085D02*
X80877286Y-153226466D01*
X80458239Y-153174085D02*
X79882048Y-153174085D01*
X79882048Y-153174085D02*
X80458239Y-153907418D01*
X80458239Y-153907418D02*
X79882048Y-153907418D01*
X86848714Y-154683118D02*
X86796333Y-154630737D01*
X86796333Y-154630737D02*
X86691571Y-154578356D01*
X86691571Y-154578356D02*
X86429666Y-154578356D01*
X86429666Y-154578356D02*
X86324904Y-154630737D01*
X86324904Y-154630737D02*
X86272523Y-154683118D01*
X86272523Y-154683118D02*
X86220142Y-154787880D01*
X86220142Y-154787880D02*
X86220142Y-154892642D01*
X86220142Y-154892642D02*
X86272523Y-155049785D01*
X86272523Y-155049785D02*
X86901095Y-155678356D01*
X86901095Y-155678356D02*
X86220142Y-155678356D01*
X85539190Y-154578356D02*
X85434428Y-154578356D01*
X85434428Y-154578356D02*
X85329666Y-154630737D01*
X85329666Y-154630737D02*
X85277285Y-154683118D01*
X85277285Y-154683118D02*
X85224904Y-154787880D01*
X85224904Y-154787880D02*
X85172523Y-154997404D01*
X85172523Y-154997404D02*
X85172523Y-155259309D01*
X85172523Y-155259309D02*
X85224904Y-155468833D01*
X85224904Y-155468833D02*
X85277285Y-155573595D01*
X85277285Y-155573595D02*
X85329666Y-155625976D01*
X85329666Y-155625976D02*
X85434428Y-155678356D01*
X85434428Y-155678356D02*
X85539190Y-155678356D01*
X85539190Y-155678356D02*
X85643952Y-155625976D01*
X85643952Y-155625976D02*
X85696333Y-155573595D01*
X85696333Y-155573595D02*
X85748714Y-155468833D01*
X85748714Y-155468833D02*
X85801095Y-155259309D01*
X85801095Y-155259309D02*
X85801095Y-154997404D01*
X85801095Y-154997404D02*
X85748714Y-154787880D01*
X85748714Y-154787880D02*
X85696333Y-154683118D01*
X85696333Y-154683118D02*
X85643952Y-154630737D01*
X85643952Y-154630737D02*
X85539190Y-154578356D01*
X84753476Y-154683118D02*
X84701095Y-154630737D01*
X84701095Y-154630737D02*
X84596333Y-154578356D01*
X84596333Y-154578356D02*
X84334428Y-154578356D01*
X84334428Y-154578356D02*
X84229666Y-154630737D01*
X84229666Y-154630737D02*
X84177285Y-154683118D01*
X84177285Y-154683118D02*
X84124904Y-154787880D01*
X84124904Y-154787880D02*
X84124904Y-154892642D01*
X84124904Y-154892642D02*
X84177285Y-155049785D01*
X84177285Y-155049785D02*
X84805857Y-155678356D01*
X84805857Y-155678356D02*
X84124904Y-155678356D01*
X83182047Y-154945023D02*
X83182047Y-155678356D01*
X83443952Y-154525976D02*
X83705857Y-155311690D01*
X83705857Y-155311690D02*
X83024904Y-155311690D01*
D11*
G36*
X106486087Y-154330287D02*
G01*
X106536229Y-154351761D01*
X106576282Y-154380123D01*
X106600351Y-154402806D01*
X106600351Y-154363837D01*
X106600351Y-154324868D01*
X106674748Y-154324868D01*
X106749145Y-154324868D01*
X106749145Y-154692477D01*
X106749145Y-155060085D01*
X106674748Y-155060085D01*
X106600351Y-155060085D01*
X106600351Y-154819108D01*
X106600345Y-154798842D01*
X106600111Y-154725258D01*
X106599287Y-154666584D01*
X106597541Y-154620731D01*
X106594539Y-154585609D01*
X106589946Y-154559130D01*
X106583427Y-154539204D01*
X106574651Y-154523742D01*
X106563281Y-154510655D01*
X106548984Y-154497853D01*
X106539640Y-154490674D01*
X106497880Y-154471587D01*
X106451523Y-154468451D01*
X106403292Y-154481569D01*
X106387590Y-154488465D01*
X106368410Y-154496706D01*
X106360288Y-154499920D01*
X106358454Y-154498129D01*
X106347831Y-154485939D01*
X106329993Y-154464754D01*
X106307474Y-154437566D01*
X106256177Y-154375212D01*
X106277282Y-154358766D01*
X106305536Y-154342419D01*
X106347950Y-154327732D01*
X106393754Y-154319314D01*
X106435505Y-154319033D01*
X106486087Y-154330287D01*
G37*
G36*
X103480857Y-154317198D02*
G01*
X103529757Y-154328088D01*
X103577577Y-154348218D01*
X103616241Y-154374520D01*
X103650730Y-154405679D01*
X103650730Y-154365273D01*
X103650730Y-154324868D01*
X103725127Y-154324868D01*
X103799524Y-154324868D01*
X103799524Y-154692477D01*
X103799524Y-155060085D01*
X103725127Y-155060085D01*
X103650730Y-155060085D01*
X103650730Y-154821244D01*
X103650708Y-154770431D01*
X103650521Y-154710064D01*
X103650006Y-154663370D01*
X103649003Y-154628081D01*
X103647350Y-154601930D01*
X103644888Y-154582649D01*
X103641456Y-154567970D01*
X103636892Y-154555626D01*
X103631037Y-154543349D01*
X103628585Y-154538721D01*
X103599913Y-154503289D01*
X103561964Y-154479375D01*
X103518801Y-154468114D01*
X103474488Y-154470639D01*
X103433087Y-154488086D01*
X103417444Y-154496820D01*
X103406619Y-154494876D01*
X103393132Y-154480476D01*
X103382801Y-154468004D01*
X103362492Y-154443569D01*
X103340461Y-154417129D01*
X103305898Y-154375709D01*
X103327332Y-154359062D01*
X103353113Y-154344304D01*
X103389785Y-154330277D01*
X103428835Y-154320064D01*
X103462550Y-154316116D01*
X103480857Y-154317198D01*
G37*
G36*
X103328345Y-153171609D02*
G01*
X103383793Y-153189259D01*
X103431034Y-153218942D01*
X103465896Y-153248783D01*
X103468599Y-153211343D01*
X103471302Y-153173903D01*
X103543511Y-153171361D01*
X103615720Y-153168819D01*
X103615720Y-153536782D01*
X103615720Y-153904744D01*
X103541323Y-153904744D01*
X103466926Y-153904744D01*
X103466912Y-153661860D01*
X103466893Y-153628722D01*
X103466564Y-153556913D01*
X103465529Y-153499751D01*
X103463409Y-153455196D01*
X103459822Y-153421203D01*
X103454387Y-153395730D01*
X103446724Y-153376735D01*
X103436451Y-153362175D01*
X103423187Y-153350007D01*
X103406552Y-153338189D01*
X103391643Y-153330388D01*
X103357689Y-153320928D01*
X103320221Y-153317697D01*
X103285735Y-153321007D01*
X103260725Y-153331172D01*
X103248058Y-153339187D01*
X103233787Y-153344301D01*
X103230294Y-153342802D01*
X103216551Y-153330963D01*
X103196497Y-153309878D01*
X103173140Y-153282608D01*
X103157370Y-153263323D01*
X103139172Y-153239198D01*
X103132478Y-153223038D01*
X103137799Y-153211124D01*
X103155645Y-153199738D01*
X103186527Y-153185160D01*
X103213283Y-153175237D01*
X103269804Y-153166699D01*
X103328345Y-153171609D01*
G37*
G36*
X102901462Y-153177228D02*
G01*
X102963922Y-153200975D01*
X103019988Y-153237526D01*
X103067417Y-153286477D01*
X103103968Y-153347422D01*
X103127664Y-153416945D01*
X103139844Y-153493951D01*
X103140310Y-153573326D01*
X103129341Y-153650996D01*
X103107212Y-153722887D01*
X103074201Y-153784925D01*
X103039097Y-153826648D01*
X102988289Y-153865006D01*
X102924266Y-153894154D01*
X102905406Y-153900112D01*
X102835559Y-153911625D01*
X102764523Y-153908487D01*
X102695892Y-153891481D01*
X102633261Y-153861394D01*
X102580223Y-153819010D01*
X102546896Y-153784814D01*
X102598969Y-153739702D01*
X102651041Y-153694591D01*
X102696154Y-153724950D01*
X102736363Y-153747499D01*
X102790570Y-153763056D01*
X102845367Y-153761341D01*
X102901925Y-153742453D01*
X102931413Y-153722387D01*
X102960815Y-153684834D01*
X102981229Y-153635464D01*
X102991790Y-153576516D01*
X102991634Y-153510227D01*
X102988268Y-153480937D01*
X102973452Y-153420863D01*
X102948753Y-153374955D01*
X102913693Y-153342708D01*
X102867796Y-153323611D01*
X102810587Y-153317157D01*
X102769915Y-153320335D01*
X102721496Y-153336618D01*
X102677929Y-153368212D01*
X102654783Y-153389847D01*
X102603532Y-153343726D01*
X102597593Y-153338356D01*
X102574103Y-153316571D01*
X102557021Y-153299858D01*
X102549702Y-153291474D01*
X102552049Y-153285988D01*
X102564521Y-153271809D01*
X102584446Y-153253397D01*
X102632526Y-153218413D01*
X102698140Y-153186880D01*
X102766329Y-153169775D01*
X102834851Y-153166693D01*
X102901462Y-153177228D01*
G37*
G36*
X106485413Y-153170400D02*
G01*
X106541484Y-153187715D01*
X106591232Y-153219383D01*
X106626609Y-153249665D01*
X106626609Y-153209596D01*
X106626609Y-153169527D01*
X106701006Y-153169527D01*
X106775403Y-153169527D01*
X106775403Y-153537136D01*
X106775403Y-153904744D01*
X106701006Y-153904744D01*
X106626609Y-153904744D01*
X106626609Y-153666812D01*
X106626600Y-153637290D01*
X106626448Y-153572141D01*
X106625990Y-153521356D01*
X106625078Y-153482670D01*
X106623563Y-153453817D01*
X106621294Y-153432532D01*
X106618124Y-153416550D01*
X106613904Y-153403607D01*
X106608483Y-153391435D01*
X106605145Y-153384917D01*
X106576045Y-153347779D01*
X106537083Y-153324996D01*
X106489104Y-153317096D01*
X106485346Y-153317095D01*
X106442337Y-153321159D01*
X106409219Y-153334385D01*
X106380164Y-153359015D01*
X106375166Y-153364604D01*
X106364150Y-153379657D01*
X106355507Y-153397427D01*
X106348956Y-153420025D01*
X106344218Y-153449564D01*
X106341016Y-153488156D01*
X106339068Y-153537912D01*
X106338097Y-153600945D01*
X106337822Y-153679365D01*
X106337774Y-153904744D01*
X106262821Y-153904744D01*
X106187868Y-153904744D01*
X106190612Y-153626850D01*
X106190910Y-153596918D01*
X106191799Y-153520484D01*
X106193006Y-153458765D01*
X106194902Y-153409683D01*
X106197857Y-153371161D01*
X106202240Y-153341122D01*
X106208422Y-153317488D01*
X106216772Y-153298180D01*
X106227661Y-153281122D01*
X106241458Y-153264236D01*
X106258534Y-153245444D01*
X106264245Y-153239465D01*
X106312436Y-153201969D01*
X106367572Y-153177787D01*
X106426337Y-153167177D01*
X106485413Y-153170400D01*
G37*
G36*
X104359690Y-153438944D02*
G01*
X104359588Y-153511887D01*
X104359188Y-153576258D01*
X104358390Y-153627132D01*
X104357097Y-153666598D01*
X104355211Y-153696743D01*
X104352635Y-153719655D01*
X104349269Y-153737421D01*
X104345018Y-153752129D01*
X104339896Y-153764889D01*
X104315185Y-153805464D01*
X104280607Y-153844740D01*
X104241175Y-153877574D01*
X104201905Y-153898827D01*
X104191445Y-153902298D01*
X104140564Y-153911140D01*
X104086485Y-153909757D01*
X104034055Y-153899038D01*
X103988120Y-153879876D01*
X103953526Y-153853160D01*
X103943735Y-153843193D01*
X103930821Y-153836039D01*
X103924032Y-153844656D01*
X103922060Y-153869734D01*
X103922060Y-153904744D01*
X103847567Y-153904744D01*
X103773074Y-153904744D01*
X103775359Y-153539324D01*
X103777643Y-153173903D01*
X103849231Y-153171371D01*
X103920820Y-153168839D01*
X103923628Y-153412067D01*
X103924026Y-153445476D01*
X103924944Y-153510766D01*
X103926003Y-153561722D01*
X103927372Y-153600558D01*
X103929217Y-153629483D01*
X103931707Y-153650710D01*
X103935008Y-153666448D01*
X103939288Y-153678910D01*
X103944716Y-153690306D01*
X103953449Y-153704982D01*
X103986082Y-153738671D01*
X104028066Y-153758013D01*
X104077782Y-153762131D01*
X104118474Y-153754715D01*
X104155693Y-153734811D01*
X104188473Y-153700086D01*
X104192193Y-153694743D01*
X104196713Y-153685962D01*
X104200271Y-153674204D01*
X104203036Y-153657394D01*
X104205178Y-153633455D01*
X104206866Y-153600314D01*
X104208269Y-153555895D01*
X104209556Y-153498122D01*
X104210896Y-153424921D01*
X104215272Y-153173903D01*
X104287481Y-153171361D01*
X104359690Y-153168819D01*
X104359690Y-153438944D01*
G37*
G36*
X103300408Y-154673056D02*
G01*
X103298787Y-154731407D01*
X103293878Y-154788521D01*
X103285970Y-154839030D01*
X103275355Y-154877569D01*
X103274932Y-154878657D01*
X103241551Y-154941440D01*
X103195374Y-154992593D01*
X103137414Y-155031241D01*
X103068683Y-155056505D01*
X103033651Y-155063392D01*
X102956119Y-155066362D01*
X102880564Y-155052978D01*
X102809603Y-155023863D01*
X102745855Y-154979639D01*
X102711862Y-154950062D01*
X102764524Y-154904441D01*
X102817186Y-154858819D01*
X102866380Y-154888442D01*
X102875978Y-154893986D01*
X102933611Y-154917686D01*
X102990347Y-154925199D01*
X103044327Y-154916498D01*
X103093693Y-154891559D01*
X103106332Y-154880363D01*
X103128944Y-154848694D01*
X103145249Y-154810601D01*
X103151641Y-154773438D01*
X103151833Y-154744992D01*
X102922955Y-154744992D01*
X102694076Y-154744992D01*
X102699053Y-154650902D01*
X102701846Y-154613891D01*
X102704352Y-154598962D01*
X102854245Y-154598962D01*
X102854245Y-154622456D01*
X103004191Y-154622456D01*
X103154138Y-154622456D01*
X103149370Y-154586910D01*
X103137438Y-154546553D01*
X103112057Y-154506513D01*
X103077836Y-154476936D01*
X103046546Y-154464932D01*
X103003640Y-154460529D01*
X102959941Y-154465844D01*
X102922660Y-154480703D01*
X102904623Y-154495081D01*
X102879304Y-154526858D01*
X102861177Y-154563792D01*
X102854245Y-154598962D01*
X102704352Y-154598962D01*
X102714474Y-154538671D01*
X102736555Y-154476422D01*
X102769121Y-154425320D01*
X102813204Y-154383541D01*
X102869839Y-154349260D01*
X102879706Y-154344458D01*
X102908973Y-154331699D01*
X102934550Y-154324509D01*
X102963493Y-154321381D01*
X103002855Y-154320804D01*
X103011492Y-154320877D01*
X103055224Y-154323061D01*
X103088678Y-154328945D01*
X103117894Y-154339512D01*
X103128215Y-154344473D01*
X103184859Y-154382729D01*
X103231947Y-154434444D01*
X103268100Y-154497785D01*
X103291942Y-154570919D01*
X103292625Y-154574109D01*
X103298451Y-154618834D01*
X103298582Y-154622456D01*
X103300408Y-154673056D01*
G37*
G36*
X102511509Y-153525092D02*
G01*
X102506379Y-153616775D01*
X102502038Y-153645612D01*
X102481820Y-153722541D01*
X102450446Y-153786208D01*
X102407571Y-153837058D01*
X102352852Y-153875537D01*
X102285945Y-153902089D01*
X102261283Y-153906911D01*
X102218661Y-153910370D01*
X102170022Y-153910226D01*
X102138093Y-153908335D01*
X102102644Y-153903538D01*
X102071999Y-153894731D01*
X102038733Y-153880215D01*
X102009976Y-153864929D01*
X101977189Y-153844626D01*
X101952729Y-153826348D01*
X101922095Y-153799283D01*
X101974391Y-153751599D01*
X101990404Y-153737132D01*
X102011156Y-153719703D01*
X102024736Y-153711665D01*
X102034652Y-153711272D01*
X102044412Y-153716781D01*
X102068054Y-153733037D01*
X102107947Y-153754351D01*
X102147474Y-153765488D01*
X102193425Y-153768819D01*
X102205382Y-153768777D01*
X102239370Y-153766667D01*
X102264599Y-153760391D01*
X102287787Y-153748504D01*
X102316561Y-153723900D01*
X102343590Y-153682192D01*
X102359967Y-153630819D01*
X102366049Y-153598404D01*
X102136451Y-153598404D01*
X101906853Y-153598404D01*
X101910989Y-153491185D01*
X101911693Y-153475868D01*
X102055523Y-153475868D01*
X102210786Y-153475868D01*
X102366049Y-153475868D01*
X102359973Y-153443045D01*
X102354434Y-153418841D01*
X102334102Y-153370557D01*
X102303663Y-153336463D01*
X102262773Y-153316247D01*
X102211086Y-153309601D01*
X102191371Y-153310489D01*
X102142208Y-153322494D01*
X102103840Y-153348204D01*
X102076745Y-153387202D01*
X102061406Y-153439073D01*
X102055523Y-153475868D01*
X101911693Y-153475868D01*
X101912088Y-153467257D01*
X101917010Y-153410746D01*
X101925771Y-153366001D01*
X101939776Y-153328878D01*
X101960434Y-153295230D01*
X101989151Y-153260911D01*
X102001463Y-153248332D01*
X102055463Y-153207278D01*
X102115883Y-153180090D01*
X102179935Y-153166814D01*
X102244830Y-153167497D01*
X102307779Y-153182186D01*
X102365995Y-153210927D01*
X102416687Y-153253767D01*
X102449093Y-153295882D01*
X102482428Y-153362872D01*
X102503379Y-153439867D01*
X102506813Y-153475868D01*
X102511509Y-153525092D01*
G37*
G36*
X107499179Y-153506502D02*
G01*
X107500098Y-153564746D01*
X107491589Y-153651683D01*
X107470752Y-153726916D01*
X107437770Y-153790132D01*
X107392824Y-153841019D01*
X107336097Y-153879262D01*
X107267771Y-153904548D01*
X107262513Y-153905663D01*
X107234635Y-153908789D01*
X107197649Y-153910301D01*
X107158093Y-153909881D01*
X107120973Y-153907724D01*
X107087634Y-153902976D01*
X107058614Y-153894301D01*
X107026804Y-153880085D01*
X106999088Y-153864751D01*
X106967126Y-153843390D01*
X106943649Y-153823630D01*
X106914962Y-153794006D01*
X106968230Y-153747675D01*
X107021497Y-153701344D01*
X107040680Y-153718871D01*
X107042538Y-153720520D01*
X107064733Y-153736993D01*
X107090496Y-153752507D01*
X107112834Y-153760882D01*
X107153215Y-153767719D01*
X107197832Y-153768752D01*
X107239779Y-153763951D01*
X107272149Y-153753287D01*
X107281031Y-153747863D01*
X107311871Y-153718428D01*
X107335960Y-153679045D01*
X107349433Y-153635602D01*
X107355311Y-153598404D01*
X107125546Y-153598404D01*
X106895782Y-153598404D01*
X106899487Y-153494487D01*
X106900102Y-153477989D01*
X106900212Y-153475868D01*
X107044785Y-153475868D01*
X107200048Y-153475868D01*
X107355311Y-153475868D01*
X107349370Y-153438714D01*
X107346043Y-153421914D01*
X107327126Y-153373818D01*
X107296795Y-153338593D01*
X107255837Y-153316942D01*
X107205037Y-153309569D01*
X107183946Y-153310584D01*
X107134617Y-153323105D01*
X107095701Y-153349604D01*
X107067628Y-153389708D01*
X107050829Y-153443045D01*
X107044785Y-153475868D01*
X106900212Y-153475868D01*
X106902245Y-153436657D01*
X106905490Y-153406374D01*
X106910805Y-153382261D01*
X106919159Y-153359438D01*
X106931521Y-153333025D01*
X106955123Y-153292611D01*
X107001499Y-153239745D01*
X107057979Y-153200660D01*
X107123131Y-153176252D01*
X107195527Y-153167418D01*
X107201849Y-153167391D01*
X107262402Y-153171971D01*
X107314067Y-153186590D01*
X107362832Y-153212876D01*
X107387180Y-153231092D01*
X107432477Y-153280533D01*
X107466191Y-153342805D01*
X107488400Y-153418073D01*
X107495445Y-153475868D01*
X107499179Y-153506502D01*
G37*
G36*
X108910088Y-153549983D02*
G01*
X108908006Y-153621554D01*
X108900008Y-153680952D01*
X108885629Y-153731036D01*
X108864408Y-153774669D01*
X108852819Y-153792144D01*
X108811059Y-153837950D01*
X108760353Y-153874975D01*
X108706183Y-153898917D01*
X108640402Y-153911472D01*
X108571021Y-153910264D01*
X108505484Y-153894838D01*
X108446068Y-153866308D01*
X108395048Y-153825790D01*
X108354700Y-153774398D01*
X108327299Y-153713249D01*
X108320767Y-153685121D01*
X108314323Y-153637637D01*
X108310286Y-153582429D01*
X108309557Y-153552462D01*
X108455935Y-153552462D01*
X108460483Y-153617090D01*
X108473674Y-153669026D01*
X108495949Y-153709881D01*
X108527745Y-153741266D01*
X108554900Y-153755106D01*
X108596724Y-153762846D01*
X108641461Y-153759728D01*
X108682959Y-153745582D01*
X108687413Y-153743213D01*
X108713174Y-153726452D01*
X108731972Y-153706428D01*
X108744824Y-153680312D01*
X108752745Y-153645277D01*
X108756753Y-153598494D01*
X108757863Y-153537136D01*
X108757863Y-153535697D01*
X108756878Y-153477815D01*
X108753286Y-153434112D01*
X108746033Y-153401398D01*
X108734062Y-153376482D01*
X108716318Y-153356175D01*
X108691746Y-153337287D01*
X108679516Y-153329631D01*
X108660485Y-153321928D01*
X108637066Y-153319144D01*
X108602785Y-153320022D01*
X108593598Y-153320660D01*
X108545844Y-153330056D01*
X108509659Y-153350015D01*
X108483839Y-153381936D01*
X108467177Y-153427215D01*
X108458469Y-153487250D01*
X108455935Y-153552462D01*
X108309557Y-153552462D01*
X108308888Y-153524931D01*
X108310363Y-153470582D01*
X108314944Y-153424816D01*
X108315571Y-153420927D01*
X108335333Y-153347633D01*
X108367803Y-153285556D01*
X108411953Y-153235611D01*
X108466757Y-153198709D01*
X108531187Y-153175764D01*
X108604217Y-153167689D01*
X108626771Y-153167956D01*
X108684781Y-153173693D01*
X108733023Y-153188320D01*
X108776401Y-153213750D01*
X108819819Y-153251900D01*
X108849500Y-153283964D01*
X108871948Y-153315256D01*
X108887737Y-153348798D01*
X108898226Y-153388392D01*
X108904771Y-153437842D01*
X108908732Y-153500950D01*
X108909693Y-153535697D01*
X108910088Y-153549983D01*
G37*
G36*
X105081778Y-153532759D02*
G01*
X105081401Y-153583357D01*
X105079233Y-153641896D01*
X105074499Y-153688179D01*
X105066473Y-153725248D01*
X105054432Y-153756144D01*
X105037652Y-153783911D01*
X105015408Y-153811589D01*
X104988381Y-153839347D01*
X104935903Y-153877733D01*
X104876525Y-153902089D01*
X104875009Y-153902510D01*
X104822731Y-153910712D01*
X104763980Y-153910256D01*
X104706268Y-153901707D01*
X104657104Y-153885628D01*
X104612347Y-153860561D01*
X104564028Y-153818628D01*
X104527817Y-153765791D01*
X104502945Y-153700850D01*
X104488645Y-153622606D01*
X104486579Y-153601389D01*
X104484610Y-153535975D01*
X104633694Y-153535975D01*
X104635919Y-153588831D01*
X104642081Y-153637013D01*
X104651619Y-153676292D01*
X104663968Y-153702440D01*
X104681032Y-153721683D01*
X104703406Y-153741530D01*
X104706103Y-153743411D01*
X104735056Y-153755646D01*
X104772886Y-153762062D01*
X104787558Y-153762566D01*
X104838181Y-153755034D01*
X104880221Y-153733212D01*
X104911938Y-153697904D01*
X104916487Y-153690289D01*
X104923949Y-153674693D01*
X104928995Y-153656660D01*
X104932230Y-153632422D01*
X104934260Y-153598212D01*
X104935692Y-153550265D01*
X104936362Y-153518510D01*
X104936553Y-153479817D01*
X104935278Y-153452246D01*
X104932090Y-153431887D01*
X104926542Y-153414830D01*
X104918187Y-153397165D01*
X104908623Y-153380400D01*
X104877735Y-153345125D01*
X104838611Y-153324826D01*
X104789323Y-153318321D01*
X104777818Y-153318555D01*
X104728825Y-153326579D01*
X104690901Y-153346688D01*
X104663239Y-153379772D01*
X104645035Y-153426723D01*
X104635481Y-153488431D01*
X104633694Y-153535975D01*
X104484610Y-153535975D01*
X104483766Y-153507934D01*
X104491970Y-153424279D01*
X104510914Y-153351583D01*
X104540318Y-153291004D01*
X104579903Y-153243702D01*
X104599108Y-153227460D01*
X104653736Y-153193339D01*
X104713600Y-153173949D01*
X104782512Y-153167861D01*
X104845895Y-153172973D01*
X104914322Y-153192510D01*
X104973014Y-153226372D01*
X105021458Y-153274248D01*
X105059140Y-153335826D01*
X105065530Y-153349836D01*
X105072082Y-153366946D01*
X105076589Y-153384987D01*
X105079430Y-153407274D01*
X105080989Y-153437122D01*
X105081644Y-153477846D01*
X105081649Y-153479817D01*
X105081778Y-153532759D01*
G37*
G36*
X106251255Y-154793203D02*
G01*
X106249511Y-154813593D01*
X106242993Y-154868039D01*
X106233966Y-154909767D01*
X106221127Y-154942402D01*
X106203174Y-154969571D01*
X106178806Y-154994898D01*
X106173227Y-154999980D01*
X106146080Y-155023526D01*
X106124696Y-155038558D01*
X106103495Y-155048455D01*
X106076896Y-155056595D01*
X106065512Y-155059439D01*
X106034155Y-155065539D01*
X106008952Y-155068247D01*
X105987466Y-155066931D01*
X105942992Y-155056876D01*
X105897259Y-155039154D01*
X105857814Y-155016354D01*
X105821371Y-154989955D01*
X105821371Y-155025020D01*
X105821371Y-155060085D01*
X105746974Y-155060085D01*
X105672577Y-155060085D01*
X105672577Y-154660352D01*
X105822287Y-154660352D01*
X105822712Y-154714066D01*
X105823269Y-154730649D01*
X105826793Y-154783312D01*
X105833392Y-154822756D01*
X105844165Y-154852304D01*
X105860214Y-154875280D01*
X105882639Y-154895009D01*
X105898253Y-154903935D01*
X105935901Y-154914322D01*
X105978187Y-154915690D01*
X106017969Y-154907387D01*
X106027218Y-154903694D01*
X106054336Y-154887928D01*
X106074453Y-154865867D01*
X106088328Y-154835326D01*
X106096719Y-154794124D01*
X106100384Y-154740078D01*
X106100082Y-154671006D01*
X106099836Y-154662269D01*
X106096993Y-154605407D01*
X106091582Y-154562827D01*
X106082450Y-154531722D01*
X106068442Y-154509284D01*
X106048404Y-154492708D01*
X106021180Y-154479185D01*
X106015568Y-154476972D01*
X105967038Y-154466890D01*
X105921425Y-154472501D01*
X105881526Y-154492474D01*
X105850139Y-154525476D01*
X105830060Y-154570177D01*
X105827979Y-154579800D01*
X105824113Y-154614233D01*
X105822287Y-154660352D01*
X105672577Y-154660352D01*
X105672577Y-154543329D01*
X105672577Y-154026573D01*
X105744786Y-154029115D01*
X105816995Y-154031657D01*
X105819362Y-154213571D01*
X105821728Y-154395484D01*
X105862063Y-154367733D01*
X105864703Y-154365940D01*
X105912495Y-154339881D01*
X105963025Y-154322462D01*
X106009354Y-154316116D01*
X106042950Y-154319317D01*
X106097451Y-154336370D01*
X106149043Y-154365582D01*
X106193043Y-154404063D01*
X106224767Y-154448927D01*
X106225926Y-154451293D01*
X106237084Y-154485347D01*
X106245815Y-154533079D01*
X106251857Y-154591109D01*
X106254951Y-154656060D01*
X106254837Y-154724551D01*
X106254027Y-154740078D01*
X106251255Y-154793203D01*
G37*
G36*
X104545122Y-154847267D02*
G01*
X104539733Y-154895607D01*
X104519130Y-154950018D01*
X104484318Y-154995760D01*
X104436579Y-155031249D01*
X104377195Y-155054900D01*
X104350618Y-155060949D01*
X104287413Y-155067490D01*
X104228160Y-155063083D01*
X104176434Y-155048195D01*
X104135809Y-155023295D01*
X104105865Y-154997004D01*
X104105865Y-155028545D01*
X104105865Y-155060085D01*
X104030925Y-155060085D01*
X103955986Y-155060085D01*
X103958566Y-154789029D01*
X104107651Y-154789029D01*
X104107724Y-154817694D01*
X104115080Y-154858201D01*
X104129960Y-154890009D01*
X104150889Y-154909019D01*
X104151193Y-154909163D01*
X104171795Y-154915323D01*
X104203085Y-154920880D01*
X104238415Y-154924646D01*
X104288671Y-154925024D01*
X104338094Y-154916288D01*
X104374052Y-154897729D01*
X104396014Y-154869643D01*
X104403453Y-154832327D01*
X104399932Y-154808937D01*
X104383066Y-154782603D01*
X104351835Y-154763371D01*
X104305757Y-154751065D01*
X104244350Y-154745510D01*
X104167133Y-154746532D01*
X104110241Y-154749369D01*
X104107651Y-154789029D01*
X103958566Y-154789029D01*
X103958717Y-154773175D01*
X103961447Y-154486265D01*
X103983695Y-154442765D01*
X103992562Y-154427628D01*
X104027683Y-154387482D01*
X104073847Y-154354371D01*
X104126369Y-154331934D01*
X104139226Y-154329110D01*
X104171381Y-154325013D01*
X104211790Y-154322146D01*
X104254659Y-154321003D01*
X104290451Y-154321569D01*
X104350649Y-154327054D01*
X104399352Y-154339221D01*
X104440049Y-154359123D01*
X104476231Y-154387811D01*
X104512860Y-154422711D01*
X104486602Y-154443927D01*
X104481769Y-154447783D01*
X104455183Y-154468069D01*
X104427791Y-154487912D01*
X104395237Y-154510681D01*
X104368801Y-154488436D01*
X104343024Y-154473113D01*
X104299990Y-154461175D01*
X104249188Y-154457910D01*
X104195086Y-154463946D01*
X104183091Y-154466529D01*
X104147480Y-154478320D01*
X104125185Y-154496061D01*
X104112953Y-154523481D01*
X104107528Y-154564311D01*
X104103962Y-154620316D01*
X104242766Y-154624514D01*
X104279359Y-154625780D01*
X104332507Y-154628763D01*
X104373306Y-154633417D01*
X104405056Y-154640601D01*
X104431054Y-154651170D01*
X104454597Y-154665982D01*
X104478984Y-154685894D01*
X104481649Y-154688275D01*
X104517315Y-154731839D01*
X104538402Y-154784662D01*
X104543518Y-154832327D01*
X104545122Y-154847267D01*
G37*
G36*
X107493144Y-154889735D02*
G01*
X107492534Y-154892425D01*
X107471222Y-154949833D01*
X107436549Y-154995981D01*
X107388439Y-155030942D01*
X107326816Y-155054793D01*
X107299976Y-155060940D01*
X107236923Y-155067488D01*
X107177748Y-155063083D01*
X107126051Y-155048195D01*
X107085430Y-155023295D01*
X107055486Y-154997004D01*
X107055486Y-155028545D01*
X107055486Y-155060085D01*
X106980453Y-155060085D01*
X106905420Y-155060085D01*
X106908244Y-154773438D01*
X106908481Y-154749369D01*
X107059862Y-154749369D01*
X107061508Y-154805823D01*
X107063514Y-154837455D01*
X107070754Y-154872454D01*
X107084269Y-154895742D01*
X107105393Y-154910504D01*
X107110011Y-154912346D01*
X107138574Y-154918945D01*
X107176597Y-154923232D01*
X107217641Y-154924895D01*
X107255272Y-154923623D01*
X107283053Y-154919104D01*
X107286416Y-154918050D01*
X107324134Y-154898904D01*
X107347899Y-154871678D01*
X107356564Y-154838427D01*
X107348978Y-154801206D01*
X107342355Y-154788436D01*
X107327733Y-154772874D01*
X107305670Y-154761949D01*
X107273671Y-154754946D01*
X107229245Y-154751151D01*
X107169897Y-154749848D01*
X107059862Y-154749369D01*
X106908481Y-154749369D01*
X106911068Y-154486791D01*
X106935265Y-154440880D01*
X106938529Y-154434896D01*
X106968630Y-154394444D01*
X107009467Y-154362729D01*
X107064238Y-154337179D01*
X107099982Y-154328353D01*
X107147689Y-154322859D01*
X107201301Y-154320866D01*
X107255151Y-154322396D01*
X107303573Y-154327469D01*
X107340901Y-154336110D01*
X107350699Y-154339979D01*
X107378226Y-154354099D01*
X107406908Y-154372224D01*
X107432566Y-154391345D01*
X107451024Y-154408453D01*
X107458104Y-154420538D01*
X107457770Y-154421558D01*
X107448725Y-154431726D01*
X107429840Y-154448712D01*
X107404486Y-154469442D01*
X107375326Y-154490861D01*
X107352590Y-154503303D01*
X107340069Y-154503556D01*
X107312251Y-154483475D01*
X107290171Y-154470534D01*
X107268962Y-154463736D01*
X107242502Y-154461149D01*
X107204664Y-154460842D01*
X107178339Y-154461505D01*
X107129312Y-154467646D01*
X107094313Y-154481420D01*
X107071542Y-154504307D01*
X107059200Y-154537785D01*
X107055486Y-154583330D01*
X107055486Y-154620365D01*
X107193339Y-154624117D01*
X107217612Y-154624828D01*
X107267070Y-154626840D01*
X107303735Y-154629528D01*
X107330968Y-154633304D01*
X107352129Y-154638577D01*
X107370579Y-154645759D01*
X107421390Y-154677485D01*
X107460940Y-154720637D01*
X107486966Y-154772155D01*
X107498142Y-154829400D01*
X107497394Y-154838427D01*
X107493144Y-154889735D01*
G37*
G36*
X105543705Y-153171521D02*
G01*
X105592807Y-153182284D01*
X105625261Y-153195775D01*
X105673378Y-153228225D01*
X105710322Y-153269840D01*
X105735265Y-153317961D01*
X105747381Y-153369928D01*
X105745844Y-153423081D01*
X105729826Y-153474761D01*
X105698501Y-153522309D01*
X105681452Y-153540464D01*
X105662476Y-153556638D01*
X105640882Y-153569555D01*
X105614198Y-153579975D01*
X105579950Y-153588658D01*
X105535665Y-153596365D01*
X105478870Y-153603857D01*
X105407092Y-153611892D01*
X105378796Y-153616481D01*
X105346498Y-153629280D01*
X105328228Y-153649918D01*
X105322474Y-153679606D01*
X105322522Y-153682993D01*
X105330021Y-153716068D01*
X105351407Y-153741365D01*
X105388276Y-153760852D01*
X105434923Y-153771476D01*
X105492112Y-153771222D01*
X105552028Y-153759769D01*
X105609995Y-153738042D01*
X105661341Y-153706961D01*
X105690456Y-153684754D01*
X105723091Y-153710729D01*
X105731030Y-153717193D01*
X105756086Y-153739083D01*
X105775911Y-153758354D01*
X105796094Y-153780004D01*
X105760789Y-153810224D01*
X105753252Y-153816430D01*
X105703698Y-153849441D01*
X105644748Y-153878597D01*
X105583250Y-153900420D01*
X105541453Y-153908135D01*
X105484970Y-153911194D01*
X105424890Y-153908635D01*
X105367966Y-153900780D01*
X105320949Y-153887949D01*
X105285024Y-153870331D01*
X105243135Y-153840191D01*
X105208500Y-153804839D01*
X105186064Y-153768648D01*
X105180874Y-153752532D01*
X105174874Y-153711736D01*
X105174499Y-153665392D01*
X105179594Y-153620785D01*
X105190003Y-153585200D01*
X105200302Y-153565344D01*
X105227575Y-153530463D01*
X105264241Y-153503661D01*
X105312179Y-153484049D01*
X105373268Y-153470743D01*
X105449386Y-153462856D01*
X105483254Y-153459990D01*
X105533301Y-153451700D01*
X105568014Y-153438826D01*
X105588600Y-153420535D01*
X105596264Y-153395998D01*
X105592212Y-153364382D01*
X105588955Y-153354545D01*
X105573807Y-153332283D01*
X105548389Y-153318150D01*
X105510596Y-153311305D01*
X105458326Y-153310908D01*
X105428385Y-153312698D01*
X105394448Y-153317513D01*
X105364917Y-153326661D01*
X105332053Y-153342049D01*
X105277576Y-153370154D01*
X105250770Y-153339623D01*
X105237680Y-153324552D01*
X105212957Y-153294886D01*
X105196905Y-153273708D01*
X105191185Y-153263149D01*
X105197291Y-153255439D01*
X105215772Y-153242355D01*
X105242663Y-153226608D01*
X105273928Y-153210404D01*
X105305529Y-153195948D01*
X105333431Y-153185444D01*
X105364115Y-153177551D01*
X105422839Y-153169234D01*
X105484876Y-153167198D01*
X105543705Y-153171521D01*
G37*
G36*
X104784168Y-154578612D02*
G01*
X104790762Y-154602879D01*
X104807612Y-154664241D01*
X104822861Y-154718848D01*
X104835924Y-154764670D01*
X104846219Y-154799674D01*
X104853160Y-154821830D01*
X104856164Y-154829106D01*
X104856563Y-154828332D01*
X104861248Y-154815523D01*
X104870404Y-154788696D01*
X104883330Y-154749957D01*
X104899329Y-154701411D01*
X104917702Y-154645163D01*
X104937749Y-154583319D01*
X104942793Y-154567717D01*
X104962616Y-154506696D01*
X104980681Y-154451544D01*
X104996270Y-154404421D01*
X105008665Y-154367487D01*
X105017148Y-154342902D01*
X105021002Y-154332825D01*
X105028330Y-154329358D01*
X105049054Y-154326119D01*
X105077500Y-154324868D01*
X105129081Y-154324868D01*
X105209910Y-154574317D01*
X105217313Y-154597099D01*
X105237266Y-154657854D01*
X105255396Y-154712135D01*
X105271003Y-154757901D01*
X105283384Y-154793113D01*
X105291839Y-154815732D01*
X105295666Y-154823716D01*
X105297972Y-154819010D01*
X105304452Y-154799611D01*
X105314227Y-154767308D01*
X105326626Y-154724387D01*
X105340978Y-154673136D01*
X105356613Y-154615842D01*
X105366941Y-154577586D01*
X105382779Y-154519139D01*
X105397284Y-154465869D01*
X105409654Y-154420708D01*
X105419088Y-154386589D01*
X105424785Y-154366443D01*
X105436936Y-154324868D01*
X105516306Y-154324868D01*
X105529594Y-154324903D01*
X105562746Y-154325635D01*
X105582099Y-154327695D01*
X105590485Y-154331571D01*
X105590732Y-154337755D01*
X105589624Y-154340961D01*
X105583661Y-154359141D01*
X105573254Y-154391325D01*
X105558986Y-154435700D01*
X105541438Y-154490449D01*
X105521193Y-154553759D01*
X105498832Y-154623814D01*
X105474938Y-154698799D01*
X105463102Y-154735945D01*
X105439979Y-154808324D01*
X105418713Y-154874654D01*
X105399875Y-154933162D01*
X105384038Y-154982075D01*
X105371777Y-155019621D01*
X105363663Y-155044028D01*
X105360270Y-155053521D01*
X105359903Y-155053935D01*
X105348128Y-155057049D01*
X105324101Y-155059251D01*
X105292506Y-155060085D01*
X105228560Y-155060085D01*
X105156428Y-154817201D01*
X105152264Y-154803196D01*
X105133839Y-154741583D01*
X105116953Y-154685687D01*
X105102287Y-154637724D01*
X105090524Y-154599909D01*
X105082343Y-154574456D01*
X105078427Y-154563580D01*
X105077495Y-154563734D01*
X105071973Y-154574975D01*
X105062497Y-154600346D01*
X105049715Y-154637906D01*
X105034278Y-154685710D01*
X105016834Y-154741815D01*
X104998032Y-154804277D01*
X104923507Y-155055709D01*
X104856036Y-155058265D01*
X104848277Y-155058529D01*
X104817912Y-155058904D01*
X104796605Y-155058101D01*
X104788566Y-155056246D01*
X104787682Y-155052912D01*
X104782247Y-155034985D01*
X104772334Y-155003136D01*
X104758490Y-154959101D01*
X104741265Y-154904618D01*
X104721206Y-154841424D01*
X104698862Y-154771255D01*
X104674783Y-154695850D01*
X104660758Y-154651935D01*
X104637591Y-154579125D01*
X104616479Y-154512445D01*
X104597972Y-154453651D01*
X104582621Y-154404497D01*
X104570975Y-154366742D01*
X104563585Y-154342140D01*
X104560999Y-154332449D01*
X104562721Y-154330858D01*
X104577422Y-154327789D01*
X104603899Y-154325663D01*
X104638210Y-154324868D01*
X104715421Y-154324868D01*
X104784168Y-154578612D01*
G37*
G36*
X108184569Y-154114806D02*
G01*
X108184569Y-155060085D01*
X108110172Y-155060085D01*
X108035775Y-155060085D01*
X108035775Y-154821244D01*
X108035753Y-154770431D01*
X108035566Y-154710064D01*
X108035051Y-154663370D01*
X108034048Y-154628081D01*
X108032395Y-154601930D01*
X108029933Y-154582649D01*
X108026501Y-154567970D01*
X108021937Y-154555626D01*
X108016082Y-154543349D01*
X108004690Y-154525220D01*
X107972623Y-154494147D01*
X107932912Y-154472827D01*
X107891357Y-154464910D01*
X107869284Y-154467453D01*
X107829506Y-154482575D01*
X107794005Y-154507856D01*
X107769328Y-154539307D01*
X107767192Y-154543580D01*
X107762275Y-154555243D01*
X107758430Y-154568919D01*
X107755491Y-154586823D01*
X107753294Y-154611167D01*
X107751673Y-154644163D01*
X107750464Y-154688026D01*
X107749501Y-154744968D01*
X107748621Y-154817201D01*
X107745926Y-155060085D01*
X107671480Y-155060085D01*
X107597034Y-155060085D01*
X107599778Y-154782191D01*
X107599884Y-154771497D01*
X107600706Y-154695962D01*
X107601589Y-154635601D01*
X107602670Y-154588346D01*
X107604088Y-154552127D01*
X107605983Y-154524873D01*
X107608493Y-154504516D01*
X107611757Y-154488985D01*
X107615914Y-154476212D01*
X107621101Y-154464127D01*
X107626659Y-154452838D01*
X107662908Y-154400762D01*
X107709255Y-154360902D01*
X107763033Y-154333933D01*
X107821576Y-154320529D01*
X107882219Y-154321365D01*
X107942294Y-154337116D01*
X107999135Y-154368457D01*
X108035775Y-154394999D01*
X108035775Y-154114441D01*
X108035775Y-153833883D01*
X107994614Y-153862202D01*
X107951536Y-153888252D01*
X107902901Y-153906920D01*
X107853658Y-153913113D01*
X107821143Y-153911615D01*
X107758601Y-153896606D01*
X107701544Y-153865163D01*
X107668280Y-153836577D01*
X107638539Y-153796662D01*
X107618319Y-153747393D01*
X107605704Y-153685169D01*
X107603003Y-153658916D01*
X107600578Y-153611497D01*
X107599855Y-153557072D01*
X107600086Y-153541512D01*
X107751557Y-153541512D01*
X107751829Y-153571056D01*
X107754531Y-153625303D01*
X107760835Y-153666506D01*
X107771609Y-153697630D01*
X107787719Y-153721642D01*
X107810033Y-153741506D01*
X107812647Y-153743298D01*
X107841987Y-153755562D01*
X107880054Y-153761907D01*
X107908272Y-153762092D01*
X107951562Y-153753090D01*
X107985388Y-153731522D01*
X108010142Y-153696739D01*
X108026214Y-153648090D01*
X108033997Y-153584927D01*
X108033881Y-153506600D01*
X108029196Y-153451220D01*
X108018053Y-153399461D01*
X107999809Y-153361760D01*
X107973353Y-153336648D01*
X107937573Y-153322658D01*
X107891357Y-153318321D01*
X107859251Y-153320098D01*
X107820453Y-153330642D01*
X107791884Y-153352261D01*
X107770327Y-153386775D01*
X107769141Y-153389383D01*
X107761478Y-153409003D01*
X107756377Y-153429995D01*
X107753349Y-153456390D01*
X107751905Y-153492219D01*
X107751557Y-153541512D01*
X107600086Y-153541512D01*
X107600706Y-153499722D01*
X107603000Y-153443528D01*
X107606608Y-153392572D01*
X107611398Y-153350935D01*
X107617243Y-153322697D01*
X107630637Y-153294309D01*
X107658246Y-153257460D01*
X107693654Y-153222796D01*
X107732098Y-153194859D01*
X107768814Y-153178190D01*
X107819615Y-153168900D01*
X107887494Y-153171431D01*
X107953466Y-153190957D01*
X108016082Y-153227190D01*
X108023344Y-153232418D01*
X108032055Y-153236039D01*
X108035296Y-153228091D01*
X108035775Y-153205605D01*
X108035775Y-153169527D01*
X108110172Y-153169527D01*
X108184569Y-153169527D01*
X108184569Y-153584927D01*
X108184569Y-154114806D01*
G37*
G36*
X105509392Y-147708072D02*
G01*
X105580264Y-147708251D01*
X105637102Y-147708649D01*
X105681536Y-147709334D01*
X105715201Y-147710373D01*
X105739729Y-147711833D01*
X105756752Y-147713781D01*
X105767903Y-147716286D01*
X105774815Y-147719413D01*
X105779121Y-147723232D01*
X105781677Y-147728565D01*
X105788175Y-147750641D01*
X105797090Y-147787900D01*
X105808142Y-147839024D01*
X105821050Y-147902694D01*
X105835533Y-147977590D01*
X105851311Y-148062394D01*
X105862039Y-148121054D01*
X105877023Y-148202714D01*
X105889445Y-148269636D01*
X105899665Y-148323352D01*
X105908048Y-148365396D01*
X105914954Y-148397300D01*
X105920746Y-148420595D01*
X105925787Y-148436815D01*
X105930438Y-148447491D01*
X105935062Y-148454157D01*
X105940022Y-148458344D01*
X105945678Y-148461585D01*
X105955260Y-148466213D01*
X105980338Y-148477294D01*
X106016457Y-148492662D01*
X106061144Y-148511316D01*
X106111926Y-148532255D01*
X106166330Y-148554478D01*
X106221883Y-148576986D01*
X106276112Y-148598776D01*
X106326543Y-148618849D01*
X106370703Y-148636203D01*
X106406119Y-148649837D01*
X106430318Y-148658752D01*
X106440827Y-148661946D01*
X106443284Y-148661054D01*
X106458614Y-148652316D01*
X106486076Y-148635104D01*
X106524087Y-148610461D01*
X106571062Y-148579430D01*
X106625415Y-148543056D01*
X106685563Y-148502381D01*
X106749920Y-148458449D01*
X106777298Y-148439703D01*
X106840238Y-148396833D01*
X106898380Y-148357538D01*
X106950121Y-148322881D01*
X106993863Y-148293924D01*
X107028005Y-148271730D01*
X107050945Y-148257361D01*
X107061084Y-148251880D01*
X107065207Y-148253766D01*
X107080837Y-148266017D01*
X107106114Y-148288278D01*
X107139451Y-148318979D01*
X107179256Y-148356549D01*
X107223941Y-148399416D01*
X107271915Y-148446010D01*
X107321589Y-148494760D01*
X107371372Y-148544096D01*
X107419676Y-148592446D01*
X107464910Y-148638240D01*
X107505485Y-148679906D01*
X107539810Y-148715875D01*
X107566296Y-148744575D01*
X107583354Y-148764436D01*
X107589393Y-148773886D01*
X107589104Y-148774932D01*
X107582038Y-148787684D01*
X107566324Y-148812803D01*
X107543031Y-148848668D01*
X107513232Y-148893657D01*
X107478000Y-148946149D01*
X107438406Y-149004521D01*
X107395522Y-149067154D01*
X107386412Y-149080409D01*
X107343599Y-149143012D01*
X107303926Y-149201511D01*
X107268532Y-149254192D01*
X107238556Y-149299342D01*
X107215138Y-149335246D01*
X107199416Y-149360193D01*
X107192530Y-149372468D01*
X107191389Y-149376047D01*
X107190481Y-149385283D01*
X107192171Y-149398168D01*
X107197091Y-149416469D01*
X107205874Y-149441957D01*
X107219154Y-149476400D01*
X107237565Y-149521567D01*
X107261739Y-149579227D01*
X107292311Y-149651149D01*
X107318301Y-149711510D01*
X107348794Y-149780575D01*
X107374340Y-149836219D01*
X107394595Y-149877716D01*
X107409214Y-149904341D01*
X107417853Y-149915368D01*
X107419511Y-149916038D01*
X107435918Y-149920365D01*
X107467062Y-149927328D01*
X107510991Y-149936532D01*
X107565750Y-149947581D01*
X107629388Y-149960078D01*
X107699951Y-149973629D01*
X107775487Y-149987837D01*
X107811473Y-149994571D01*
X107903572Y-150012182D01*
X107980146Y-150027441D01*
X108040843Y-150040269D01*
X108085308Y-150050590D01*
X108113188Y-150058327D01*
X108124132Y-150063405D01*
X108124788Y-150065742D01*
X108126411Y-150083133D01*
X108127900Y-150115365D01*
X108129215Y-150160520D01*
X108130315Y-150216676D01*
X108131159Y-150281914D01*
X108131708Y-150354313D01*
X108131919Y-150431955D01*
X108132053Y-150788421D01*
X108112360Y-150800640D01*
X108112235Y-150800714D01*
X108098919Y-150805117D01*
X108070473Y-150812140D01*
X108028953Y-150821356D01*
X107976411Y-150832335D01*
X107914902Y-150844647D01*
X107846480Y-150857863D01*
X107773198Y-150871554D01*
X107771056Y-150871947D01*
X107697944Y-150885616D01*
X107629800Y-150898783D01*
X107568668Y-150911022D01*
X107516594Y-150921905D01*
X107475621Y-150931006D01*
X107447794Y-150937897D01*
X107435158Y-150942152D01*
X107430548Y-150947795D01*
X107419174Y-150968354D01*
X107403296Y-151001326D01*
X107383878Y-151044341D01*
X107361879Y-151095029D01*
X107338263Y-151151020D01*
X107313992Y-151209943D01*
X107290026Y-151269430D01*
X107267329Y-151327110D01*
X107246862Y-151380612D01*
X107229586Y-151427567D01*
X107216465Y-151465605D01*
X107208459Y-151492356D01*
X107206531Y-151505450D01*
X107206783Y-151506155D01*
X107213925Y-151518774D01*
X107229744Y-151543863D01*
X107253129Y-151579743D01*
X107282967Y-151624733D01*
X107318144Y-151677155D01*
X107357547Y-151735327D01*
X107400065Y-151797572D01*
X107407105Y-151807844D01*
X107448974Y-151869283D01*
X107487371Y-151926202D01*
X107521213Y-151976957D01*
X107549418Y-152019901D01*
X107570905Y-152053390D01*
X107584591Y-152075778D01*
X107589393Y-152085419D01*
X107588133Y-152087852D01*
X107576914Y-152101538D01*
X107555143Y-152125566D01*
X107524118Y-152158578D01*
X107485136Y-152199215D01*
X107439497Y-152246119D01*
X107388498Y-152297932D01*
X107333436Y-152353294D01*
X107307942Y-152378742D01*
X107254069Y-152432138D01*
X107204376Y-152480880D01*
X107160220Y-152523672D01*
X107122955Y-152559214D01*
X107093937Y-152586208D01*
X107074521Y-152603357D01*
X107066064Y-152609362D01*
X107065550Y-152609263D01*
X107054094Y-152603145D01*
X107030126Y-152588301D01*
X106995293Y-152565817D01*
X106951245Y-152536777D01*
X106899628Y-152502268D01*
X106842091Y-152463374D01*
X106780282Y-152421181D01*
X106772137Y-152415600D01*
X106710481Y-152373701D01*
X106653034Y-152335254D01*
X106601491Y-152301352D01*
X106557543Y-152273085D01*
X106522885Y-152251543D01*
X106499209Y-152237818D01*
X106488209Y-152233001D01*
X106482193Y-152234329D01*
X106461329Y-152242518D01*
X106429993Y-152256930D01*
X106391267Y-152276121D01*
X106348235Y-152298645D01*
X106322597Y-152312297D01*
X106282995Y-152332913D01*
X106250198Y-152349397D01*
X106227058Y-152360330D01*
X106216427Y-152364289D01*
X106206886Y-152359305D01*
X106194184Y-152344596D01*
X106192738Y-152341987D01*
X106184532Y-152324432D01*
X106170737Y-152293060D01*
X106152003Y-152249448D01*
X106128981Y-152195174D01*
X106102320Y-152131813D01*
X106072670Y-152060944D01*
X106040680Y-151984144D01*
X106007001Y-151902989D01*
X105972282Y-151819056D01*
X105937173Y-151733924D01*
X105902324Y-151649169D01*
X105868384Y-151566367D01*
X105836004Y-151487097D01*
X105805833Y-151412935D01*
X105778521Y-151345459D01*
X105754718Y-151286246D01*
X105735073Y-151236872D01*
X105720237Y-151198915D01*
X105710858Y-151173951D01*
X105707588Y-151163559D01*
X105709268Y-151157656D01*
X105722337Y-151141634D01*
X105744786Y-151124521D01*
X105770323Y-151108090D01*
X105875445Y-151030770D01*
X105964024Y-150948095D01*
X106036258Y-150859741D01*
X106092346Y-150765387D01*
X106132488Y-150664710D01*
X106156883Y-150557388D01*
X106165731Y-150443097D01*
X106161095Y-150342409D01*
X106141280Y-150232502D01*
X106105519Y-150128987D01*
X106053355Y-150030584D01*
X105984332Y-149936015D01*
X105976928Y-149927366D01*
X105918216Y-149869874D01*
X105847037Y-149815432D01*
X105767777Y-149766778D01*
X105684822Y-149726647D01*
X105602557Y-149697778D01*
X105571661Y-149691059D01*
X105515235Y-149684170D01*
X105450229Y-149680787D01*
X105381732Y-149680865D01*
X105314834Y-149684357D01*
X105254624Y-149691217D01*
X105206192Y-149701397D01*
X105140553Y-149724112D01*
X105051292Y-149766378D01*
X104966767Y-149819024D01*
X104891185Y-149879337D01*
X104828756Y-149944606D01*
X104780628Y-150010220D01*
X104725283Y-150109077D01*
X104685237Y-150213220D01*
X104660722Y-150320887D01*
X104651970Y-150430318D01*
X104659212Y-150539750D01*
X104682680Y-150647422D01*
X104722605Y-150751574D01*
X104727536Y-150761834D01*
X104771098Y-150840739D01*
X104821559Y-150911260D01*
X104881505Y-150976244D01*
X104953525Y-151038536D01*
X105040203Y-151100983D01*
X105053772Y-151110267D01*
X105084869Y-151133612D01*
X105105156Y-151152257D01*
X105112412Y-151164257D01*
X105111969Y-151166229D01*
X105106398Y-151182041D01*
X105094955Y-151211849D01*
X105078290Y-151254077D01*
X105057053Y-151307150D01*
X105031894Y-151369490D01*
X105003462Y-151439520D01*
X104972409Y-151515665D01*
X104939383Y-151596348D01*
X104905035Y-151679991D01*
X104870014Y-151765019D01*
X104834971Y-151849855D01*
X104800556Y-151932922D01*
X104767418Y-152012644D01*
X104736207Y-152087444D01*
X104707574Y-152155745D01*
X104682168Y-152215972D01*
X104660639Y-152266547D01*
X104643637Y-152305893D01*
X104631813Y-152332435D01*
X104625815Y-152344596D01*
X104614697Y-152357577D01*
X104602372Y-152364061D01*
X104597568Y-152362621D01*
X104578846Y-152354328D01*
X104549347Y-152339910D01*
X104511963Y-152320797D01*
X104469583Y-152298417D01*
X104445137Y-152285515D01*
X104403969Y-152264714D01*
X104368728Y-152248062D01*
X104342542Y-152237008D01*
X104328534Y-152233001D01*
X104310263Y-152237210D01*
X104288661Y-152249044D01*
X104275679Y-152258690D01*
X104247735Y-152278632D01*
X104210514Y-152304625D01*
X104165991Y-152335339D01*
X104116142Y-152369441D01*
X104062942Y-152405603D01*
X104008367Y-152442493D01*
X103954391Y-152478782D01*
X103902989Y-152513137D01*
X103856138Y-152544230D01*
X103815812Y-152570729D01*
X103783986Y-152591305D01*
X103762636Y-152604626D01*
X103753737Y-152609362D01*
X103750020Y-152607263D01*
X103734921Y-152594626D01*
X103710154Y-152571938D01*
X103677307Y-152540789D01*
X103637967Y-152502768D01*
X103593721Y-152459464D01*
X103546156Y-152412467D01*
X103496859Y-152363366D01*
X103447418Y-152313751D01*
X103399420Y-152265210D01*
X103354451Y-152219332D01*
X103314099Y-152177708D01*
X103279952Y-152141927D01*
X103253596Y-152113577D01*
X103236618Y-152094248D01*
X103230606Y-152085530D01*
X103230736Y-152084898D01*
X103237050Y-152073056D01*
X103252073Y-152048736D01*
X103274722Y-152013584D01*
X103303915Y-151969245D01*
X103338570Y-151917366D01*
X103377603Y-151859593D01*
X103419934Y-151797572D01*
X103426377Y-151788172D01*
X103468505Y-151726424D01*
X103507353Y-151668997D01*
X103541810Y-151617569D01*
X103570763Y-151573820D01*
X103593099Y-151539431D01*
X103607705Y-151516081D01*
X103613468Y-151505450D01*
X103612909Y-151498346D01*
X103606826Y-151475869D01*
X103595304Y-151441317D01*
X103579305Y-151397061D01*
X103559791Y-151345471D01*
X103537726Y-151288918D01*
X103514071Y-151229774D01*
X103489790Y-151170408D01*
X103465844Y-151113191D01*
X103443197Y-151060495D01*
X103422811Y-151014689D01*
X103405648Y-150978146D01*
X103392670Y-150953235D01*
X103384842Y-150942327D01*
X103384709Y-150942246D01*
X103371608Y-150937947D01*
X103343375Y-150931018D01*
X103302057Y-150921884D01*
X103249696Y-150910973D01*
X103188337Y-150898710D01*
X103120024Y-150885521D01*
X103046802Y-150871834D01*
X103044865Y-150871477D01*
X102971683Y-150857775D01*
X102903414Y-150844555D01*
X102842112Y-150832247D01*
X102789829Y-150821281D01*
X102748621Y-150812089D01*
X102720539Y-150805100D01*
X102707639Y-150800745D01*
X102687946Y-150788421D01*
X102688080Y-150431955D01*
X102688120Y-150401462D01*
X102688475Y-150325597D01*
X102689159Y-150255704D01*
X102690132Y-150193703D01*
X102691350Y-150141519D01*
X102692773Y-150101073D01*
X102694359Y-150074287D01*
X102696066Y-150063084D01*
X102697299Y-150061957D01*
X102712687Y-150056015D01*
X102745044Y-150047478D01*
X102794434Y-150036333D01*
X102860926Y-150022566D01*
X102944585Y-150006161D01*
X103045478Y-149987105D01*
X103067029Y-149983082D01*
X103141384Y-149969030D01*
X103210191Y-149955763D01*
X103271505Y-149943675D01*
X103323379Y-149933158D01*
X103363869Y-149924604D01*
X103391028Y-149918407D01*
X103402912Y-149914958D01*
X103403092Y-149914853D01*
X103411251Y-149903791D01*
X103425277Y-149877833D01*
X103444551Y-149838284D01*
X103468456Y-149786449D01*
X103496375Y-149723636D01*
X103527689Y-149651149D01*
X103543045Y-149615104D01*
X103570496Y-149550185D01*
X103591851Y-149498688D01*
X103607744Y-149458843D01*
X103618809Y-149428881D01*
X103625679Y-149407032D01*
X103628986Y-149391527D01*
X103629366Y-149380595D01*
X103627450Y-149372468D01*
X103626814Y-149371069D01*
X103618019Y-149356060D01*
X103600620Y-149328732D01*
X103575757Y-149290798D01*
X103544569Y-149243973D01*
X103508197Y-149189970D01*
X103467780Y-149130503D01*
X103424458Y-149067284D01*
X103414208Y-149052366D01*
X103371952Y-148990402D01*
X103333245Y-148932916D01*
X103299164Y-148881555D01*
X103270783Y-148837967D01*
X103249180Y-148803801D01*
X103235429Y-148780704D01*
X103230606Y-148770324D01*
X103231666Y-148767703D01*
X103242464Y-148753488D01*
X103263625Y-148729422D01*
X103293542Y-148697112D01*
X103330607Y-148658161D01*
X103373216Y-148614177D01*
X103419760Y-148566762D01*
X103468635Y-148517524D01*
X103518233Y-148468067D01*
X103566949Y-148419996D01*
X103613175Y-148374917D01*
X103655306Y-148334434D01*
X103691734Y-148300154D01*
X103720854Y-148273680D01*
X103741059Y-148256619D01*
X103750744Y-148250575D01*
X103753220Y-148251352D01*
X103768822Y-148259856D01*
X103796545Y-148276889D01*
X103834782Y-148301401D01*
X103881924Y-148332340D01*
X103936364Y-148368654D01*
X103996494Y-148409293D01*
X104060704Y-148453205D01*
X104086074Y-148470623D01*
X104149049Y-148513576D01*
X104207394Y-148552981D01*
X104259486Y-148587765D01*
X104303700Y-148616855D01*
X104338410Y-148639179D01*
X104361991Y-148653664D01*
X104372818Y-148659238D01*
X104373407Y-148659283D01*
X104386828Y-148656070D01*
X104413617Y-148647121D01*
X104451316Y-148633425D01*
X104497468Y-148615968D01*
X104549617Y-148595736D01*
X104605304Y-148573716D01*
X104662074Y-148550895D01*
X104717468Y-148528260D01*
X104769031Y-148506797D01*
X104814305Y-148487493D01*
X104850833Y-148471336D01*
X104876159Y-148459311D01*
X104887825Y-148452405D01*
X104889212Y-148449357D01*
X104894194Y-148431212D01*
X104901743Y-148398597D01*
X104911477Y-148353356D01*
X104923011Y-148297336D01*
X104935962Y-148232383D01*
X104949946Y-148160343D01*
X104964580Y-148083061D01*
X104977165Y-148016391D01*
X104994103Y-147928959D01*
X105008886Y-147855597D01*
X105021376Y-147796947D01*
X105031435Y-147753648D01*
X105038926Y-147726341D01*
X105043711Y-147715666D01*
X105045921Y-147715043D01*
X105063073Y-147713452D01*
X105095087Y-147711992D01*
X105140041Y-147710703D01*
X105196014Y-147709624D01*
X105261085Y-147708795D01*
X105333331Y-147708257D01*
X105410831Y-147708049D01*
X105422852Y-147708045D01*
X105509392Y-147708072D01*
G37*
G36*
X103223405Y-142881114D02*
G01*
X103558267Y-143088667D01*
X103748218Y-143281795D01*
X103932314Y-143619373D01*
X103992525Y-144018000D01*
X103971230Y-144258991D01*
X103836075Y-144628875D01*
X103580767Y-144932913D01*
X103210490Y-145163512D01*
X103020525Y-145224352D01*
X102665923Y-145237778D01*
X102311820Y-145145379D01*
X101996679Y-144959625D01*
X101758967Y-144692985D01*
X101618987Y-144390408D01*
X101561601Y-144030423D01*
X101610800Y-143690064D01*
X101750139Y-143383992D01*
X101963174Y-143126870D01*
X102233462Y-142933360D01*
X102544559Y-142818122D01*
X102880022Y-142795820D01*
X103223405Y-142881114D01*
G37*
G36*
X102993362Y-140622296D02*
G01*
X103420977Y-140713942D01*
X103804073Y-140879736D01*
X104101608Y-141111511D01*
X104261545Y-141285359D01*
X104078025Y-141503460D01*
X104035299Y-141553222D01*
X103922854Y-141673462D01*
X103862204Y-141721561D01*
X103842513Y-141714364D01*
X103734311Y-141651872D01*
X103572637Y-141546076D01*
X103556490Y-141535176D01*
X103152054Y-141335157D01*
X102748445Y-141272956D01*
X102352305Y-141348507D01*
X101970273Y-141561746D01*
X101738601Y-141737046D01*
X101535341Y-141542312D01*
X101494557Y-141501570D01*
X101378661Y-141362328D01*
X101332082Y-141265677D01*
X101349220Y-141222179D01*
X101460396Y-141107611D01*
X101646750Y-140969486D01*
X101875214Y-140831098D01*
X102112724Y-140715740D01*
X102168736Y-140694115D01*
X102562268Y-140612965D01*
X102993362Y-140622296D01*
G37*
G36*
X103876217Y-146323670D02*
G01*
X103963992Y-146410015D01*
X104085357Y-146557724D01*
X104270921Y-146801011D01*
X104106296Y-146944358D01*
X104027370Y-147004730D01*
X103824416Y-147133175D01*
X103593726Y-147257104D01*
X103341108Y-147354979D01*
X102870640Y-147428751D01*
X102384393Y-147384133D01*
X101911324Y-147225247D01*
X101480394Y-146956217D01*
X101430703Y-146910752D01*
X101366032Y-146776559D01*
X101420310Y-146622576D01*
X101597641Y-146430403D01*
X101669804Y-146370737D01*
X101748099Y-146348343D01*
X101851927Y-146392841D01*
X102024226Y-146512491D01*
X102044942Y-146527261D01*
X102427197Y-146720334D01*
X102820849Y-146776303D01*
X103215385Y-146695399D01*
X103600295Y-146477853D01*
X103640724Y-146447720D01*
X103780272Y-146352723D01*
X103857712Y-146314438D01*
X103876217Y-146323670D01*
G37*
G36*
X88445067Y-142884605D02*
G01*
X88429120Y-143008773D01*
X88375720Y-143126383D01*
X88266740Y-143170374D01*
X88204128Y-143184191D01*
X88159300Y-143220791D01*
X88131615Y-143303057D01*
X88116948Y-143454368D01*
X88111173Y-143698102D01*
X88110164Y-144057634D01*
X88110164Y-144922657D01*
X88284137Y-144922657D01*
X88386620Y-144934078D01*
X88445112Y-145001508D01*
X88458110Y-145166219D01*
X88458110Y-145409780D01*
X87762219Y-145409780D01*
X87066329Y-145409780D01*
X87066329Y-145166219D01*
X87074487Y-145022743D01*
X87122651Y-144940854D01*
X87240301Y-144922657D01*
X87414274Y-144922657D01*
X87414274Y-144057634D01*
X87413383Y-143711599D01*
X87407910Y-143463164D01*
X87393731Y-143308201D01*
X87366720Y-143223333D01*
X87322751Y-143185183D01*
X87257699Y-143170374D01*
X87185624Y-143152236D01*
X87118061Y-143075492D01*
X87101123Y-142904575D01*
X87101123Y-142661013D01*
X87783971Y-142641044D01*
X88466818Y-142621074D01*
X88445067Y-142884605D01*
G37*
G36*
X89944889Y-143396749D02*
G01*
X90038160Y-143465708D01*
X90110401Y-143491883D01*
X90128247Y-143431544D01*
X90143871Y-143379013D01*
X90237879Y-143334709D01*
X90441397Y-143322109D01*
X90754548Y-143322109D01*
X90754548Y-144365945D01*
X90754548Y-145409780D01*
X90441397Y-145409780D01*
X90128247Y-145409780D01*
X90128247Y-144693013D01*
X90127926Y-144589802D01*
X90118035Y-144251908D01*
X90088495Y-144026237D01*
X90031471Y-143891457D01*
X89939127Y-143826233D01*
X89803627Y-143809233D01*
X89698397Y-143827838D01*
X89603803Y-143912196D01*
X89543373Y-144081120D01*
X89511341Y-144352470D01*
X89501945Y-144744110D01*
X89501945Y-145409780D01*
X89188795Y-145409780D01*
X88875644Y-145409780D01*
X88875644Y-144654685D01*
X88875695Y-144615951D01*
X88887114Y-144173906D01*
X88922395Y-143847545D01*
X88987164Y-143616091D01*
X89087050Y-143458765D01*
X89227678Y-143354789D01*
X89417901Y-143279579D01*
X89692017Y-143270855D01*
X89944889Y-143396749D01*
G37*
G36*
X86579206Y-144018000D02*
G01*
X86579206Y-145409780D01*
X86266055Y-145409780D01*
X85952904Y-145409780D01*
X85952904Y-144922657D01*
X85952904Y-144435534D01*
X85497120Y-144435534D01*
X85331623Y-144430317D01*
X85042075Y-144393918D01*
X84837202Y-144329972D01*
X84734058Y-144263831D01*
X84542053Y-144035900D01*
X84439821Y-143739074D01*
X84436885Y-143530876D01*
X85117836Y-143530876D01*
X85142257Y-143730313D01*
X85227911Y-143836582D01*
X85262304Y-143846484D01*
X85430082Y-143869589D01*
X85645445Y-143878822D01*
X85952904Y-143878822D01*
X85952904Y-143530876D01*
X85952904Y-143182931D01*
X85645445Y-143182931D01*
X85610369Y-143183029D01*
X85353434Y-143197046D01*
X85204123Y-143247544D01*
X85134802Y-143352746D01*
X85117836Y-143530876D01*
X84436885Y-143530876D01*
X84435121Y-143405819D01*
X84535713Y-143068602D01*
X84573464Y-142995133D01*
X84688677Y-142840040D01*
X84845888Y-142733958D01*
X85069173Y-142668532D01*
X85382609Y-142635404D01*
X85810270Y-142626219D01*
X86579206Y-142626219D01*
X86579206Y-143530876D01*
X86579206Y-144018000D01*
G37*
G36*
X101333710Y-142077764D02*
G01*
X101428875Y-142161389D01*
X101555588Y-142306020D01*
X101744298Y-142542529D01*
X100911889Y-143257680D01*
X100737851Y-143408292D01*
X100476768Y-143638822D01*
X100268032Y-143828967D01*
X100129612Y-143962225D01*
X100079480Y-144022093D01*
X100097704Y-144047872D01*
X100202836Y-144152999D01*
X100385781Y-144321383D01*
X100628498Y-144536571D01*
X100912943Y-144782110D01*
X101746406Y-145492865D01*
X101565779Y-145729679D01*
X101518942Y-145788297D01*
X101397787Y-145915697D01*
X101316971Y-145966493D01*
X101314340Y-145966016D01*
X101235682Y-145914402D01*
X101074297Y-145788977D01*
X100849196Y-145605976D01*
X100579385Y-145381638D01*
X100283876Y-145132201D01*
X99981676Y-144873902D01*
X99691795Y-144622978D01*
X99433243Y-144395667D01*
X99225027Y-144208206D01*
X99086158Y-144076834D01*
X99035644Y-144017787D01*
X99036538Y-144015064D01*
X99099432Y-143947709D01*
X99248012Y-143809796D01*
X99463321Y-143617544D01*
X99726400Y-143387171D01*
X100018291Y-143134896D01*
X100320036Y-142876936D01*
X100612678Y-142629510D01*
X100877258Y-142408836D01*
X101094818Y-142231133D01*
X101246400Y-142112617D01*
X101313047Y-142069509D01*
X101333710Y-142077764D01*
G37*
G36*
X104261545Y-142069676D02*
G01*
X104336774Y-142118297D01*
X104494857Y-142242041D01*
X104716828Y-142424474D01*
X104983718Y-142649160D01*
X105276562Y-142899666D01*
X105576391Y-143159557D01*
X105864239Y-143412400D01*
X106121137Y-143641758D01*
X106328119Y-143831199D01*
X106466218Y-143964287D01*
X106516466Y-144024588D01*
X106511783Y-144033530D01*
X106432519Y-144116945D01*
X106267281Y-144271936D01*
X106031659Y-144484380D01*
X105741246Y-144740159D01*
X105411634Y-145025151D01*
X105310090Y-145111836D01*
X104985243Y-145384138D01*
X104698645Y-145616960D01*
X104466922Y-145797263D01*
X104306699Y-145912007D01*
X104234606Y-145948156D01*
X104219854Y-145940894D01*
X104120996Y-145853792D01*
X103996509Y-145708965D01*
X103830609Y-145493839D01*
X104670162Y-144776751D01*
X104850251Y-144621374D01*
X105109386Y-144391569D01*
X105314245Y-144202006D01*
X105447337Y-144069038D01*
X105491172Y-144009023D01*
X105471659Y-143985438D01*
X105364257Y-143881984D01*
X105179784Y-143714419D01*
X104936843Y-143499522D01*
X104654038Y-143254070D01*
X103835447Y-142549757D01*
X104018599Y-142309632D01*
X104068126Y-142247325D01*
X104185754Y-142120121D01*
X104260067Y-142069506D01*
X104261545Y-142069676D01*
G37*
G36*
X98131950Y-144073818D02*
G01*
X98071789Y-144502107D01*
X97924957Y-144879061D01*
X97699572Y-145180311D01*
X97403751Y-145381486D01*
X97096077Y-145463260D01*
X96703695Y-145450735D01*
X96319019Y-145322794D01*
X96058794Y-145145140D01*
X95852560Y-144870726D01*
X95733584Y-144505420D01*
X95699915Y-144091669D01*
X96347035Y-144091669D01*
X96381242Y-144379161D01*
X96451281Y-144619334D01*
X96548335Y-144766856D01*
X96603962Y-144806090D01*
X96851502Y-144880604D01*
X97129237Y-144822587D01*
X97191297Y-144792560D01*
X97312364Y-144695081D01*
X97386307Y-144545503D01*
X97423457Y-144315111D01*
X97434146Y-143975193D01*
X97412462Y-143672850D01*
X97320187Y-143397961D01*
X97152976Y-143236011D01*
X96908127Y-143182931D01*
X96813813Y-143188895D01*
X96591235Y-143276734D01*
X96441817Y-143475340D01*
X96358808Y-143792202D01*
X96357474Y-143802190D01*
X96347035Y-144091669D01*
X95699915Y-144091669D01*
X95695370Y-144035814D01*
X95712044Y-143675773D01*
X95781216Y-143349419D01*
X95916652Y-143088961D01*
X96131705Y-142858364D01*
X96280862Y-142748234D01*
X96618573Y-142611434D01*
X96977149Y-142586011D01*
X97328277Y-142663549D01*
X97643643Y-142835630D01*
X97894934Y-143093839D01*
X98053836Y-143429758D01*
X98097323Y-143618567D01*
X98124448Y-143975193D01*
X98131950Y-144073818D01*
G37*
G36*
X83245650Y-142611287D02*
G01*
X83590058Y-142743593D01*
X83683016Y-142806624D01*
X83917762Y-143063812D01*
X84076478Y-143395184D01*
X84160214Y-143772848D01*
X84170018Y-144168914D01*
X84106940Y-144555493D01*
X83972029Y-144904694D01*
X83766335Y-145188626D01*
X83490905Y-145379400D01*
X83368517Y-145424042D01*
X83004752Y-145476398D01*
X82637170Y-145430540D01*
X82306640Y-145295026D01*
X82054025Y-145078418D01*
X81993665Y-144996955D01*
X81927933Y-144847976D01*
X81979370Y-144733505D01*
X82156141Y-144616614D01*
X82395542Y-144487688D01*
X82562662Y-144681976D01*
X82638508Y-144756281D01*
X82867044Y-144867624D01*
X83109821Y-144857323D01*
X83329784Y-144723376D01*
X83338309Y-144714728D01*
X83413283Y-144617253D01*
X83457019Y-144491962D01*
X83477446Y-144301801D01*
X83482493Y-144009715D01*
X83482136Y-143898400D01*
X83474438Y-143651994D01*
X83450202Y-143496650D01*
X83400952Y-143396565D01*
X83318209Y-143315937D01*
X83227727Y-143255463D01*
X82983696Y-143184025D01*
X82744030Y-143219265D01*
X82554104Y-143358645D01*
X82508971Y-143415065D01*
X82425523Y-143489743D01*
X82330191Y-143487074D01*
X82166314Y-143415345D01*
X82019054Y-143333751D01*
X81933020Y-143229105D01*
X81965367Y-143100217D01*
X82112974Y-142917991D01*
X82202273Y-142834755D01*
X82511831Y-142661582D01*
X82872932Y-142585521D01*
X83245650Y-142611287D01*
G37*
G36*
X93004259Y-144062016D02*
G01*
X93016192Y-144356711D01*
X93003512Y-144624473D01*
X92932177Y-144926846D01*
X92783880Y-145155372D01*
X92542685Y-145343254D01*
X92435436Y-145396965D01*
X92113529Y-145470675D01*
X91765504Y-145454955D01*
X91449353Y-145349474D01*
X91363406Y-145299859D01*
X91221128Y-145171435D01*
X91206891Y-145033208D01*
X91313988Y-144860981D01*
X91414108Y-144753549D01*
X91489170Y-144740711D01*
X91591952Y-144820387D01*
X91741337Y-144907305D01*
X91946966Y-144940396D01*
X92145753Y-144907014D01*
X92295772Y-144815249D01*
X92355096Y-144673186D01*
X92336018Y-144637326D01*
X92236092Y-144600223D01*
X92034039Y-144575506D01*
X91711397Y-144559926D01*
X91067699Y-144539917D01*
X91087206Y-144236627D01*
X91119799Y-144066095D01*
X91728795Y-144066095D01*
X91732489Y-144085216D01*
X91825156Y-144139463D01*
X92046785Y-144157178D01*
X92132007Y-144156535D01*
X92283581Y-144142685D01*
X92342461Y-144097102D01*
X92342539Y-144002003D01*
X92290162Y-143887843D01*
X92122164Y-143777422D01*
X92048826Y-143754469D01*
X91922172Y-143752691D01*
X91826411Y-143841514D01*
X91767311Y-143941052D01*
X91728795Y-144066095D01*
X91119799Y-144066095D01*
X91159894Y-143856309D01*
X91329811Y-143561388D01*
X91595393Y-143367321D01*
X91955963Y-143274857D01*
X92279431Y-143296912D01*
X92607407Y-143439990D01*
X92872067Y-143692555D01*
X92878921Y-143702034D01*
X92961821Y-143859086D01*
X92991709Y-144002003D01*
X93004259Y-144062016D01*
G37*
G36*
X95278667Y-144429247D02*
G01*
X95277836Y-144857069D01*
X95277836Y-146252851D01*
X94982082Y-146231453D01*
X94686329Y-146210054D01*
X94665714Y-145738636D01*
X94659502Y-145601800D01*
X94645603Y-145413169D01*
X94620816Y-145328106D01*
X94573911Y-145322764D01*
X94493654Y-145373294D01*
X94365901Y-145439382D01*
X94098601Y-145475266D01*
X93826392Y-145409325D01*
X93589523Y-145254731D01*
X93428244Y-145024654D01*
X93405290Y-144961142D01*
X93348403Y-144665917D01*
X93334943Y-144355756D01*
X93956396Y-144355756D01*
X93971149Y-144597403D01*
X94027681Y-144788054D01*
X94112973Y-144862842D01*
X94286263Y-144918864D01*
X94472688Y-144926755D01*
X94605142Y-144876264D01*
X94628238Y-144790622D01*
X94645097Y-144605369D01*
X94651534Y-144361792D01*
X94650986Y-144275383D01*
X94638143Y-144041031D01*
X94603665Y-143909140D01*
X94541459Y-143851472D01*
X94499820Y-143837018D01*
X94257842Y-143818250D01*
X94064998Y-143918587D01*
X94042462Y-143947062D01*
X93980981Y-144120009D01*
X93956396Y-144355756D01*
X93334943Y-144355756D01*
X93333266Y-144317114D01*
X93359880Y-143976848D01*
X93428244Y-143707236D01*
X93433656Y-143694742D01*
X93596739Y-143473694D01*
X93835182Y-143313971D01*
X94094822Y-143252520D01*
X94256743Y-143283236D01*
X94446223Y-143358691D01*
X94454595Y-143362979D01*
X94599170Y-143416898D01*
X94651534Y-143389672D01*
X94660381Y-143370145D01*
X94768705Y-143336648D01*
X94982082Y-143335694D01*
X95092558Y-143345922D01*
X95243569Y-143374847D01*
X95295233Y-143409096D01*
X95294232Y-143414402D01*
X95289029Y-143519942D01*
X95284526Y-143738831D01*
X95280984Y-144049217D01*
X95279078Y-144361792D01*
X95278667Y-144429247D01*
G37*
%LPC*%
D12*
X111094776Y-149098000D03*
D13*
X94201000Y-148938000D03*
X99601000Y-148938000D03*
X94201000Y-154338000D03*
X99601000Y-154338000D03*
D12*
X74325224Y-149098000D03*
X92710000Y-130713224D03*
X92710000Y-167482776D03*
D14*
X97499898Y-133059898D03*
D15*
X99295949Y-134855949D03*
X101092000Y-136652000D03*
X102888052Y-138448052D03*
%LPD*%
M02*
