%TF.GenerationSoftware,KiCad,Pcbnew,8.0.5*%
%TF.CreationDate,2024-09-26T09:53:33+02:00*%
%TF.ProjectId,BL-R8812AF1 mount,424c2d52-3838-4313-9241-4631206d6f75,rev?*%
%TF.SameCoordinates,Original*%
%TF.FileFunction,Drillmap*%
%TF.FilePolarity,Positive*%
%FSLAX45Y45*%
G04 Gerber Fmt 4.5, Leading zero omitted, Abs format (unit mm)*
G04 Created by KiCad (PCBNEW 8.0.5) date 2024-09-26 09:53:33*
%MOMM*%
%LPD*%
G01*
G04 APERTURE LIST*
%ADD10C,0.050000*%
%ADD11C,0.100000*%
%ADD12C,0.200000*%
%ADD13C,0.420000*%
G04 APERTURE END LIST*
D10*
X7271000Y-14609800D02*
X7271000Y-15209800D01*
X8971000Y-16909800D02*
X9571000Y-16909800D01*
D11*
X7271000Y-15209800D02*
X8971000Y-16909800D01*
X11271000Y-14609800D02*
X9571000Y-12909800D01*
X9571000Y-16909800D02*
X11271000Y-15209800D01*
D10*
X11271000Y-14609800D02*
X11271000Y-15209800D01*
X8971000Y-12909800D02*
X9571000Y-12909800D01*
D11*
X8971000Y-12909800D02*
X7271000Y-14609800D01*
D12*
D13*
X7222522Y-14699800D02*
X7642522Y-15119800D01*
X7642522Y-14699800D02*
X7222522Y-15119800D01*
X9061000Y-12861322D02*
X9481000Y-13281322D01*
X9481000Y-12861322D02*
X9061000Y-13281322D01*
X9061000Y-16538278D02*
X9481000Y-16958278D01*
X9481000Y-16538278D02*
X9061000Y-16958278D01*
X10899478Y-14699800D02*
X11319478Y-15119800D01*
X11319478Y-14699800D02*
X10899478Y-15119800D01*
D12*
X7526777Y-17226284D02*
X7526777Y-17026284D01*
X7526777Y-17026284D02*
X7574396Y-17026284D01*
X7574396Y-17026284D02*
X7602967Y-17035808D01*
X7602967Y-17035808D02*
X7622015Y-17054855D01*
X7622015Y-17054855D02*
X7631539Y-17073903D01*
X7631539Y-17073903D02*
X7641062Y-17111998D01*
X7641062Y-17111998D02*
X7641062Y-17140570D01*
X7641062Y-17140570D02*
X7631539Y-17178665D01*
X7631539Y-17178665D02*
X7622015Y-17197712D01*
X7622015Y-17197712D02*
X7602967Y-17216760D01*
X7602967Y-17216760D02*
X7574396Y-17226284D01*
X7574396Y-17226284D02*
X7526777Y-17226284D01*
X7726777Y-17226284D02*
X7726777Y-17092950D01*
X7726777Y-17131046D02*
X7736301Y-17111998D01*
X7736301Y-17111998D02*
X7745824Y-17102474D01*
X7745824Y-17102474D02*
X7764872Y-17092950D01*
X7764872Y-17092950D02*
X7783920Y-17092950D01*
X7850586Y-17226284D02*
X7850586Y-17092950D01*
X7850586Y-17026284D02*
X7841062Y-17035808D01*
X7841062Y-17035808D02*
X7850586Y-17045331D01*
X7850586Y-17045331D02*
X7860110Y-17035808D01*
X7860110Y-17035808D02*
X7850586Y-17026284D01*
X7850586Y-17026284D02*
X7850586Y-17045331D01*
X7974396Y-17226284D02*
X7955348Y-17216760D01*
X7955348Y-17216760D02*
X7945824Y-17197712D01*
X7945824Y-17197712D02*
X7945824Y-17026284D01*
X8079158Y-17226284D02*
X8060110Y-17216760D01*
X8060110Y-17216760D02*
X8050586Y-17197712D01*
X8050586Y-17197712D02*
X8050586Y-17026284D01*
X8307729Y-17226284D02*
X8307729Y-17026284D01*
X8307729Y-17026284D02*
X8374396Y-17169141D01*
X8374396Y-17169141D02*
X8441063Y-17026284D01*
X8441063Y-17026284D02*
X8441063Y-17226284D01*
X8622015Y-17226284D02*
X8622015Y-17121522D01*
X8622015Y-17121522D02*
X8612491Y-17102474D01*
X8612491Y-17102474D02*
X8593444Y-17092950D01*
X8593444Y-17092950D02*
X8555348Y-17092950D01*
X8555348Y-17092950D02*
X8536301Y-17102474D01*
X8622015Y-17216760D02*
X8602967Y-17226284D01*
X8602967Y-17226284D02*
X8555348Y-17226284D01*
X8555348Y-17226284D02*
X8536301Y-17216760D01*
X8536301Y-17216760D02*
X8526777Y-17197712D01*
X8526777Y-17197712D02*
X8526777Y-17178665D01*
X8526777Y-17178665D02*
X8536301Y-17159617D01*
X8536301Y-17159617D02*
X8555348Y-17150093D01*
X8555348Y-17150093D02*
X8602967Y-17150093D01*
X8602967Y-17150093D02*
X8622015Y-17140570D01*
X8717253Y-17092950D02*
X8717253Y-17292950D01*
X8717253Y-17102474D02*
X8736301Y-17092950D01*
X8736301Y-17092950D02*
X8774396Y-17092950D01*
X8774396Y-17092950D02*
X8793444Y-17102474D01*
X8793444Y-17102474D02*
X8802967Y-17111998D01*
X8802967Y-17111998D02*
X8812491Y-17131046D01*
X8812491Y-17131046D02*
X8812491Y-17188189D01*
X8812491Y-17188189D02*
X8802967Y-17207236D01*
X8802967Y-17207236D02*
X8793444Y-17216760D01*
X8793444Y-17216760D02*
X8774396Y-17226284D01*
X8774396Y-17226284D02*
X8736301Y-17226284D01*
X8736301Y-17226284D02*
X8717253Y-17216760D01*
X8898205Y-17207236D02*
X8907729Y-17216760D01*
X8907729Y-17216760D02*
X8898205Y-17226284D01*
X8898205Y-17226284D02*
X8888682Y-17216760D01*
X8888682Y-17216760D02*
X8898205Y-17207236D01*
X8898205Y-17207236D02*
X8898205Y-17226284D01*
X8898205Y-17102474D02*
X8907729Y-17111998D01*
X8907729Y-17111998D02*
X8898205Y-17121522D01*
X8898205Y-17121522D02*
X8888682Y-17111998D01*
X8888682Y-17111998D02*
X8898205Y-17102474D01*
X8898205Y-17102474D02*
X8898205Y-17121522D01*
X7066000Y-17454800D02*
X7266000Y-17654800D01*
X7266000Y-17454800D02*
X7066000Y-17654800D01*
X7612491Y-17512950D02*
X7612491Y-17646284D01*
X7564872Y-17436760D02*
X7517253Y-17579617D01*
X7517253Y-17579617D02*
X7641062Y-17579617D01*
X7717253Y-17627236D02*
X7726777Y-17636760D01*
X7726777Y-17636760D02*
X7717253Y-17646284D01*
X7717253Y-17646284D02*
X7707729Y-17636760D01*
X7707729Y-17636760D02*
X7717253Y-17627236D01*
X7717253Y-17627236D02*
X7717253Y-17646284D01*
X7802967Y-17465331D02*
X7812491Y-17455808D01*
X7812491Y-17455808D02*
X7831539Y-17446284D01*
X7831539Y-17446284D02*
X7879158Y-17446284D01*
X7879158Y-17446284D02*
X7898205Y-17455808D01*
X7898205Y-17455808D02*
X7907729Y-17465331D01*
X7907729Y-17465331D02*
X7917253Y-17484379D01*
X7917253Y-17484379D02*
X7917253Y-17503427D01*
X7917253Y-17503427D02*
X7907729Y-17531998D01*
X7907729Y-17531998D02*
X7793443Y-17646284D01*
X7793443Y-17646284D02*
X7917253Y-17646284D01*
X8041062Y-17446284D02*
X8060110Y-17446284D01*
X8060110Y-17446284D02*
X8079158Y-17455808D01*
X8079158Y-17455808D02*
X8088682Y-17465331D01*
X8088682Y-17465331D02*
X8098205Y-17484379D01*
X8098205Y-17484379D02*
X8107729Y-17522474D01*
X8107729Y-17522474D02*
X8107729Y-17570093D01*
X8107729Y-17570093D02*
X8098205Y-17608189D01*
X8098205Y-17608189D02*
X8088682Y-17627236D01*
X8088682Y-17627236D02*
X8079158Y-17636760D01*
X8079158Y-17636760D02*
X8060110Y-17646284D01*
X8060110Y-17646284D02*
X8041062Y-17646284D01*
X8041062Y-17646284D02*
X8022015Y-17636760D01*
X8022015Y-17636760D02*
X8012491Y-17627236D01*
X8012491Y-17627236D02*
X8002967Y-17608189D01*
X8002967Y-17608189D02*
X7993443Y-17570093D01*
X7993443Y-17570093D02*
X7993443Y-17522474D01*
X7993443Y-17522474D02*
X8002967Y-17484379D01*
X8002967Y-17484379D02*
X8012491Y-17465331D01*
X8012491Y-17465331D02*
X8022015Y-17455808D01*
X8022015Y-17455808D02*
X8041062Y-17446284D01*
X8231539Y-17446284D02*
X8250586Y-17446284D01*
X8250586Y-17446284D02*
X8269634Y-17455808D01*
X8269634Y-17455808D02*
X8279158Y-17465331D01*
X8279158Y-17465331D02*
X8288682Y-17484379D01*
X8288682Y-17484379D02*
X8298205Y-17522474D01*
X8298205Y-17522474D02*
X8298205Y-17570093D01*
X8298205Y-17570093D02*
X8288682Y-17608189D01*
X8288682Y-17608189D02*
X8279158Y-17627236D01*
X8279158Y-17627236D02*
X8269634Y-17636760D01*
X8269634Y-17636760D02*
X8250586Y-17646284D01*
X8250586Y-17646284D02*
X8231539Y-17646284D01*
X8231539Y-17646284D02*
X8212491Y-17636760D01*
X8212491Y-17636760D02*
X8202967Y-17627236D01*
X8202967Y-17627236D02*
X8193443Y-17608189D01*
X8193443Y-17608189D02*
X8183920Y-17570093D01*
X8183920Y-17570093D02*
X8183920Y-17522474D01*
X8183920Y-17522474D02*
X8193443Y-17484379D01*
X8193443Y-17484379D02*
X8202967Y-17465331D01*
X8202967Y-17465331D02*
X8212491Y-17455808D01*
X8212491Y-17455808D02*
X8231539Y-17446284D01*
X8383920Y-17646284D02*
X8383920Y-17512950D01*
X8383920Y-17531998D02*
X8393444Y-17522474D01*
X8393444Y-17522474D02*
X8412491Y-17512950D01*
X8412491Y-17512950D02*
X8441063Y-17512950D01*
X8441063Y-17512950D02*
X8460110Y-17522474D01*
X8460110Y-17522474D02*
X8469634Y-17541522D01*
X8469634Y-17541522D02*
X8469634Y-17646284D01*
X8469634Y-17541522D02*
X8479158Y-17522474D01*
X8479158Y-17522474D02*
X8498205Y-17512950D01*
X8498205Y-17512950D02*
X8526777Y-17512950D01*
X8526777Y-17512950D02*
X8545825Y-17522474D01*
X8545825Y-17522474D02*
X8555348Y-17541522D01*
X8555348Y-17541522D02*
X8555348Y-17646284D01*
X8650586Y-17646284D02*
X8650586Y-17512950D01*
X8650586Y-17531998D02*
X8660110Y-17522474D01*
X8660110Y-17522474D02*
X8679158Y-17512950D01*
X8679158Y-17512950D02*
X8707729Y-17512950D01*
X8707729Y-17512950D02*
X8726777Y-17522474D01*
X8726777Y-17522474D02*
X8736301Y-17541522D01*
X8736301Y-17541522D02*
X8736301Y-17646284D01*
X8736301Y-17541522D02*
X8745825Y-17522474D01*
X8745825Y-17522474D02*
X8764872Y-17512950D01*
X8764872Y-17512950D02*
X8793444Y-17512950D01*
X8793444Y-17512950D02*
X8812491Y-17522474D01*
X8812491Y-17522474D02*
X8822015Y-17541522D01*
X8822015Y-17541522D02*
X8822015Y-17646284D01*
X9212491Y-17436760D02*
X9041063Y-17693903D01*
X9469634Y-17446284D02*
X9488682Y-17446284D01*
X9488682Y-17446284D02*
X9507729Y-17455808D01*
X9507729Y-17455808D02*
X9517253Y-17465331D01*
X9517253Y-17465331D02*
X9526777Y-17484379D01*
X9526777Y-17484379D02*
X9536301Y-17522474D01*
X9536301Y-17522474D02*
X9536301Y-17570093D01*
X9536301Y-17570093D02*
X9526777Y-17608189D01*
X9526777Y-17608189D02*
X9517253Y-17627236D01*
X9517253Y-17627236D02*
X9507729Y-17636760D01*
X9507729Y-17636760D02*
X9488682Y-17646284D01*
X9488682Y-17646284D02*
X9469634Y-17646284D01*
X9469634Y-17646284D02*
X9450587Y-17636760D01*
X9450587Y-17636760D02*
X9441063Y-17627236D01*
X9441063Y-17627236D02*
X9431539Y-17608189D01*
X9431539Y-17608189D02*
X9422015Y-17570093D01*
X9422015Y-17570093D02*
X9422015Y-17522474D01*
X9422015Y-17522474D02*
X9431539Y-17484379D01*
X9431539Y-17484379D02*
X9441063Y-17465331D01*
X9441063Y-17465331D02*
X9450587Y-17455808D01*
X9450587Y-17455808D02*
X9469634Y-17446284D01*
X9622015Y-17627236D02*
X9631539Y-17636760D01*
X9631539Y-17636760D02*
X9622015Y-17646284D01*
X9622015Y-17646284D02*
X9612491Y-17636760D01*
X9612491Y-17636760D02*
X9622015Y-17627236D01*
X9622015Y-17627236D02*
X9622015Y-17646284D01*
X9822015Y-17646284D02*
X9707729Y-17646284D01*
X9764872Y-17646284D02*
X9764872Y-17446284D01*
X9764872Y-17446284D02*
X9745825Y-17474855D01*
X9745825Y-17474855D02*
X9726777Y-17493903D01*
X9726777Y-17493903D02*
X9707729Y-17503427D01*
X9993444Y-17446284D02*
X9955348Y-17446284D01*
X9955348Y-17446284D02*
X9936301Y-17455808D01*
X9936301Y-17455808D02*
X9926777Y-17465331D01*
X9926777Y-17465331D02*
X9907729Y-17493903D01*
X9907729Y-17493903D02*
X9898206Y-17531998D01*
X9898206Y-17531998D02*
X9898206Y-17608189D01*
X9898206Y-17608189D02*
X9907729Y-17627236D01*
X9907729Y-17627236D02*
X9917253Y-17636760D01*
X9917253Y-17636760D02*
X9936301Y-17646284D01*
X9936301Y-17646284D02*
X9974396Y-17646284D01*
X9974396Y-17646284D02*
X9993444Y-17636760D01*
X9993444Y-17636760D02*
X10002968Y-17627236D01*
X10002968Y-17627236D02*
X10012491Y-17608189D01*
X10012491Y-17608189D02*
X10012491Y-17560570D01*
X10012491Y-17560570D02*
X10002968Y-17541522D01*
X10002968Y-17541522D02*
X9993444Y-17531998D01*
X9993444Y-17531998D02*
X9974396Y-17522474D01*
X9974396Y-17522474D02*
X9936301Y-17522474D01*
X9936301Y-17522474D02*
X9917253Y-17531998D01*
X9917253Y-17531998D02*
X9907729Y-17541522D01*
X9907729Y-17541522D02*
X9898206Y-17560570D01*
X10193444Y-17446284D02*
X10098206Y-17446284D01*
X10098206Y-17446284D02*
X10088682Y-17541522D01*
X10088682Y-17541522D02*
X10098206Y-17531998D01*
X10098206Y-17531998D02*
X10117253Y-17522474D01*
X10117253Y-17522474D02*
X10164872Y-17522474D01*
X10164872Y-17522474D02*
X10183920Y-17531998D01*
X10183920Y-17531998D02*
X10193444Y-17541522D01*
X10193444Y-17541522D02*
X10202968Y-17560570D01*
X10202968Y-17560570D02*
X10202968Y-17608189D01*
X10202968Y-17608189D02*
X10193444Y-17627236D01*
X10193444Y-17627236D02*
X10183920Y-17636760D01*
X10183920Y-17636760D02*
X10164872Y-17646284D01*
X10164872Y-17646284D02*
X10117253Y-17646284D01*
X10117253Y-17646284D02*
X10098206Y-17636760D01*
X10098206Y-17636760D02*
X10088682Y-17627236D01*
X10374396Y-17512950D02*
X10374396Y-17646284D01*
X10326777Y-17436760D02*
X10279158Y-17579617D01*
X10279158Y-17579617D02*
X10402968Y-17579617D01*
X10469634Y-17446284D02*
X10469634Y-17484379D01*
X10545825Y-17446284D02*
X10545825Y-17484379D01*
X10841063Y-17722474D02*
X10831539Y-17712950D01*
X10831539Y-17712950D02*
X10812491Y-17684379D01*
X10812491Y-17684379D02*
X10802968Y-17665331D01*
X10802968Y-17665331D02*
X10793444Y-17636760D01*
X10793444Y-17636760D02*
X10783920Y-17589141D01*
X10783920Y-17589141D02*
X10783920Y-17551046D01*
X10783920Y-17551046D02*
X10793444Y-17503427D01*
X10793444Y-17503427D02*
X10802968Y-17474855D01*
X10802968Y-17474855D02*
X10812491Y-17455808D01*
X10812491Y-17455808D02*
X10831539Y-17427236D01*
X10831539Y-17427236D02*
X10841063Y-17417712D01*
X11002968Y-17512950D02*
X11002968Y-17646284D01*
X10955349Y-17436760D02*
X10907730Y-17579617D01*
X10907730Y-17579617D02*
X11031539Y-17579617D01*
X11260110Y-17646284D02*
X11260110Y-17446284D01*
X11345825Y-17646284D02*
X11345825Y-17541522D01*
X11345825Y-17541522D02*
X11336301Y-17522474D01*
X11336301Y-17522474D02*
X11317253Y-17512950D01*
X11317253Y-17512950D02*
X11288682Y-17512950D01*
X11288682Y-17512950D02*
X11269634Y-17522474D01*
X11269634Y-17522474D02*
X11260110Y-17531998D01*
X11469634Y-17646284D02*
X11450587Y-17636760D01*
X11450587Y-17636760D02*
X11441063Y-17627236D01*
X11441063Y-17627236D02*
X11431539Y-17608189D01*
X11431539Y-17608189D02*
X11431539Y-17551046D01*
X11431539Y-17551046D02*
X11441063Y-17531998D01*
X11441063Y-17531998D02*
X11450587Y-17522474D01*
X11450587Y-17522474D02*
X11469634Y-17512950D01*
X11469634Y-17512950D02*
X11498206Y-17512950D01*
X11498206Y-17512950D02*
X11517253Y-17522474D01*
X11517253Y-17522474D02*
X11526777Y-17531998D01*
X11526777Y-17531998D02*
X11536301Y-17551046D01*
X11536301Y-17551046D02*
X11536301Y-17608189D01*
X11536301Y-17608189D02*
X11526777Y-17627236D01*
X11526777Y-17627236D02*
X11517253Y-17636760D01*
X11517253Y-17636760D02*
X11498206Y-17646284D01*
X11498206Y-17646284D02*
X11469634Y-17646284D01*
X11650587Y-17646284D02*
X11631539Y-17636760D01*
X11631539Y-17636760D02*
X11622015Y-17617712D01*
X11622015Y-17617712D02*
X11622015Y-17446284D01*
X11802968Y-17636760D02*
X11783920Y-17646284D01*
X11783920Y-17646284D02*
X11745825Y-17646284D01*
X11745825Y-17646284D02*
X11726777Y-17636760D01*
X11726777Y-17636760D02*
X11717253Y-17617712D01*
X11717253Y-17617712D02*
X11717253Y-17541522D01*
X11717253Y-17541522D02*
X11726777Y-17522474D01*
X11726777Y-17522474D02*
X11745825Y-17512950D01*
X11745825Y-17512950D02*
X11783920Y-17512950D01*
X11783920Y-17512950D02*
X11802968Y-17522474D01*
X11802968Y-17522474D02*
X11812491Y-17541522D01*
X11812491Y-17541522D02*
X11812491Y-17560570D01*
X11812491Y-17560570D02*
X11717253Y-17579617D01*
X11888682Y-17636760D02*
X11907730Y-17646284D01*
X11907730Y-17646284D02*
X11945825Y-17646284D01*
X11945825Y-17646284D02*
X11964872Y-17636760D01*
X11964872Y-17636760D02*
X11974396Y-17617712D01*
X11974396Y-17617712D02*
X11974396Y-17608189D01*
X11974396Y-17608189D02*
X11964872Y-17589141D01*
X11964872Y-17589141D02*
X11945825Y-17579617D01*
X11945825Y-17579617D02*
X11917253Y-17579617D01*
X11917253Y-17579617D02*
X11898206Y-17570093D01*
X11898206Y-17570093D02*
X11888682Y-17551046D01*
X11888682Y-17551046D02*
X11888682Y-17541522D01*
X11888682Y-17541522D02*
X11898206Y-17522474D01*
X11898206Y-17522474D02*
X11917253Y-17512950D01*
X11917253Y-17512950D02*
X11945825Y-17512950D01*
X11945825Y-17512950D02*
X11964872Y-17522474D01*
X12041063Y-17722474D02*
X12050587Y-17712950D01*
X12050587Y-17712950D02*
X12069634Y-17684379D01*
X12069634Y-17684379D02*
X12079158Y-17665331D01*
X12079158Y-17665331D02*
X12088682Y-17636760D01*
X12088682Y-17636760D02*
X12098206Y-17589141D01*
X12098206Y-17589141D02*
X12098206Y-17551046D01*
X12098206Y-17551046D02*
X12088682Y-17503427D01*
X12088682Y-17503427D02*
X12079158Y-17474855D01*
X12079158Y-17474855D02*
X12069634Y-17455808D01*
X12069634Y-17455808D02*
X12050587Y-17427236D01*
X12050587Y-17427236D02*
X12041063Y-17417712D01*
X12402968Y-17722474D02*
X12393444Y-17712950D01*
X12393444Y-17712950D02*
X12374396Y-17684379D01*
X12374396Y-17684379D02*
X12364872Y-17665331D01*
X12364872Y-17665331D02*
X12355349Y-17636760D01*
X12355349Y-17636760D02*
X12345825Y-17589141D01*
X12345825Y-17589141D02*
X12345825Y-17551046D01*
X12345825Y-17551046D02*
X12355349Y-17503427D01*
X12355349Y-17503427D02*
X12364872Y-17474855D01*
X12364872Y-17474855D02*
X12374396Y-17455808D01*
X12374396Y-17455808D02*
X12393444Y-17427236D01*
X12393444Y-17427236D02*
X12402968Y-17417712D01*
X12479158Y-17512950D02*
X12479158Y-17646284D01*
X12479158Y-17531998D02*
X12488682Y-17522474D01*
X12488682Y-17522474D02*
X12507730Y-17512950D01*
X12507730Y-17512950D02*
X12536301Y-17512950D01*
X12536301Y-17512950D02*
X12555349Y-17522474D01*
X12555349Y-17522474D02*
X12564872Y-17541522D01*
X12564872Y-17541522D02*
X12564872Y-17646284D01*
X12688682Y-17646284D02*
X12669634Y-17636760D01*
X12669634Y-17636760D02*
X12660111Y-17627236D01*
X12660111Y-17627236D02*
X12650587Y-17608189D01*
X12650587Y-17608189D02*
X12650587Y-17551046D01*
X12650587Y-17551046D02*
X12660111Y-17531998D01*
X12660111Y-17531998D02*
X12669634Y-17522474D01*
X12669634Y-17522474D02*
X12688682Y-17512950D01*
X12688682Y-17512950D02*
X12717253Y-17512950D01*
X12717253Y-17512950D02*
X12736301Y-17522474D01*
X12736301Y-17522474D02*
X12745825Y-17531998D01*
X12745825Y-17531998D02*
X12755349Y-17551046D01*
X12755349Y-17551046D02*
X12755349Y-17608189D01*
X12755349Y-17608189D02*
X12745825Y-17627236D01*
X12745825Y-17627236D02*
X12736301Y-17636760D01*
X12736301Y-17636760D02*
X12717253Y-17646284D01*
X12717253Y-17646284D02*
X12688682Y-17646284D01*
X12812492Y-17512950D02*
X12888682Y-17512950D01*
X12841063Y-17446284D02*
X12841063Y-17617712D01*
X12841063Y-17617712D02*
X12850587Y-17636760D01*
X12850587Y-17636760D02*
X12869634Y-17646284D01*
X12869634Y-17646284D02*
X12888682Y-17646284D01*
X13107730Y-17512950D02*
X13107730Y-17712950D01*
X13107730Y-17522474D02*
X13126777Y-17512950D01*
X13126777Y-17512950D02*
X13164873Y-17512950D01*
X13164873Y-17512950D02*
X13183920Y-17522474D01*
X13183920Y-17522474D02*
X13193444Y-17531998D01*
X13193444Y-17531998D02*
X13202968Y-17551046D01*
X13202968Y-17551046D02*
X13202968Y-17608189D01*
X13202968Y-17608189D02*
X13193444Y-17627236D01*
X13193444Y-17627236D02*
X13183920Y-17636760D01*
X13183920Y-17636760D02*
X13164873Y-17646284D01*
X13164873Y-17646284D02*
X13126777Y-17646284D01*
X13126777Y-17646284D02*
X13107730Y-17636760D01*
X13317253Y-17646284D02*
X13298206Y-17636760D01*
X13298206Y-17636760D02*
X13288682Y-17617712D01*
X13288682Y-17617712D02*
X13288682Y-17446284D01*
X13479158Y-17646284D02*
X13479158Y-17541522D01*
X13479158Y-17541522D02*
X13469634Y-17522474D01*
X13469634Y-17522474D02*
X13450587Y-17512950D01*
X13450587Y-17512950D02*
X13412492Y-17512950D01*
X13412492Y-17512950D02*
X13393444Y-17522474D01*
X13479158Y-17636760D02*
X13460111Y-17646284D01*
X13460111Y-17646284D02*
X13412492Y-17646284D01*
X13412492Y-17646284D02*
X13393444Y-17636760D01*
X13393444Y-17636760D02*
X13383920Y-17617712D01*
X13383920Y-17617712D02*
X13383920Y-17598665D01*
X13383920Y-17598665D02*
X13393444Y-17579617D01*
X13393444Y-17579617D02*
X13412492Y-17570093D01*
X13412492Y-17570093D02*
X13460111Y-17570093D01*
X13460111Y-17570093D02*
X13479158Y-17560570D01*
X13545825Y-17512950D02*
X13622015Y-17512950D01*
X13574396Y-17446284D02*
X13574396Y-17617712D01*
X13574396Y-17617712D02*
X13583920Y-17636760D01*
X13583920Y-17636760D02*
X13602968Y-17646284D01*
X13602968Y-17646284D02*
X13622015Y-17646284D01*
X13764873Y-17636760D02*
X13745825Y-17646284D01*
X13745825Y-17646284D02*
X13707730Y-17646284D01*
X13707730Y-17646284D02*
X13688682Y-17636760D01*
X13688682Y-17636760D02*
X13679158Y-17617712D01*
X13679158Y-17617712D02*
X13679158Y-17541522D01*
X13679158Y-17541522D02*
X13688682Y-17522474D01*
X13688682Y-17522474D02*
X13707730Y-17512950D01*
X13707730Y-17512950D02*
X13745825Y-17512950D01*
X13745825Y-17512950D02*
X13764873Y-17522474D01*
X13764873Y-17522474D02*
X13774396Y-17541522D01*
X13774396Y-17541522D02*
X13774396Y-17560570D01*
X13774396Y-17560570D02*
X13679158Y-17579617D01*
X13945825Y-17646284D02*
X13945825Y-17446284D01*
X13945825Y-17636760D02*
X13926777Y-17646284D01*
X13926777Y-17646284D02*
X13888682Y-17646284D01*
X13888682Y-17646284D02*
X13869634Y-17636760D01*
X13869634Y-17636760D02*
X13860111Y-17627236D01*
X13860111Y-17627236D02*
X13850587Y-17608189D01*
X13850587Y-17608189D02*
X13850587Y-17551046D01*
X13850587Y-17551046D02*
X13860111Y-17531998D01*
X13860111Y-17531998D02*
X13869634Y-17522474D01*
X13869634Y-17522474D02*
X13888682Y-17512950D01*
X13888682Y-17512950D02*
X13926777Y-17512950D01*
X13926777Y-17512950D02*
X13945825Y-17522474D01*
X14022015Y-17722474D02*
X14031539Y-17712950D01*
X14031539Y-17712950D02*
X14050587Y-17684379D01*
X14050587Y-17684379D02*
X14060111Y-17665331D01*
X14060111Y-17665331D02*
X14069634Y-17636760D01*
X14069634Y-17636760D02*
X14079158Y-17589141D01*
X14079158Y-17589141D02*
X14079158Y-17551046D01*
X14079158Y-17551046D02*
X14069634Y-17503427D01*
X14069634Y-17503427D02*
X14060111Y-17474855D01*
X14060111Y-17474855D02*
X14050587Y-17455808D01*
X14050587Y-17455808D02*
X14031539Y-17427236D01*
X14031539Y-17427236D02*
X14022015Y-17417712D01*
M02*
