%TF.GenerationSoftware,KiCad,Pcbnew,8.0.5*%
%TF.CreationDate,2024-09-26T10:19:20+02:00*%
%TF.ProjectId,BL-R8812AF1 2x mount,424c2d52-3838-4313-9241-463120327820,rev?*%
%TF.SameCoordinates,Original*%
%TF.FileFunction,Drillmap*%
%TF.FilePolarity,Positive*%
%FSLAX45Y45*%
G04 Gerber Fmt 4.5, Leading zero omitted, Abs format (unit mm)*
G04 Created by KiCad (PCBNEW 8.0.5) date 2024-09-26 10:19:20*
%MOMM*%
%LPD*%
G01*
G04 APERTURE LIST*
%ADD10C,0.050000*%
%ADD11C,0.200000*%
%ADD12C,0.400000*%
G04 APERTURE END LIST*
D10*
X13450000Y-7048500D02*
X13716000Y-7390000D01*
X11950000Y-7048500D02*
X11684000Y-7391400D01*
X9950000Y-7390000D02*
X11684000Y-7391400D01*
X11950000Y-7048500D02*
X13450000Y-7048500D01*
X15450000Y-7390000D02*
X15950000Y-7890000D01*
X15450000Y-10390000D02*
X15950000Y-9890000D01*
X9450000Y-9890000D02*
X9950000Y-10390000D01*
X9450000Y-7890000D02*
X9950000Y-7390000D01*
X9950000Y-10390000D02*
X15450000Y-10390000D01*
X9450000Y-7890000D02*
X9450000Y-9890000D01*
X15950000Y-7890000D02*
X15950000Y-9890000D01*
X13716000Y-7390000D02*
X15450000Y-7390000D01*
D11*
D12*
X9600000Y-7540000D02*
X10000000Y-7940000D01*
X10000000Y-7540000D02*
X9600000Y-7940000D01*
X9600000Y-9840000D02*
X10000000Y-10240000D01*
X10000000Y-9840000D02*
X9600000Y-10240000D01*
X15400000Y-7540000D02*
X15800000Y-7940000D01*
X15800000Y-7540000D02*
X15400000Y-7940000D01*
X15400000Y-9840000D02*
X15800000Y-10240000D01*
X15800000Y-9840000D02*
X15400000Y-10240000D01*
D11*
X9708277Y-10703984D02*
X9708277Y-10503984D01*
X9708277Y-10503984D02*
X9755896Y-10503984D01*
X9755896Y-10503984D02*
X9784467Y-10513508D01*
X9784467Y-10513508D02*
X9803515Y-10532555D01*
X9803515Y-10532555D02*
X9813039Y-10551603D01*
X9813039Y-10551603D02*
X9822563Y-10589698D01*
X9822563Y-10589698D02*
X9822563Y-10618270D01*
X9822563Y-10618270D02*
X9813039Y-10656365D01*
X9813039Y-10656365D02*
X9803515Y-10675412D01*
X9803515Y-10675412D02*
X9784467Y-10694460D01*
X9784467Y-10694460D02*
X9755896Y-10703984D01*
X9755896Y-10703984D02*
X9708277Y-10703984D01*
X9908277Y-10703984D02*
X9908277Y-10570650D01*
X9908277Y-10608746D02*
X9917801Y-10589698D01*
X9917801Y-10589698D02*
X9927324Y-10580174D01*
X9927324Y-10580174D02*
X9946372Y-10570650D01*
X9946372Y-10570650D02*
X9965420Y-10570650D01*
X10032086Y-10703984D02*
X10032086Y-10570650D01*
X10032086Y-10503984D02*
X10022563Y-10513508D01*
X10022563Y-10513508D02*
X10032086Y-10523031D01*
X10032086Y-10523031D02*
X10041610Y-10513508D01*
X10041610Y-10513508D02*
X10032086Y-10503984D01*
X10032086Y-10503984D02*
X10032086Y-10523031D01*
X10155896Y-10703984D02*
X10136848Y-10694460D01*
X10136848Y-10694460D02*
X10127324Y-10675412D01*
X10127324Y-10675412D02*
X10127324Y-10503984D01*
X10260658Y-10703984D02*
X10241610Y-10694460D01*
X10241610Y-10694460D02*
X10232086Y-10675412D01*
X10232086Y-10675412D02*
X10232086Y-10503984D01*
X10489229Y-10703984D02*
X10489229Y-10503984D01*
X10489229Y-10503984D02*
X10555896Y-10646841D01*
X10555896Y-10646841D02*
X10622563Y-10503984D01*
X10622563Y-10503984D02*
X10622563Y-10703984D01*
X10803515Y-10703984D02*
X10803515Y-10599222D01*
X10803515Y-10599222D02*
X10793991Y-10580174D01*
X10793991Y-10580174D02*
X10774944Y-10570650D01*
X10774944Y-10570650D02*
X10736848Y-10570650D01*
X10736848Y-10570650D02*
X10717801Y-10580174D01*
X10803515Y-10694460D02*
X10784467Y-10703984D01*
X10784467Y-10703984D02*
X10736848Y-10703984D01*
X10736848Y-10703984D02*
X10717801Y-10694460D01*
X10717801Y-10694460D02*
X10708277Y-10675412D01*
X10708277Y-10675412D02*
X10708277Y-10656365D01*
X10708277Y-10656365D02*
X10717801Y-10637317D01*
X10717801Y-10637317D02*
X10736848Y-10627793D01*
X10736848Y-10627793D02*
X10784467Y-10627793D01*
X10784467Y-10627793D02*
X10803515Y-10618270D01*
X10898753Y-10570650D02*
X10898753Y-10770650D01*
X10898753Y-10580174D02*
X10917801Y-10570650D01*
X10917801Y-10570650D02*
X10955896Y-10570650D01*
X10955896Y-10570650D02*
X10974944Y-10580174D01*
X10974944Y-10580174D02*
X10984467Y-10589698D01*
X10984467Y-10589698D02*
X10993991Y-10608746D01*
X10993991Y-10608746D02*
X10993991Y-10665889D01*
X10993991Y-10665889D02*
X10984467Y-10684936D01*
X10984467Y-10684936D02*
X10974944Y-10694460D01*
X10974944Y-10694460D02*
X10955896Y-10703984D01*
X10955896Y-10703984D02*
X10917801Y-10703984D01*
X10917801Y-10703984D02*
X10898753Y-10694460D01*
X11079705Y-10684936D02*
X11089229Y-10694460D01*
X11089229Y-10694460D02*
X11079705Y-10703984D01*
X11079705Y-10703984D02*
X11070182Y-10694460D01*
X11070182Y-10694460D02*
X11079705Y-10684936D01*
X11079705Y-10684936D02*
X11079705Y-10703984D01*
X11079705Y-10580174D02*
X11089229Y-10589698D01*
X11089229Y-10589698D02*
X11079705Y-10599222D01*
X11079705Y-10599222D02*
X11070182Y-10589698D01*
X11070182Y-10589698D02*
X11079705Y-10580174D01*
X11079705Y-10580174D02*
X11079705Y-10599222D01*
X9247500Y-10932500D02*
X9447500Y-11132500D01*
X9447500Y-10932500D02*
X9247500Y-11132500D01*
X9793991Y-10990650D02*
X9793991Y-11123984D01*
X9746372Y-10914460D02*
X9698753Y-11057317D01*
X9698753Y-11057317D02*
X9822563Y-11057317D01*
X9898753Y-11104936D02*
X9908277Y-11114460D01*
X9908277Y-11114460D02*
X9898753Y-11123984D01*
X9898753Y-11123984D02*
X9889229Y-11114460D01*
X9889229Y-11114460D02*
X9898753Y-11104936D01*
X9898753Y-11104936D02*
X9898753Y-11123984D01*
X10032086Y-10923984D02*
X10051134Y-10923984D01*
X10051134Y-10923984D02*
X10070182Y-10933508D01*
X10070182Y-10933508D02*
X10079705Y-10943031D01*
X10079705Y-10943031D02*
X10089229Y-10962079D01*
X10089229Y-10962079D02*
X10098753Y-11000174D01*
X10098753Y-11000174D02*
X10098753Y-11047793D01*
X10098753Y-11047793D02*
X10089229Y-11085889D01*
X10089229Y-11085889D02*
X10079705Y-11104936D01*
X10079705Y-11104936D02*
X10070182Y-11114460D01*
X10070182Y-11114460D02*
X10051134Y-11123984D01*
X10051134Y-11123984D02*
X10032086Y-11123984D01*
X10032086Y-11123984D02*
X10013039Y-11114460D01*
X10013039Y-11114460D02*
X10003515Y-11104936D01*
X10003515Y-11104936D02*
X9993991Y-11085889D01*
X9993991Y-11085889D02*
X9984467Y-11047793D01*
X9984467Y-11047793D02*
X9984467Y-11000174D01*
X9984467Y-11000174D02*
X9993991Y-10962079D01*
X9993991Y-10962079D02*
X10003515Y-10943031D01*
X10003515Y-10943031D02*
X10013039Y-10933508D01*
X10013039Y-10933508D02*
X10032086Y-10923984D01*
X10222563Y-10923984D02*
X10241610Y-10923984D01*
X10241610Y-10923984D02*
X10260658Y-10933508D01*
X10260658Y-10933508D02*
X10270182Y-10943031D01*
X10270182Y-10943031D02*
X10279705Y-10962079D01*
X10279705Y-10962079D02*
X10289229Y-11000174D01*
X10289229Y-11000174D02*
X10289229Y-11047793D01*
X10289229Y-11047793D02*
X10279705Y-11085889D01*
X10279705Y-11085889D02*
X10270182Y-11104936D01*
X10270182Y-11104936D02*
X10260658Y-11114460D01*
X10260658Y-11114460D02*
X10241610Y-11123984D01*
X10241610Y-11123984D02*
X10222563Y-11123984D01*
X10222563Y-11123984D02*
X10203515Y-11114460D01*
X10203515Y-11114460D02*
X10193991Y-11104936D01*
X10193991Y-11104936D02*
X10184467Y-11085889D01*
X10184467Y-11085889D02*
X10174944Y-11047793D01*
X10174944Y-11047793D02*
X10174944Y-11000174D01*
X10174944Y-11000174D02*
X10184467Y-10962079D01*
X10184467Y-10962079D02*
X10193991Y-10943031D01*
X10193991Y-10943031D02*
X10203515Y-10933508D01*
X10203515Y-10933508D02*
X10222563Y-10923984D01*
X10413039Y-10923984D02*
X10432086Y-10923984D01*
X10432086Y-10923984D02*
X10451134Y-10933508D01*
X10451134Y-10933508D02*
X10460658Y-10943031D01*
X10460658Y-10943031D02*
X10470182Y-10962079D01*
X10470182Y-10962079D02*
X10479705Y-11000174D01*
X10479705Y-11000174D02*
X10479705Y-11047793D01*
X10479705Y-11047793D02*
X10470182Y-11085889D01*
X10470182Y-11085889D02*
X10460658Y-11104936D01*
X10460658Y-11104936D02*
X10451134Y-11114460D01*
X10451134Y-11114460D02*
X10432086Y-11123984D01*
X10432086Y-11123984D02*
X10413039Y-11123984D01*
X10413039Y-11123984D02*
X10393991Y-11114460D01*
X10393991Y-11114460D02*
X10384467Y-11104936D01*
X10384467Y-11104936D02*
X10374944Y-11085889D01*
X10374944Y-11085889D02*
X10365420Y-11047793D01*
X10365420Y-11047793D02*
X10365420Y-11000174D01*
X10365420Y-11000174D02*
X10374944Y-10962079D01*
X10374944Y-10962079D02*
X10384467Y-10943031D01*
X10384467Y-10943031D02*
X10393991Y-10933508D01*
X10393991Y-10933508D02*
X10413039Y-10923984D01*
X10565420Y-11123984D02*
X10565420Y-10990650D01*
X10565420Y-11009698D02*
X10574944Y-11000174D01*
X10574944Y-11000174D02*
X10593991Y-10990650D01*
X10593991Y-10990650D02*
X10622563Y-10990650D01*
X10622563Y-10990650D02*
X10641610Y-11000174D01*
X10641610Y-11000174D02*
X10651134Y-11019222D01*
X10651134Y-11019222D02*
X10651134Y-11123984D01*
X10651134Y-11019222D02*
X10660658Y-11000174D01*
X10660658Y-11000174D02*
X10679705Y-10990650D01*
X10679705Y-10990650D02*
X10708277Y-10990650D01*
X10708277Y-10990650D02*
X10727325Y-11000174D01*
X10727325Y-11000174D02*
X10736848Y-11019222D01*
X10736848Y-11019222D02*
X10736848Y-11123984D01*
X10832086Y-11123984D02*
X10832086Y-10990650D01*
X10832086Y-11009698D02*
X10841610Y-11000174D01*
X10841610Y-11000174D02*
X10860658Y-10990650D01*
X10860658Y-10990650D02*
X10889229Y-10990650D01*
X10889229Y-10990650D02*
X10908277Y-11000174D01*
X10908277Y-11000174D02*
X10917801Y-11019222D01*
X10917801Y-11019222D02*
X10917801Y-11123984D01*
X10917801Y-11019222D02*
X10927325Y-11000174D01*
X10927325Y-11000174D02*
X10946372Y-10990650D01*
X10946372Y-10990650D02*
X10974944Y-10990650D01*
X10974944Y-10990650D02*
X10993991Y-11000174D01*
X10993991Y-11000174D02*
X11003515Y-11019222D01*
X11003515Y-11019222D02*
X11003515Y-11123984D01*
X11393991Y-10914460D02*
X11222563Y-11171603D01*
X11651134Y-10923984D02*
X11670182Y-10923984D01*
X11670182Y-10923984D02*
X11689229Y-10933508D01*
X11689229Y-10933508D02*
X11698753Y-10943031D01*
X11698753Y-10943031D02*
X11708277Y-10962079D01*
X11708277Y-10962079D02*
X11717801Y-11000174D01*
X11717801Y-11000174D02*
X11717801Y-11047793D01*
X11717801Y-11047793D02*
X11708277Y-11085889D01*
X11708277Y-11085889D02*
X11698753Y-11104936D01*
X11698753Y-11104936D02*
X11689229Y-11114460D01*
X11689229Y-11114460D02*
X11670182Y-11123984D01*
X11670182Y-11123984D02*
X11651134Y-11123984D01*
X11651134Y-11123984D02*
X11632086Y-11114460D01*
X11632086Y-11114460D02*
X11622563Y-11104936D01*
X11622563Y-11104936D02*
X11613039Y-11085889D01*
X11613039Y-11085889D02*
X11603515Y-11047793D01*
X11603515Y-11047793D02*
X11603515Y-11000174D01*
X11603515Y-11000174D02*
X11613039Y-10962079D01*
X11613039Y-10962079D02*
X11622563Y-10943031D01*
X11622563Y-10943031D02*
X11632086Y-10933508D01*
X11632086Y-10933508D02*
X11651134Y-10923984D01*
X11803515Y-11104936D02*
X11813039Y-11114460D01*
X11813039Y-11114460D02*
X11803515Y-11123984D01*
X11803515Y-11123984D02*
X11793991Y-11114460D01*
X11793991Y-11114460D02*
X11803515Y-11104936D01*
X11803515Y-11104936D02*
X11803515Y-11123984D01*
X12003515Y-11123984D02*
X11889229Y-11123984D01*
X11946372Y-11123984D02*
X11946372Y-10923984D01*
X11946372Y-10923984D02*
X11927325Y-10952555D01*
X11927325Y-10952555D02*
X11908277Y-10971603D01*
X11908277Y-10971603D02*
X11889229Y-10981127D01*
X12184467Y-10923984D02*
X12089229Y-10923984D01*
X12089229Y-10923984D02*
X12079706Y-11019222D01*
X12079706Y-11019222D02*
X12089229Y-11009698D01*
X12089229Y-11009698D02*
X12108277Y-11000174D01*
X12108277Y-11000174D02*
X12155896Y-11000174D01*
X12155896Y-11000174D02*
X12174944Y-11009698D01*
X12174944Y-11009698D02*
X12184467Y-11019222D01*
X12184467Y-11019222D02*
X12193991Y-11038270D01*
X12193991Y-11038270D02*
X12193991Y-11085889D01*
X12193991Y-11085889D02*
X12184467Y-11104936D01*
X12184467Y-11104936D02*
X12174944Y-11114460D01*
X12174944Y-11114460D02*
X12155896Y-11123984D01*
X12155896Y-11123984D02*
X12108277Y-11123984D01*
X12108277Y-11123984D02*
X12089229Y-11114460D01*
X12089229Y-11114460D02*
X12079706Y-11104936D01*
X12260658Y-10923984D02*
X12393991Y-10923984D01*
X12393991Y-10923984D02*
X12308277Y-11123984D01*
X12565420Y-10923984D02*
X12470182Y-10923984D01*
X12470182Y-10923984D02*
X12460658Y-11019222D01*
X12460658Y-11019222D02*
X12470182Y-11009698D01*
X12470182Y-11009698D02*
X12489229Y-11000174D01*
X12489229Y-11000174D02*
X12536848Y-11000174D01*
X12536848Y-11000174D02*
X12555896Y-11009698D01*
X12555896Y-11009698D02*
X12565420Y-11019222D01*
X12565420Y-11019222D02*
X12574944Y-11038270D01*
X12574944Y-11038270D02*
X12574944Y-11085889D01*
X12574944Y-11085889D02*
X12565420Y-11104936D01*
X12565420Y-11104936D02*
X12555896Y-11114460D01*
X12555896Y-11114460D02*
X12536848Y-11123984D01*
X12536848Y-11123984D02*
X12489229Y-11123984D01*
X12489229Y-11123984D02*
X12470182Y-11114460D01*
X12470182Y-11114460D02*
X12460658Y-11104936D01*
X12651134Y-10923984D02*
X12651134Y-10962079D01*
X12727325Y-10923984D02*
X12727325Y-10962079D01*
X13022563Y-11200174D02*
X13013039Y-11190650D01*
X13013039Y-11190650D02*
X12993991Y-11162079D01*
X12993991Y-11162079D02*
X12984468Y-11143031D01*
X12984468Y-11143031D02*
X12974944Y-11114460D01*
X12974944Y-11114460D02*
X12965420Y-11066841D01*
X12965420Y-11066841D02*
X12965420Y-11028746D01*
X12965420Y-11028746D02*
X12974944Y-10981127D01*
X12974944Y-10981127D02*
X12984468Y-10952555D01*
X12984468Y-10952555D02*
X12993991Y-10933508D01*
X12993991Y-10933508D02*
X13013039Y-10904936D01*
X13013039Y-10904936D02*
X13022563Y-10895412D01*
X13184468Y-10990650D02*
X13184468Y-11123984D01*
X13136848Y-10914460D02*
X13089229Y-11057317D01*
X13089229Y-11057317D02*
X13213039Y-11057317D01*
X13441610Y-11123984D02*
X13441610Y-10923984D01*
X13527325Y-11123984D02*
X13527325Y-11019222D01*
X13527325Y-11019222D02*
X13517801Y-11000174D01*
X13517801Y-11000174D02*
X13498753Y-10990650D01*
X13498753Y-10990650D02*
X13470182Y-10990650D01*
X13470182Y-10990650D02*
X13451134Y-11000174D01*
X13451134Y-11000174D02*
X13441610Y-11009698D01*
X13651134Y-11123984D02*
X13632087Y-11114460D01*
X13632087Y-11114460D02*
X13622563Y-11104936D01*
X13622563Y-11104936D02*
X13613039Y-11085889D01*
X13613039Y-11085889D02*
X13613039Y-11028746D01*
X13613039Y-11028746D02*
X13622563Y-11009698D01*
X13622563Y-11009698D02*
X13632087Y-11000174D01*
X13632087Y-11000174D02*
X13651134Y-10990650D01*
X13651134Y-10990650D02*
X13679706Y-10990650D01*
X13679706Y-10990650D02*
X13698753Y-11000174D01*
X13698753Y-11000174D02*
X13708277Y-11009698D01*
X13708277Y-11009698D02*
X13717801Y-11028746D01*
X13717801Y-11028746D02*
X13717801Y-11085889D01*
X13717801Y-11085889D02*
X13708277Y-11104936D01*
X13708277Y-11104936D02*
X13698753Y-11114460D01*
X13698753Y-11114460D02*
X13679706Y-11123984D01*
X13679706Y-11123984D02*
X13651134Y-11123984D01*
X13832087Y-11123984D02*
X13813039Y-11114460D01*
X13813039Y-11114460D02*
X13803515Y-11095412D01*
X13803515Y-11095412D02*
X13803515Y-10923984D01*
X13984468Y-11114460D02*
X13965420Y-11123984D01*
X13965420Y-11123984D02*
X13927325Y-11123984D01*
X13927325Y-11123984D02*
X13908277Y-11114460D01*
X13908277Y-11114460D02*
X13898753Y-11095412D01*
X13898753Y-11095412D02*
X13898753Y-11019222D01*
X13898753Y-11019222D02*
X13908277Y-11000174D01*
X13908277Y-11000174D02*
X13927325Y-10990650D01*
X13927325Y-10990650D02*
X13965420Y-10990650D01*
X13965420Y-10990650D02*
X13984468Y-11000174D01*
X13984468Y-11000174D02*
X13993991Y-11019222D01*
X13993991Y-11019222D02*
X13993991Y-11038270D01*
X13993991Y-11038270D02*
X13898753Y-11057317D01*
X14070182Y-11114460D02*
X14089230Y-11123984D01*
X14089230Y-11123984D02*
X14127325Y-11123984D01*
X14127325Y-11123984D02*
X14146372Y-11114460D01*
X14146372Y-11114460D02*
X14155896Y-11095412D01*
X14155896Y-11095412D02*
X14155896Y-11085889D01*
X14155896Y-11085889D02*
X14146372Y-11066841D01*
X14146372Y-11066841D02*
X14127325Y-11057317D01*
X14127325Y-11057317D02*
X14098753Y-11057317D01*
X14098753Y-11057317D02*
X14079706Y-11047793D01*
X14079706Y-11047793D02*
X14070182Y-11028746D01*
X14070182Y-11028746D02*
X14070182Y-11019222D01*
X14070182Y-11019222D02*
X14079706Y-11000174D01*
X14079706Y-11000174D02*
X14098753Y-10990650D01*
X14098753Y-10990650D02*
X14127325Y-10990650D01*
X14127325Y-10990650D02*
X14146372Y-11000174D01*
X14222563Y-11200174D02*
X14232087Y-11190650D01*
X14232087Y-11190650D02*
X14251134Y-11162079D01*
X14251134Y-11162079D02*
X14260658Y-11143031D01*
X14260658Y-11143031D02*
X14270182Y-11114460D01*
X14270182Y-11114460D02*
X14279706Y-11066841D01*
X14279706Y-11066841D02*
X14279706Y-11028746D01*
X14279706Y-11028746D02*
X14270182Y-10981127D01*
X14270182Y-10981127D02*
X14260658Y-10952555D01*
X14260658Y-10952555D02*
X14251134Y-10933508D01*
X14251134Y-10933508D02*
X14232087Y-10904936D01*
X14232087Y-10904936D02*
X14222563Y-10895412D01*
X14584468Y-11200174D02*
X14574944Y-11190650D01*
X14574944Y-11190650D02*
X14555896Y-11162079D01*
X14555896Y-11162079D02*
X14546372Y-11143031D01*
X14546372Y-11143031D02*
X14536849Y-11114460D01*
X14536849Y-11114460D02*
X14527325Y-11066841D01*
X14527325Y-11066841D02*
X14527325Y-11028746D01*
X14527325Y-11028746D02*
X14536849Y-10981127D01*
X14536849Y-10981127D02*
X14546372Y-10952555D01*
X14546372Y-10952555D02*
X14555896Y-10933508D01*
X14555896Y-10933508D02*
X14574944Y-10904936D01*
X14574944Y-10904936D02*
X14584468Y-10895412D01*
X14660658Y-10990650D02*
X14660658Y-11123984D01*
X14660658Y-11009698D02*
X14670182Y-11000174D01*
X14670182Y-11000174D02*
X14689230Y-10990650D01*
X14689230Y-10990650D02*
X14717801Y-10990650D01*
X14717801Y-10990650D02*
X14736849Y-11000174D01*
X14736849Y-11000174D02*
X14746372Y-11019222D01*
X14746372Y-11019222D02*
X14746372Y-11123984D01*
X14870182Y-11123984D02*
X14851134Y-11114460D01*
X14851134Y-11114460D02*
X14841611Y-11104936D01*
X14841611Y-11104936D02*
X14832087Y-11085889D01*
X14832087Y-11085889D02*
X14832087Y-11028746D01*
X14832087Y-11028746D02*
X14841611Y-11009698D01*
X14841611Y-11009698D02*
X14851134Y-11000174D01*
X14851134Y-11000174D02*
X14870182Y-10990650D01*
X14870182Y-10990650D02*
X14898753Y-10990650D01*
X14898753Y-10990650D02*
X14917801Y-11000174D01*
X14917801Y-11000174D02*
X14927325Y-11009698D01*
X14927325Y-11009698D02*
X14936849Y-11028746D01*
X14936849Y-11028746D02*
X14936849Y-11085889D01*
X14936849Y-11085889D02*
X14927325Y-11104936D01*
X14927325Y-11104936D02*
X14917801Y-11114460D01*
X14917801Y-11114460D02*
X14898753Y-11123984D01*
X14898753Y-11123984D02*
X14870182Y-11123984D01*
X14993992Y-10990650D02*
X15070182Y-10990650D01*
X15022563Y-10923984D02*
X15022563Y-11095412D01*
X15022563Y-11095412D02*
X15032087Y-11114460D01*
X15032087Y-11114460D02*
X15051134Y-11123984D01*
X15051134Y-11123984D02*
X15070182Y-11123984D01*
X15289230Y-10990650D02*
X15289230Y-11190650D01*
X15289230Y-11000174D02*
X15308277Y-10990650D01*
X15308277Y-10990650D02*
X15346373Y-10990650D01*
X15346373Y-10990650D02*
X15365420Y-11000174D01*
X15365420Y-11000174D02*
X15374944Y-11009698D01*
X15374944Y-11009698D02*
X15384468Y-11028746D01*
X15384468Y-11028746D02*
X15384468Y-11085889D01*
X15384468Y-11085889D02*
X15374944Y-11104936D01*
X15374944Y-11104936D02*
X15365420Y-11114460D01*
X15365420Y-11114460D02*
X15346373Y-11123984D01*
X15346373Y-11123984D02*
X15308277Y-11123984D01*
X15308277Y-11123984D02*
X15289230Y-11114460D01*
X15498753Y-11123984D02*
X15479706Y-11114460D01*
X15479706Y-11114460D02*
X15470182Y-11095412D01*
X15470182Y-11095412D02*
X15470182Y-10923984D01*
X15660658Y-11123984D02*
X15660658Y-11019222D01*
X15660658Y-11019222D02*
X15651134Y-11000174D01*
X15651134Y-11000174D02*
X15632087Y-10990650D01*
X15632087Y-10990650D02*
X15593992Y-10990650D01*
X15593992Y-10990650D02*
X15574944Y-11000174D01*
X15660658Y-11114460D02*
X15641611Y-11123984D01*
X15641611Y-11123984D02*
X15593992Y-11123984D01*
X15593992Y-11123984D02*
X15574944Y-11114460D01*
X15574944Y-11114460D02*
X15565420Y-11095412D01*
X15565420Y-11095412D02*
X15565420Y-11076365D01*
X15565420Y-11076365D02*
X15574944Y-11057317D01*
X15574944Y-11057317D02*
X15593992Y-11047793D01*
X15593992Y-11047793D02*
X15641611Y-11047793D01*
X15641611Y-11047793D02*
X15660658Y-11038270D01*
X15727325Y-10990650D02*
X15803515Y-10990650D01*
X15755896Y-10923984D02*
X15755896Y-11095412D01*
X15755896Y-11095412D02*
X15765420Y-11114460D01*
X15765420Y-11114460D02*
X15784468Y-11123984D01*
X15784468Y-11123984D02*
X15803515Y-11123984D01*
X15946373Y-11114460D02*
X15927325Y-11123984D01*
X15927325Y-11123984D02*
X15889230Y-11123984D01*
X15889230Y-11123984D02*
X15870182Y-11114460D01*
X15870182Y-11114460D02*
X15860658Y-11095412D01*
X15860658Y-11095412D02*
X15860658Y-11019222D01*
X15860658Y-11019222D02*
X15870182Y-11000174D01*
X15870182Y-11000174D02*
X15889230Y-10990650D01*
X15889230Y-10990650D02*
X15927325Y-10990650D01*
X15927325Y-10990650D02*
X15946373Y-11000174D01*
X15946373Y-11000174D02*
X15955896Y-11019222D01*
X15955896Y-11019222D02*
X15955896Y-11038270D01*
X15955896Y-11038270D02*
X15860658Y-11057317D01*
X16127325Y-11123984D02*
X16127325Y-10923984D01*
X16127325Y-11114460D02*
X16108277Y-11123984D01*
X16108277Y-11123984D02*
X16070182Y-11123984D01*
X16070182Y-11123984D02*
X16051134Y-11114460D01*
X16051134Y-11114460D02*
X16041611Y-11104936D01*
X16041611Y-11104936D02*
X16032087Y-11085889D01*
X16032087Y-11085889D02*
X16032087Y-11028746D01*
X16032087Y-11028746D02*
X16041611Y-11009698D01*
X16041611Y-11009698D02*
X16051134Y-11000174D01*
X16051134Y-11000174D02*
X16070182Y-10990650D01*
X16070182Y-10990650D02*
X16108277Y-10990650D01*
X16108277Y-10990650D02*
X16127325Y-11000174D01*
X16203515Y-11200174D02*
X16213039Y-11190650D01*
X16213039Y-11190650D02*
X16232087Y-11162079D01*
X16232087Y-11162079D02*
X16241611Y-11143031D01*
X16241611Y-11143031D02*
X16251134Y-11114460D01*
X16251134Y-11114460D02*
X16260658Y-11066841D01*
X16260658Y-11066841D02*
X16260658Y-11028746D01*
X16260658Y-11028746D02*
X16251134Y-10981127D01*
X16251134Y-10981127D02*
X16241611Y-10952555D01*
X16241611Y-10952555D02*
X16232087Y-10933508D01*
X16232087Y-10933508D02*
X16213039Y-10904936D01*
X16213039Y-10904936D02*
X16203515Y-10895412D01*
M02*
