G04 #@! TF.GenerationSoftware,KiCad,Pcbnew,8.0.5*
G04 #@! TF.CreationDate,2024-09-26T10:19:01+02:00*
G04 #@! TF.ProjectId,BL-R8812AF1 2x mount,424c2d52-3838-4313-9241-463120327820,rev?*
G04 #@! TF.SameCoordinates,Original*
G04 #@! TF.FileFunction,Paste,Top*
G04 #@! TF.FilePolarity,Positive*
%FSLAX46Y46*%
G04 Gerber Fmt 4.6, Leading zero omitted, Abs format (unit mm)*
G04 Created by KiCad (PCBNEW 8.0.5) date 2024-09-26 10:19:01*
%MOMM*%
%LPD*%
G01*
G04 APERTURE LIST*
G04 Aperture macros list*
%AMRoundRect*
0 Rectangle with rounded corners*
0 $1 Rounding radius*
0 $2 $3 $4 $5 $6 $7 $8 $9 X,Y pos of 4 corners*
0 Add a 4 corners polygon primitive as box body*
4,1,4,$2,$3,$4,$5,$6,$7,$8,$9,$2,$3,0*
0 Add four circle primitives for the rounded corners*
1,1,$1+$1,$2,$3*
1,1,$1+$1,$4,$5*
1,1,$1+$1,$6,$7*
1,1,$1+$1,$8,$9*
0 Add four rect primitives between the rounded corners*
20,1,$1+$1,$2,$3,$4,$5,0*
20,1,$1+$1,$4,$5,$6,$7,0*
20,1,$1+$1,$6,$7,$8,$9,0*
20,1,$1+$1,$8,$9,$2,$3,0*%
G04 Aperture macros list end*
%ADD10RoundRect,0.237500X-0.287500X-0.237500X0.287500X-0.237500X0.287500X0.237500X-0.287500X0.237500X0*%
%ADD11RoundRect,0.237500X0.300000X0.237500X-0.300000X0.237500X-0.300000X-0.237500X0.300000X-0.237500X0*%
%ADD12RoundRect,0.237500X0.237500X-0.300000X0.237500X0.300000X-0.237500X0.300000X-0.237500X-0.300000X0*%
%ADD13RoundRect,0.237500X0.237500X-0.287500X0.237500X0.287500X-0.237500X0.287500X-0.237500X-0.287500X0*%
%ADD14RoundRect,0.237500X-0.237500X0.250000X-0.237500X-0.250000X0.237500X-0.250000X0.237500X0.250000X0*%
%ADD15RoundRect,0.237500X0.237500X-0.250000X0.237500X0.250000X-0.237500X0.250000X-0.237500X-0.250000X0*%
%ADD16RoundRect,0.237500X-0.237500X0.300000X-0.237500X-0.300000X0.237500X-0.300000X0.237500X0.300000X0*%
%ADD17R,2.400000X3.150000*%
%ADD18RoundRect,0.275000X0.275000X-0.825000X0.275000X0.825000X-0.275000X0.825000X-0.275000X-0.825000X0*%
%ADD19RoundRect,0.137500X0.662500X0.137500X-0.662500X0.137500X-0.662500X-0.137500X0.662500X-0.137500X0*%
%ADD20R,3.200400X1.549400*%
%ADD21R,0.900800X1.549400*%
G04 APERTURE END LIST*
D10*
X121313000Y-96774000D03*
X123063000Y-96774000D03*
D11*
X122883000Y-78994000D03*
X121158000Y-78994000D03*
D12*
X123063000Y-82751000D03*
X123063000Y-81026000D03*
X121031000Y-82751000D03*
X121031000Y-81026000D03*
D11*
X122883000Y-93853000D03*
X121158000Y-93853000D03*
D13*
X120904000Y-102856000D03*
X120904000Y-101106000D03*
D14*
X122936000Y-101106000D03*
X122936000Y-102931000D03*
D15*
X124968000Y-102931000D03*
X124968000Y-101106000D03*
D16*
X127000000Y-101159000D03*
X127000000Y-102884000D03*
D13*
X133096000Y-102856000D03*
X133096000Y-101106000D03*
D14*
X131064000Y-101106000D03*
X131064000Y-102931000D03*
D16*
X129032000Y-101159000D03*
X129032000Y-102884000D03*
D17*
X122047000Y-90932000D03*
X122047000Y-86082000D03*
D18*
X148669000Y-75399999D03*
X147169000Y-75400000D03*
X145669000Y-75400000D03*
X140369000Y-75400000D03*
X138869000Y-75399999D03*
X137369001Y-75400000D03*
X138018999Y-102400000D03*
X140018999Y-102400000D03*
X142019000Y-102400000D03*
X144019000Y-102400000D03*
X146019000Y-102400001D03*
X148019000Y-102400000D03*
D19*
X132663000Y-88392000D03*
X132663000Y-87122000D03*
X132663000Y-85852000D03*
X132663000Y-84582000D03*
X132663000Y-83312000D03*
X132663000Y-82042000D03*
X132663000Y-80772000D03*
X132663000Y-79502000D03*
X126163000Y-79502000D03*
X126163000Y-80772000D03*
X126163000Y-82042000D03*
X126163000Y-83312000D03*
X126163000Y-84582000D03*
X126163000Y-85852000D03*
X126163000Y-87122000D03*
X126163000Y-88392000D03*
D18*
X116631000Y-75400000D03*
X115131001Y-75400001D03*
X113631000Y-75400000D03*
X108331000Y-75399999D03*
X106830999Y-75400000D03*
X105331000Y-75400000D03*
X105981001Y-102400000D03*
X107981000Y-102400000D03*
X109981000Y-102400000D03*
X111981001Y-102399999D03*
X113981000Y-102400000D03*
X115980999Y-102400001D03*
D20*
X127635000Y-98044000D03*
D21*
X125335000Y-91592400D03*
X127635000Y-91592400D03*
X129935000Y-91592400D03*
M02*
