G04 #@! TF.GenerationSoftware,KiCad,Pcbnew,8.0.5*
G04 #@! TF.CreationDate,2024-09-26T10:19:01+02:00*
G04 #@! TF.ProjectId,BL-R8812AF1 2x mount,424c2d52-3838-4313-9241-463120327820,rev?*
G04 #@! TF.SameCoordinates,Original*
G04 #@! TF.FileFunction,Copper,L1,Top*
G04 #@! TF.FilePolarity,Positive*
%FSLAX46Y46*%
G04 Gerber Fmt 4.6, Leading zero omitted, Abs format (unit mm)*
G04 Created by KiCad (PCBNEW 8.0.5) date 2024-09-26 10:19:01*
%MOMM*%
%LPD*%
G01*
G04 APERTURE LIST*
G04 Aperture macros list*
%AMRoundRect*
0 Rectangle with rounded corners*
0 $1 Rounding radius*
0 $2 $3 $4 $5 $6 $7 $8 $9 X,Y pos of 4 corners*
0 Add a 4 corners polygon primitive as box body*
4,1,4,$2,$3,$4,$5,$6,$7,$8,$9,$2,$3,0*
0 Add four circle primitives for the rounded corners*
1,1,$1+$1,$2,$3*
1,1,$1+$1,$4,$5*
1,1,$1+$1,$6,$7*
1,1,$1+$1,$8,$9*
0 Add four rect primitives between the rounded corners*
20,1,$1+$1,$2,$3,$4,$5,0*
20,1,$1+$1,$4,$5,$6,$7,0*
20,1,$1+$1,$6,$7,$8,$9,0*
20,1,$1+$1,$8,$9,$2,$3,0*%
G04 Aperture macros list end*
G04 #@! TA.AperFunction,SMDPad,CuDef*
%ADD10RoundRect,0.237500X-0.287500X-0.237500X0.287500X-0.237500X0.287500X0.237500X-0.287500X0.237500X0*%
G04 #@! TD*
G04 #@! TA.AperFunction,SMDPad,CuDef*
%ADD11RoundRect,0.237500X0.300000X0.237500X-0.300000X0.237500X-0.300000X-0.237500X0.300000X-0.237500X0*%
G04 #@! TD*
G04 #@! TA.AperFunction,SMDPad,CuDef*
%ADD12RoundRect,0.237500X0.237500X-0.300000X0.237500X0.300000X-0.237500X0.300000X-0.237500X-0.300000X0*%
G04 #@! TD*
G04 #@! TA.AperFunction,SMDPad,CuDef*
%ADD13RoundRect,0.237500X0.237500X-0.287500X0.237500X0.287500X-0.237500X0.287500X-0.237500X-0.287500X0*%
G04 #@! TD*
G04 #@! TA.AperFunction,SMDPad,CuDef*
%ADD14RoundRect,0.237500X-0.237500X0.250000X-0.237500X-0.250000X0.237500X-0.250000X0.237500X0.250000X0*%
G04 #@! TD*
G04 #@! TA.AperFunction,SMDPad,CuDef*
%ADD15RoundRect,0.237500X0.237500X-0.250000X0.237500X0.250000X-0.237500X0.250000X-0.237500X-0.250000X0*%
G04 #@! TD*
G04 #@! TA.AperFunction,SMDPad,CuDef*
%ADD16RoundRect,0.237500X-0.237500X0.300000X-0.237500X-0.300000X0.237500X-0.300000X0.237500X0.300000X0*%
G04 #@! TD*
G04 #@! TA.AperFunction,SMDPad,CuDef*
%ADD17R,2.400000X3.150000*%
G04 #@! TD*
G04 #@! TA.AperFunction,ComponentPad*
%ADD18C,4.000000*%
G04 #@! TD*
G04 #@! TA.AperFunction,SMDPad,CuDef*
%ADD19RoundRect,0.275000X0.275000X-0.825000X0.275000X0.825000X-0.275000X0.825000X-0.275000X-0.825000X0*%
G04 #@! TD*
G04 #@! TA.AperFunction,SMDPad,CuDef*
%ADD20RoundRect,0.137500X0.662500X0.137500X-0.662500X0.137500X-0.662500X-0.137500X0.662500X-0.137500X0*%
G04 #@! TD*
G04 #@! TA.AperFunction,ComponentPad*
%ADD21R,1.600000X1.500000*%
G04 #@! TD*
G04 #@! TA.AperFunction,ComponentPad*
%ADD22C,1.600000*%
G04 #@! TD*
G04 #@! TA.AperFunction,ComponentPad*
%ADD23C,3.000000*%
G04 #@! TD*
G04 #@! TA.AperFunction,ComponentPad*
%ADD24R,1.500000X1.600000*%
G04 #@! TD*
G04 #@! TA.AperFunction,SMDPad,CuDef*
%ADD25R,3.200400X1.549400*%
G04 #@! TD*
G04 #@! TA.AperFunction,SMDPad,CuDef*
%ADD26R,0.900800X1.549400*%
G04 #@! TD*
G04 #@! TA.AperFunction,ViaPad*
%ADD27C,0.600000*%
G04 #@! TD*
G04 #@! TA.AperFunction,Conductor*
%ADD28C,0.500000*%
G04 #@! TD*
G04 #@! TA.AperFunction,Conductor*
%ADD29C,0.400000*%
G04 #@! TD*
G04 APERTURE END LIST*
D10*
X121313000Y-96774000D03*
X123063000Y-96774000D03*
D11*
X122883000Y-78994000D03*
X121158000Y-78994000D03*
D12*
X123063000Y-82751000D03*
X123063000Y-81026000D03*
X121031000Y-82751000D03*
X121031000Y-81026000D03*
D11*
X122883000Y-93853000D03*
X121158000Y-93853000D03*
D13*
X120904000Y-102856000D03*
X120904000Y-101106000D03*
D14*
X122936000Y-101106000D03*
X122936000Y-102931000D03*
D15*
X124968000Y-102931000D03*
X124968000Y-101106000D03*
D16*
X127000000Y-101159000D03*
X127000000Y-102884000D03*
D13*
X133096000Y-102856000D03*
X133096000Y-101106000D03*
D14*
X131064000Y-101106000D03*
X131064000Y-102931000D03*
D16*
X129032000Y-101159000D03*
X129032000Y-102884000D03*
D17*
X122047000Y-90932000D03*
X122047000Y-86082000D03*
D18*
X105758000Y-90899000D03*
X111158000Y-90899000D03*
X105758000Y-96299000D03*
X111158000Y-96299000D03*
X137762000Y-90899000D03*
X143162000Y-90899000D03*
X137762000Y-96299000D03*
X143162000Y-96299000D03*
D19*
X148669000Y-75399999D03*
X147169000Y-75400000D03*
X145669000Y-75400000D03*
X140369000Y-75400000D03*
X138869000Y-75399999D03*
X137369001Y-75400000D03*
X138018999Y-102400000D03*
X140018999Y-102400000D03*
X142019000Y-102400000D03*
X144019000Y-102400000D03*
X146019000Y-102400001D03*
X148019000Y-102400000D03*
D20*
X132663000Y-88392000D03*
X132663000Y-87122000D03*
X132663000Y-85852000D03*
X132663000Y-84582000D03*
X132663000Y-83312000D03*
X132663000Y-82042000D03*
X132663000Y-80772000D03*
X132663000Y-79502000D03*
X126163000Y-79502000D03*
X126163000Y-80772000D03*
X126163000Y-82042000D03*
X126163000Y-83312000D03*
X126163000Y-84582000D03*
X126163000Y-85852000D03*
X126163000Y-87122000D03*
X126163000Y-88392000D03*
D19*
X116631000Y-75400000D03*
X115131001Y-75400001D03*
X113631000Y-75400000D03*
X108331000Y-75399999D03*
X106830999Y-75400000D03*
X105331000Y-75400000D03*
X105981001Y-102400000D03*
X107981000Y-102400000D03*
X109981000Y-102400000D03*
X111981001Y-102399999D03*
X113981000Y-102400000D03*
X115980999Y-102400001D03*
D21*
X130500000Y-75227000D03*
D22*
X128000000Y-75227000D03*
X126000000Y-75227000D03*
X123500000Y-75227000D03*
D23*
X133570000Y-72517000D03*
X120430000Y-72517000D03*
X157624000Y-82330000D03*
X157624000Y-95470000D03*
D22*
X154914000Y-85400000D03*
X154914000Y-87900000D03*
X154914000Y-89900000D03*
D24*
X154914000Y-92400000D03*
D25*
X127635000Y-98044000D03*
D26*
X125335000Y-91592400D03*
X127635000Y-91592400D03*
X129935000Y-91592400D03*
D23*
X96503000Y-95597000D03*
X96503000Y-82457000D03*
D22*
X99213000Y-92527000D03*
X99213000Y-90027000D03*
X99213000Y-88027000D03*
D24*
X99213000Y-85527000D03*
D27*
X117729000Y-73914000D03*
X136271000Y-73914000D03*
X118364000Y-73914000D03*
X118999000Y-73914000D03*
X121920000Y-73914000D03*
X122555000Y-73914000D03*
X123190000Y-73914000D03*
X123825000Y-73914000D03*
X124460000Y-73914000D03*
X125095000Y-73914000D03*
X125730000Y-73914000D03*
X126365000Y-73914000D03*
X135636000Y-73914000D03*
X135001000Y-73914000D03*
X132080000Y-73914000D03*
X131445000Y-73914000D03*
X130810000Y-73914000D03*
X130175000Y-73914000D03*
X129540000Y-73914000D03*
X128905000Y-73914000D03*
X128270000Y-73914000D03*
X127635000Y-73914000D03*
X127000000Y-73914000D03*
X128651000Y-79883000D03*
X125476000Y-96393000D03*
X132080000Y-99822000D03*
X118491000Y-101854000D03*
X136652000Y-84709000D03*
X134112000Y-83312000D03*
X143637000Y-100584000D03*
X106934000Y-100330000D03*
X118618000Y-100330000D03*
X112903000Y-98298000D03*
X113157000Y-99314000D03*
X131445000Y-88392000D03*
X128651000Y-86106000D03*
X130175000Y-85090000D03*
X131318000Y-87122000D03*
X127889000Y-83566000D03*
X123253500Y-77279500D03*
X144907000Y-100965000D03*
D28*
X120791000Y-101219000D02*
X119507000Y-101219000D01*
X119507000Y-101219000D02*
X118618000Y-100330000D01*
X120904000Y-101106000D02*
X120791000Y-101219000D01*
X124664000Y-101106000D02*
X124968000Y-101106000D01*
X121399000Y-97841000D02*
X124664000Y-101106000D01*
X121399000Y-96774000D02*
X121399000Y-97841000D01*
X127635000Y-100524000D02*
X127000000Y-101159000D01*
X127635000Y-97967800D02*
X127635000Y-100524000D01*
X129032000Y-99364800D02*
X127635000Y-97967800D01*
X129032000Y-101159000D02*
X129032000Y-99364800D01*
X133209000Y-101219000D02*
X133096000Y-101106000D01*
X138018999Y-102057001D02*
X137180998Y-101219000D01*
X137180998Y-101219000D02*
X133209000Y-101219000D01*
X122174000Y-83820000D02*
X121158000Y-82804000D01*
X123317000Y-83820000D02*
X122174000Y-83820000D01*
X125349000Y-85852000D02*
X123317000Y-83820000D01*
X126163000Y-85852000D02*
X125349000Y-85852000D01*
X132663000Y-87122000D02*
X131318000Y-87122000D01*
X130500000Y-80955000D02*
X130500000Y-75083000D01*
X127889000Y-83566000D02*
X130500000Y-80955000D01*
X123253500Y-77279500D02*
X122835000Y-77698000D01*
X122835000Y-79274000D02*
X125603000Y-82042000D01*
X122835000Y-77698000D02*
X122835000Y-79274000D01*
X125603000Y-82042000D02*
X126163000Y-82042000D01*
X109981000Y-101220000D02*
X109981000Y-102057001D01*
X112903000Y-98298000D02*
X109981000Y-101220000D01*
X152400000Y-88900000D02*
X153400000Y-89900000D01*
X153400000Y-89900000D02*
X154914000Y-89900000D01*
X150622000Y-88900000D02*
X152400000Y-88900000D01*
X132663000Y-80772000D02*
X142494000Y-80772000D01*
X142494000Y-80772000D02*
X150622000Y-88900000D01*
X151273000Y-87900000D02*
X154914000Y-87900000D01*
X132663000Y-79502000D02*
X142875000Y-79502000D01*
X142875000Y-79502000D02*
X151273000Y-87900000D01*
D29*
X122899000Y-102909000D02*
X122936000Y-102946000D01*
D28*
X120904000Y-102909000D02*
X122899000Y-102909000D01*
X125603000Y-80772000D02*
X126290000Y-80772000D01*
X124206000Y-79375000D02*
X125603000Y-80772000D01*
X124206000Y-77851000D02*
X124206000Y-79375000D01*
X126000000Y-76057000D02*
X124206000Y-77851000D01*
X126000000Y-74956000D02*
X126000000Y-76057000D01*
X125222000Y-79121000D02*
X125603000Y-79502000D01*
X125603000Y-79502000D02*
X126290000Y-79502000D01*
X128000000Y-75454000D02*
X125222000Y-78232000D01*
X125222000Y-78232000D02*
X125222000Y-79121000D01*
X128000000Y-74956000D02*
X128000000Y-75454000D01*
X142019000Y-102202000D02*
X142019000Y-102400000D01*
X143637000Y-100584000D02*
X142019000Y-102202000D01*
X144019000Y-101853000D02*
X144019000Y-102057001D01*
X144907000Y-100965000D02*
X144019000Y-101853000D01*
X146019000Y-100553000D02*
X146019000Y-102400001D01*
X135382000Y-99314000D02*
X144780000Y-99314000D01*
X134035800Y-97967800D02*
X135382000Y-99314000D01*
X127635000Y-97967800D02*
X134035800Y-97967800D01*
X144780000Y-99314000D02*
X146019000Y-100553000D01*
X125349000Y-84582000D02*
X123317000Y-82550000D01*
X126163000Y-84582000D02*
X125349000Y-84582000D01*
X133985000Y-82042000D02*
X132663000Y-82042000D01*
X136652000Y-84709000D02*
X133985000Y-82042000D01*
X132663000Y-83312000D02*
X134112000Y-83312000D01*
X127635000Y-91516200D02*
X127635000Y-97967800D01*
X105981001Y-101282999D02*
X106934000Y-100330000D01*
X105981001Y-102057001D02*
X105981001Y-101282999D01*
X113981000Y-101030000D02*
X113981000Y-102057001D01*
X119253000Y-95758000D02*
X113981000Y-101030000D01*
X121933000Y-95758000D02*
X119253000Y-95758000D01*
X122949000Y-96774000D02*
X121933000Y-95758000D01*
X124079000Y-96774000D02*
X122949000Y-96774000D01*
X125272800Y-97967800D02*
X124079000Y-96774000D01*
X127635000Y-97967800D02*
X125272800Y-97967800D01*
X125335000Y-92470000D02*
X125335000Y-91516200D01*
X123952000Y-93853000D02*
X125335000Y-92470000D01*
X122949000Y-93853000D02*
X123952000Y-93853000D01*
X126950000Y-103060000D02*
X127000000Y-103010000D01*
X133096000Y-103010000D02*
X131114000Y-103010000D01*
X131114000Y-103010000D02*
X131064000Y-103060000D01*
X111981001Y-100489999D02*
X111981001Y-102057000D01*
X113157000Y-99314000D02*
X111981001Y-100489999D01*
X130683000Y-84582000D02*
X132663000Y-84582000D01*
X130175000Y-85090000D02*
X130683000Y-84582000D01*
X128905000Y-85852000D02*
X132663000Y-85852000D01*
X128651000Y-86106000D02*
X128905000Y-85852000D01*
X125335000Y-91144000D02*
X125335000Y-91643200D01*
X127889000Y-88590000D02*
X125335000Y-91144000D01*
X127889000Y-83566000D02*
X127889000Y-88590000D01*
X124345000Y-88392000D02*
X122555000Y-90182000D01*
X126163000Y-88392000D02*
X124345000Y-88392000D01*
X124345000Y-87122000D02*
X126163000Y-87122000D01*
X122555000Y-85332000D02*
X124345000Y-87122000D01*
X132663000Y-88392000D02*
X131445000Y-88392000D01*
G04 #@! TA.AperFunction,Conductor*
G36*
X134320518Y-70885185D02*
G01*
X134351304Y-70913301D01*
X136781448Y-74033204D01*
X136838368Y-74106279D01*
X136847930Y-74120479D01*
X136855521Y-74133628D01*
X136855525Y-74133633D01*
X136868860Y-74146968D01*
X136879003Y-74158449D01*
X136890598Y-74173334D01*
X136890600Y-74173337D01*
X136902720Y-74182498D01*
X136915629Y-74193737D01*
X136926368Y-74204476D01*
X136942702Y-74213906D01*
X136955474Y-74222374D01*
X136970519Y-74233746D01*
X136970522Y-74233747D01*
X136970524Y-74233749D01*
X136984600Y-74239460D01*
X136999982Y-74246977D01*
X137013127Y-74254566D01*
X137013133Y-74254569D01*
X137031355Y-74259451D01*
X137045866Y-74264318D01*
X137063361Y-74271417D01*
X137078442Y-74273291D01*
X137095232Y-74276567D01*
X137109906Y-74280500D01*
X137128774Y-74280500D01*
X137144066Y-74281446D01*
X137150392Y-74282232D01*
X137162782Y-74283773D01*
X137162782Y-74283772D01*
X137162784Y-74283773D01*
X137177823Y-74281681D01*
X137194901Y-74280500D01*
X137708018Y-74280500D01*
X137775057Y-74300185D01*
X137820812Y-74352989D01*
X137831238Y-74418383D01*
X137818500Y-74531440D01*
X137818500Y-76268557D01*
X137833157Y-76398647D01*
X137833159Y-76398657D01*
X137880006Y-76532536D01*
X137890878Y-76563605D01*
X137983853Y-76711575D01*
X138107424Y-76835146D01*
X138255394Y-76928121D01*
X138420343Y-76985840D01*
X138420349Y-76985840D01*
X138420351Y-76985841D01*
X138461750Y-76990505D01*
X138550442Y-77000498D01*
X138550445Y-77000499D01*
X138550448Y-77000499D01*
X139187555Y-77000499D01*
X139187556Y-77000498D01*
X139317657Y-76985840D01*
X139482606Y-76928121D01*
X139630576Y-76835146D01*
X139754147Y-76711575D01*
X139847122Y-76563605D01*
X139904841Y-76398656D01*
X139919500Y-76268551D01*
X139919500Y-74531447D01*
X139919499Y-74531442D01*
X139919499Y-74531440D01*
X139906762Y-74418383D01*
X139918817Y-74349561D01*
X139966166Y-74298182D01*
X140029982Y-74280500D01*
X146008018Y-74280500D01*
X146075057Y-74300185D01*
X146120812Y-74352989D01*
X146131238Y-74418383D01*
X146118500Y-74531441D01*
X146118500Y-76268558D01*
X146133157Y-76398648D01*
X146133159Y-76398658D01*
X146189684Y-76560194D01*
X146190878Y-76563606D01*
X146283853Y-76711576D01*
X146407424Y-76835147D01*
X146555394Y-76928122D01*
X146720343Y-76985841D01*
X146720349Y-76985841D01*
X146720351Y-76985842D01*
X146761750Y-76990506D01*
X146850442Y-77000499D01*
X146850445Y-77000500D01*
X146850448Y-77000500D01*
X147487555Y-77000500D01*
X147487556Y-77000499D01*
X147617657Y-76985841D01*
X147782606Y-76928122D01*
X147930576Y-76835147D01*
X148054147Y-76711576D01*
X148147122Y-76563606D01*
X148204841Y-76398657D01*
X148219500Y-76268552D01*
X148219500Y-74531448D01*
X148217437Y-74513139D01*
X148206762Y-74418383D01*
X148218817Y-74349561D01*
X148266166Y-74298182D01*
X148329982Y-74280500D01*
X154291030Y-74280500D01*
X154358069Y-74300185D01*
X154378711Y-74316819D01*
X155180031Y-75118139D01*
X155213516Y-75179462D01*
X155208532Y-75249154D01*
X155166660Y-75305087D01*
X155139803Y-75320381D01*
X155002499Y-75377254D01*
X155002489Y-75377258D01*
X154747006Y-75524761D01*
X154512959Y-75704352D01*
X154512952Y-75704358D01*
X154304358Y-75912952D01*
X154304352Y-75912959D01*
X154124761Y-76147006D01*
X153977258Y-76402489D01*
X153977254Y-76402499D01*
X153864364Y-76675038D01*
X153864361Y-76675048D01*
X153821464Y-76835145D01*
X153788008Y-76960004D01*
X153788006Y-76960015D01*
X153749500Y-77252486D01*
X153749500Y-77547513D01*
X153781571Y-77791113D01*
X153788007Y-77839993D01*
X153788008Y-77839995D01*
X153864361Y-78124951D01*
X153864364Y-78124961D01*
X153977254Y-78397500D01*
X153977258Y-78397510D01*
X154124761Y-78652993D01*
X154304352Y-78887040D01*
X154304358Y-78887047D01*
X154512952Y-79095641D01*
X154512959Y-79095647D01*
X154747006Y-79275238D01*
X155002489Y-79422741D01*
X155002490Y-79422741D01*
X155002493Y-79422743D01*
X155275048Y-79535639D01*
X155560007Y-79611993D01*
X155852494Y-79650500D01*
X155852501Y-79650500D01*
X156147499Y-79650500D01*
X156147506Y-79650500D01*
X156439993Y-79611993D01*
X156724952Y-79535639D01*
X156997507Y-79422743D01*
X157252994Y-79275238D01*
X157487042Y-79095646D01*
X157695646Y-78887042D01*
X157875238Y-78652994D01*
X158022743Y-78397507D01*
X158079619Y-78260195D01*
X158123458Y-78205793D01*
X158189752Y-78183728D01*
X158257452Y-78201007D01*
X158281860Y-78219968D01*
X159083181Y-79021289D01*
X159116666Y-79082612D01*
X159119500Y-79108970D01*
X159119500Y-98691029D01*
X159099815Y-98758068D01*
X159083181Y-98778710D01*
X158281860Y-99580030D01*
X158220537Y-99613515D01*
X158150845Y-99608531D01*
X158094912Y-99566659D01*
X158079618Y-99539801D01*
X158022748Y-99402504D01*
X158022741Y-99402489D01*
X157875238Y-99147006D01*
X157695647Y-98912959D01*
X157695641Y-98912952D01*
X157487047Y-98704358D01*
X157487040Y-98704352D01*
X157252993Y-98524761D01*
X156997510Y-98377258D01*
X156997500Y-98377254D01*
X156724961Y-98264364D01*
X156724954Y-98264362D01*
X156724952Y-98264361D01*
X156439993Y-98188007D01*
X156391113Y-98181571D01*
X156147513Y-98149500D01*
X156147506Y-98149500D01*
X155852494Y-98149500D01*
X155852486Y-98149500D01*
X155574085Y-98186153D01*
X155560007Y-98188007D01*
X155425376Y-98224081D01*
X155275048Y-98264361D01*
X155275038Y-98264364D01*
X155002499Y-98377254D01*
X155002489Y-98377258D01*
X154747006Y-98524761D01*
X154512959Y-98704352D01*
X154512952Y-98704358D01*
X154304358Y-98912952D01*
X154304352Y-98912959D01*
X154124761Y-99147006D01*
X153977258Y-99402489D01*
X153977254Y-99402499D01*
X153864364Y-99675038D01*
X153864361Y-99675048D01*
X153792346Y-99943816D01*
X153788008Y-99960004D01*
X153788006Y-99960015D01*
X153749500Y-100252486D01*
X153749500Y-100547513D01*
X153767243Y-100682277D01*
X153788007Y-100839993D01*
X153858779Y-101104118D01*
X153864361Y-101124951D01*
X153864364Y-101124961D01*
X153977254Y-101397500D01*
X153977258Y-101397510D01*
X154124761Y-101652993D01*
X154304352Y-101887040D01*
X154304358Y-101887047D01*
X154512952Y-102095641D01*
X154512959Y-102095647D01*
X154747006Y-102275238D01*
X155002489Y-102422741D01*
X155002504Y-102422748D01*
X155139801Y-102479618D01*
X155194205Y-102523459D01*
X155216270Y-102589753D01*
X155198991Y-102657452D01*
X155180030Y-102681860D01*
X154378711Y-103483181D01*
X154317388Y-103516666D01*
X154291030Y-103519500D01*
X149179982Y-103519500D01*
X149112943Y-103499815D01*
X149067188Y-103447011D01*
X149056762Y-103381617D01*
X149069499Y-103268558D01*
X149069500Y-103268554D01*
X149069500Y-101531445D01*
X149069499Y-101531441D01*
X149054842Y-101401351D01*
X149054841Y-101401344D01*
X149054841Y-101401343D01*
X148997122Y-101236394D01*
X148904147Y-101088424D01*
X148780576Y-100964853D01*
X148632606Y-100871878D01*
X148632605Y-100871877D01*
X148632604Y-100871877D01*
X148467658Y-100814159D01*
X148467648Y-100814157D01*
X148337558Y-100799500D01*
X148337552Y-100799500D01*
X147700448Y-100799500D01*
X147700441Y-100799500D01*
X147570351Y-100814157D01*
X147570341Y-100814159D01*
X147405395Y-100871877D01*
X147257423Y-100964853D01*
X147133851Y-101088425D01*
X147123991Y-101104118D01*
X147071655Y-101150408D01*
X147002601Y-101161054D01*
X146938753Y-101132677D01*
X146914007Y-101104117D01*
X146904147Y-101088425D01*
X146805818Y-100990096D01*
X146772334Y-100928773D01*
X146769500Y-100902415D01*
X146769500Y-100479080D01*
X146763479Y-100448815D01*
X146754713Y-100404745D01*
X146753401Y-100398150D01*
X146745346Y-100357653D01*
X146740659Y-100334088D01*
X146699399Y-100234478D01*
X146684084Y-100197505D01*
X146629205Y-100115373D01*
X146601952Y-100074585D01*
X146343629Y-99816262D01*
X145258421Y-98731052D01*
X145258414Y-98731046D01*
X145184729Y-98681812D01*
X145184729Y-98681813D01*
X145135491Y-98648913D01*
X144998917Y-98592343D01*
X144998907Y-98592340D01*
X144853920Y-98563500D01*
X144853918Y-98563500D01*
X135744229Y-98563500D01*
X135677190Y-98543815D01*
X135656548Y-98527181D01*
X134514221Y-97384852D01*
X134514214Y-97384846D01*
X134440529Y-97335612D01*
X134440529Y-97335613D01*
X134391291Y-97302713D01*
X134254717Y-97246143D01*
X134254707Y-97246140D01*
X134109720Y-97217300D01*
X134109718Y-97217300D01*
X129836080Y-97217300D01*
X129769041Y-97197615D01*
X129723286Y-97144811D01*
X129719898Y-97136633D01*
X129678997Y-97026971D01*
X129678993Y-97026964D01*
X129592747Y-96911755D01*
X129592744Y-96911752D01*
X129477535Y-96825506D01*
X129477528Y-96825502D01*
X129342682Y-96775208D01*
X129342683Y-96775208D01*
X129283083Y-96768801D01*
X129283081Y-96768800D01*
X129283073Y-96768800D01*
X129283065Y-96768800D01*
X128509500Y-96768800D01*
X128442461Y-96749115D01*
X128396706Y-96696311D01*
X128385500Y-96644800D01*
X128385500Y-92829719D01*
X128405185Y-92762680D01*
X128435190Y-92730452D01*
X128442946Y-92724646D01*
X128529196Y-92609431D01*
X128579491Y-92474583D01*
X128585900Y-92414973D01*
X128585899Y-90769828D01*
X128579491Y-90710217D01*
X128555078Y-90644763D01*
X128529197Y-90575371D01*
X128529193Y-90575364D01*
X128442947Y-90460155D01*
X128442944Y-90460152D01*
X128327735Y-90373906D01*
X128327728Y-90373902D01*
X128192882Y-90323608D01*
X128192883Y-90323608D01*
X128133283Y-90317201D01*
X128133281Y-90317200D01*
X128133273Y-90317200D01*
X128133265Y-90317200D01*
X127522528Y-90317200D01*
X127455489Y-90297515D01*
X127409734Y-90244711D01*
X127399790Y-90175553D01*
X127428815Y-90111997D01*
X127434847Y-90105519D01*
X127853548Y-89686819D01*
X128471951Y-89068416D01*
X128554084Y-88945495D01*
X128610658Y-88808913D01*
X128624537Y-88739139D01*
X128637249Y-88675233D01*
X128639500Y-88663919D01*
X128639500Y-87023674D01*
X128659185Y-86956635D01*
X128711989Y-86910880D01*
X128749617Y-86900454D01*
X128830249Y-86891369D01*
X128830252Y-86891368D01*
X128830255Y-86891368D01*
X129000522Y-86831789D01*
X129153262Y-86735816D01*
X129250260Y-86638818D01*
X129311583Y-86605334D01*
X129337941Y-86602500D01*
X130476927Y-86602500D01*
X130543966Y-86622185D01*
X130589721Y-86674989D01*
X130599665Y-86744147D01*
X130593968Y-86767455D01*
X130532633Y-86942737D01*
X130532630Y-86942750D01*
X130512435Y-87121996D01*
X130512435Y-87122003D01*
X130532630Y-87301249D01*
X130532631Y-87301254D01*
X130592211Y-87471523D01*
X130688184Y-87624262D01*
X130798695Y-87734773D01*
X130832180Y-87796096D01*
X130827196Y-87865788D01*
X130816008Y-87888426D01*
X130719211Y-88042476D01*
X130659631Y-88212745D01*
X130659630Y-88212750D01*
X130639435Y-88391996D01*
X130639435Y-88392003D01*
X130659630Y-88571249D01*
X130659631Y-88571254D01*
X130719211Y-88741523D01*
X130815184Y-88894262D01*
X130942738Y-89021816D01*
X131016906Y-89068419D01*
X131090531Y-89114681D01*
X131095478Y-89117789D01*
X131237538Y-89167498D01*
X131265745Y-89177368D01*
X131265750Y-89177369D01*
X131444996Y-89197565D01*
X131445000Y-89197565D01*
X131445004Y-89197565D01*
X131624249Y-89177369D01*
X131624252Y-89177368D01*
X131624255Y-89177368D01*
X131704017Y-89149457D01*
X131744972Y-89142500D01*
X131806001Y-89142500D01*
X131840595Y-89147423D01*
X131899902Y-89164654D01*
X131936065Y-89167500D01*
X133389934Y-89167499D01*
X133426098Y-89164654D01*
X133580894Y-89119681D01*
X133719643Y-89037626D01*
X133833626Y-88923643D01*
X133915681Y-88784894D01*
X133960654Y-88630098D01*
X133963500Y-88593935D01*
X133963499Y-88190066D01*
X133960654Y-88153902D01*
X133915681Y-87999106D01*
X133857071Y-87900000D01*
X133833630Y-87860363D01*
X133833628Y-87860361D01*
X133833626Y-87860357D01*
X133817952Y-87844683D01*
X133784465Y-87783361D01*
X133789448Y-87713669D01*
X133817952Y-87669317D01*
X133833626Y-87653643D01*
X133915681Y-87514894D01*
X133948793Y-87400920D01*
X133960653Y-87360102D01*
X133960654Y-87360096D01*
X133963499Y-87323942D01*
X133963500Y-87323935D01*
X133963499Y-86920066D01*
X133960654Y-86883902D01*
X133915681Y-86729106D01*
X133882653Y-86673258D01*
X133833630Y-86590363D01*
X133833628Y-86590361D01*
X133833626Y-86590357D01*
X133817952Y-86574683D01*
X133784465Y-86513361D01*
X133789448Y-86443669D01*
X133817952Y-86399317D01*
X133833626Y-86383643D01*
X133915681Y-86244894D01*
X133960654Y-86090098D01*
X133963500Y-86053935D01*
X133963499Y-85650066D01*
X133960654Y-85613902D01*
X133915681Y-85459106D01*
X133888329Y-85412856D01*
X133833630Y-85320363D01*
X133833628Y-85320361D01*
X133833626Y-85320357D01*
X133817952Y-85304683D01*
X133784465Y-85243361D01*
X133789448Y-85173669D01*
X133817952Y-85129317D01*
X133833626Y-85113643D01*
X133915681Y-84974894D01*
X133960654Y-84820098D01*
X133963500Y-84783935D01*
X133963499Y-84380066D01*
X133960654Y-84343902D01*
X133939450Y-84270918D01*
X133939649Y-84201050D01*
X133977591Y-84142380D01*
X134041229Y-84113536D01*
X134072407Y-84113104D01*
X134103816Y-84116642D01*
X134111999Y-84117565D01*
X134112000Y-84117565D01*
X134112004Y-84117565D01*
X134291249Y-84097369D01*
X134291252Y-84097368D01*
X134291255Y-84097368D01*
X134461522Y-84037789D01*
X134614262Y-83941816D01*
X134631171Y-83924905D01*
X134692491Y-83891419D01*
X134762183Y-83896400D01*
X134806536Y-83924903D01*
X135898692Y-85017059D01*
X135921358Y-85053125D01*
X135923188Y-85052244D01*
X135926209Y-85058518D01*
X135926211Y-85058522D01*
X136022184Y-85211262D01*
X136149738Y-85338816D01*
X136302478Y-85434789D01*
X136383475Y-85463131D01*
X136472745Y-85494368D01*
X136472750Y-85494369D01*
X136651996Y-85514565D01*
X136652000Y-85514565D01*
X136652004Y-85514565D01*
X136831249Y-85494369D01*
X136831252Y-85494368D01*
X136831255Y-85494368D01*
X137001522Y-85434789D01*
X137154262Y-85338816D01*
X137281816Y-85211262D01*
X137377789Y-85058522D01*
X137437368Y-84888255D01*
X137445047Y-84820102D01*
X137457565Y-84709003D01*
X137457565Y-84708996D01*
X137437369Y-84529750D01*
X137437368Y-84529745D01*
X137421593Y-84484664D01*
X137377789Y-84359478D01*
X137281816Y-84206738D01*
X137154262Y-84079184D01*
X137001522Y-83983211D01*
X137001518Y-83983209D01*
X136995244Y-83980188D01*
X136996125Y-83978358D01*
X136960059Y-83955692D01*
X134738549Y-81734181D01*
X134705064Y-81672858D01*
X134710048Y-81603166D01*
X134751920Y-81547233D01*
X134817384Y-81522816D01*
X134826230Y-81522500D01*
X142131770Y-81522500D01*
X142198809Y-81542185D01*
X142219451Y-81558819D01*
X150143586Y-89482954D01*
X150173058Y-89502645D01*
X150217270Y-89532186D01*
X150266505Y-89565084D01*
X150266506Y-89565084D01*
X150266507Y-89565085D01*
X150266509Y-89565086D01*
X150303727Y-89580502D01*
X150403087Y-89621658D01*
X150403091Y-89621658D01*
X150403092Y-89621659D01*
X150548079Y-89650500D01*
X150548082Y-89650500D01*
X150548083Y-89650500D01*
X150695918Y-89650500D01*
X152037770Y-89650500D01*
X152104809Y-89670185D01*
X152125451Y-89686819D01*
X152473823Y-90035190D01*
X152817049Y-90378416D01*
X152921584Y-90482951D01*
X152921587Y-90482953D01*
X152921588Y-90482954D01*
X153044503Y-90565083D01*
X153044506Y-90565085D01*
X153101079Y-90588518D01*
X153101080Y-90588518D01*
X153181088Y-90621659D01*
X153297241Y-90644763D01*
X153316468Y-90648587D01*
X153326081Y-90650500D01*
X153326082Y-90650500D01*
X153326083Y-90650500D01*
X153473918Y-90650500D01*
X153787337Y-90650500D01*
X153854376Y-90670185D01*
X153888912Y-90703377D01*
X153913954Y-90739141D01*
X154074856Y-90900043D01*
X154076017Y-90901017D01*
X154076389Y-90901576D01*
X154078689Y-90903876D01*
X154078227Y-90904337D01*
X154114726Y-90959184D01*
X154115842Y-91029045D01*
X154079011Y-91088419D01*
X154039656Y-91112197D01*
X153921669Y-91156203D01*
X153921664Y-91156206D01*
X153806455Y-91242452D01*
X153806452Y-91242455D01*
X153720206Y-91357664D01*
X153720202Y-91357671D01*
X153669908Y-91492517D01*
X153663501Y-91552116D01*
X153663501Y-91552123D01*
X153663500Y-91552135D01*
X153663500Y-93247870D01*
X153663501Y-93247876D01*
X153669908Y-93307483D01*
X153720202Y-93442328D01*
X153720206Y-93442335D01*
X153806452Y-93557544D01*
X153806455Y-93557547D01*
X153921664Y-93643793D01*
X153921671Y-93643797D01*
X154056517Y-93694091D01*
X154056516Y-93694091D01*
X154063444Y-93694835D01*
X154116127Y-93700500D01*
X155711872Y-93700499D01*
X155771483Y-93694091D01*
X155906331Y-93643796D01*
X156021546Y-93557546D01*
X156107796Y-93442331D01*
X156158091Y-93307483D01*
X156164500Y-93247873D01*
X156164499Y-91552128D01*
X156158091Y-91492517D01*
X156107796Y-91357669D01*
X156107795Y-91357668D01*
X156107793Y-91357664D01*
X156021547Y-91242455D01*
X156021544Y-91242452D01*
X155906335Y-91156206D01*
X155906328Y-91156202D01*
X155788344Y-91112197D01*
X155732410Y-91070326D01*
X155707993Y-91004861D01*
X155722845Y-90936588D01*
X155749493Y-90904058D01*
X155749311Y-90903876D01*
X155751142Y-90902044D01*
X155751990Y-90901010D01*
X155753127Y-90900055D01*
X155753139Y-90900047D01*
X155914047Y-90739139D01*
X156044568Y-90552734D01*
X156140739Y-90346496D01*
X156199635Y-90126692D01*
X156219468Y-89900000D01*
X156199635Y-89673308D01*
X156140739Y-89453504D01*
X156044568Y-89247266D01*
X155955233Y-89119681D01*
X155914048Y-89060862D01*
X155880186Y-89027000D01*
X155840865Y-88987679D01*
X155807382Y-88926359D01*
X155812366Y-88856667D01*
X155840865Y-88812320D01*
X155914047Y-88739139D01*
X156044568Y-88552734D01*
X156140739Y-88346496D01*
X156199635Y-88126692D01*
X156219468Y-87900000D01*
X156219409Y-87899331D01*
X156211141Y-87804823D01*
X156199635Y-87673308D01*
X156140739Y-87453504D01*
X156044568Y-87247266D01*
X155914047Y-87060861D01*
X155914045Y-87060858D01*
X155753141Y-86899954D01*
X155566734Y-86769432D01*
X155566732Y-86769431D01*
X155360497Y-86673261D01*
X155360488Y-86673258D01*
X155140697Y-86614366D01*
X155140693Y-86614365D01*
X155140692Y-86614365D01*
X155140691Y-86614364D01*
X155140686Y-86614364D01*
X154914002Y-86594532D01*
X154913998Y-86594532D01*
X154687313Y-86614364D01*
X154687302Y-86614366D01*
X154467511Y-86673258D01*
X154467502Y-86673261D01*
X154261267Y-86769431D01*
X154261265Y-86769432D01*
X154074858Y-86899954D01*
X153913954Y-87060858D01*
X153888912Y-87096623D01*
X153834335Y-87140248D01*
X153787337Y-87149500D01*
X151635229Y-87149500D01*
X151568190Y-87129815D01*
X151547548Y-87113181D01*
X143353421Y-78919052D01*
X143353414Y-78919046D01*
X143259616Y-78856373D01*
X143259615Y-78856373D01*
X143230500Y-78836919D01*
X143230488Y-78836912D01*
X143093917Y-78780343D01*
X143093907Y-78780340D01*
X142948920Y-78751500D01*
X142948918Y-78751500D01*
X133519999Y-78751500D01*
X133485404Y-78746576D01*
X133462999Y-78740067D01*
X133426099Y-78729346D01*
X133426096Y-78729345D01*
X133389935Y-78726500D01*
X131936077Y-78726500D01*
X131936052Y-78726501D01*
X131899901Y-78729346D01*
X131745110Y-78774317D01*
X131745103Y-78774320D01*
X131606363Y-78856369D01*
X131606351Y-78856378D01*
X131492378Y-78970351D01*
X131492372Y-78970359D01*
X131481232Y-78989197D01*
X131430163Y-79036880D01*
X131361422Y-79049384D01*
X131296832Y-79022739D01*
X131256902Y-78965404D01*
X131250500Y-78926076D01*
X131250500Y-76599351D01*
X131270185Y-76532312D01*
X131322989Y-76486557D01*
X131361247Y-76476061D01*
X131407483Y-76471091D01*
X131542331Y-76420796D01*
X131657546Y-76334546D01*
X131743796Y-76219331D01*
X131794091Y-76084483D01*
X131800500Y-76024873D01*
X131800499Y-74429128D01*
X131794091Y-74369517D01*
X131787926Y-74352989D01*
X131743797Y-74234671D01*
X131743793Y-74234664D01*
X131657547Y-74119455D01*
X131657544Y-74119452D01*
X131542335Y-74033206D01*
X131542328Y-74033202D01*
X131407482Y-73982908D01*
X131407483Y-73982908D01*
X131347883Y-73976501D01*
X131347881Y-73976500D01*
X131347873Y-73976500D01*
X131347864Y-73976500D01*
X129652129Y-73976500D01*
X129652123Y-73976501D01*
X129592516Y-73982908D01*
X129457671Y-74033202D01*
X129457664Y-74033206D01*
X129342455Y-74119452D01*
X129342452Y-74119455D01*
X129256206Y-74234664D01*
X129256203Y-74234669D01*
X129212197Y-74352656D01*
X129170325Y-74408589D01*
X129104861Y-74433006D01*
X129036588Y-74418154D01*
X129004057Y-74391507D01*
X129003876Y-74391689D01*
X129002050Y-74389863D01*
X129001017Y-74389017D01*
X129000043Y-74387856D01*
X128839141Y-74226954D01*
X128652734Y-74096432D01*
X128652732Y-74096431D01*
X128446497Y-74000261D01*
X128446488Y-74000258D01*
X128226697Y-73941366D01*
X128226693Y-73941365D01*
X128226692Y-73941365D01*
X128226691Y-73941364D01*
X128226686Y-73941364D01*
X128000002Y-73921532D01*
X127999998Y-73921532D01*
X127773313Y-73941364D01*
X127773302Y-73941366D01*
X127553511Y-74000258D01*
X127553502Y-74000261D01*
X127347267Y-74096431D01*
X127347265Y-74096432D01*
X127160858Y-74226954D01*
X127087681Y-74300132D01*
X127026358Y-74333617D01*
X126956666Y-74328633D01*
X126912319Y-74300132D01*
X126839141Y-74226954D01*
X126652734Y-74096432D01*
X126652732Y-74096431D01*
X126446497Y-74000261D01*
X126446488Y-74000258D01*
X126226697Y-73941366D01*
X126226693Y-73941365D01*
X126226692Y-73941365D01*
X126226691Y-73941364D01*
X126226686Y-73941364D01*
X126000002Y-73921532D01*
X125999998Y-73921532D01*
X125773313Y-73941364D01*
X125773302Y-73941366D01*
X125553511Y-74000258D01*
X125553502Y-74000261D01*
X125347267Y-74096431D01*
X125347265Y-74096432D01*
X125160858Y-74226954D01*
X124999954Y-74387858D01*
X124869432Y-74574265D01*
X124869431Y-74574267D01*
X124773261Y-74780502D01*
X124773258Y-74780511D01*
X124714366Y-75000302D01*
X124714364Y-75000313D01*
X124694532Y-75226998D01*
X124694532Y-75227001D01*
X124714364Y-75453686D01*
X124714366Y-75453697D01*
X124773258Y-75673488D01*
X124773261Y-75673496D01*
X124869432Y-75879734D01*
X124892695Y-75912958D01*
X124911256Y-75939465D01*
X124933583Y-76005671D01*
X124916573Y-76073439D01*
X124897362Y-76098269D01*
X124122563Y-76873067D01*
X124061240Y-76906552D01*
X123991548Y-76901568D01*
X123935615Y-76859696D01*
X123929896Y-76851370D01*
X123883316Y-76777238D01*
X123755762Y-76649684D01*
X123603023Y-76553711D01*
X123432754Y-76494131D01*
X123432749Y-76494130D01*
X123253504Y-76473935D01*
X123253496Y-76473935D01*
X123074250Y-76494130D01*
X123074245Y-76494131D01*
X122903976Y-76553711D01*
X122751237Y-76649684D01*
X122623684Y-76777237D01*
X122527712Y-76929975D01*
X122524691Y-76936250D01*
X122522870Y-76935373D01*
X122500194Y-76971437D01*
X122252047Y-77219585D01*
X122212013Y-77279499D01*
X122212014Y-77279500D01*
X122169914Y-77342508D01*
X122113343Y-77479082D01*
X122113340Y-77479092D01*
X122084500Y-77624079D01*
X122084500Y-78159948D01*
X122064815Y-78226987D01*
X122048181Y-78247629D01*
X122000161Y-78295648D01*
X121909593Y-78442481D01*
X121909591Y-78442486D01*
X121882219Y-78525088D01*
X121855326Y-78606247D01*
X121855326Y-78606248D01*
X121855325Y-78606248D01*
X121845000Y-78707315D01*
X121845000Y-79280669D01*
X121845001Y-79280687D01*
X121855325Y-79381752D01*
X121868909Y-79422745D01*
X121909592Y-79545516D01*
X122000160Y-79692350D01*
X122122150Y-79814340D01*
X122268984Y-79904908D01*
X122432747Y-79959174D01*
X122432748Y-79959174D01*
X122439173Y-79961303D01*
X122438547Y-79963190D01*
X122491515Y-79991883D01*
X122491807Y-79992175D01*
X124877892Y-82378259D01*
X124907169Y-82427757D01*
X124907221Y-82427735D01*
X124907399Y-82428146D01*
X124909285Y-82431335D01*
X124910320Y-82434896D01*
X124992369Y-82573636D01*
X124992378Y-82573648D01*
X125106351Y-82687621D01*
X125106355Y-82687624D01*
X125106357Y-82687626D01*
X125106360Y-82687627D01*
X125106363Y-82687630D01*
X125161664Y-82720334D01*
X125245106Y-82769681D01*
X125281832Y-82780351D01*
X125399897Y-82814653D01*
X125399900Y-82814653D01*
X125399902Y-82814654D01*
X125436065Y-82817500D01*
X126889934Y-82817499D01*
X126926098Y-82814654D01*
X127080894Y-82769681D01*
X127219643Y-82687626D01*
X127333626Y-82573643D01*
X127415681Y-82434894D01*
X127460654Y-82280098D01*
X127463500Y-82243935D01*
X127463499Y-81840066D01*
X127460654Y-81803902D01*
X127415681Y-81649106D01*
X127352449Y-81542185D01*
X127333630Y-81510363D01*
X127333628Y-81510361D01*
X127333626Y-81510357D01*
X127317952Y-81494683D01*
X127284465Y-81433361D01*
X127289448Y-81363669D01*
X127317952Y-81319317D01*
X127333626Y-81303643D01*
X127415681Y-81164894D01*
X127460654Y-81010098D01*
X127463500Y-80973935D01*
X127463499Y-80570066D01*
X127460654Y-80533902D01*
X127415681Y-80379106D01*
X127333626Y-80240357D01*
X127317952Y-80224683D01*
X127284465Y-80163361D01*
X127289448Y-80093669D01*
X127317952Y-80049317D01*
X127333626Y-80033643D01*
X127415681Y-79894894D01*
X127460654Y-79740098D01*
X127463500Y-79703935D01*
X127463499Y-79300066D01*
X127460654Y-79263902D01*
X127415681Y-79109106D01*
X127333626Y-78970357D01*
X127333624Y-78970355D01*
X127333621Y-78970351D01*
X127219648Y-78856378D01*
X127219636Y-78856369D01*
X127080896Y-78774320D01*
X127080889Y-78774317D01*
X126926102Y-78729346D01*
X126926096Y-78729345D01*
X126889942Y-78726500D01*
X126889935Y-78726500D01*
X126096500Y-78726500D01*
X126029461Y-78706815D01*
X125983706Y-78654011D01*
X125972500Y-78602500D01*
X125972500Y-78594228D01*
X125992185Y-78527189D01*
X126008814Y-78506552D01*
X127949346Y-76566019D01*
X128010667Y-76532536D01*
X128026214Y-76530174D01*
X128226692Y-76512635D01*
X128446496Y-76453739D01*
X128652734Y-76357568D01*
X128839139Y-76227047D01*
X129000047Y-76066139D01*
X129000055Y-76066127D01*
X129001010Y-76064990D01*
X129001569Y-76064617D01*
X129003876Y-76062311D01*
X129004339Y-76062774D01*
X129059173Y-76026277D01*
X129129034Y-76025154D01*
X129188411Y-76061979D01*
X129212197Y-76101344D01*
X129256202Y-76219328D01*
X129256206Y-76219335D01*
X129342452Y-76334544D01*
X129342455Y-76334547D01*
X129457664Y-76420793D01*
X129457671Y-76420797D01*
X129592516Y-76471091D01*
X129638757Y-76476063D01*
X129703307Y-76502801D01*
X129743155Y-76560194D01*
X129749500Y-76599352D01*
X129749500Y-80592769D01*
X129729815Y-80659808D01*
X129713181Y-80680450D01*
X127580937Y-82812693D01*
X127544873Y-82835370D01*
X127545750Y-82837191D01*
X127539475Y-82840212D01*
X127386737Y-82936184D01*
X127259184Y-83063737D01*
X127163211Y-83216476D01*
X127103631Y-83386745D01*
X127103630Y-83386750D01*
X127083435Y-83565996D01*
X127083435Y-83566004D01*
X127096276Y-83679978D01*
X127084221Y-83748800D01*
X127036872Y-83800179D01*
X126969261Y-83817803D01*
X126938463Y-83812938D01*
X126926099Y-83809346D01*
X126926096Y-83809345D01*
X126889942Y-83806500D01*
X126889935Y-83806500D01*
X125686230Y-83806500D01*
X125619191Y-83786815D01*
X125598549Y-83770181D01*
X123996844Y-82168476D01*
X123978676Y-82142527D01*
X123977699Y-82143131D01*
X123973908Y-82136985D01*
X123973908Y-82136984D01*
X123883340Y-81990150D01*
X123761350Y-81868160D01*
X123614516Y-81777592D01*
X123450753Y-81723326D01*
X123450751Y-81723325D01*
X123349678Y-81713000D01*
X122776330Y-81713000D01*
X122776312Y-81713001D01*
X122675247Y-81723325D01*
X122511484Y-81777592D01*
X122511481Y-81777593D01*
X122364648Y-81868161D01*
X122242661Y-81990148D01*
X122152539Y-82136260D01*
X122100591Y-82182984D01*
X122031628Y-82194207D01*
X121967546Y-82166363D01*
X121941461Y-82136260D01*
X121851340Y-81990150D01*
X121729350Y-81868160D01*
X121582516Y-81777592D01*
X121418753Y-81723326D01*
X121418751Y-81723325D01*
X121317678Y-81713000D01*
X120744330Y-81713000D01*
X120744312Y-81713001D01*
X120643247Y-81723325D01*
X120479484Y-81777592D01*
X120479481Y-81777593D01*
X120332648Y-81868161D01*
X120210661Y-81990148D01*
X120120093Y-82136981D01*
X120120091Y-82136986D01*
X120104849Y-82182984D01*
X120065826Y-82300747D01*
X120065826Y-82300748D01*
X120065825Y-82300748D01*
X120055500Y-82401815D01*
X120055500Y-83100169D01*
X120055501Y-83100187D01*
X120065825Y-83201252D01*
X120120092Y-83365015D01*
X120120093Y-83365018D01*
X120133498Y-83386750D01*
X120210660Y-83511850D01*
X120332650Y-83633840D01*
X120479484Y-83724408D01*
X120643247Y-83778674D01*
X120683528Y-83782789D01*
X120748220Y-83809185D01*
X120788371Y-83866365D01*
X120791235Y-83936176D01*
X120755901Y-83996453D01*
X120714259Y-84022329D01*
X120604671Y-84063202D01*
X120604664Y-84063206D01*
X120489455Y-84149452D01*
X120489452Y-84149455D01*
X120403206Y-84264664D01*
X120403202Y-84264671D01*
X120352908Y-84399517D01*
X120346501Y-84459116D01*
X120346500Y-84459135D01*
X120346500Y-87704870D01*
X120346501Y-87704876D01*
X120352908Y-87764483D01*
X120403202Y-87899328D01*
X120403206Y-87899335D01*
X120489452Y-88014544D01*
X120489455Y-88014547D01*
X120604664Y-88100793D01*
X120604671Y-88100797D01*
X120739517Y-88151091D01*
X120739516Y-88151091D01*
X120746444Y-88151835D01*
X120799127Y-88157500D01*
X123218770Y-88157499D01*
X123285809Y-88177184D01*
X123331564Y-88229987D01*
X123341508Y-88299146D01*
X123312483Y-88362702D01*
X123306451Y-88369180D01*
X122855450Y-88820181D01*
X122794127Y-88853666D01*
X122767769Y-88856500D01*
X120799129Y-88856500D01*
X120799123Y-88856501D01*
X120739516Y-88862908D01*
X120604671Y-88913202D01*
X120604664Y-88913206D01*
X120489455Y-88999452D01*
X120489452Y-88999455D01*
X120403206Y-89114664D01*
X120403202Y-89114671D01*
X120352908Y-89249517D01*
X120346501Y-89309116D01*
X120346500Y-89309135D01*
X120346500Y-92554870D01*
X120346501Y-92554876D01*
X120352908Y-92614483D01*
X120403202Y-92749328D01*
X120403206Y-92749335D01*
X120489452Y-92864544D01*
X120489455Y-92864547D01*
X120604664Y-92950793D01*
X120604671Y-92950797D01*
X120739517Y-93001091D01*
X120739516Y-93001091D01*
X120746444Y-93001835D01*
X120799127Y-93007500D01*
X121868748Y-93007499D01*
X121935787Y-93027183D01*
X121981542Y-93079987D01*
X121991486Y-93149146D01*
X121974287Y-93196595D01*
X121909595Y-93301477D01*
X121909592Y-93301484D01*
X121855326Y-93465247D01*
X121855326Y-93465248D01*
X121855325Y-93465248D01*
X121845000Y-93566315D01*
X121845000Y-94139669D01*
X121845001Y-94139687D01*
X121855325Y-94240752D01*
X121891609Y-94350249D01*
X121909592Y-94404516D01*
X122000160Y-94551350D01*
X122122150Y-94673340D01*
X122268984Y-94763908D01*
X122432747Y-94818174D01*
X122533823Y-94828500D01*
X123232176Y-94828499D01*
X123232184Y-94828498D01*
X123232187Y-94828498D01*
X123287530Y-94822844D01*
X123333253Y-94818174D01*
X123497016Y-94763908D01*
X123643850Y-94673340D01*
X123677371Y-94639819D01*
X123738694Y-94606334D01*
X123765052Y-94603500D01*
X124025920Y-94603500D01*
X124123462Y-94584096D01*
X124170913Y-94574658D01*
X124307495Y-94518084D01*
X124356729Y-94485186D01*
X124430416Y-94435952D01*
X125917951Y-92948416D01*
X125982632Y-92851612D01*
X126020921Y-92816600D01*
X126020631Y-92816212D01*
X126024578Y-92813256D01*
X126026315Y-92811669D01*
X126027726Y-92810897D01*
X126027731Y-92810896D01*
X126142946Y-92724646D01*
X126229196Y-92609431D01*
X126279491Y-92474583D01*
X126285900Y-92414973D01*
X126285899Y-91305828D01*
X126305584Y-91238790D01*
X126322213Y-91218153D01*
X126472421Y-91067945D01*
X126533742Y-91034462D01*
X126603434Y-91039446D01*
X126659367Y-91081318D01*
X126683784Y-91146782D01*
X126684100Y-91155628D01*
X126684100Y-92414970D01*
X126684101Y-92414976D01*
X126690508Y-92474583D01*
X126740802Y-92609428D01*
X126740806Y-92609435D01*
X126827052Y-92724644D01*
X126827053Y-92724645D01*
X126827054Y-92724646D01*
X126834810Y-92730452D01*
X126876682Y-92786385D01*
X126884500Y-92829719D01*
X126884500Y-96644800D01*
X126864815Y-96711839D01*
X126812011Y-96757594D01*
X126760500Y-96768800D01*
X125986929Y-96768800D01*
X125986923Y-96768801D01*
X125927316Y-96775208D01*
X125792471Y-96825502D01*
X125792464Y-96825506D01*
X125677255Y-96911752D01*
X125592138Y-97025453D01*
X125536204Y-97067323D01*
X125466512Y-97072307D01*
X125405191Y-97038822D01*
X124557421Y-96191052D01*
X124557414Y-96191046D01*
X124483729Y-96141812D01*
X124483729Y-96141813D01*
X124434491Y-96108913D01*
X124297917Y-96052343D01*
X124297907Y-96052340D01*
X124152920Y-96023500D01*
X124152918Y-96023500D01*
X123932552Y-96023500D01*
X123865513Y-96003815D01*
X123844871Y-95987181D01*
X123811351Y-95953661D01*
X123811350Y-95953660D01*
X123664516Y-95863092D01*
X123500753Y-95808826D01*
X123500751Y-95808825D01*
X123399684Y-95798500D01*
X123399677Y-95798500D01*
X123086230Y-95798500D01*
X123019191Y-95778815D01*
X122998549Y-95762181D01*
X122411421Y-95175052D01*
X122411414Y-95175046D01*
X122337729Y-95125812D01*
X122337729Y-95125813D01*
X122288491Y-95092913D01*
X122151917Y-95036343D01*
X122151907Y-95036340D01*
X122006920Y-95007500D01*
X122006918Y-95007500D01*
X119179082Y-95007500D01*
X119179080Y-95007500D01*
X119034092Y-95036340D01*
X119034086Y-95036342D01*
X118897508Y-95092914D01*
X118897496Y-95092921D01*
X118848269Y-95125813D01*
X118774588Y-95175044D01*
X118774580Y-95175050D01*
X113979109Y-99970521D01*
X113917786Y-100004006D01*
X113848094Y-99999022D01*
X113825791Y-99982325D01*
X113839154Y-99998069D01*
X113848392Y-100067325D01*
X113818720Y-100130582D01*
X113813521Y-100136109D01*
X113398049Y-100551581D01*
X113355355Y-100615477D01*
X113355356Y-100615478D01*
X113315914Y-100674508D01*
X113259343Y-100811082D01*
X113259340Y-100811092D01*
X113238410Y-100916312D01*
X113206024Y-100978223D01*
X113204475Y-100979800D01*
X113095854Y-101088422D01*
X113095849Y-101088428D01*
X113085991Y-101104117D01*
X113033655Y-101150406D01*
X112964601Y-101161052D01*
X112900753Y-101132674D01*
X112876007Y-101104114D01*
X112866148Y-101088423D01*
X112767819Y-100990094D01*
X112734335Y-100928771D01*
X112731501Y-100902413D01*
X112731501Y-100852228D01*
X112751186Y-100785189D01*
X112767816Y-100764551D01*
X113465061Y-100067305D01*
X113501134Y-100044655D01*
X113500246Y-100042811D01*
X113506518Y-100039790D01*
X113506522Y-100039789D01*
X113659262Y-99943816D01*
X113659265Y-99943812D01*
X113659868Y-99943434D01*
X113727104Y-99924434D01*
X113786736Y-99942605D01*
X113767744Y-99891686D01*
X113782596Y-99823413D01*
X113786435Y-99816867D01*
X113786813Y-99816264D01*
X113786816Y-99816262D01*
X113882789Y-99663522D01*
X113942368Y-99493255D01*
X113952594Y-99402499D01*
X113962565Y-99314003D01*
X113962565Y-99313996D01*
X113942369Y-99134750D01*
X113942368Y-99134745D01*
X113882788Y-98964476D01*
X113821271Y-98866573D01*
X113786816Y-98811738D01*
X113682278Y-98707200D01*
X113648793Y-98645877D01*
X113652917Y-98578565D01*
X113688368Y-98477255D01*
X113688369Y-98477249D01*
X113708565Y-98298003D01*
X113708565Y-98297996D01*
X113688369Y-98118750D01*
X113688368Y-98118745D01*
X113643296Y-97989937D01*
X113628789Y-97948478D01*
X113532816Y-97795738D01*
X113405262Y-97668184D01*
X113381912Y-97653512D01*
X113252523Y-97572211D01*
X113082254Y-97512631D01*
X113082249Y-97512630D01*
X112903004Y-97492435D01*
X112902996Y-97492435D01*
X112723750Y-97512630D01*
X112723745Y-97512631D01*
X112553476Y-97572211D01*
X112400737Y-97668184D01*
X112273184Y-97795737D01*
X112177211Y-97948478D01*
X112174188Y-97954756D01*
X112172362Y-97953876D01*
X112149693Y-97989937D01*
X109398048Y-100741583D01*
X109383618Y-100763181D01*
X109354459Y-100806821D01*
X109354458Y-100806822D01*
X109315917Y-100864502D01*
X109315914Y-100864506D01*
X109308798Y-100881687D01*
X109264955Y-100936089D01*
X109260213Y-100939222D01*
X109219428Y-100964849D01*
X109219421Y-100964855D01*
X109095853Y-101088423D01*
X109002877Y-101236395D01*
X108945159Y-101401341D01*
X108945157Y-101401351D01*
X108930500Y-101531441D01*
X108930500Y-103268558D01*
X108943238Y-103381617D01*
X108931183Y-103450439D01*
X108883834Y-103501818D01*
X108820018Y-103519500D01*
X107141983Y-103519500D01*
X107074944Y-103499815D01*
X107029189Y-103447011D01*
X107018763Y-103381617D01*
X107031500Y-103268558D01*
X107031501Y-103268554D01*
X107031501Y-101531445D01*
X107031500Y-101531441D01*
X107016843Y-101401351D01*
X107016842Y-101401350D01*
X107016842Y-101401343D01*
X107016839Y-101401336D01*
X107015293Y-101394559D01*
X107017901Y-101393963D01*
X107014943Y-101336386D01*
X107047872Y-101277494D01*
X107242059Y-101083306D01*
X107278132Y-101060657D01*
X107277244Y-101058813D01*
X107283515Y-101055792D01*
X107283516Y-101055790D01*
X107283522Y-101055789D01*
X107436262Y-100959816D01*
X107563816Y-100832262D01*
X107659789Y-100679522D01*
X107719368Y-100509255D01*
X107719369Y-100509249D01*
X107739565Y-100330003D01*
X107739565Y-100329996D01*
X107719369Y-100150750D01*
X107719368Y-100150745D01*
X107695201Y-100081681D01*
X107659789Y-99980478D01*
X107563816Y-99827738D01*
X107436262Y-99700184D01*
X107283523Y-99604211D01*
X107113254Y-99544631D01*
X107113249Y-99544630D01*
X106934004Y-99524435D01*
X106933996Y-99524435D01*
X106754750Y-99544630D01*
X106754745Y-99544631D01*
X106584476Y-99604211D01*
X106431737Y-99700184D01*
X106304184Y-99827737D01*
X106243426Y-99924434D01*
X106209090Y-99979080D01*
X106208208Y-99980483D01*
X106205186Y-99986758D01*
X106203361Y-99985878D01*
X106180692Y-100021939D01*
X105398046Y-100804585D01*
X105358682Y-100863502D01*
X105358675Y-100863512D01*
X105357436Y-100865366D01*
X105320311Y-100901462D01*
X105219424Y-100964853D01*
X105095854Y-101088423D01*
X105002878Y-101236395D01*
X104945160Y-101401341D01*
X104945158Y-101401351D01*
X104930501Y-101531441D01*
X104930501Y-103268558D01*
X104943239Y-103381617D01*
X104931184Y-103450439D01*
X104883835Y-103501818D01*
X104820019Y-103519500D01*
X99708970Y-103519500D01*
X99641931Y-103499815D01*
X99621289Y-103483181D01*
X98819968Y-102681860D01*
X98786483Y-102620537D01*
X98791467Y-102550845D01*
X98833339Y-102494912D01*
X98860192Y-102479620D01*
X98997507Y-102422743D01*
X99252994Y-102275238D01*
X99487042Y-102095646D01*
X99695646Y-101887042D01*
X99875238Y-101652994D01*
X100022743Y-101397507D01*
X100135639Y-101124952D01*
X100211993Y-100839993D01*
X100250500Y-100547506D01*
X100250500Y-100252494D01*
X100211993Y-99960007D01*
X100135639Y-99675048D01*
X100022743Y-99402493D01*
X99974653Y-99319199D01*
X99875238Y-99147006D01*
X99695647Y-98912959D01*
X99695641Y-98912952D01*
X99487047Y-98704358D01*
X99487040Y-98704352D01*
X99252993Y-98524761D01*
X98997510Y-98377258D01*
X98997500Y-98377254D01*
X98724961Y-98264364D01*
X98724954Y-98264362D01*
X98724952Y-98264361D01*
X98439993Y-98188007D01*
X98391113Y-98181571D01*
X98147513Y-98149500D01*
X98147506Y-98149500D01*
X97852494Y-98149500D01*
X97852486Y-98149500D01*
X97574085Y-98186153D01*
X97560007Y-98188007D01*
X97425376Y-98224081D01*
X97275048Y-98264361D01*
X97275038Y-98264364D01*
X97002499Y-98377254D01*
X97002489Y-98377258D01*
X96747006Y-98524761D01*
X96512959Y-98704352D01*
X96512952Y-98704358D01*
X96304358Y-98912952D01*
X96304352Y-98912959D01*
X96124761Y-99147006D01*
X95977258Y-99402489D01*
X95977254Y-99402499D01*
X95920381Y-99539803D01*
X95876540Y-99594206D01*
X95810246Y-99616271D01*
X95742546Y-99598992D01*
X95718139Y-99580031D01*
X94916819Y-98778711D01*
X94883334Y-98717388D01*
X94880500Y-98691030D01*
X94880500Y-88026998D01*
X97907532Y-88026998D01*
X97907532Y-88027001D01*
X97927364Y-88253686D01*
X97927366Y-88253697D01*
X97986258Y-88473488D01*
X97986261Y-88473497D01*
X98082431Y-88679732D01*
X98082432Y-88679734D01*
X98212954Y-88866141D01*
X98286132Y-88939319D01*
X98319617Y-89000642D01*
X98314633Y-89070334D01*
X98286132Y-89114681D01*
X98212954Y-89187858D01*
X98082432Y-89374265D01*
X98082431Y-89374267D01*
X97986261Y-89580502D01*
X97986258Y-89580511D01*
X97927366Y-89800302D01*
X97927364Y-89800313D01*
X97907532Y-90026998D01*
X97907532Y-90027001D01*
X97927364Y-90253686D01*
X97927366Y-90253697D01*
X97986258Y-90473488D01*
X97986261Y-90473497D01*
X98082431Y-90679732D01*
X98082432Y-90679734D01*
X98212954Y-90866141D01*
X98373858Y-91027045D01*
X98384451Y-91034462D01*
X98560266Y-91157568D01*
X98766504Y-91253739D01*
X98766509Y-91253740D01*
X98766511Y-91253741D01*
X98819415Y-91267916D01*
X98986308Y-91312635D01*
X99148230Y-91326801D01*
X99212998Y-91332468D01*
X99213000Y-91332468D01*
X99213002Y-91332468D01*
X99269673Y-91327509D01*
X99439692Y-91312635D01*
X99659496Y-91253739D01*
X99865734Y-91157568D01*
X100052139Y-91027047D01*
X100213047Y-90866139D01*
X100343568Y-90679734D01*
X100439739Y-90473496D01*
X100498635Y-90253692D01*
X100516380Y-90050868D01*
X100518468Y-90027001D01*
X100518468Y-90026998D01*
X100498635Y-89800313D01*
X100498635Y-89800308D01*
X100439739Y-89580504D01*
X100343568Y-89374266D01*
X100254643Y-89247267D01*
X100213048Y-89187862D01*
X100189839Y-89164653D01*
X100139865Y-89114679D01*
X100106382Y-89053359D01*
X100111366Y-88983667D01*
X100139865Y-88939320D01*
X100213047Y-88866139D01*
X100343568Y-88679734D01*
X100439739Y-88473496D01*
X100498635Y-88253692D01*
X100518468Y-88027000D01*
X100517378Y-88014546D01*
X100503889Y-87860363D01*
X100498635Y-87800308D01*
X100439739Y-87580504D01*
X100343568Y-87374266D01*
X100213047Y-87187861D01*
X100213045Y-87187858D01*
X100052147Y-87026960D01*
X100050980Y-87025981D01*
X100050606Y-87025419D01*
X100048311Y-87023124D01*
X100048772Y-87022662D01*
X100012272Y-86967813D01*
X100011158Y-86897952D01*
X100047989Y-86838579D01*
X100087345Y-86814802D01*
X100205326Y-86770798D01*
X100205326Y-86770797D01*
X100205331Y-86770796D01*
X100320546Y-86684546D01*
X100406796Y-86569331D01*
X100457091Y-86434483D01*
X100463500Y-86374873D01*
X100463499Y-84679128D01*
X100457091Y-84619517D01*
X100445238Y-84587738D01*
X100406797Y-84484671D01*
X100406793Y-84484664D01*
X100320547Y-84369455D01*
X100320544Y-84369452D01*
X100205335Y-84283206D01*
X100205328Y-84283202D01*
X100070482Y-84232908D01*
X100070483Y-84232908D01*
X100010883Y-84226501D01*
X100010881Y-84226500D01*
X100010873Y-84226500D01*
X100010864Y-84226500D01*
X98415129Y-84226500D01*
X98415123Y-84226501D01*
X98355516Y-84232908D01*
X98220671Y-84283202D01*
X98220664Y-84283206D01*
X98105455Y-84369452D01*
X98105452Y-84369455D01*
X98019206Y-84484664D01*
X98019202Y-84484671D01*
X97968908Y-84619517D01*
X97962501Y-84679116D01*
X97962501Y-84679123D01*
X97962500Y-84679135D01*
X97962500Y-86374870D01*
X97962501Y-86374876D01*
X97968908Y-86434483D01*
X98019202Y-86569328D01*
X98019206Y-86569335D01*
X98105452Y-86684544D01*
X98105455Y-86684547D01*
X98220664Y-86770793D01*
X98220671Y-86770797D01*
X98338655Y-86814802D01*
X98394589Y-86856673D01*
X98419006Y-86922137D01*
X98404155Y-86990410D01*
X98377508Y-87022943D01*
X98377689Y-87023124D01*
X98375878Y-87024934D01*
X98375028Y-87025973D01*
X98373859Y-87026953D01*
X98212954Y-87187858D01*
X98082432Y-87374265D01*
X98082431Y-87374267D01*
X97986261Y-87580502D01*
X97986258Y-87580511D01*
X97927366Y-87800302D01*
X97927364Y-87800313D01*
X97907532Y-88026998D01*
X94880500Y-88026998D01*
X94880500Y-79108969D01*
X94900185Y-79041930D01*
X94916815Y-79021292D01*
X95718140Y-78219966D01*
X95779461Y-78186483D01*
X95849152Y-78191467D01*
X95905086Y-78233339D01*
X95920380Y-78260196D01*
X95977253Y-78397500D01*
X95977258Y-78397510D01*
X96124761Y-78652993D01*
X96304352Y-78887040D01*
X96304358Y-78887047D01*
X96512952Y-79095641D01*
X96512959Y-79095647D01*
X96747006Y-79275238D01*
X97002489Y-79422741D01*
X97002490Y-79422741D01*
X97002493Y-79422743D01*
X97275048Y-79535639D01*
X97560007Y-79611993D01*
X97852494Y-79650500D01*
X97852501Y-79650500D01*
X98147499Y-79650500D01*
X98147506Y-79650500D01*
X98439993Y-79611993D01*
X98724952Y-79535639D01*
X98997507Y-79422743D01*
X99252994Y-79275238D01*
X99487042Y-79095646D01*
X99695646Y-78887042D01*
X99875238Y-78652994D01*
X100022743Y-78397507D01*
X100135639Y-78124952D01*
X100211993Y-77839993D01*
X100250500Y-77547506D01*
X100250500Y-77252494D01*
X100211993Y-76960007D01*
X100135639Y-76675048D01*
X100022743Y-76402493D01*
X100020529Y-76398659D01*
X99875238Y-76147006D01*
X99695647Y-75912959D01*
X99695641Y-75912952D01*
X99487047Y-75704358D01*
X99487040Y-75704352D01*
X99252993Y-75524761D01*
X98997510Y-75377258D01*
X98997500Y-75377253D01*
X98860196Y-75320380D01*
X98805793Y-75276539D01*
X98783728Y-75210244D01*
X98801007Y-75142545D01*
X98819964Y-75118142D01*
X99621122Y-74316984D01*
X99682443Y-74283501D01*
X99708896Y-74280667D01*
X105669558Y-74285480D01*
X105736580Y-74305219D01*
X105782292Y-74358060D01*
X105792676Y-74423363D01*
X105780499Y-74531441D01*
X105780499Y-76268558D01*
X105795156Y-76398648D01*
X105795158Y-76398658D01*
X105851683Y-76560194D01*
X105852877Y-76563606D01*
X105945852Y-76711576D01*
X106069423Y-76835147D01*
X106217393Y-76928122D01*
X106382342Y-76985841D01*
X106382348Y-76985841D01*
X106382350Y-76985842D01*
X106423749Y-76990506D01*
X106512441Y-77000499D01*
X106512444Y-77000500D01*
X106512447Y-77000500D01*
X107149554Y-77000500D01*
X107149555Y-77000499D01*
X107279656Y-76985841D01*
X107444605Y-76928122D01*
X107592575Y-76835147D01*
X107716146Y-76711576D01*
X107809121Y-76563606D01*
X107866840Y-76398657D01*
X107881499Y-76268552D01*
X107881499Y-74531448D01*
X107878833Y-74507790D01*
X107869533Y-74425238D01*
X107881588Y-74356416D01*
X107928937Y-74305037D01*
X107992849Y-74287355D01*
X113968803Y-74292181D01*
X114035827Y-74311920D01*
X114081539Y-74364761D01*
X114091923Y-74430064D01*
X114080501Y-74531442D01*
X114080501Y-76268559D01*
X114095158Y-76398649D01*
X114095160Y-76398659D01*
X114152878Y-76563604D01*
X114152879Y-76563607D01*
X114245854Y-76711577D01*
X114369425Y-76835148D01*
X114517395Y-76928123D01*
X114682344Y-76985842D01*
X114682350Y-76985842D01*
X114682352Y-76985843D01*
X114723751Y-76990507D01*
X114812443Y-77000500D01*
X114812446Y-77000501D01*
X114812449Y-77000501D01*
X115449556Y-77000501D01*
X115449557Y-77000500D01*
X115579658Y-76985842D01*
X115744607Y-76928123D01*
X115892577Y-76835148D01*
X116016148Y-76711577D01*
X116109123Y-76563607D01*
X116166842Y-76398658D01*
X116181501Y-76268553D01*
X116181501Y-74531449D01*
X116170289Y-74431939D01*
X116182343Y-74363119D01*
X116229692Y-74311740D01*
X116293606Y-74294057D01*
X116805491Y-74294471D01*
X116822223Y-74295619D01*
X116837976Y-74297778D01*
X116856001Y-74295501D01*
X116871627Y-74294525D01*
X116889699Y-74294539D01*
X116889785Y-74294540D01*
X116889785Y-74294539D01*
X116889787Y-74294540D01*
X116905144Y-74290437D01*
X116921603Y-74287215D01*
X116937375Y-74285224D01*
X116954188Y-74278362D01*
X116969039Y-74273371D01*
X116986581Y-74268687D01*
X117000358Y-74260747D01*
X117015420Y-74253377D01*
X117030137Y-74247372D01*
X117044608Y-74236387D01*
X117057643Y-74227735D01*
X117073386Y-74218665D01*
X117084633Y-74207434D01*
X117097278Y-74196412D01*
X117109941Y-74186803D01*
X117121071Y-74172453D01*
X117131429Y-74160714D01*
X117144288Y-74147878D01*
X117152250Y-74134110D01*
X117161609Y-74120196D01*
X117162187Y-74119452D01*
X117807951Y-73286997D01*
X119649166Y-70913496D01*
X119705810Y-70872591D01*
X119747142Y-70865500D01*
X134253479Y-70865500D01*
X134320518Y-70885185D01*
G37*
G04 #@! TD.AperFunction*
G04 #@! TA.AperFunction,Conductor*
G36*
X120230539Y-96528185D02*
G01*
X120276294Y-96580989D01*
X120287500Y-96632500D01*
X120287500Y-97060669D01*
X120287501Y-97060687D01*
X120297825Y-97161752D01*
X120325789Y-97246140D01*
X120352092Y-97325516D01*
X120442660Y-97472350D01*
X120564650Y-97594340D01*
X120589597Y-97609727D01*
X120636321Y-97661675D01*
X120648500Y-97715266D01*
X120648500Y-97914918D01*
X120648500Y-97914920D01*
X120648499Y-97914920D01*
X120677340Y-98059907D01*
X120677343Y-98059917D01*
X120733913Y-98196490D01*
X120733914Y-98196491D01*
X120733916Y-98196495D01*
X120752349Y-98224081D01*
X120752350Y-98224083D01*
X120816051Y-98319420D01*
X120816052Y-98319421D01*
X123982015Y-101485382D01*
X124012040Y-101534059D01*
X124057092Y-101670016D01*
X124147660Y-101816850D01*
X124269650Y-101938840D01*
X124416484Y-102029408D01*
X124580247Y-102083674D01*
X124681323Y-102094000D01*
X125254676Y-102093999D01*
X125254684Y-102093998D01*
X125254687Y-102093998D01*
X125310030Y-102088344D01*
X125355753Y-102083674D01*
X125519516Y-102029408D01*
X125666350Y-101938840D01*
X125788340Y-101816850D01*
X125853834Y-101710666D01*
X125905781Y-101663943D01*
X125974743Y-101652720D01*
X126038825Y-101680563D01*
X126077077Y-101736757D01*
X126089092Y-101773016D01*
X126179660Y-101919850D01*
X126301650Y-102041840D01*
X126448484Y-102132408D01*
X126612247Y-102186674D01*
X126713323Y-102197000D01*
X127286676Y-102196999D01*
X127286684Y-102196998D01*
X127286687Y-102196998D01*
X127342030Y-102191344D01*
X127387753Y-102186674D01*
X127551516Y-102132408D01*
X127698350Y-102041840D01*
X127820340Y-101919850D01*
X127910463Y-101773736D01*
X127962409Y-101727015D01*
X128031371Y-101715792D01*
X128095454Y-101743636D01*
X128121535Y-101773734D01*
X128211660Y-101919850D01*
X128333650Y-102041840D01*
X128480484Y-102132408D01*
X128644247Y-102186674D01*
X128745323Y-102197000D01*
X129318676Y-102196999D01*
X129318684Y-102196998D01*
X129318687Y-102196998D01*
X129374030Y-102191344D01*
X129419753Y-102186674D01*
X129583516Y-102132408D01*
X129730350Y-102041840D01*
X129852340Y-101919850D01*
X129942908Y-101773016D01*
X129997174Y-101609253D01*
X130007500Y-101508177D01*
X130007499Y-100809824D01*
X130007192Y-100806823D01*
X129997174Y-100708747D01*
X129996180Y-100705747D01*
X129942908Y-100544984D01*
X129852340Y-100398150D01*
X129818819Y-100364629D01*
X129785334Y-100303306D01*
X129782500Y-100276948D01*
X129782500Y-99290879D01*
X129753659Y-99145892D01*
X129753658Y-99145891D01*
X129753658Y-99145887D01*
X129716386Y-99055907D01*
X129708918Y-98986440D01*
X129714765Y-98965127D01*
X129729291Y-98926183D01*
X129735700Y-98866573D01*
X129735700Y-98842300D01*
X129755385Y-98775261D01*
X129808189Y-98729506D01*
X129859700Y-98718300D01*
X133673570Y-98718300D01*
X133740609Y-98737985D01*
X133761251Y-98754619D01*
X134903580Y-99896948D01*
X134903584Y-99896951D01*
X135026498Y-99979080D01*
X135026511Y-99979087D01*
X135129966Y-100021939D01*
X135163087Y-100035658D01*
X135163091Y-100035658D01*
X135163092Y-100035659D01*
X135308079Y-100064500D01*
X135308082Y-100064500D01*
X135455917Y-100064500D01*
X142795770Y-100064500D01*
X142862809Y-100084185D01*
X142908564Y-100136989D01*
X142918508Y-100206147D01*
X142889483Y-100269703D01*
X142883451Y-100276181D01*
X142396450Y-100763181D01*
X142335127Y-100796666D01*
X142308769Y-100799500D01*
X141700441Y-100799500D01*
X141570351Y-100814157D01*
X141570341Y-100814159D01*
X141405395Y-100871877D01*
X141257423Y-100964853D01*
X141133853Y-101088423D01*
X141040877Y-101236395D01*
X140983159Y-101401341D01*
X140983157Y-101401351D01*
X140968500Y-101531441D01*
X140968500Y-103268558D01*
X140981238Y-103381617D01*
X140969183Y-103450439D01*
X140921834Y-103501818D01*
X140858018Y-103519500D01*
X139179981Y-103519500D01*
X139112942Y-103499815D01*
X139067187Y-103447011D01*
X139056761Y-103381617D01*
X139069498Y-103268558D01*
X139069499Y-103268554D01*
X139069499Y-101531445D01*
X139069498Y-101531441D01*
X139054841Y-101401351D01*
X139054840Y-101401344D01*
X139054840Y-101401343D01*
X138997121Y-101236394D01*
X138904146Y-101088424D01*
X138780575Y-100964853D01*
X138632605Y-100871878D01*
X138632604Y-100871877D01*
X138632603Y-100871877D01*
X138467657Y-100814159D01*
X138467647Y-100814157D01*
X138337557Y-100799500D01*
X138337551Y-100799500D01*
X137874228Y-100799500D01*
X137807189Y-100779815D01*
X137786551Y-100763185D01*
X137659414Y-100636048D01*
X137659413Y-100636047D01*
X137659412Y-100636046D01*
X137581517Y-100583999D01*
X137581516Y-100583999D01*
X137536499Y-100553919D01*
X137536486Y-100553912D01*
X137399915Y-100497343D01*
X137399905Y-100497340D01*
X137254918Y-100468500D01*
X137254916Y-100468500D01*
X134053920Y-100468500D01*
X133986881Y-100448815D01*
X133948382Y-100409597D01*
X133916342Y-100357653D01*
X133916339Y-100357649D01*
X133794351Y-100235661D01*
X133794350Y-100235660D01*
X133647516Y-100145092D01*
X133483753Y-100090826D01*
X133483751Y-100090825D01*
X133382678Y-100080500D01*
X132809330Y-100080500D01*
X132809312Y-100080501D01*
X132708247Y-100090825D01*
X132544484Y-100145092D01*
X132544481Y-100145093D01*
X132397648Y-100235661D01*
X132275661Y-100357648D01*
X132185093Y-100504481D01*
X132185091Y-100504486D01*
X132168713Y-100553912D01*
X132130826Y-100668247D01*
X132130826Y-100668248D01*
X132130825Y-100668248D01*
X132120500Y-100769315D01*
X132120500Y-101442669D01*
X132120501Y-101442687D01*
X132130825Y-101543752D01*
X132185092Y-101707515D01*
X132185093Y-101707518D01*
X132197119Y-101727015D01*
X132270821Y-101846505D01*
X132275661Y-101854351D01*
X132314629Y-101893319D01*
X132348114Y-101954642D01*
X132343130Y-102024334D01*
X132314629Y-102068681D01*
X132275660Y-102107649D01*
X132275659Y-102107650D01*
X132239651Y-102166029D01*
X132218329Y-102200597D01*
X132166383Y-102247321D01*
X132112792Y-102259500D01*
X131975052Y-102259500D01*
X131908013Y-102239815D01*
X131887371Y-102223181D01*
X131762351Y-102098161D01*
X131762350Y-102098160D01*
X131615516Y-102007592D01*
X131451753Y-101953326D01*
X131451751Y-101953325D01*
X131350678Y-101943000D01*
X130777330Y-101943000D01*
X130777312Y-101943001D01*
X130676247Y-101953325D01*
X130512484Y-102007592D01*
X130512481Y-102007593D01*
X130365648Y-102098161D01*
X130243661Y-102220148D01*
X130153093Y-102366981D01*
X130153091Y-102366986D01*
X130125719Y-102449588D01*
X130098826Y-102530747D01*
X130098826Y-102530748D01*
X130098825Y-102530748D01*
X130088500Y-102631815D01*
X130088500Y-103230169D01*
X130088501Y-103230187D01*
X130098825Y-103331252D01*
X130098827Y-103331257D01*
X130107190Y-103356494D01*
X130109593Y-103426322D01*
X130073863Y-103486365D01*
X130011343Y-103517558D01*
X129989485Y-103519500D01*
X124010515Y-103519500D01*
X123943476Y-103499815D01*
X123897721Y-103447011D01*
X123887777Y-103377853D01*
X123892809Y-103356496D01*
X123901174Y-103331253D01*
X123911500Y-103230177D01*
X123911499Y-102631824D01*
X123907201Y-102589753D01*
X123901174Y-102530747D01*
X123865386Y-102422748D01*
X123846908Y-102366984D01*
X123756340Y-102220150D01*
X123634350Y-102098160D01*
X123487516Y-102007592D01*
X123323753Y-101953326D01*
X123323751Y-101953325D01*
X123222678Y-101943000D01*
X122649330Y-101943000D01*
X122649312Y-101943001D01*
X122548247Y-101953325D01*
X122384484Y-102007592D01*
X122384481Y-102007593D01*
X122237648Y-102098161D01*
X122213629Y-102122181D01*
X122152306Y-102155666D01*
X122125948Y-102158500D01*
X121824580Y-102158500D01*
X121757541Y-102138815D01*
X121727315Y-102111412D01*
X121724341Y-102107651D01*
X121685371Y-102068681D01*
X121651886Y-102007358D01*
X121656870Y-101937666D01*
X121685371Y-101893319D01*
X121694610Y-101884080D01*
X121724340Y-101854350D01*
X121814908Y-101707516D01*
X121869174Y-101543753D01*
X121879500Y-101442677D01*
X121879499Y-100769324D01*
X121878871Y-100763181D01*
X121869174Y-100668247D01*
X121858504Y-100636047D01*
X121814908Y-100504484D01*
X121724340Y-100357650D01*
X121602350Y-100235660D01*
X121455516Y-100145092D01*
X121291753Y-100090826D01*
X121291751Y-100090825D01*
X121190678Y-100080500D01*
X120617330Y-100080500D01*
X120617312Y-100080501D01*
X120516247Y-100090825D01*
X120352484Y-100145092D01*
X120352481Y-100145093D01*
X120205648Y-100235661D01*
X120083660Y-100357649D01*
X120083657Y-100357653D01*
X120051618Y-100409597D01*
X119999670Y-100456322D01*
X119946080Y-100468500D01*
X119869230Y-100468500D01*
X119802191Y-100448815D01*
X119781549Y-100432181D01*
X119371307Y-100021939D01*
X119348653Y-99985869D01*
X119346813Y-99986756D01*
X119343792Y-99980484D01*
X119343789Y-99980480D01*
X119343789Y-99980478D01*
X119247816Y-99827738D01*
X119120262Y-99700184D01*
X118967523Y-99604211D01*
X118797254Y-99544631D01*
X118797249Y-99544630D01*
X118618004Y-99524435D01*
X118617996Y-99524435D01*
X118438750Y-99544630D01*
X118438745Y-99544631D01*
X118268476Y-99604211D01*
X118115737Y-99700184D01*
X117988184Y-99827737D01*
X117892211Y-99980476D01*
X117832631Y-100150745D01*
X117832630Y-100150750D01*
X117812435Y-100329996D01*
X117812435Y-100330003D01*
X117832630Y-100509249D01*
X117832631Y-100509254D01*
X117892211Y-100679523D01*
X117972200Y-100806824D01*
X117988184Y-100832262D01*
X118115738Y-100959816D01*
X118268478Y-101055789D01*
X118268480Y-101055789D01*
X118268484Y-101055792D01*
X118274756Y-101058813D01*
X118273869Y-101060653D01*
X118309939Y-101083307D01*
X119028586Y-101801954D01*
X119055256Y-101819773D01*
X119095264Y-101846505D01*
X119151505Y-101884084D01*
X119151507Y-101884085D01*
X119151511Y-101884087D01*
X119283693Y-101938838D01*
X119288087Y-101940658D01*
X119288091Y-101940658D01*
X119288092Y-101940659D01*
X119433079Y-101969500D01*
X119433082Y-101969500D01*
X119433083Y-101969500D01*
X119580918Y-101969500D01*
X119946697Y-101969500D01*
X120013736Y-101989185D01*
X120059491Y-102041989D01*
X120069435Y-102111147D01*
X120052236Y-102158597D01*
X119993093Y-102254481D01*
X119993092Y-102254484D01*
X119938826Y-102418247D01*
X119938826Y-102418248D01*
X119938825Y-102418248D01*
X119928500Y-102519315D01*
X119928500Y-103192669D01*
X119928501Y-103192687D01*
X119938825Y-103293752D01*
X119938826Y-103293755D01*
X119959617Y-103356496D01*
X119962019Y-103426324D01*
X119926287Y-103486366D01*
X119863767Y-103517559D01*
X119841911Y-103519500D01*
X117141981Y-103519500D01*
X117074942Y-103499815D01*
X117029187Y-103447011D01*
X117018761Y-103381617D01*
X117031498Y-103268559D01*
X117031499Y-103268555D01*
X117031499Y-101531446D01*
X117031498Y-101531442D01*
X117028652Y-101506186D01*
X117016840Y-101401344D01*
X116959121Y-101236395D01*
X116866146Y-101088425D01*
X116742575Y-100964854D01*
X116594605Y-100871879D01*
X116594604Y-100871878D01*
X116594603Y-100871878D01*
X116429657Y-100814160D01*
X116429647Y-100814158D01*
X116299557Y-100799501D01*
X116299551Y-100799501D01*
X115662447Y-100799501D01*
X115662440Y-100799501D01*
X115575539Y-100809292D01*
X115506717Y-100797237D01*
X115455338Y-100749888D01*
X115437714Y-100682277D01*
X115459441Y-100615872D01*
X115473969Y-100598397D01*
X119527549Y-96544819D01*
X119588872Y-96511334D01*
X119615230Y-96508500D01*
X120163500Y-96508500D01*
X120230539Y-96528185D01*
G37*
G04 #@! TD.AperFunction*
G04 #@! TA.AperFunction,NonConductor*
G36*
X131384431Y-81151084D02*
G01*
X131427890Y-81194606D01*
X131492369Y-81303637D01*
X131492378Y-81303648D01*
X131508049Y-81319319D01*
X131541534Y-81380642D01*
X131536550Y-81450334D01*
X131508049Y-81494681D01*
X131492378Y-81510351D01*
X131492369Y-81510363D01*
X131410320Y-81649103D01*
X131410317Y-81649110D01*
X131365346Y-81803897D01*
X131365345Y-81803903D01*
X131362500Y-81840057D01*
X131362500Y-82243922D01*
X131362501Y-82243947D01*
X131365346Y-82280098D01*
X131410317Y-82434889D01*
X131410320Y-82434896D01*
X131492369Y-82573636D01*
X131492378Y-82573648D01*
X131508049Y-82589319D01*
X131541534Y-82650642D01*
X131536550Y-82720334D01*
X131508049Y-82764681D01*
X131492378Y-82780351D01*
X131492369Y-82780363D01*
X131410320Y-82919103D01*
X131410317Y-82919110D01*
X131365346Y-83073897D01*
X131365345Y-83073903D01*
X131362500Y-83110057D01*
X131362500Y-83513922D01*
X131362501Y-83513947D01*
X131365346Y-83550098D01*
X131401025Y-83672905D01*
X131400826Y-83742774D01*
X131362884Y-83801444D01*
X131299246Y-83830288D01*
X131281949Y-83831500D01*
X130609080Y-83831500D01*
X130464092Y-83860340D01*
X130464082Y-83860343D01*
X130327511Y-83916912D01*
X130327498Y-83916919D01*
X130204584Y-83999048D01*
X130204580Y-83999051D01*
X129866937Y-84336693D01*
X129830873Y-84359370D01*
X129831750Y-84361191D01*
X129825475Y-84364212D01*
X129672737Y-84460184D01*
X129545184Y-84587737D01*
X129449211Y-84740476D01*
X129389631Y-84910745D01*
X129389630Y-84910750D01*
X129380546Y-84991383D01*
X129353480Y-85055797D01*
X129295885Y-85095352D01*
X129257326Y-85101500D01*
X128831082Y-85101500D01*
X128787690Y-85110131D01*
X128718099Y-85103903D01*
X128662922Y-85061039D01*
X128639678Y-84995149D01*
X128639500Y-84988513D01*
X128639500Y-83928229D01*
X128659185Y-83861190D01*
X128675819Y-83840548D01*
X131082950Y-81433417D01*
X131082952Y-81433415D01*
X131120703Y-81376916D01*
X131165084Y-81310495D01*
X131188518Y-81253920D01*
X131206597Y-81210273D01*
X131250438Y-81155870D01*
X131316732Y-81133805D01*
X131384431Y-81151084D01*
G37*
G04 #@! TD.AperFunction*
G04 #@! TA.AperFunction,NonConductor*
G36*
X153854376Y-88670185D02*
G01*
X153888912Y-88703377D01*
X153913953Y-88739140D01*
X153987132Y-88812319D01*
X154020617Y-88873642D01*
X154015633Y-88943334D01*
X153987132Y-88987681D01*
X153913954Y-89060858D01*
X153888912Y-89096623D01*
X153834335Y-89140248D01*
X153787337Y-89149500D01*
X153762229Y-89149500D01*
X153695190Y-89129815D01*
X153674548Y-89113181D01*
X153423549Y-88862181D01*
X153390064Y-88800858D01*
X153395048Y-88731166D01*
X153436920Y-88675233D01*
X153502384Y-88650816D01*
X153511230Y-88650500D01*
X153787337Y-88650500D01*
X153854376Y-88670185D01*
G37*
G04 #@! TD.AperFunction*
G04 #@! TA.AperFunction,NonConductor*
G36*
X125340595Y-89147423D02*
G01*
X125399902Y-89164654D01*
X125436065Y-89167500D01*
X125950771Y-89167499D01*
X126017809Y-89187183D01*
X126063564Y-89239987D01*
X126073508Y-89309146D01*
X126044483Y-89372702D01*
X126038451Y-89379180D01*
X125136749Y-90280881D01*
X125075426Y-90314366D01*
X125049069Y-90317200D01*
X124836730Y-90317200D01*
X124836723Y-90317201D01*
X124777116Y-90323608D01*
X124642271Y-90373902D01*
X124642264Y-90373906D01*
X124527055Y-90460152D01*
X124527052Y-90460155D01*
X124440806Y-90575364D01*
X124440802Y-90575371D01*
X124390508Y-90710217D01*
X124387399Y-90739139D01*
X124384101Y-90769823D01*
X124384100Y-90769835D01*
X124384100Y-92308169D01*
X124364415Y-92375208D01*
X124347781Y-92395850D01*
X123913320Y-92830310D01*
X123851997Y-92863795D01*
X123782305Y-92858811D01*
X123726372Y-92816939D01*
X123701955Y-92751475D01*
X123709456Y-92699300D01*
X123741091Y-92614483D01*
X123747500Y-92554873D01*
X123747499Y-90102228D01*
X123767184Y-90035190D01*
X123783813Y-90014553D01*
X124619548Y-89178819D01*
X124680871Y-89145334D01*
X124707229Y-89142500D01*
X125306001Y-89142500D01*
X125340595Y-89147423D01*
G37*
G04 #@! TD.AperFunction*
G04 #@! TA.AperFunction,NonConductor*
G36*
X123878422Y-97638136D02*
G01*
X123897145Y-97653512D01*
X124689849Y-98446216D01*
X124768394Y-98524761D01*
X124794385Y-98550752D01*
X124917298Y-98632880D01*
X124917311Y-98632887D01*
X124982957Y-98660078D01*
X125053887Y-98689458D01*
X125053891Y-98689458D01*
X125053892Y-98689459D01*
X125198879Y-98718300D01*
X125198882Y-98718300D01*
X125410301Y-98718300D01*
X125477340Y-98737985D01*
X125523095Y-98790789D01*
X125534301Y-98842300D01*
X125534301Y-98866576D01*
X125540708Y-98926183D01*
X125591002Y-99061028D01*
X125591006Y-99061035D01*
X125677252Y-99176244D01*
X125677255Y-99176247D01*
X125792464Y-99262493D01*
X125792471Y-99262497D01*
X125927317Y-99312791D01*
X125927316Y-99312791D01*
X125934244Y-99313535D01*
X125986927Y-99319200D01*
X126760500Y-99319199D01*
X126827539Y-99338883D01*
X126873294Y-99391687D01*
X126884500Y-99443199D01*
X126884500Y-99997000D01*
X126864815Y-100064039D01*
X126812011Y-100109794D01*
X126760502Y-100121000D01*
X126713332Y-100121000D01*
X126713312Y-100121001D01*
X126612247Y-100131325D01*
X126448484Y-100185592D01*
X126448481Y-100185593D01*
X126301648Y-100276161D01*
X126179661Y-100398148D01*
X126143779Y-100456322D01*
X126090943Y-100541984D01*
X126090464Y-100542760D01*
X126038516Y-100589484D01*
X125969553Y-100600706D01*
X125905471Y-100572863D01*
X125879386Y-100542760D01*
X125878908Y-100541986D01*
X125878908Y-100541984D01*
X125788340Y-100395150D01*
X125666350Y-100273160D01*
X125543694Y-100197505D01*
X125519518Y-100182593D01*
X125519513Y-100182591D01*
X125518069Y-100182112D01*
X125355753Y-100128326D01*
X125355751Y-100128325D01*
X125254684Y-100118000D01*
X125254677Y-100118000D01*
X124788730Y-100118000D01*
X124721691Y-100098315D01*
X124701049Y-100081681D01*
X122574657Y-97955289D01*
X122541172Y-97893966D01*
X122546156Y-97824274D01*
X122588028Y-97768341D01*
X122653492Y-97743924D01*
X122674931Y-97744249D01*
X122726323Y-97749500D01*
X123399676Y-97749499D01*
X123399684Y-97749498D01*
X123399687Y-97749498D01*
X123455030Y-97743844D01*
X123500753Y-97739174D01*
X123664516Y-97684908D01*
X123744369Y-97635654D01*
X123811759Y-97617214D01*
X123878422Y-97638136D01*
G37*
G04 #@! TD.AperFunction*
G04 #@! TA.AperFunction,NonConductor*
G36*
X136885806Y-101989185D02*
G01*
X136906447Y-102005817D01*
X136932179Y-102031548D01*
X136965665Y-102092871D01*
X136968499Y-102119231D01*
X136968499Y-103268558D01*
X136981237Y-103381617D01*
X136969182Y-103450439D01*
X136921833Y-103501818D01*
X136858017Y-103519500D01*
X134158088Y-103519500D01*
X134091049Y-103499815D01*
X134045294Y-103447011D01*
X134035350Y-103377853D01*
X134040378Y-103356507D01*
X134061174Y-103293753D01*
X134071500Y-103192677D01*
X134071499Y-102519324D01*
X134061174Y-102418247D01*
X134006908Y-102254484D01*
X133947763Y-102158595D01*
X133929324Y-102091204D01*
X133950247Y-102024541D01*
X134003889Y-101979771D01*
X134053303Y-101969500D01*
X136818767Y-101969500D01*
X136885806Y-101989185D01*
G37*
G04 #@! TD.AperFunction*
M02*
