M48
; DRILL file {KiCad 8.0.5} date 2024-09-26T10:19:18+0200
; FORMAT={-:-/ absolute / metric / decimal}
; #@! TF.CreationDate,2024-09-26T10:19:18+02:00
; #@! TF.GenerationSoftware,Kicad,Pcbnew,8.0.5
; #@! TF.FileFunction,Plated,1,2,PTH
FMAT,2
METRIC
; #@! TA.AperFunction,Plated,PTH,ViaDrill
T1C0.300
; #@! TA.AperFunction,Plated,PTH,ComponentDrill
T2C0.950
; #@! TA.AperFunction,Plated,PTH,ComponentDrill
T3C2.300
; #@! TA.AperFunction,Plated,PTH,ComponentDrill
T4C3.000
%
G90
G05
T1
X106.934Y-100.33
X112.903Y-98.298
X113.157Y-99.314
X117.729Y-73.914
X118.364Y-73.914
X118.491Y-101.854
X118.618Y-100.33
X118.999Y-73.914
X121.92Y-73.914
X122.555Y-73.914
X123.19Y-73.914
X123.253Y-77.279
X123.825Y-73.914
X124.46Y-73.914
X125.095Y-73.914
X125.476Y-96.393
X125.73Y-73.914
X126.365Y-73.914
X127.0Y-73.914
X127.635Y-73.914
X127.889Y-83.566
X128.27Y-73.914
X128.651Y-79.883
X128.651Y-86.106
X128.905Y-73.914
X129.54Y-73.914
X130.175Y-73.914
X130.175Y-85.09
X130.81Y-73.914
X131.318Y-87.122
X131.445Y-73.914
X131.445Y-88.392
X132.08Y-73.914
X132.08Y-99.822
X134.112Y-83.312
X135.001Y-73.914
X135.636Y-73.914
X136.271Y-73.914
X136.652Y-84.709
X143.637Y-100.584
X144.907Y-100.965
T2
X99.213Y-85.527
X99.213Y-88.027
X99.213Y-90.027
X99.213Y-92.527
X123.5Y-75.227
X126.0Y-75.227
X128.0Y-75.227
X130.5Y-75.227
X154.914Y-85.4
X154.914Y-87.9
X154.914Y-89.9
X154.914Y-92.4
T3
X96.503Y-82.457
X96.503Y-95.597
X120.43Y-72.517
X133.57Y-72.517
X157.624Y-82.33
X157.624Y-95.47
T4
X105.758Y-90.899
X105.758Y-96.299
X111.158Y-90.899
X111.158Y-96.299
X137.762Y-90.899
X137.762Y-96.299
X143.162Y-90.899
X143.162Y-96.299
M30
