G04 #@! TF.GenerationSoftware,KiCad,Pcbnew,8.0.5*
G04 #@! TF.CreationDate,2024-09-26T10:19:01+02:00*
G04 #@! TF.ProjectId,BL-R8812AF1 2x mount,424c2d52-3838-4313-9241-463120327820,rev?*
G04 #@! TF.SameCoordinates,Original*
G04 #@! TF.FileFunction,Legend,Top*
G04 #@! TF.FilePolarity,Positive*
%FSLAX46Y46*%
G04 Gerber Fmt 4.6, Leading zero omitted, Abs format (unit mm)*
G04 Created by KiCad (PCBNEW 8.0.5) date 2024-09-26 10:19:01*
%MOMM*%
%LPD*%
G01*
G04 APERTURE LIST*
G04 Aperture macros list*
%AMRoundRect*
0 Rectangle with rounded corners*
0 $1 Rounding radius*
0 $2 $3 $4 $5 $6 $7 $8 $9 X,Y pos of 4 corners*
0 Add a 4 corners polygon primitive as box body*
4,1,4,$2,$3,$4,$5,$6,$7,$8,$9,$2,$3,0*
0 Add four circle primitives for the rounded corners*
1,1,$1+$1,$2,$3*
1,1,$1+$1,$4,$5*
1,1,$1+$1,$6,$7*
1,1,$1+$1,$8,$9*
0 Add four rect primitives between the rounded corners*
20,1,$1+$1,$2,$3,$4,$5,0*
20,1,$1+$1,$4,$5,$6,$7,0*
20,1,$1+$1,$6,$7,$8,$9,0*
20,1,$1+$1,$8,$9,$2,$3,0*%
G04 Aperture macros list end*
%ADD10C,0.150000*%
%ADD11C,0.120000*%
%ADD12C,0.100000*%
%ADD13C,0.152400*%
%ADD14RoundRect,0.237500X-0.287500X-0.237500X0.287500X-0.237500X0.287500X0.237500X-0.287500X0.237500X0*%
%ADD15RoundRect,0.237500X0.300000X0.237500X-0.300000X0.237500X-0.300000X-0.237500X0.300000X-0.237500X0*%
%ADD16RoundRect,0.237500X0.237500X-0.300000X0.237500X0.300000X-0.237500X0.300000X-0.237500X-0.300000X0*%
%ADD17RoundRect,0.237500X0.237500X-0.287500X0.237500X0.287500X-0.237500X0.287500X-0.237500X-0.287500X0*%
%ADD18RoundRect,0.237500X-0.237500X0.250000X-0.237500X-0.250000X0.237500X-0.250000X0.237500X0.250000X0*%
%ADD19RoundRect,0.237500X0.237500X-0.250000X0.237500X0.250000X-0.237500X0.250000X-0.237500X-0.250000X0*%
%ADD20RoundRect,0.237500X-0.237500X0.300000X-0.237500X-0.300000X0.237500X-0.300000X0.237500X0.300000X0*%
%ADD21R,2.400000X3.150000*%
%ADD22C,4.000000*%
%ADD23RoundRect,0.275000X0.275000X-0.825000X0.275000X0.825000X-0.275000X0.825000X-0.275000X-0.825000X0*%
%ADD24RoundRect,0.137500X0.662500X0.137500X-0.662500X0.137500X-0.662500X-0.137500X0.662500X-0.137500X0*%
%ADD25R,1.600000X1.500000*%
%ADD26C,1.600000*%
%ADD27C,3.000000*%
%ADD28R,1.500000X1.600000*%
%ADD29R,3.200400X1.549400*%
%ADD30R,0.900800X1.549400*%
G04 APERTURE END LIST*
D10*
X100313295Y-85689887D02*
X100313295Y-86070839D01*
X100313295Y-86070839D02*
X100694247Y-86108935D01*
X100694247Y-86108935D02*
X100656152Y-86070839D01*
X100656152Y-86070839D02*
X100618057Y-85994649D01*
X100618057Y-85994649D02*
X100618057Y-85804173D01*
X100618057Y-85804173D02*
X100656152Y-85727982D01*
X100656152Y-85727982D02*
X100694247Y-85689887D01*
X100694247Y-85689887D02*
X100770438Y-85651792D01*
X100770438Y-85651792D02*
X100960914Y-85651792D01*
X100960914Y-85651792D02*
X101037104Y-85689887D01*
X101037104Y-85689887D02*
X101075200Y-85727982D01*
X101075200Y-85727982D02*
X101113295Y-85804173D01*
X101113295Y-85804173D02*
X101113295Y-85994649D01*
X101113295Y-85994649D02*
X101075200Y-86070839D01*
X101075200Y-86070839D02*
X101037104Y-86108935D01*
X100313295Y-85423220D02*
X101113295Y-85156553D01*
X101113295Y-85156553D02*
X100313295Y-84889887D01*
X153813704Y-92237112D02*
X153813704Y-91856160D01*
X153813704Y-91856160D02*
X153432752Y-91818064D01*
X153432752Y-91818064D02*
X153470847Y-91856160D01*
X153470847Y-91856160D02*
X153508942Y-91932350D01*
X153508942Y-91932350D02*
X153508942Y-92122826D01*
X153508942Y-92122826D02*
X153470847Y-92199017D01*
X153470847Y-92199017D02*
X153432752Y-92237112D01*
X153432752Y-92237112D02*
X153356561Y-92275207D01*
X153356561Y-92275207D02*
X153166085Y-92275207D01*
X153166085Y-92275207D02*
X153089895Y-92237112D01*
X153089895Y-92237112D02*
X153051800Y-92199017D01*
X153051800Y-92199017D02*
X153013704Y-92122826D01*
X153013704Y-92122826D02*
X153013704Y-91932350D01*
X153013704Y-91932350D02*
X153051800Y-91856160D01*
X153051800Y-91856160D02*
X153089895Y-91818064D01*
X153813704Y-92503779D02*
X153013704Y-92770446D01*
X153013704Y-92770446D02*
X153813704Y-93037112D01*
X130337112Y-76056295D02*
X129956160Y-76056295D01*
X129956160Y-76056295D02*
X129918064Y-76437247D01*
X129918064Y-76437247D02*
X129956160Y-76399152D01*
X129956160Y-76399152D02*
X130032350Y-76361057D01*
X130032350Y-76361057D02*
X130222826Y-76361057D01*
X130222826Y-76361057D02*
X130299017Y-76399152D01*
X130299017Y-76399152D02*
X130337112Y-76437247D01*
X130337112Y-76437247D02*
X130375207Y-76513438D01*
X130375207Y-76513438D02*
X130375207Y-76703914D01*
X130375207Y-76703914D02*
X130337112Y-76780104D01*
X130337112Y-76780104D02*
X130299017Y-76818200D01*
X130299017Y-76818200D02*
X130222826Y-76856295D01*
X130222826Y-76856295D02*
X130032350Y-76856295D01*
X130032350Y-76856295D02*
X129956160Y-76818200D01*
X129956160Y-76818200D02*
X129918064Y-76780104D01*
X130603779Y-76056295D02*
X130870446Y-76856295D01*
X130870446Y-76856295D02*
X131137112Y-76056295D01*
X100351390Y-93144792D02*
X100313295Y-93220982D01*
X100313295Y-93220982D02*
X100313295Y-93335268D01*
X100313295Y-93335268D02*
X100351390Y-93449554D01*
X100351390Y-93449554D02*
X100427580Y-93525744D01*
X100427580Y-93525744D02*
X100503771Y-93563839D01*
X100503771Y-93563839D02*
X100656152Y-93601935D01*
X100656152Y-93601935D02*
X100770438Y-93601935D01*
X100770438Y-93601935D02*
X100922819Y-93563839D01*
X100922819Y-93563839D02*
X100999009Y-93525744D01*
X100999009Y-93525744D02*
X101075200Y-93449554D01*
X101075200Y-93449554D02*
X101113295Y-93335268D01*
X101113295Y-93335268D02*
X101113295Y-93259077D01*
X101113295Y-93259077D02*
X101075200Y-93144792D01*
X101075200Y-93144792D02*
X101037104Y-93106696D01*
X101037104Y-93106696D02*
X100770438Y-93106696D01*
X100770438Y-93106696D02*
X100770438Y-93259077D01*
X101113295Y-92763839D02*
X100313295Y-92763839D01*
X100313295Y-92763839D02*
X101113295Y-92306696D01*
X101113295Y-92306696D02*
X100313295Y-92306696D01*
X101113295Y-91925744D02*
X100313295Y-91925744D01*
X100313295Y-91925744D02*
X100313295Y-91735268D01*
X100313295Y-91735268D02*
X100351390Y-91620982D01*
X100351390Y-91620982D02*
X100427580Y-91544792D01*
X100427580Y-91544792D02*
X100503771Y-91506697D01*
X100503771Y-91506697D02*
X100656152Y-91468601D01*
X100656152Y-91468601D02*
X100770438Y-91468601D01*
X100770438Y-91468601D02*
X100922819Y-91506697D01*
X100922819Y-91506697D02*
X100999009Y-91544792D01*
X100999009Y-91544792D02*
X101075200Y-91620982D01*
X101075200Y-91620982D02*
X101113295Y-91735268D01*
X101113295Y-91735268D02*
X101113295Y-91925744D01*
X122882207Y-76094390D02*
X122806017Y-76056295D01*
X122806017Y-76056295D02*
X122691731Y-76056295D01*
X122691731Y-76056295D02*
X122577445Y-76094390D01*
X122577445Y-76094390D02*
X122501255Y-76170580D01*
X122501255Y-76170580D02*
X122463160Y-76246771D01*
X122463160Y-76246771D02*
X122425064Y-76399152D01*
X122425064Y-76399152D02*
X122425064Y-76513438D01*
X122425064Y-76513438D02*
X122463160Y-76665819D01*
X122463160Y-76665819D02*
X122501255Y-76742009D01*
X122501255Y-76742009D02*
X122577445Y-76818200D01*
X122577445Y-76818200D02*
X122691731Y-76856295D01*
X122691731Y-76856295D02*
X122767922Y-76856295D01*
X122767922Y-76856295D02*
X122882207Y-76818200D01*
X122882207Y-76818200D02*
X122920303Y-76780104D01*
X122920303Y-76780104D02*
X122920303Y-76513438D01*
X122920303Y-76513438D02*
X122767922Y-76513438D01*
X123263160Y-76856295D02*
X123263160Y-76056295D01*
X123263160Y-76056295D02*
X123720303Y-76856295D01*
X123720303Y-76856295D02*
X123720303Y-76056295D01*
X124101255Y-76856295D02*
X124101255Y-76056295D01*
X124101255Y-76056295D02*
X124291731Y-76056295D01*
X124291731Y-76056295D02*
X124406017Y-76094390D01*
X124406017Y-76094390D02*
X124482207Y-76170580D01*
X124482207Y-76170580D02*
X124520302Y-76246771D01*
X124520302Y-76246771D02*
X124558398Y-76399152D01*
X124558398Y-76399152D02*
X124558398Y-76513438D01*
X124558398Y-76513438D02*
X124520302Y-76665819D01*
X124520302Y-76665819D02*
X124482207Y-76742009D01*
X124482207Y-76742009D02*
X124406017Y-76818200D01*
X124406017Y-76818200D02*
X124291731Y-76856295D01*
X124291731Y-76856295D02*
X124101255Y-76856295D01*
X153775609Y-84909207D02*
X153813704Y-84833017D01*
X153813704Y-84833017D02*
X153813704Y-84718731D01*
X153813704Y-84718731D02*
X153775609Y-84604445D01*
X153775609Y-84604445D02*
X153699419Y-84528255D01*
X153699419Y-84528255D02*
X153623228Y-84490160D01*
X153623228Y-84490160D02*
X153470847Y-84452064D01*
X153470847Y-84452064D02*
X153356561Y-84452064D01*
X153356561Y-84452064D02*
X153204180Y-84490160D01*
X153204180Y-84490160D02*
X153127990Y-84528255D01*
X153127990Y-84528255D02*
X153051800Y-84604445D01*
X153051800Y-84604445D02*
X153013704Y-84718731D01*
X153013704Y-84718731D02*
X153013704Y-84794922D01*
X153013704Y-84794922D02*
X153051800Y-84909207D01*
X153051800Y-84909207D02*
X153089895Y-84947303D01*
X153089895Y-84947303D02*
X153356561Y-84947303D01*
X153356561Y-84947303D02*
X153356561Y-84794922D01*
X153013704Y-85290160D02*
X153813704Y-85290160D01*
X153813704Y-85290160D02*
X153013704Y-85747303D01*
X153013704Y-85747303D02*
X153813704Y-85747303D01*
X153013704Y-86128255D02*
X153813704Y-86128255D01*
X153813704Y-86128255D02*
X153813704Y-86318731D01*
X153813704Y-86318731D02*
X153775609Y-86433017D01*
X153775609Y-86433017D02*
X153699419Y-86509207D01*
X153699419Y-86509207D02*
X153623228Y-86547302D01*
X153623228Y-86547302D02*
X153470847Y-86585398D01*
X153470847Y-86585398D02*
X153356561Y-86585398D01*
X153356561Y-86585398D02*
X153204180Y-86547302D01*
X153204180Y-86547302D02*
X153127990Y-86509207D01*
X153127990Y-86509207D02*
X153051800Y-86433017D01*
X153051800Y-86433017D02*
X153013704Y-86318731D01*
X153013704Y-86318731D02*
X153013704Y-86128255D01*
X101113295Y-88737839D02*
X100313295Y-88737839D01*
X100313295Y-88737839D02*
X100313295Y-88547363D01*
X100313295Y-88547363D02*
X100351390Y-88433077D01*
X100351390Y-88433077D02*
X100427580Y-88356887D01*
X100427580Y-88356887D02*
X100503771Y-88318792D01*
X100503771Y-88318792D02*
X100656152Y-88280696D01*
X100656152Y-88280696D02*
X100770438Y-88280696D01*
X100770438Y-88280696D02*
X100922819Y-88318792D01*
X100922819Y-88318792D02*
X100999009Y-88356887D01*
X100999009Y-88356887D02*
X101075200Y-88433077D01*
X101075200Y-88433077D02*
X101113295Y-88547363D01*
X101113295Y-88547363D02*
X101113295Y-88737839D01*
X100808533Y-87937839D02*
X100808533Y-87328316D01*
X127289160Y-76856295D02*
X127289160Y-76056295D01*
X127289160Y-76056295D02*
X127479636Y-76056295D01*
X127479636Y-76056295D02*
X127593922Y-76094390D01*
X127593922Y-76094390D02*
X127670112Y-76170580D01*
X127670112Y-76170580D02*
X127708207Y-76246771D01*
X127708207Y-76246771D02*
X127746303Y-76399152D01*
X127746303Y-76399152D02*
X127746303Y-76513438D01*
X127746303Y-76513438D02*
X127708207Y-76665819D01*
X127708207Y-76665819D02*
X127670112Y-76742009D01*
X127670112Y-76742009D02*
X127593922Y-76818200D01*
X127593922Y-76818200D02*
X127479636Y-76856295D01*
X127479636Y-76856295D02*
X127289160Y-76856295D01*
X128089160Y-76551533D02*
X128698684Y-76551533D01*
X153013704Y-89189160D02*
X153813704Y-89189160D01*
X153813704Y-89189160D02*
X153813704Y-89379636D01*
X153813704Y-89379636D02*
X153775609Y-89493922D01*
X153775609Y-89493922D02*
X153699419Y-89570112D01*
X153699419Y-89570112D02*
X153623228Y-89608207D01*
X153623228Y-89608207D02*
X153470847Y-89646303D01*
X153470847Y-89646303D02*
X153356561Y-89646303D01*
X153356561Y-89646303D02*
X153204180Y-89608207D01*
X153204180Y-89608207D02*
X153127990Y-89570112D01*
X153127990Y-89570112D02*
X153051800Y-89493922D01*
X153051800Y-89493922D02*
X153013704Y-89379636D01*
X153013704Y-89379636D02*
X153013704Y-89189160D01*
X153318466Y-89989160D02*
X153318466Y-90598684D01*
X153013704Y-87157160D02*
X153813704Y-87157160D01*
X153813704Y-87157160D02*
X153813704Y-87347636D01*
X153813704Y-87347636D02*
X153775609Y-87461922D01*
X153775609Y-87461922D02*
X153699419Y-87538112D01*
X153699419Y-87538112D02*
X153623228Y-87576207D01*
X153623228Y-87576207D02*
X153470847Y-87614303D01*
X153470847Y-87614303D02*
X153356561Y-87614303D01*
X153356561Y-87614303D02*
X153204180Y-87576207D01*
X153204180Y-87576207D02*
X153127990Y-87538112D01*
X153127990Y-87538112D02*
X153051800Y-87461922D01*
X153051800Y-87461922D02*
X153013704Y-87347636D01*
X153013704Y-87347636D02*
X153013704Y-87157160D01*
X153318466Y-87957160D02*
X153318466Y-88566684D01*
X153013704Y-88261922D02*
X153623228Y-88261922D01*
X101113295Y-90642839D02*
X100313295Y-90642839D01*
X100313295Y-90642839D02*
X100313295Y-90452363D01*
X100313295Y-90452363D02*
X100351390Y-90338077D01*
X100351390Y-90338077D02*
X100427580Y-90261887D01*
X100427580Y-90261887D02*
X100503771Y-90223792D01*
X100503771Y-90223792D02*
X100656152Y-90185696D01*
X100656152Y-90185696D02*
X100770438Y-90185696D01*
X100770438Y-90185696D02*
X100922819Y-90223792D01*
X100922819Y-90223792D02*
X100999009Y-90261887D01*
X100999009Y-90261887D02*
X101075200Y-90338077D01*
X101075200Y-90338077D02*
X101113295Y-90452363D01*
X101113295Y-90452363D02*
X101113295Y-90642839D01*
X100808533Y-89842839D02*
X100808533Y-89233316D01*
X101113295Y-89538077D02*
X100503771Y-89538077D01*
X125257160Y-76856295D02*
X125257160Y-76056295D01*
X125257160Y-76056295D02*
X125447636Y-76056295D01*
X125447636Y-76056295D02*
X125561922Y-76094390D01*
X125561922Y-76094390D02*
X125638112Y-76170580D01*
X125638112Y-76170580D02*
X125676207Y-76246771D01*
X125676207Y-76246771D02*
X125714303Y-76399152D01*
X125714303Y-76399152D02*
X125714303Y-76513438D01*
X125714303Y-76513438D02*
X125676207Y-76665819D01*
X125676207Y-76665819D02*
X125638112Y-76742009D01*
X125638112Y-76742009D02*
X125561922Y-76818200D01*
X125561922Y-76818200D02*
X125447636Y-76856295D01*
X125447636Y-76856295D02*
X125257160Y-76856295D01*
X126057160Y-76551533D02*
X126666684Y-76551533D01*
X126361922Y-76856295D02*
X126361922Y-76246771D01*
X121456524Y-98533295D02*
X121456524Y-97733295D01*
X121456524Y-97733295D02*
X121647000Y-97733295D01*
X121647000Y-97733295D02*
X121761286Y-97771390D01*
X121761286Y-97771390D02*
X121837476Y-97847580D01*
X121837476Y-97847580D02*
X121875571Y-97923771D01*
X121875571Y-97923771D02*
X121913667Y-98076152D01*
X121913667Y-98076152D02*
X121913667Y-98190438D01*
X121913667Y-98190438D02*
X121875571Y-98342819D01*
X121875571Y-98342819D02*
X121837476Y-98419009D01*
X121837476Y-98419009D02*
X121761286Y-98495200D01*
X121761286Y-98495200D02*
X121647000Y-98533295D01*
X121647000Y-98533295D02*
X121456524Y-98533295D01*
X122218428Y-97809485D02*
X122256524Y-97771390D01*
X122256524Y-97771390D02*
X122332714Y-97733295D01*
X122332714Y-97733295D02*
X122523190Y-97733295D01*
X122523190Y-97733295D02*
X122599381Y-97771390D01*
X122599381Y-97771390D02*
X122637476Y-97809485D01*
X122637476Y-97809485D02*
X122675571Y-97885676D01*
X122675571Y-97885676D02*
X122675571Y-97961866D01*
X122675571Y-97961866D02*
X122637476Y-98076152D01*
X122637476Y-98076152D02*
X122180333Y-98533295D01*
X122180333Y-98533295D02*
X122675571Y-98533295D01*
X121786667Y-80423104D02*
X121748571Y-80461200D01*
X121748571Y-80461200D02*
X121634286Y-80499295D01*
X121634286Y-80499295D02*
X121558095Y-80499295D01*
X121558095Y-80499295D02*
X121443809Y-80461200D01*
X121443809Y-80461200D02*
X121367619Y-80385009D01*
X121367619Y-80385009D02*
X121329524Y-80308819D01*
X121329524Y-80308819D02*
X121291428Y-80156438D01*
X121291428Y-80156438D02*
X121291428Y-80042152D01*
X121291428Y-80042152D02*
X121329524Y-79889771D01*
X121329524Y-79889771D02*
X121367619Y-79813580D01*
X121367619Y-79813580D02*
X121443809Y-79737390D01*
X121443809Y-79737390D02*
X121558095Y-79699295D01*
X121558095Y-79699295D02*
X121634286Y-79699295D01*
X121634286Y-79699295D02*
X121748571Y-79737390D01*
X121748571Y-79737390D02*
X121786667Y-79775485D01*
X122472381Y-79699295D02*
X122320000Y-79699295D01*
X122320000Y-79699295D02*
X122243809Y-79737390D01*
X122243809Y-79737390D02*
X122205714Y-79775485D01*
X122205714Y-79775485D02*
X122129524Y-79889771D01*
X122129524Y-79889771D02*
X122091428Y-80042152D01*
X122091428Y-80042152D02*
X122091428Y-80346914D01*
X122091428Y-80346914D02*
X122129524Y-80423104D01*
X122129524Y-80423104D02*
X122167619Y-80461200D01*
X122167619Y-80461200D02*
X122243809Y-80499295D01*
X122243809Y-80499295D02*
X122396190Y-80499295D01*
X122396190Y-80499295D02*
X122472381Y-80461200D01*
X122472381Y-80461200D02*
X122510476Y-80423104D01*
X122510476Y-80423104D02*
X122548571Y-80346914D01*
X122548571Y-80346914D02*
X122548571Y-80156438D01*
X122548571Y-80156438D02*
X122510476Y-80080247D01*
X122510476Y-80080247D02*
X122472381Y-80042152D01*
X122472381Y-80042152D02*
X122396190Y-80004057D01*
X122396190Y-80004057D02*
X122243809Y-80004057D01*
X122243809Y-80004057D02*
X122167619Y-80042152D01*
X122167619Y-80042152D02*
X122129524Y-80080247D01*
X122129524Y-80080247D02*
X122091428Y-80156438D01*
X122929667Y-84106104D02*
X122891571Y-84144200D01*
X122891571Y-84144200D02*
X122777286Y-84182295D01*
X122777286Y-84182295D02*
X122701095Y-84182295D01*
X122701095Y-84182295D02*
X122586809Y-84144200D01*
X122586809Y-84144200D02*
X122510619Y-84068009D01*
X122510619Y-84068009D02*
X122472524Y-83991819D01*
X122472524Y-83991819D02*
X122434428Y-83839438D01*
X122434428Y-83839438D02*
X122434428Y-83725152D01*
X122434428Y-83725152D02*
X122472524Y-83572771D01*
X122472524Y-83572771D02*
X122510619Y-83496580D01*
X122510619Y-83496580D02*
X122586809Y-83420390D01*
X122586809Y-83420390D02*
X122701095Y-83382295D01*
X122701095Y-83382295D02*
X122777286Y-83382295D01*
X122777286Y-83382295D02*
X122891571Y-83420390D01*
X122891571Y-83420390D02*
X122929667Y-83458485D01*
X123615381Y-83648961D02*
X123615381Y-84182295D01*
X123424905Y-83344200D02*
X123234428Y-83915628D01*
X123234428Y-83915628D02*
X123729667Y-83915628D01*
X120897667Y-84106104D02*
X120859571Y-84144200D01*
X120859571Y-84144200D02*
X120745286Y-84182295D01*
X120745286Y-84182295D02*
X120669095Y-84182295D01*
X120669095Y-84182295D02*
X120554809Y-84144200D01*
X120554809Y-84144200D02*
X120478619Y-84068009D01*
X120478619Y-84068009D02*
X120440524Y-83991819D01*
X120440524Y-83991819D02*
X120402428Y-83839438D01*
X120402428Y-83839438D02*
X120402428Y-83725152D01*
X120402428Y-83725152D02*
X120440524Y-83572771D01*
X120440524Y-83572771D02*
X120478619Y-83496580D01*
X120478619Y-83496580D02*
X120554809Y-83420390D01*
X120554809Y-83420390D02*
X120669095Y-83382295D01*
X120669095Y-83382295D02*
X120745286Y-83382295D01*
X120745286Y-83382295D02*
X120859571Y-83420390D01*
X120859571Y-83420390D02*
X120897667Y-83458485D01*
X121621476Y-83382295D02*
X121240524Y-83382295D01*
X121240524Y-83382295D02*
X121202428Y-83763247D01*
X121202428Y-83763247D02*
X121240524Y-83725152D01*
X121240524Y-83725152D02*
X121316714Y-83687057D01*
X121316714Y-83687057D02*
X121507190Y-83687057D01*
X121507190Y-83687057D02*
X121583381Y-83725152D01*
X121583381Y-83725152D02*
X121621476Y-83763247D01*
X121621476Y-83763247D02*
X121659571Y-83839438D01*
X121659571Y-83839438D02*
X121659571Y-84029914D01*
X121659571Y-84029914D02*
X121621476Y-84106104D01*
X121621476Y-84106104D02*
X121583381Y-84144200D01*
X121583381Y-84144200D02*
X121507190Y-84182295D01*
X121507190Y-84182295D02*
X121316714Y-84182295D01*
X121316714Y-84182295D02*
X121240524Y-84144200D01*
X121240524Y-84144200D02*
X121202428Y-84106104D01*
X121887167Y-95409104D02*
X121849071Y-95447200D01*
X121849071Y-95447200D02*
X121734786Y-95485295D01*
X121734786Y-95485295D02*
X121658595Y-95485295D01*
X121658595Y-95485295D02*
X121544309Y-95447200D01*
X121544309Y-95447200D02*
X121468119Y-95371009D01*
X121468119Y-95371009D02*
X121430024Y-95294819D01*
X121430024Y-95294819D02*
X121391928Y-95142438D01*
X121391928Y-95142438D02*
X121391928Y-95028152D01*
X121391928Y-95028152D02*
X121430024Y-94875771D01*
X121430024Y-94875771D02*
X121468119Y-94799580D01*
X121468119Y-94799580D02*
X121544309Y-94723390D01*
X121544309Y-94723390D02*
X121658595Y-94685295D01*
X121658595Y-94685295D02*
X121734786Y-94685295D01*
X121734786Y-94685295D02*
X121849071Y-94723390D01*
X121849071Y-94723390D02*
X121887167Y-94761485D01*
X122153833Y-94685295D02*
X122649071Y-94685295D01*
X122649071Y-94685295D02*
X122382405Y-94990057D01*
X122382405Y-94990057D02*
X122496690Y-94990057D01*
X122496690Y-94990057D02*
X122572881Y-95028152D01*
X122572881Y-95028152D02*
X122610976Y-95066247D01*
X122610976Y-95066247D02*
X122649071Y-95142438D01*
X122649071Y-95142438D02*
X122649071Y-95332914D01*
X122649071Y-95332914D02*
X122610976Y-95409104D01*
X122610976Y-95409104D02*
X122572881Y-95447200D01*
X122572881Y-95447200D02*
X122496690Y-95485295D01*
X122496690Y-95485295D02*
X122268119Y-95485295D01*
X122268119Y-95485295D02*
X122191928Y-95447200D01*
X122191928Y-95447200D02*
X122153833Y-95409104D01*
X121266295Y-100299475D02*
X120466295Y-100299475D01*
X120466295Y-100299475D02*
X120466295Y-100108999D01*
X120466295Y-100108999D02*
X120504390Y-99994713D01*
X120504390Y-99994713D02*
X120580580Y-99918523D01*
X120580580Y-99918523D02*
X120656771Y-99880428D01*
X120656771Y-99880428D02*
X120809152Y-99842332D01*
X120809152Y-99842332D02*
X120923438Y-99842332D01*
X120923438Y-99842332D02*
X121075819Y-99880428D01*
X121075819Y-99880428D02*
X121152009Y-99918523D01*
X121152009Y-99918523D02*
X121228200Y-99994713D01*
X121228200Y-99994713D02*
X121266295Y-100108999D01*
X121266295Y-100108999D02*
X121266295Y-100299475D01*
X120466295Y-99575666D02*
X120466295Y-99080428D01*
X120466295Y-99080428D02*
X120771057Y-99347094D01*
X120771057Y-99347094D02*
X120771057Y-99232809D01*
X120771057Y-99232809D02*
X120809152Y-99156618D01*
X120809152Y-99156618D02*
X120847247Y-99118523D01*
X120847247Y-99118523D02*
X120923438Y-99080428D01*
X120923438Y-99080428D02*
X121113914Y-99080428D01*
X121113914Y-99080428D02*
X121190104Y-99118523D01*
X121190104Y-99118523D02*
X121228200Y-99156618D01*
X121228200Y-99156618D02*
X121266295Y-99232809D01*
X121266295Y-99232809D02*
X121266295Y-99461380D01*
X121266295Y-99461380D02*
X121228200Y-99537571D01*
X121228200Y-99537571D02*
X121190104Y-99575666D01*
X123298295Y-99842332D02*
X122917342Y-100108999D01*
X123298295Y-100299475D02*
X122498295Y-100299475D01*
X122498295Y-100299475D02*
X122498295Y-99994713D01*
X122498295Y-99994713D02*
X122536390Y-99918523D01*
X122536390Y-99918523D02*
X122574485Y-99880428D01*
X122574485Y-99880428D02*
X122650676Y-99842332D01*
X122650676Y-99842332D02*
X122764961Y-99842332D01*
X122764961Y-99842332D02*
X122841152Y-99880428D01*
X122841152Y-99880428D02*
X122879247Y-99918523D01*
X122879247Y-99918523D02*
X122917342Y-99994713D01*
X122917342Y-99994713D02*
X122917342Y-100299475D01*
X122498295Y-99575666D02*
X122498295Y-99080428D01*
X122498295Y-99080428D02*
X122803057Y-99347094D01*
X122803057Y-99347094D02*
X122803057Y-99232809D01*
X122803057Y-99232809D02*
X122841152Y-99156618D01*
X122841152Y-99156618D02*
X122879247Y-99118523D01*
X122879247Y-99118523D02*
X122955438Y-99080428D01*
X122955438Y-99080428D02*
X123145914Y-99080428D01*
X123145914Y-99080428D02*
X123222104Y-99118523D01*
X123222104Y-99118523D02*
X123260200Y-99156618D01*
X123260200Y-99156618D02*
X123298295Y-99232809D01*
X123298295Y-99232809D02*
X123298295Y-99461380D01*
X123298295Y-99461380D02*
X123260200Y-99537571D01*
X123260200Y-99537571D02*
X123222104Y-99575666D01*
X125330295Y-99842332D02*
X124949342Y-100108999D01*
X125330295Y-100299475D02*
X124530295Y-100299475D01*
X124530295Y-100299475D02*
X124530295Y-99994713D01*
X124530295Y-99994713D02*
X124568390Y-99918523D01*
X124568390Y-99918523D02*
X124606485Y-99880428D01*
X124606485Y-99880428D02*
X124682676Y-99842332D01*
X124682676Y-99842332D02*
X124796961Y-99842332D01*
X124796961Y-99842332D02*
X124873152Y-99880428D01*
X124873152Y-99880428D02*
X124911247Y-99918523D01*
X124911247Y-99918523D02*
X124949342Y-99994713D01*
X124949342Y-99994713D02*
X124949342Y-100299475D01*
X124606485Y-99537571D02*
X124568390Y-99499475D01*
X124568390Y-99499475D02*
X124530295Y-99423285D01*
X124530295Y-99423285D02*
X124530295Y-99232809D01*
X124530295Y-99232809D02*
X124568390Y-99156618D01*
X124568390Y-99156618D02*
X124606485Y-99118523D01*
X124606485Y-99118523D02*
X124682676Y-99080428D01*
X124682676Y-99080428D02*
X124758866Y-99080428D01*
X124758866Y-99080428D02*
X124873152Y-99118523D01*
X124873152Y-99118523D02*
X125330295Y-99575666D01*
X125330295Y-99575666D02*
X125330295Y-99080428D01*
X127286104Y-99842332D02*
X127324200Y-99880428D01*
X127324200Y-99880428D02*
X127362295Y-99994713D01*
X127362295Y-99994713D02*
X127362295Y-100070904D01*
X127362295Y-100070904D02*
X127324200Y-100185190D01*
X127324200Y-100185190D02*
X127248009Y-100261380D01*
X127248009Y-100261380D02*
X127171819Y-100299475D01*
X127171819Y-100299475D02*
X127019438Y-100337571D01*
X127019438Y-100337571D02*
X126905152Y-100337571D01*
X126905152Y-100337571D02*
X126752771Y-100299475D01*
X126752771Y-100299475D02*
X126676580Y-100261380D01*
X126676580Y-100261380D02*
X126600390Y-100185190D01*
X126600390Y-100185190D02*
X126562295Y-100070904D01*
X126562295Y-100070904D02*
X126562295Y-99994713D01*
X126562295Y-99994713D02*
X126600390Y-99880428D01*
X126600390Y-99880428D02*
X126638485Y-99842332D01*
X127362295Y-99080428D02*
X127362295Y-99537571D01*
X127362295Y-99308999D02*
X126562295Y-99308999D01*
X126562295Y-99308999D02*
X126676580Y-99385190D01*
X126676580Y-99385190D02*
X126752771Y-99461380D01*
X126752771Y-99461380D02*
X126790866Y-99537571D01*
X133458295Y-100299475D02*
X132658295Y-100299475D01*
X132658295Y-100299475D02*
X132658295Y-100108999D01*
X132658295Y-100108999D02*
X132696390Y-99994713D01*
X132696390Y-99994713D02*
X132772580Y-99918523D01*
X132772580Y-99918523D02*
X132848771Y-99880428D01*
X132848771Y-99880428D02*
X133001152Y-99842332D01*
X133001152Y-99842332D02*
X133115438Y-99842332D01*
X133115438Y-99842332D02*
X133267819Y-99880428D01*
X133267819Y-99880428D02*
X133344009Y-99918523D01*
X133344009Y-99918523D02*
X133420200Y-99994713D01*
X133420200Y-99994713D02*
X133458295Y-100108999D01*
X133458295Y-100108999D02*
X133458295Y-100299475D01*
X133458295Y-99080428D02*
X133458295Y-99537571D01*
X133458295Y-99308999D02*
X132658295Y-99308999D01*
X132658295Y-99308999D02*
X132772580Y-99385190D01*
X132772580Y-99385190D02*
X132848771Y-99461380D01*
X132848771Y-99461380D02*
X132886866Y-99537571D01*
X131426295Y-99842332D02*
X131045342Y-100108999D01*
X131426295Y-100299475D02*
X130626295Y-100299475D01*
X130626295Y-100299475D02*
X130626295Y-99994713D01*
X130626295Y-99994713D02*
X130664390Y-99918523D01*
X130664390Y-99918523D02*
X130702485Y-99880428D01*
X130702485Y-99880428D02*
X130778676Y-99842332D01*
X130778676Y-99842332D02*
X130892961Y-99842332D01*
X130892961Y-99842332D02*
X130969152Y-99880428D01*
X130969152Y-99880428D02*
X131007247Y-99918523D01*
X131007247Y-99918523D02*
X131045342Y-99994713D01*
X131045342Y-99994713D02*
X131045342Y-100299475D01*
X131426295Y-99080428D02*
X131426295Y-99537571D01*
X131426295Y-99308999D02*
X130626295Y-99308999D01*
X130626295Y-99308999D02*
X130740580Y-99385190D01*
X130740580Y-99385190D02*
X130816771Y-99461380D01*
X130816771Y-99461380D02*
X130854866Y-99537571D01*
X129318104Y-99842332D02*
X129356200Y-99880428D01*
X129356200Y-99880428D02*
X129394295Y-99994713D01*
X129394295Y-99994713D02*
X129394295Y-100070904D01*
X129394295Y-100070904D02*
X129356200Y-100185190D01*
X129356200Y-100185190D02*
X129280009Y-100261380D01*
X129280009Y-100261380D02*
X129203819Y-100299475D01*
X129203819Y-100299475D02*
X129051438Y-100337571D01*
X129051438Y-100337571D02*
X128937152Y-100337571D01*
X128937152Y-100337571D02*
X128784771Y-100299475D01*
X128784771Y-100299475D02*
X128708580Y-100261380D01*
X128708580Y-100261380D02*
X128632390Y-100185190D01*
X128632390Y-100185190D02*
X128594295Y-100070904D01*
X128594295Y-100070904D02*
X128594295Y-99994713D01*
X128594295Y-99994713D02*
X128632390Y-99880428D01*
X128632390Y-99880428D02*
X128670485Y-99842332D01*
X128670485Y-99537571D02*
X128632390Y-99499475D01*
X128632390Y-99499475D02*
X128594295Y-99423285D01*
X128594295Y-99423285D02*
X128594295Y-99232809D01*
X128594295Y-99232809D02*
X128632390Y-99156618D01*
X128632390Y-99156618D02*
X128670485Y-99118523D01*
X128670485Y-99118523D02*
X128746676Y-99080428D01*
X128746676Y-99080428D02*
X128822866Y-99080428D01*
X128822866Y-99080428D02*
X128937152Y-99118523D01*
X128937152Y-99118523D02*
X129394295Y-99575666D01*
X129394295Y-99575666D02*
X129394295Y-99080428D01*
X124441342Y-88772951D02*
X124822295Y-88772951D01*
X124022295Y-89039618D02*
X124441342Y-88772951D01*
X124441342Y-88772951D02*
X124022295Y-88506285D01*
X124822295Y-87820571D02*
X124822295Y-88277714D01*
X124822295Y-88049142D02*
X124022295Y-88049142D01*
X124022295Y-88049142D02*
X124136580Y-88125333D01*
X124136580Y-88125333D02*
X124212771Y-88201523D01*
X124212771Y-88201523D02*
X124250866Y-88277714D01*
X134264476Y-102686295D02*
X134264476Y-103333914D01*
X134264476Y-103333914D02*
X134302571Y-103410104D01*
X134302571Y-103410104D02*
X134340666Y-103448200D01*
X134340666Y-103448200D02*
X134416857Y-103486295D01*
X134416857Y-103486295D02*
X134569238Y-103486295D01*
X134569238Y-103486295D02*
X134645428Y-103448200D01*
X134645428Y-103448200D02*
X134683523Y-103410104D01*
X134683523Y-103410104D02*
X134721619Y-103333914D01*
X134721619Y-103333914D02*
X134721619Y-102686295D01*
X135445428Y-102952961D02*
X135445428Y-103486295D01*
X135254952Y-102648200D02*
X135064475Y-103219628D01*
X135064475Y-103219628D02*
X135559714Y-103219628D01*
X128803476Y-89609295D02*
X128803476Y-90256914D01*
X128803476Y-90256914D02*
X128841571Y-90333104D01*
X128841571Y-90333104D02*
X128879666Y-90371200D01*
X128879666Y-90371200D02*
X128955857Y-90409295D01*
X128955857Y-90409295D02*
X129108238Y-90409295D01*
X129108238Y-90409295D02*
X129184428Y-90371200D01*
X129184428Y-90371200D02*
X129222523Y-90333104D01*
X129222523Y-90333104D02*
X129260619Y-90256914D01*
X129260619Y-90256914D02*
X129260619Y-89609295D01*
X130060618Y-90409295D02*
X129603475Y-90409295D01*
X129832047Y-90409295D02*
X129832047Y-89609295D01*
X129832047Y-89609295D02*
X129755856Y-89723580D01*
X129755856Y-89723580D02*
X129679666Y-89799771D01*
X129679666Y-89799771D02*
X129603475Y-89837866D01*
X102133476Y-102686295D02*
X102133476Y-103333914D01*
X102133476Y-103333914D02*
X102171571Y-103410104D01*
X102171571Y-103410104D02*
X102209666Y-103448200D01*
X102209666Y-103448200D02*
X102285857Y-103486295D01*
X102285857Y-103486295D02*
X102438238Y-103486295D01*
X102438238Y-103486295D02*
X102514428Y-103448200D01*
X102514428Y-103448200D02*
X102552523Y-103410104D01*
X102552523Y-103410104D02*
X102590619Y-103333914D01*
X102590619Y-103333914D02*
X102590619Y-102686295D01*
X102895380Y-102686295D02*
X103390618Y-102686295D01*
X103390618Y-102686295D02*
X103123952Y-102991057D01*
X103123952Y-102991057D02*
X103238237Y-102991057D01*
X103238237Y-102991057D02*
X103314428Y-103029152D01*
X103314428Y-103029152D02*
X103352523Y-103067247D01*
X103352523Y-103067247D02*
X103390618Y-103143438D01*
X103390618Y-103143438D02*
X103390618Y-103333914D01*
X103390618Y-103333914D02*
X103352523Y-103410104D01*
X103352523Y-103410104D02*
X103314428Y-103448200D01*
X103314428Y-103448200D02*
X103238237Y-103486295D01*
X103238237Y-103486295D02*
X103009666Y-103486295D01*
X103009666Y-103486295D02*
X102933475Y-103448200D01*
X102933475Y-103448200D02*
X102895380Y-103410104D01*
X121018333Y-76541295D02*
X121018333Y-77112723D01*
X121018333Y-77112723D02*
X120980238Y-77227009D01*
X120980238Y-77227009D02*
X120904047Y-77303200D01*
X120904047Y-77303200D02*
X120789762Y-77341295D01*
X120789762Y-77341295D02*
X120713571Y-77341295D01*
X121818333Y-77341295D02*
X121361190Y-77341295D01*
X121589762Y-77341295D02*
X121589762Y-76541295D01*
X121589762Y-76541295D02*
X121513571Y-76655580D01*
X121513571Y-76655580D02*
X121437381Y-76731771D01*
X121437381Y-76731771D02*
X121361190Y-76769866D01*
X153276333Y-94304295D02*
X153276333Y-94875723D01*
X153276333Y-94875723D02*
X153238238Y-94990009D01*
X153238238Y-94990009D02*
X153162047Y-95066200D01*
X153162047Y-95066200D02*
X153047762Y-95104295D01*
X153047762Y-95104295D02*
X152971571Y-95104295D01*
X154000143Y-94570961D02*
X154000143Y-95104295D01*
X153809667Y-94266200D02*
X153619190Y-94837628D01*
X153619190Y-94837628D02*
X154114429Y-94837628D01*
X129692476Y-97225295D02*
X129692476Y-97872914D01*
X129692476Y-97872914D02*
X129730571Y-97949104D01*
X129730571Y-97949104D02*
X129768666Y-97987200D01*
X129768666Y-97987200D02*
X129844857Y-98025295D01*
X129844857Y-98025295D02*
X129997238Y-98025295D01*
X129997238Y-98025295D02*
X130073428Y-97987200D01*
X130073428Y-97987200D02*
X130111523Y-97949104D01*
X130111523Y-97949104D02*
X130149619Y-97872914D01*
X130149619Y-97872914D02*
X130149619Y-97225295D01*
X130492475Y-97301485D02*
X130530571Y-97263390D01*
X130530571Y-97263390D02*
X130606761Y-97225295D01*
X130606761Y-97225295D02*
X130797237Y-97225295D01*
X130797237Y-97225295D02*
X130873428Y-97263390D01*
X130873428Y-97263390D02*
X130911523Y-97301485D01*
X130911523Y-97301485D02*
X130949618Y-97377676D01*
X130949618Y-97377676D02*
X130949618Y-97453866D01*
X130949618Y-97453866D02*
X130911523Y-97568152D01*
X130911523Y-97568152D02*
X130454380Y-98025295D01*
X130454380Y-98025295D02*
X130949618Y-98025295D01*
X100317333Y-94431295D02*
X100317333Y-95002723D01*
X100317333Y-95002723D02*
X100279238Y-95117009D01*
X100279238Y-95117009D02*
X100203047Y-95193200D01*
X100203047Y-95193200D02*
X100088762Y-95231295D01*
X100088762Y-95231295D02*
X100012571Y-95231295D01*
X101079238Y-94431295D02*
X100698286Y-94431295D01*
X100698286Y-94431295D02*
X100660190Y-94812247D01*
X100660190Y-94812247D02*
X100698286Y-94774152D01*
X100698286Y-94774152D02*
X100774476Y-94736057D01*
X100774476Y-94736057D02*
X100964952Y-94736057D01*
X100964952Y-94736057D02*
X101041143Y-94774152D01*
X101041143Y-94774152D02*
X101079238Y-94812247D01*
X101079238Y-94812247D02*
X101117333Y-94888438D01*
X101117333Y-94888438D02*
X101117333Y-95078914D01*
X101117333Y-95078914D02*
X101079238Y-95155104D01*
X101079238Y-95155104D02*
X101041143Y-95193200D01*
X101041143Y-95193200D02*
X100964952Y-95231295D01*
X100964952Y-95231295D02*
X100774476Y-95231295D01*
X100774476Y-95231295D02*
X100698286Y-95193200D01*
X100698286Y-95193200D02*
X100660190Y-95155104D01*
D11*
X120528000Y-96039000D02*
X120528000Y-97509000D01*
X120528000Y-97509000D02*
X122988000Y-97509000D01*
X122988000Y-96039000D02*
X120528000Y-96039000D01*
X122166767Y-79504000D02*
X121874233Y-79504000D01*
X122166767Y-78484000D02*
X121874233Y-78484000D01*
X122553000Y-82034767D02*
X122553000Y-81742233D01*
X123573000Y-82034767D02*
X123573000Y-81742233D01*
X120521000Y-82034767D02*
X120521000Y-81742233D01*
X121541000Y-82034767D02*
X121541000Y-81742233D01*
X122166767Y-94363000D02*
X121874233Y-94363000D01*
X122166767Y-93343000D02*
X121874233Y-93343000D01*
X120169000Y-103641000D02*
X121639000Y-103641000D01*
X121639000Y-103641000D02*
X121639000Y-101181000D01*
X120169000Y-101181000D02*
X120169000Y-103641000D01*
X123458500Y-101763776D02*
X123458500Y-102273224D01*
X122413500Y-101763776D02*
X122413500Y-102273224D01*
X124445500Y-102273224D02*
X124445500Y-101763776D01*
X125490500Y-102273224D02*
X125490500Y-101763776D01*
X127510000Y-101875233D02*
X127510000Y-102167767D01*
X126490000Y-101875233D02*
X126490000Y-102167767D01*
X132361000Y-103641000D02*
X133831000Y-103641000D01*
X133831000Y-103641000D02*
X133831000Y-101181000D01*
X132361000Y-101181000D02*
X132361000Y-103641000D01*
X131586500Y-101763776D02*
X131586500Y-102273224D01*
X130541500Y-101763776D02*
X130541500Y-102273224D01*
X129542000Y-101875233D02*
X129542000Y-102167767D01*
X128522000Y-101875233D02*
X128522000Y-102167767D01*
X120247000Y-84407000D02*
X123847000Y-84407000D01*
X120247000Y-84407000D02*
X120247000Y-92607000D01*
X120247000Y-92607000D02*
X123847000Y-92607000D01*
X123847000Y-92607000D02*
X123847000Y-84407000D01*
D12*
X151919001Y-75400000D02*
X151919000Y-102400001D01*
X134118999Y-102400000D01*
X134119000Y-75399999D01*
X151919001Y-75400000D01*
D11*
X127028000Y-78687000D02*
X127028000Y-78967000D01*
X127028000Y-89207000D02*
X127028000Y-88927000D01*
X129413000Y-78687000D02*
X127028000Y-78687000D01*
X129413000Y-78687000D02*
X131798000Y-78687000D01*
X129413000Y-89207000D02*
X127028000Y-89207000D01*
X129413000Y-89207000D02*
X131798000Y-89207000D01*
X131798000Y-78687000D02*
X131798000Y-78967000D01*
X131798000Y-89207000D02*
X131798000Y-88927000D01*
X132815500Y-89257000D02*
X132335500Y-89257000D01*
X132575500Y-88927000D01*
X132815500Y-89257000D01*
G36*
X132815500Y-89257000D02*
G01*
X132335500Y-89257000D01*
X132575500Y-88927000D01*
X132815500Y-89257000D01*
G37*
D12*
X119881001Y-75400001D02*
X119881000Y-102400000D01*
X102080999Y-102399999D01*
X102081000Y-75400000D01*
X119881001Y-75400001D01*
D11*
X119690000Y-62127000D02*
X119690000Y-62647000D01*
X119690000Y-62647000D02*
X120340000Y-62647000D01*
X120340000Y-70757000D02*
X120340000Y-62647000D01*
X120340000Y-77607000D02*
X120340000Y-74277000D01*
X131400000Y-77827000D02*
X129600000Y-77827000D01*
X133660000Y-62647000D02*
X133660000Y-70757000D01*
X133660000Y-62647000D02*
X134310000Y-62647000D01*
X133660000Y-77607000D02*
X120340000Y-77607000D01*
X133660000Y-77607000D02*
X133660000Y-74277000D01*
X134310000Y-62127000D02*
X119690000Y-62127000D01*
X134310000Y-62647000D02*
X134310000Y-62127000D01*
X168014000Y-96210000D02*
X168014000Y-81590000D01*
X168014000Y-81590000D02*
X167494000Y-81590000D01*
X167494000Y-96210000D02*
X168014000Y-96210000D01*
X167494000Y-95560000D02*
X167494000Y-96210000D01*
X167494000Y-95560000D02*
X159384000Y-95560000D01*
X167494000Y-81590000D02*
X167494000Y-82240000D01*
X159384000Y-82240000D02*
X167494000Y-82240000D01*
X152534000Y-95560000D02*
X155864000Y-95560000D01*
X152534000Y-95560000D02*
X152534000Y-82240000D01*
X152534000Y-82240000D02*
X155864000Y-82240000D01*
X152314000Y-93300000D02*
X152314000Y-91500000D01*
D13*
X131114800Y-96799400D02*
X131114800Y-92837000D01*
X131114800Y-92837000D02*
X124155200Y-92837000D01*
X124155200Y-96799400D02*
X131114800Y-96799400D01*
X124155200Y-92837000D02*
X124155200Y-96799400D01*
D11*
X101813000Y-84627000D02*
X101813000Y-86427000D01*
X101593000Y-95687000D02*
X98263000Y-95687000D01*
X101593000Y-82367000D02*
X101593000Y-95687000D01*
X101593000Y-82367000D02*
X98263000Y-82367000D01*
X94743000Y-95687000D02*
X86633000Y-95687000D01*
X86633000Y-96337000D02*
X86633000Y-95687000D01*
X86633000Y-82367000D02*
X94743000Y-82367000D01*
X86633000Y-82367000D02*
X86633000Y-81717000D01*
X86633000Y-81717000D02*
X86113000Y-81717000D01*
X86113000Y-96337000D02*
X86633000Y-96337000D01*
X86113000Y-81717000D02*
X86113000Y-96337000D01*
%LPC*%
D14*
X121313000Y-96774000D03*
X123063000Y-96774000D03*
D15*
X122883000Y-78994000D03*
X121158000Y-78994000D03*
D16*
X123063000Y-82751000D03*
X123063000Y-81026000D03*
X121031000Y-82751000D03*
X121031000Y-81026000D03*
D15*
X122883000Y-93853000D03*
X121158000Y-93853000D03*
D17*
X120904000Y-102856000D03*
X120904000Y-101106000D03*
D18*
X122936000Y-101106000D03*
X122936000Y-102931000D03*
D19*
X124968000Y-102931000D03*
X124968000Y-101106000D03*
D20*
X127000000Y-101159000D03*
X127000000Y-102884000D03*
D17*
X133096000Y-102856000D03*
X133096000Y-101106000D03*
D18*
X131064000Y-101106000D03*
X131064000Y-102931000D03*
D20*
X129032000Y-101159000D03*
X129032000Y-102884000D03*
D21*
X122047000Y-90932000D03*
X122047000Y-86082000D03*
D22*
X105758000Y-90899000D03*
X111158000Y-90899000D03*
X105758000Y-96299000D03*
X111158000Y-96299000D03*
X137762000Y-90899000D03*
X143162000Y-90899000D03*
X137762000Y-96299000D03*
X143162000Y-96299000D03*
X98000000Y-100400000D03*
X156000000Y-77400000D03*
D23*
X148669000Y-75399999D03*
X147169000Y-75400000D03*
X145669000Y-75400000D03*
X140369000Y-75400000D03*
X138869000Y-75399999D03*
X137369001Y-75400000D03*
X138018999Y-102400000D03*
X140018999Y-102400000D03*
X142019000Y-102400000D03*
X144019000Y-102400000D03*
X146019000Y-102400001D03*
X148019000Y-102400000D03*
D22*
X98000000Y-77400000D03*
D24*
X132663000Y-88392000D03*
X132663000Y-87122000D03*
X132663000Y-85852000D03*
X132663000Y-84582000D03*
X132663000Y-83312000D03*
X132663000Y-82042000D03*
X132663000Y-80772000D03*
X132663000Y-79502000D03*
X126163000Y-79502000D03*
X126163000Y-80772000D03*
X126163000Y-82042000D03*
X126163000Y-83312000D03*
X126163000Y-84582000D03*
X126163000Y-85852000D03*
X126163000Y-87122000D03*
X126163000Y-88392000D03*
D23*
X116631000Y-75400000D03*
X115131001Y-75400001D03*
X113631000Y-75400000D03*
X108331000Y-75399999D03*
X106830999Y-75400000D03*
X105331000Y-75400000D03*
X105981001Y-102400000D03*
X107981000Y-102400000D03*
X109981000Y-102400000D03*
X111981001Y-102399999D03*
X113981000Y-102400000D03*
X115980999Y-102400001D03*
D22*
X156000000Y-100400000D03*
D25*
X130500000Y-75227000D03*
D26*
X128000000Y-75227000D03*
X126000000Y-75227000D03*
X123500000Y-75227000D03*
D27*
X133570000Y-72517000D03*
X120430000Y-72517000D03*
X157624000Y-82330000D03*
X157624000Y-95470000D03*
D26*
X154914000Y-85400000D03*
X154914000Y-87900000D03*
X154914000Y-89900000D03*
D28*
X154914000Y-92400000D03*
D29*
X127635000Y-98044000D03*
D30*
X125335000Y-91592400D03*
X127635000Y-91592400D03*
X129935000Y-91592400D03*
D27*
X96503000Y-95597000D03*
X96503000Y-82457000D03*
D26*
X99213000Y-92527000D03*
X99213000Y-90027000D03*
X99213000Y-88027000D03*
D28*
X99213000Y-85527000D03*
%LPD*%
M02*
