%TF.GenerationSoftware,KiCad,Pcbnew,8.0.5*%
%TF.CreationDate,2024-09-26T10:19:20+02:00*%
%TF.ProjectId,BL-R8812AF1 2x mount,424c2d52-3838-4313-9241-463120327820,rev?*%
%TF.SameCoordinates,Original*%
%TF.FileFunction,Drillmap*%
%TF.FilePolarity,Positive*%
%FSLAX45Y45*%
G04 Gerber Fmt 4.5, Leading zero omitted, Abs format (unit mm)*
G04 Created by KiCad (PCBNEW 8.0.5) date 2024-09-26 10:19:20*
%MOMM*%
%LPD*%
G01*
G04 APERTURE LIST*
%ADD10C,0.050000*%
%ADD11C,0.200000*%
%ADD12C,0.100000*%
%ADD13C,0.230000*%
%ADD14C,0.300000*%
G04 APERTURE END LIST*
D10*
X13450000Y-7048500D02*
X13716000Y-7390000D01*
X11950000Y-7048500D02*
X11684000Y-7391400D01*
X9950000Y-7390000D02*
X11684000Y-7391400D01*
X11950000Y-7048500D02*
X13450000Y-7048500D01*
X15450000Y-7390000D02*
X15950000Y-7890000D01*
X15450000Y-10390000D02*
X15950000Y-9890000D01*
X9450000Y-9890000D02*
X9950000Y-10390000D01*
X9450000Y-7890000D02*
X9950000Y-7390000D01*
X9950000Y-10390000D02*
X15450000Y-10390000D01*
X9450000Y-7890000D02*
X9450000Y-9890000D01*
X15950000Y-7890000D02*
X15950000Y-9890000D01*
X13716000Y-7390000D02*
X15450000Y-7390000D01*
D11*
D12*
X10678400Y-10018000D02*
X10708400Y-10048000D01*
X10708400Y-10018000D02*
X10678400Y-10048000D01*
X11275300Y-9814800D02*
X11305300Y-9844800D01*
X11305300Y-9814800D02*
X11275300Y-9844800D01*
X11300700Y-9916400D02*
X11330700Y-9946400D01*
X11330700Y-9916400D02*
X11300700Y-9946400D01*
X11757900Y-7376400D02*
X11787900Y-7406400D01*
X11787900Y-7376400D02*
X11757900Y-7406400D01*
X11821400Y-7376400D02*
X11851400Y-7406400D01*
X11851400Y-7376400D02*
X11821400Y-7406400D01*
X11834100Y-10170400D02*
X11864100Y-10200400D01*
X11864100Y-10170400D02*
X11834100Y-10200400D01*
X11846800Y-10018000D02*
X11876800Y-10048000D01*
X11876800Y-10018000D02*
X11846800Y-10048000D01*
X11884900Y-7376400D02*
X11914900Y-7406400D01*
X11914900Y-7376400D02*
X11884900Y-7406400D01*
X12177000Y-7376400D02*
X12207000Y-7406400D01*
X12207000Y-7376400D02*
X12177000Y-7406400D01*
X12240500Y-7376400D02*
X12270500Y-7406400D01*
X12270500Y-7376400D02*
X12240500Y-7406400D01*
X12304000Y-7376400D02*
X12334000Y-7406400D01*
X12334000Y-7376400D02*
X12304000Y-7406400D01*
X12310350Y-7712950D02*
X12340350Y-7742950D01*
X12340350Y-7712950D02*
X12310350Y-7742950D01*
X12367500Y-7376400D02*
X12397500Y-7406400D01*
X12397500Y-7376400D02*
X12367500Y-7406400D01*
X12431000Y-7376400D02*
X12461000Y-7406400D01*
X12461000Y-7376400D02*
X12431000Y-7406400D01*
X12494500Y-7376400D02*
X12524500Y-7406400D01*
X12524500Y-7376400D02*
X12494500Y-7406400D01*
X12532600Y-9624300D02*
X12562600Y-9654300D01*
X12562600Y-9624300D02*
X12532600Y-9654300D01*
X12558000Y-7376400D02*
X12588000Y-7406400D01*
X12588000Y-7376400D02*
X12558000Y-7406400D01*
X12621500Y-7376400D02*
X12651500Y-7406400D01*
X12651500Y-7376400D02*
X12621500Y-7406400D01*
X12685000Y-7376400D02*
X12715000Y-7406400D01*
X12715000Y-7376400D02*
X12685000Y-7406400D01*
X12748500Y-7376400D02*
X12778500Y-7406400D01*
X12778500Y-7376400D02*
X12748500Y-7406400D01*
X12773900Y-8341600D02*
X12803900Y-8371600D01*
X12803900Y-8341600D02*
X12773900Y-8371600D01*
X12812000Y-7376400D02*
X12842000Y-7406400D01*
X12842000Y-7376400D02*
X12812000Y-7406400D01*
X12850100Y-7973300D02*
X12880100Y-8003300D01*
X12880100Y-7973300D02*
X12850100Y-8003300D01*
X12850100Y-8595600D02*
X12880100Y-8625600D01*
X12880100Y-8595600D02*
X12850100Y-8625600D01*
X12875500Y-7376400D02*
X12905500Y-7406400D01*
X12905500Y-7376400D02*
X12875500Y-7406400D01*
X12939000Y-7376400D02*
X12969000Y-7406400D01*
X12969000Y-7376400D02*
X12939000Y-7406400D01*
X13002500Y-7376400D02*
X13032500Y-7406400D01*
X13032500Y-7376400D02*
X13002500Y-7406400D01*
X13002500Y-8494000D02*
X13032500Y-8524000D01*
X13032500Y-8494000D02*
X13002500Y-8524000D01*
X13066000Y-7376400D02*
X13096000Y-7406400D01*
X13096000Y-7376400D02*
X13066000Y-7406400D01*
X13116800Y-8697200D02*
X13146800Y-8727200D01*
X13146800Y-8697200D02*
X13116800Y-8727200D01*
X13129500Y-7376400D02*
X13159500Y-7406400D01*
X13159500Y-7376400D02*
X13129500Y-7406400D01*
X13129500Y-8824200D02*
X13159500Y-8854200D01*
X13159500Y-8824200D02*
X13129500Y-8854200D01*
X13193000Y-7376400D02*
X13223000Y-7406400D01*
X13223000Y-7376400D02*
X13193000Y-7406400D01*
X13193000Y-9967200D02*
X13223000Y-9997200D01*
X13223000Y-9967200D02*
X13193000Y-9997200D01*
X13396200Y-8316200D02*
X13426200Y-8346200D01*
X13426200Y-8316200D02*
X13396200Y-8346200D01*
X13485100Y-7376400D02*
X13515100Y-7406400D01*
X13515100Y-7376400D02*
X13485100Y-7406400D01*
X13548600Y-7376400D02*
X13578600Y-7406400D01*
X13578600Y-7376400D02*
X13548600Y-7406400D01*
X13612100Y-7376400D02*
X13642100Y-7406400D01*
X13642100Y-7376400D02*
X13612100Y-7406400D01*
X13650200Y-8455900D02*
X13680200Y-8485900D01*
X13680200Y-8455900D02*
X13650200Y-8485900D01*
X14348700Y-10043400D02*
X14378700Y-10073400D01*
X14378700Y-10043400D02*
X14348700Y-10073400D01*
X14475700Y-10081500D02*
X14505700Y-10111500D01*
X14505700Y-10081500D02*
X14475700Y-10111500D01*
X9968800Y-8552700D02*
G75*
G02*
X9873800Y-8552700I-47500J0D01*
G01*
X9873800Y-8552700D02*
G75*
G02*
X9968800Y-8552700I47500J0D01*
G01*
X9968800Y-8802700D02*
G75*
G02*
X9873800Y-8802700I-47500J0D01*
G01*
X9873800Y-8802700D02*
G75*
G02*
X9968800Y-8802700I47500J0D01*
G01*
X9968800Y-9002700D02*
G75*
G02*
X9873800Y-9002700I-47500J0D01*
G01*
X9873800Y-9002700D02*
G75*
G02*
X9968800Y-9002700I47500J0D01*
G01*
X9968800Y-9252700D02*
G75*
G02*
X9873800Y-9252700I-47500J0D01*
G01*
X9873800Y-9252700D02*
G75*
G02*
X9968800Y-9252700I47500J0D01*
G01*
X12397500Y-7522700D02*
G75*
G02*
X12302500Y-7522700I-47500J0D01*
G01*
X12302500Y-7522700D02*
G75*
G02*
X12397500Y-7522700I47500J0D01*
G01*
X12647500Y-7522700D02*
G75*
G02*
X12552500Y-7522700I-47500J0D01*
G01*
X12552500Y-7522700D02*
G75*
G02*
X12647500Y-7522700I47500J0D01*
G01*
X12847500Y-7522700D02*
G75*
G02*
X12752500Y-7522700I-47500J0D01*
G01*
X12752500Y-7522700D02*
G75*
G02*
X12847500Y-7522700I47500J0D01*
G01*
X13097500Y-7522700D02*
G75*
G02*
X13002500Y-7522700I-47500J0D01*
G01*
X13002500Y-7522700D02*
G75*
G02*
X13097500Y-7522700I47500J0D01*
G01*
X15538900Y-8540000D02*
G75*
G02*
X15443900Y-8540000I-47500J0D01*
G01*
X15443900Y-8540000D02*
G75*
G02*
X15538900Y-8540000I47500J0D01*
G01*
X15538900Y-8790000D02*
G75*
G02*
X15443900Y-8790000I-47500J0D01*
G01*
X15443900Y-8790000D02*
G75*
G02*
X15538900Y-8790000I47500J0D01*
G01*
X15538900Y-8990000D02*
G75*
G02*
X15443900Y-8990000I-47500J0D01*
G01*
X15443900Y-8990000D02*
G75*
G02*
X15538900Y-8990000I47500J0D01*
G01*
X15538900Y-9240000D02*
G75*
G02*
X15443900Y-9240000I-47500J0D01*
G01*
X15443900Y-9240000D02*
G75*
G02*
X15538900Y-9240000I47500J0D01*
G01*
D13*
X9650300Y-8130700D02*
X9650300Y-8360700D01*
X9535300Y-8245700D02*
X9765300Y-8245700D01*
X9650300Y-9444700D02*
X9650300Y-9674700D01*
X9535300Y-9559700D02*
X9765300Y-9559700D01*
X12043000Y-7136700D02*
X12043000Y-7366700D01*
X11928000Y-7251700D02*
X12158000Y-7251700D01*
X13357000Y-7136700D02*
X13357000Y-7366700D01*
X13242000Y-7251700D02*
X13472000Y-7251700D01*
X15762400Y-8118000D02*
X15762400Y-8348000D01*
X15647400Y-8233000D02*
X15877400Y-8233000D01*
X15762400Y-9432000D02*
X15762400Y-9662000D01*
X15647400Y-9547000D02*
X15877400Y-9547000D01*
D14*
X10681867Y-9195967D02*
X10681867Y-8983833D01*
X10469733Y-8983833D01*
X10469733Y-9195967D01*
X10681867Y-9195967D01*
X10681867Y-9735967D02*
X10681867Y-9523833D01*
X10469733Y-9523833D01*
X10469733Y-9735967D01*
X10681867Y-9735967D01*
X11221867Y-9195967D02*
X11221867Y-8983833D01*
X11009733Y-8983833D01*
X11009733Y-9195967D01*
X11221867Y-9195967D01*
X11221867Y-9735967D02*
X11221867Y-9523833D01*
X11009733Y-9523833D01*
X11009733Y-9735967D01*
X11221867Y-9735967D01*
X13882267Y-9195967D02*
X13882267Y-8983833D01*
X13670133Y-8983833D01*
X13670133Y-9195967D01*
X13882267Y-9195967D01*
X13882267Y-9735967D02*
X13882267Y-9523833D01*
X13670133Y-9523833D01*
X13670133Y-9735967D01*
X13882267Y-9735967D01*
X14422267Y-9195967D02*
X14422267Y-8983833D01*
X14210133Y-8983833D01*
X14210133Y-9195967D01*
X14422267Y-9195967D01*
X14422267Y-9735967D02*
X14422267Y-9523833D01*
X14210133Y-9523833D01*
X14210133Y-9735967D01*
X14422267Y-9735967D01*
D11*
X9708277Y-10703984D02*
X9708277Y-10503984D01*
X9708277Y-10503984D02*
X9755896Y-10503984D01*
X9755896Y-10503984D02*
X9784467Y-10513508D01*
X9784467Y-10513508D02*
X9803515Y-10532555D01*
X9803515Y-10532555D02*
X9813039Y-10551603D01*
X9813039Y-10551603D02*
X9822563Y-10589698D01*
X9822563Y-10589698D02*
X9822563Y-10618270D01*
X9822563Y-10618270D02*
X9813039Y-10656365D01*
X9813039Y-10656365D02*
X9803515Y-10675412D01*
X9803515Y-10675412D02*
X9784467Y-10694460D01*
X9784467Y-10694460D02*
X9755896Y-10703984D01*
X9755896Y-10703984D02*
X9708277Y-10703984D01*
X9908277Y-10703984D02*
X9908277Y-10570650D01*
X9908277Y-10608746D02*
X9917801Y-10589698D01*
X9917801Y-10589698D02*
X9927324Y-10580174D01*
X9927324Y-10580174D02*
X9946372Y-10570650D01*
X9946372Y-10570650D02*
X9965420Y-10570650D01*
X10032086Y-10703984D02*
X10032086Y-10570650D01*
X10032086Y-10503984D02*
X10022563Y-10513508D01*
X10022563Y-10513508D02*
X10032086Y-10523031D01*
X10032086Y-10523031D02*
X10041610Y-10513508D01*
X10041610Y-10513508D02*
X10032086Y-10503984D01*
X10032086Y-10503984D02*
X10032086Y-10523031D01*
X10155896Y-10703984D02*
X10136848Y-10694460D01*
X10136848Y-10694460D02*
X10127324Y-10675412D01*
X10127324Y-10675412D02*
X10127324Y-10503984D01*
X10260658Y-10703984D02*
X10241610Y-10694460D01*
X10241610Y-10694460D02*
X10232086Y-10675412D01*
X10232086Y-10675412D02*
X10232086Y-10503984D01*
X10489229Y-10703984D02*
X10489229Y-10503984D01*
X10489229Y-10503984D02*
X10555896Y-10646841D01*
X10555896Y-10646841D02*
X10622563Y-10503984D01*
X10622563Y-10503984D02*
X10622563Y-10703984D01*
X10803515Y-10703984D02*
X10803515Y-10599222D01*
X10803515Y-10599222D02*
X10793991Y-10580174D01*
X10793991Y-10580174D02*
X10774944Y-10570650D01*
X10774944Y-10570650D02*
X10736848Y-10570650D01*
X10736848Y-10570650D02*
X10717801Y-10580174D01*
X10803515Y-10694460D02*
X10784467Y-10703984D01*
X10784467Y-10703984D02*
X10736848Y-10703984D01*
X10736848Y-10703984D02*
X10717801Y-10694460D01*
X10717801Y-10694460D02*
X10708277Y-10675412D01*
X10708277Y-10675412D02*
X10708277Y-10656365D01*
X10708277Y-10656365D02*
X10717801Y-10637317D01*
X10717801Y-10637317D02*
X10736848Y-10627793D01*
X10736848Y-10627793D02*
X10784467Y-10627793D01*
X10784467Y-10627793D02*
X10803515Y-10618270D01*
X10898753Y-10570650D02*
X10898753Y-10770650D01*
X10898753Y-10580174D02*
X10917801Y-10570650D01*
X10917801Y-10570650D02*
X10955896Y-10570650D01*
X10955896Y-10570650D02*
X10974944Y-10580174D01*
X10974944Y-10580174D02*
X10984467Y-10589698D01*
X10984467Y-10589698D02*
X10993991Y-10608746D01*
X10993991Y-10608746D02*
X10993991Y-10665889D01*
X10993991Y-10665889D02*
X10984467Y-10684936D01*
X10984467Y-10684936D02*
X10974944Y-10694460D01*
X10974944Y-10694460D02*
X10955896Y-10703984D01*
X10955896Y-10703984D02*
X10917801Y-10703984D01*
X10917801Y-10703984D02*
X10898753Y-10694460D01*
X11079705Y-10684936D02*
X11089229Y-10694460D01*
X11089229Y-10694460D02*
X11079705Y-10703984D01*
X11079705Y-10703984D02*
X11070182Y-10694460D01*
X11070182Y-10694460D02*
X11079705Y-10684936D01*
X11079705Y-10684936D02*
X11079705Y-10703984D01*
X11079705Y-10580174D02*
X11089229Y-10589698D01*
X11089229Y-10589698D02*
X11079705Y-10599222D01*
X11079705Y-10599222D02*
X11070182Y-10589698D01*
X11070182Y-10589698D02*
X11079705Y-10580174D01*
X11079705Y-10580174D02*
X11079705Y-10599222D01*
D12*
X9417500Y-11017500D02*
X9447500Y-11047500D01*
X9447500Y-11017500D02*
X9417500Y-11047500D01*
D11*
X9746372Y-10923984D02*
X9765420Y-10923984D01*
X9765420Y-10923984D02*
X9784467Y-10933508D01*
X9784467Y-10933508D02*
X9793991Y-10943031D01*
X9793991Y-10943031D02*
X9803515Y-10962079D01*
X9803515Y-10962079D02*
X9813039Y-11000174D01*
X9813039Y-11000174D02*
X9813039Y-11047793D01*
X9813039Y-11047793D02*
X9803515Y-11085889D01*
X9803515Y-11085889D02*
X9793991Y-11104936D01*
X9793991Y-11104936D02*
X9784467Y-11114460D01*
X9784467Y-11114460D02*
X9765420Y-11123984D01*
X9765420Y-11123984D02*
X9746372Y-11123984D01*
X9746372Y-11123984D02*
X9727324Y-11114460D01*
X9727324Y-11114460D02*
X9717801Y-11104936D01*
X9717801Y-11104936D02*
X9708277Y-11085889D01*
X9708277Y-11085889D02*
X9698753Y-11047793D01*
X9698753Y-11047793D02*
X9698753Y-11000174D01*
X9698753Y-11000174D02*
X9708277Y-10962079D01*
X9708277Y-10962079D02*
X9717801Y-10943031D01*
X9717801Y-10943031D02*
X9727324Y-10933508D01*
X9727324Y-10933508D02*
X9746372Y-10923984D01*
X9898753Y-11104936D02*
X9908277Y-11114460D01*
X9908277Y-11114460D02*
X9898753Y-11123984D01*
X9898753Y-11123984D02*
X9889229Y-11114460D01*
X9889229Y-11114460D02*
X9898753Y-11104936D01*
X9898753Y-11104936D02*
X9898753Y-11123984D01*
X9974944Y-10923984D02*
X10098753Y-10923984D01*
X10098753Y-10923984D02*
X10032086Y-11000174D01*
X10032086Y-11000174D02*
X10060658Y-11000174D01*
X10060658Y-11000174D02*
X10079705Y-11009698D01*
X10079705Y-11009698D02*
X10089229Y-11019222D01*
X10089229Y-11019222D02*
X10098753Y-11038270D01*
X10098753Y-11038270D02*
X10098753Y-11085889D01*
X10098753Y-11085889D02*
X10089229Y-11104936D01*
X10089229Y-11104936D02*
X10079705Y-11114460D01*
X10079705Y-11114460D02*
X10060658Y-11123984D01*
X10060658Y-11123984D02*
X10003515Y-11123984D01*
X10003515Y-11123984D02*
X9984467Y-11114460D01*
X9984467Y-11114460D02*
X9974944Y-11104936D01*
X10222563Y-10923984D02*
X10241610Y-10923984D01*
X10241610Y-10923984D02*
X10260658Y-10933508D01*
X10260658Y-10933508D02*
X10270182Y-10943031D01*
X10270182Y-10943031D02*
X10279705Y-10962079D01*
X10279705Y-10962079D02*
X10289229Y-11000174D01*
X10289229Y-11000174D02*
X10289229Y-11047793D01*
X10289229Y-11047793D02*
X10279705Y-11085889D01*
X10279705Y-11085889D02*
X10270182Y-11104936D01*
X10270182Y-11104936D02*
X10260658Y-11114460D01*
X10260658Y-11114460D02*
X10241610Y-11123984D01*
X10241610Y-11123984D02*
X10222563Y-11123984D01*
X10222563Y-11123984D02*
X10203515Y-11114460D01*
X10203515Y-11114460D02*
X10193991Y-11104936D01*
X10193991Y-11104936D02*
X10184467Y-11085889D01*
X10184467Y-11085889D02*
X10174944Y-11047793D01*
X10174944Y-11047793D02*
X10174944Y-11000174D01*
X10174944Y-11000174D02*
X10184467Y-10962079D01*
X10184467Y-10962079D02*
X10193991Y-10943031D01*
X10193991Y-10943031D02*
X10203515Y-10933508D01*
X10203515Y-10933508D02*
X10222563Y-10923984D01*
X10413039Y-10923984D02*
X10432086Y-10923984D01*
X10432086Y-10923984D02*
X10451134Y-10933508D01*
X10451134Y-10933508D02*
X10460658Y-10943031D01*
X10460658Y-10943031D02*
X10470182Y-10962079D01*
X10470182Y-10962079D02*
X10479705Y-11000174D01*
X10479705Y-11000174D02*
X10479705Y-11047793D01*
X10479705Y-11047793D02*
X10470182Y-11085889D01*
X10470182Y-11085889D02*
X10460658Y-11104936D01*
X10460658Y-11104936D02*
X10451134Y-11114460D01*
X10451134Y-11114460D02*
X10432086Y-11123984D01*
X10432086Y-11123984D02*
X10413039Y-11123984D01*
X10413039Y-11123984D02*
X10393991Y-11114460D01*
X10393991Y-11114460D02*
X10384467Y-11104936D01*
X10384467Y-11104936D02*
X10374944Y-11085889D01*
X10374944Y-11085889D02*
X10365420Y-11047793D01*
X10365420Y-11047793D02*
X10365420Y-11000174D01*
X10365420Y-11000174D02*
X10374944Y-10962079D01*
X10374944Y-10962079D02*
X10384467Y-10943031D01*
X10384467Y-10943031D02*
X10393991Y-10933508D01*
X10393991Y-10933508D02*
X10413039Y-10923984D01*
X10565420Y-11123984D02*
X10565420Y-10990650D01*
X10565420Y-11009698D02*
X10574944Y-11000174D01*
X10574944Y-11000174D02*
X10593991Y-10990650D01*
X10593991Y-10990650D02*
X10622563Y-10990650D01*
X10622563Y-10990650D02*
X10641610Y-11000174D01*
X10641610Y-11000174D02*
X10651134Y-11019222D01*
X10651134Y-11019222D02*
X10651134Y-11123984D01*
X10651134Y-11019222D02*
X10660658Y-11000174D01*
X10660658Y-11000174D02*
X10679705Y-10990650D01*
X10679705Y-10990650D02*
X10708277Y-10990650D01*
X10708277Y-10990650D02*
X10727325Y-11000174D01*
X10727325Y-11000174D02*
X10736848Y-11019222D01*
X10736848Y-11019222D02*
X10736848Y-11123984D01*
X10832086Y-11123984D02*
X10832086Y-10990650D01*
X10832086Y-11009698D02*
X10841610Y-11000174D01*
X10841610Y-11000174D02*
X10860658Y-10990650D01*
X10860658Y-10990650D02*
X10889229Y-10990650D01*
X10889229Y-10990650D02*
X10908277Y-11000174D01*
X10908277Y-11000174D02*
X10917801Y-11019222D01*
X10917801Y-11019222D02*
X10917801Y-11123984D01*
X10917801Y-11019222D02*
X10927325Y-11000174D01*
X10927325Y-11000174D02*
X10946372Y-10990650D01*
X10946372Y-10990650D02*
X10974944Y-10990650D01*
X10974944Y-10990650D02*
X10993991Y-11000174D01*
X10993991Y-11000174D02*
X11003515Y-11019222D01*
X11003515Y-11019222D02*
X11003515Y-11123984D01*
X11393991Y-10914460D02*
X11222563Y-11171603D01*
X11651134Y-10923984D02*
X11670182Y-10923984D01*
X11670182Y-10923984D02*
X11689229Y-10933508D01*
X11689229Y-10933508D02*
X11698753Y-10943031D01*
X11698753Y-10943031D02*
X11708277Y-10962079D01*
X11708277Y-10962079D02*
X11717801Y-11000174D01*
X11717801Y-11000174D02*
X11717801Y-11047793D01*
X11717801Y-11047793D02*
X11708277Y-11085889D01*
X11708277Y-11085889D02*
X11698753Y-11104936D01*
X11698753Y-11104936D02*
X11689229Y-11114460D01*
X11689229Y-11114460D02*
X11670182Y-11123984D01*
X11670182Y-11123984D02*
X11651134Y-11123984D01*
X11651134Y-11123984D02*
X11632086Y-11114460D01*
X11632086Y-11114460D02*
X11622563Y-11104936D01*
X11622563Y-11104936D02*
X11613039Y-11085889D01*
X11613039Y-11085889D02*
X11603515Y-11047793D01*
X11603515Y-11047793D02*
X11603515Y-11000174D01*
X11603515Y-11000174D02*
X11613039Y-10962079D01*
X11613039Y-10962079D02*
X11622563Y-10943031D01*
X11622563Y-10943031D02*
X11632086Y-10933508D01*
X11632086Y-10933508D02*
X11651134Y-10923984D01*
X11803515Y-11104936D02*
X11813039Y-11114460D01*
X11813039Y-11114460D02*
X11803515Y-11123984D01*
X11803515Y-11123984D02*
X11793991Y-11114460D01*
X11793991Y-11114460D02*
X11803515Y-11104936D01*
X11803515Y-11104936D02*
X11803515Y-11123984D01*
X11936848Y-10923984D02*
X11955896Y-10923984D01*
X11955896Y-10923984D02*
X11974944Y-10933508D01*
X11974944Y-10933508D02*
X11984467Y-10943031D01*
X11984467Y-10943031D02*
X11993991Y-10962079D01*
X11993991Y-10962079D02*
X12003515Y-11000174D01*
X12003515Y-11000174D02*
X12003515Y-11047793D01*
X12003515Y-11047793D02*
X11993991Y-11085889D01*
X11993991Y-11085889D02*
X11984467Y-11104936D01*
X11984467Y-11104936D02*
X11974944Y-11114460D01*
X11974944Y-11114460D02*
X11955896Y-11123984D01*
X11955896Y-11123984D02*
X11936848Y-11123984D01*
X11936848Y-11123984D02*
X11917801Y-11114460D01*
X11917801Y-11114460D02*
X11908277Y-11104936D01*
X11908277Y-11104936D02*
X11898753Y-11085889D01*
X11898753Y-11085889D02*
X11889229Y-11047793D01*
X11889229Y-11047793D02*
X11889229Y-11000174D01*
X11889229Y-11000174D02*
X11898753Y-10962079D01*
X11898753Y-10962079D02*
X11908277Y-10943031D01*
X11908277Y-10943031D02*
X11917801Y-10933508D01*
X11917801Y-10933508D02*
X11936848Y-10923984D01*
X12193991Y-11123984D02*
X12079706Y-11123984D01*
X12136848Y-11123984D02*
X12136848Y-10923984D01*
X12136848Y-10923984D02*
X12117801Y-10952555D01*
X12117801Y-10952555D02*
X12098753Y-10971603D01*
X12098753Y-10971603D02*
X12079706Y-10981127D01*
X12384467Y-11123984D02*
X12270182Y-11123984D01*
X12327325Y-11123984D02*
X12327325Y-10923984D01*
X12327325Y-10923984D02*
X12308277Y-10952555D01*
X12308277Y-10952555D02*
X12289229Y-10971603D01*
X12289229Y-10971603D02*
X12270182Y-10981127D01*
X12498753Y-11009698D02*
X12479706Y-11000174D01*
X12479706Y-11000174D02*
X12470182Y-10990650D01*
X12470182Y-10990650D02*
X12460658Y-10971603D01*
X12460658Y-10971603D02*
X12460658Y-10962079D01*
X12460658Y-10962079D02*
X12470182Y-10943031D01*
X12470182Y-10943031D02*
X12479706Y-10933508D01*
X12479706Y-10933508D02*
X12498753Y-10923984D01*
X12498753Y-10923984D02*
X12536848Y-10923984D01*
X12536848Y-10923984D02*
X12555896Y-10933508D01*
X12555896Y-10933508D02*
X12565420Y-10943031D01*
X12565420Y-10943031D02*
X12574944Y-10962079D01*
X12574944Y-10962079D02*
X12574944Y-10971603D01*
X12574944Y-10971603D02*
X12565420Y-10990650D01*
X12565420Y-10990650D02*
X12555896Y-11000174D01*
X12555896Y-11000174D02*
X12536848Y-11009698D01*
X12536848Y-11009698D02*
X12498753Y-11009698D01*
X12498753Y-11009698D02*
X12479706Y-11019222D01*
X12479706Y-11019222D02*
X12470182Y-11028746D01*
X12470182Y-11028746D02*
X12460658Y-11047793D01*
X12460658Y-11047793D02*
X12460658Y-11085889D01*
X12460658Y-11085889D02*
X12470182Y-11104936D01*
X12470182Y-11104936D02*
X12479706Y-11114460D01*
X12479706Y-11114460D02*
X12498753Y-11123984D01*
X12498753Y-11123984D02*
X12536848Y-11123984D01*
X12536848Y-11123984D02*
X12555896Y-11114460D01*
X12555896Y-11114460D02*
X12565420Y-11104936D01*
X12565420Y-11104936D02*
X12574944Y-11085889D01*
X12574944Y-11085889D02*
X12574944Y-11047793D01*
X12574944Y-11047793D02*
X12565420Y-11028746D01*
X12565420Y-11028746D02*
X12555896Y-11019222D01*
X12555896Y-11019222D02*
X12536848Y-11009698D01*
X12651134Y-10923984D02*
X12651134Y-10962079D01*
X12727325Y-10923984D02*
X12727325Y-10962079D01*
X13022563Y-11200174D02*
X13013039Y-11190650D01*
X13013039Y-11190650D02*
X12993991Y-11162079D01*
X12993991Y-11162079D02*
X12984468Y-11143031D01*
X12984468Y-11143031D02*
X12974944Y-11114460D01*
X12974944Y-11114460D02*
X12965420Y-11066841D01*
X12965420Y-11066841D02*
X12965420Y-11028746D01*
X12965420Y-11028746D02*
X12974944Y-10981127D01*
X12974944Y-10981127D02*
X12984468Y-10952555D01*
X12984468Y-10952555D02*
X12993991Y-10933508D01*
X12993991Y-10933508D02*
X13013039Y-10904936D01*
X13013039Y-10904936D02*
X13022563Y-10895412D01*
X13184468Y-10990650D02*
X13184468Y-11123984D01*
X13136848Y-10914460D02*
X13089229Y-11057317D01*
X13089229Y-11057317D02*
X13213039Y-11057317D01*
X13393991Y-11123984D02*
X13279706Y-11123984D01*
X13336848Y-11123984D02*
X13336848Y-10923984D01*
X13336848Y-10923984D02*
X13317801Y-10952555D01*
X13317801Y-10952555D02*
X13298753Y-10971603D01*
X13298753Y-10971603D02*
X13279706Y-10981127D01*
X13632087Y-11123984D02*
X13632087Y-10923984D01*
X13717801Y-11123984D02*
X13717801Y-11019222D01*
X13717801Y-11019222D02*
X13708277Y-11000174D01*
X13708277Y-11000174D02*
X13689230Y-10990650D01*
X13689230Y-10990650D02*
X13660658Y-10990650D01*
X13660658Y-10990650D02*
X13641610Y-11000174D01*
X13641610Y-11000174D02*
X13632087Y-11009698D01*
X13841610Y-11123984D02*
X13822563Y-11114460D01*
X13822563Y-11114460D02*
X13813039Y-11104936D01*
X13813039Y-11104936D02*
X13803515Y-11085889D01*
X13803515Y-11085889D02*
X13803515Y-11028746D01*
X13803515Y-11028746D02*
X13813039Y-11009698D01*
X13813039Y-11009698D02*
X13822563Y-11000174D01*
X13822563Y-11000174D02*
X13841610Y-10990650D01*
X13841610Y-10990650D02*
X13870182Y-10990650D01*
X13870182Y-10990650D02*
X13889230Y-11000174D01*
X13889230Y-11000174D02*
X13898753Y-11009698D01*
X13898753Y-11009698D02*
X13908277Y-11028746D01*
X13908277Y-11028746D02*
X13908277Y-11085889D01*
X13908277Y-11085889D02*
X13898753Y-11104936D01*
X13898753Y-11104936D02*
X13889230Y-11114460D01*
X13889230Y-11114460D02*
X13870182Y-11123984D01*
X13870182Y-11123984D02*
X13841610Y-11123984D01*
X14022563Y-11123984D02*
X14003515Y-11114460D01*
X14003515Y-11114460D02*
X13993991Y-11095412D01*
X13993991Y-11095412D02*
X13993991Y-10923984D01*
X14174944Y-11114460D02*
X14155896Y-11123984D01*
X14155896Y-11123984D02*
X14117801Y-11123984D01*
X14117801Y-11123984D02*
X14098753Y-11114460D01*
X14098753Y-11114460D02*
X14089230Y-11095412D01*
X14089230Y-11095412D02*
X14089230Y-11019222D01*
X14089230Y-11019222D02*
X14098753Y-11000174D01*
X14098753Y-11000174D02*
X14117801Y-10990650D01*
X14117801Y-10990650D02*
X14155896Y-10990650D01*
X14155896Y-10990650D02*
X14174944Y-11000174D01*
X14174944Y-11000174D02*
X14184468Y-11019222D01*
X14184468Y-11019222D02*
X14184468Y-11038270D01*
X14184468Y-11038270D02*
X14089230Y-11057317D01*
X14260658Y-11114460D02*
X14279706Y-11123984D01*
X14279706Y-11123984D02*
X14317801Y-11123984D01*
X14317801Y-11123984D02*
X14336849Y-11114460D01*
X14336849Y-11114460D02*
X14346372Y-11095412D01*
X14346372Y-11095412D02*
X14346372Y-11085889D01*
X14346372Y-11085889D02*
X14336849Y-11066841D01*
X14336849Y-11066841D02*
X14317801Y-11057317D01*
X14317801Y-11057317D02*
X14289230Y-11057317D01*
X14289230Y-11057317D02*
X14270182Y-11047793D01*
X14270182Y-11047793D02*
X14260658Y-11028746D01*
X14260658Y-11028746D02*
X14260658Y-11019222D01*
X14260658Y-11019222D02*
X14270182Y-11000174D01*
X14270182Y-11000174D02*
X14289230Y-10990650D01*
X14289230Y-10990650D02*
X14317801Y-10990650D01*
X14317801Y-10990650D02*
X14336849Y-11000174D01*
X14413039Y-11200174D02*
X14422563Y-11190650D01*
X14422563Y-11190650D02*
X14441611Y-11162079D01*
X14441611Y-11162079D02*
X14451134Y-11143031D01*
X14451134Y-11143031D02*
X14460658Y-11114460D01*
X14460658Y-11114460D02*
X14470182Y-11066841D01*
X14470182Y-11066841D02*
X14470182Y-11028746D01*
X14470182Y-11028746D02*
X14460658Y-10981127D01*
X14460658Y-10981127D02*
X14451134Y-10952555D01*
X14451134Y-10952555D02*
X14441611Y-10933508D01*
X14441611Y-10933508D02*
X14422563Y-10904936D01*
X14422563Y-10904936D02*
X14413039Y-10895412D01*
D12*
X9447500Y-11296500D02*
G75*
G02*
X9352500Y-11296500I-47500J0D01*
G01*
X9352500Y-11296500D02*
G75*
G02*
X9447500Y-11296500I47500J0D01*
G01*
D11*
X9746372Y-11187984D02*
X9765420Y-11187984D01*
X9765420Y-11187984D02*
X9784467Y-11197508D01*
X9784467Y-11197508D02*
X9793991Y-11207031D01*
X9793991Y-11207031D02*
X9803515Y-11226079D01*
X9803515Y-11226079D02*
X9813039Y-11264174D01*
X9813039Y-11264174D02*
X9813039Y-11311793D01*
X9813039Y-11311793D02*
X9803515Y-11349888D01*
X9803515Y-11349888D02*
X9793991Y-11368936D01*
X9793991Y-11368936D02*
X9784467Y-11378460D01*
X9784467Y-11378460D02*
X9765420Y-11387984D01*
X9765420Y-11387984D02*
X9746372Y-11387984D01*
X9746372Y-11387984D02*
X9727324Y-11378460D01*
X9727324Y-11378460D02*
X9717801Y-11368936D01*
X9717801Y-11368936D02*
X9708277Y-11349888D01*
X9708277Y-11349888D02*
X9698753Y-11311793D01*
X9698753Y-11311793D02*
X9698753Y-11264174D01*
X9698753Y-11264174D02*
X9708277Y-11226079D01*
X9708277Y-11226079D02*
X9717801Y-11207031D01*
X9717801Y-11207031D02*
X9727324Y-11197508D01*
X9727324Y-11197508D02*
X9746372Y-11187984D01*
X9898753Y-11368936D02*
X9908277Y-11378460D01*
X9908277Y-11378460D02*
X9898753Y-11387984D01*
X9898753Y-11387984D02*
X9889229Y-11378460D01*
X9889229Y-11378460D02*
X9898753Y-11368936D01*
X9898753Y-11368936D02*
X9898753Y-11387984D01*
X10003515Y-11387984D02*
X10041610Y-11387984D01*
X10041610Y-11387984D02*
X10060658Y-11378460D01*
X10060658Y-11378460D02*
X10070182Y-11368936D01*
X10070182Y-11368936D02*
X10089229Y-11340365D01*
X10089229Y-11340365D02*
X10098753Y-11302269D01*
X10098753Y-11302269D02*
X10098753Y-11226079D01*
X10098753Y-11226079D02*
X10089229Y-11207031D01*
X10089229Y-11207031D02*
X10079705Y-11197508D01*
X10079705Y-11197508D02*
X10060658Y-11187984D01*
X10060658Y-11187984D02*
X10022563Y-11187984D01*
X10022563Y-11187984D02*
X10003515Y-11197508D01*
X10003515Y-11197508D02*
X9993991Y-11207031D01*
X9993991Y-11207031D02*
X9984467Y-11226079D01*
X9984467Y-11226079D02*
X9984467Y-11273698D01*
X9984467Y-11273698D02*
X9993991Y-11292746D01*
X9993991Y-11292746D02*
X10003515Y-11302269D01*
X10003515Y-11302269D02*
X10022563Y-11311793D01*
X10022563Y-11311793D02*
X10060658Y-11311793D01*
X10060658Y-11311793D02*
X10079705Y-11302269D01*
X10079705Y-11302269D02*
X10089229Y-11292746D01*
X10089229Y-11292746D02*
X10098753Y-11273698D01*
X10279705Y-11187984D02*
X10184467Y-11187984D01*
X10184467Y-11187984D02*
X10174944Y-11283222D01*
X10174944Y-11283222D02*
X10184467Y-11273698D01*
X10184467Y-11273698D02*
X10203515Y-11264174D01*
X10203515Y-11264174D02*
X10251134Y-11264174D01*
X10251134Y-11264174D02*
X10270182Y-11273698D01*
X10270182Y-11273698D02*
X10279705Y-11283222D01*
X10279705Y-11283222D02*
X10289229Y-11302269D01*
X10289229Y-11302269D02*
X10289229Y-11349888D01*
X10289229Y-11349888D02*
X10279705Y-11368936D01*
X10279705Y-11368936D02*
X10270182Y-11378460D01*
X10270182Y-11378460D02*
X10251134Y-11387984D01*
X10251134Y-11387984D02*
X10203515Y-11387984D01*
X10203515Y-11387984D02*
X10184467Y-11378460D01*
X10184467Y-11378460D02*
X10174944Y-11368936D01*
X10413039Y-11187984D02*
X10432086Y-11187984D01*
X10432086Y-11187984D02*
X10451134Y-11197508D01*
X10451134Y-11197508D02*
X10460658Y-11207031D01*
X10460658Y-11207031D02*
X10470182Y-11226079D01*
X10470182Y-11226079D02*
X10479705Y-11264174D01*
X10479705Y-11264174D02*
X10479705Y-11311793D01*
X10479705Y-11311793D02*
X10470182Y-11349888D01*
X10470182Y-11349888D02*
X10460658Y-11368936D01*
X10460658Y-11368936D02*
X10451134Y-11378460D01*
X10451134Y-11378460D02*
X10432086Y-11387984D01*
X10432086Y-11387984D02*
X10413039Y-11387984D01*
X10413039Y-11387984D02*
X10393991Y-11378460D01*
X10393991Y-11378460D02*
X10384467Y-11368936D01*
X10384467Y-11368936D02*
X10374944Y-11349888D01*
X10374944Y-11349888D02*
X10365420Y-11311793D01*
X10365420Y-11311793D02*
X10365420Y-11264174D01*
X10365420Y-11264174D02*
X10374944Y-11226079D01*
X10374944Y-11226079D02*
X10384467Y-11207031D01*
X10384467Y-11207031D02*
X10393991Y-11197508D01*
X10393991Y-11197508D02*
X10413039Y-11187984D01*
X10565420Y-11387984D02*
X10565420Y-11254650D01*
X10565420Y-11273698D02*
X10574944Y-11264174D01*
X10574944Y-11264174D02*
X10593991Y-11254650D01*
X10593991Y-11254650D02*
X10622563Y-11254650D01*
X10622563Y-11254650D02*
X10641610Y-11264174D01*
X10641610Y-11264174D02*
X10651134Y-11283222D01*
X10651134Y-11283222D02*
X10651134Y-11387984D01*
X10651134Y-11283222D02*
X10660658Y-11264174D01*
X10660658Y-11264174D02*
X10679705Y-11254650D01*
X10679705Y-11254650D02*
X10708277Y-11254650D01*
X10708277Y-11254650D02*
X10727325Y-11264174D01*
X10727325Y-11264174D02*
X10736848Y-11283222D01*
X10736848Y-11283222D02*
X10736848Y-11387984D01*
X10832086Y-11387984D02*
X10832086Y-11254650D01*
X10832086Y-11273698D02*
X10841610Y-11264174D01*
X10841610Y-11264174D02*
X10860658Y-11254650D01*
X10860658Y-11254650D02*
X10889229Y-11254650D01*
X10889229Y-11254650D02*
X10908277Y-11264174D01*
X10908277Y-11264174D02*
X10917801Y-11283222D01*
X10917801Y-11283222D02*
X10917801Y-11387984D01*
X10917801Y-11283222D02*
X10927325Y-11264174D01*
X10927325Y-11264174D02*
X10946372Y-11254650D01*
X10946372Y-11254650D02*
X10974944Y-11254650D01*
X10974944Y-11254650D02*
X10993991Y-11264174D01*
X10993991Y-11264174D02*
X11003515Y-11283222D01*
X11003515Y-11283222D02*
X11003515Y-11387984D01*
X11393991Y-11178460D02*
X11222563Y-11435603D01*
X11651134Y-11187984D02*
X11670182Y-11187984D01*
X11670182Y-11187984D02*
X11689229Y-11197508D01*
X11689229Y-11197508D02*
X11698753Y-11207031D01*
X11698753Y-11207031D02*
X11708277Y-11226079D01*
X11708277Y-11226079D02*
X11717801Y-11264174D01*
X11717801Y-11264174D02*
X11717801Y-11311793D01*
X11717801Y-11311793D02*
X11708277Y-11349888D01*
X11708277Y-11349888D02*
X11698753Y-11368936D01*
X11698753Y-11368936D02*
X11689229Y-11378460D01*
X11689229Y-11378460D02*
X11670182Y-11387984D01*
X11670182Y-11387984D02*
X11651134Y-11387984D01*
X11651134Y-11387984D02*
X11632086Y-11378460D01*
X11632086Y-11378460D02*
X11622563Y-11368936D01*
X11622563Y-11368936D02*
X11613039Y-11349888D01*
X11613039Y-11349888D02*
X11603515Y-11311793D01*
X11603515Y-11311793D02*
X11603515Y-11264174D01*
X11603515Y-11264174D02*
X11613039Y-11226079D01*
X11613039Y-11226079D02*
X11622563Y-11207031D01*
X11622563Y-11207031D02*
X11632086Y-11197508D01*
X11632086Y-11197508D02*
X11651134Y-11187984D01*
X11803515Y-11368936D02*
X11813039Y-11378460D01*
X11813039Y-11378460D02*
X11803515Y-11387984D01*
X11803515Y-11387984D02*
X11793991Y-11378460D01*
X11793991Y-11378460D02*
X11803515Y-11368936D01*
X11803515Y-11368936D02*
X11803515Y-11387984D01*
X11936848Y-11187984D02*
X11955896Y-11187984D01*
X11955896Y-11187984D02*
X11974944Y-11197508D01*
X11974944Y-11197508D02*
X11984467Y-11207031D01*
X11984467Y-11207031D02*
X11993991Y-11226079D01*
X11993991Y-11226079D02*
X12003515Y-11264174D01*
X12003515Y-11264174D02*
X12003515Y-11311793D01*
X12003515Y-11311793D02*
X11993991Y-11349888D01*
X11993991Y-11349888D02*
X11984467Y-11368936D01*
X11984467Y-11368936D02*
X11974944Y-11378460D01*
X11974944Y-11378460D02*
X11955896Y-11387984D01*
X11955896Y-11387984D02*
X11936848Y-11387984D01*
X11936848Y-11387984D02*
X11917801Y-11378460D01*
X11917801Y-11378460D02*
X11908277Y-11368936D01*
X11908277Y-11368936D02*
X11898753Y-11349888D01*
X11898753Y-11349888D02*
X11889229Y-11311793D01*
X11889229Y-11311793D02*
X11889229Y-11264174D01*
X11889229Y-11264174D02*
X11898753Y-11226079D01*
X11898753Y-11226079D02*
X11908277Y-11207031D01*
X11908277Y-11207031D02*
X11917801Y-11197508D01*
X11917801Y-11197508D02*
X11936848Y-11187984D01*
X12070182Y-11187984D02*
X12193991Y-11187984D01*
X12193991Y-11187984D02*
X12127325Y-11264174D01*
X12127325Y-11264174D02*
X12155896Y-11264174D01*
X12155896Y-11264174D02*
X12174944Y-11273698D01*
X12174944Y-11273698D02*
X12184467Y-11283222D01*
X12184467Y-11283222D02*
X12193991Y-11302269D01*
X12193991Y-11302269D02*
X12193991Y-11349888D01*
X12193991Y-11349888D02*
X12184467Y-11368936D01*
X12184467Y-11368936D02*
X12174944Y-11378460D01*
X12174944Y-11378460D02*
X12155896Y-11387984D01*
X12155896Y-11387984D02*
X12098753Y-11387984D01*
X12098753Y-11387984D02*
X12079706Y-11378460D01*
X12079706Y-11378460D02*
X12070182Y-11368936D01*
X12260658Y-11187984D02*
X12393991Y-11187984D01*
X12393991Y-11187984D02*
X12308277Y-11387984D01*
X12555896Y-11254650D02*
X12555896Y-11387984D01*
X12508277Y-11178460D02*
X12460658Y-11321317D01*
X12460658Y-11321317D02*
X12584467Y-11321317D01*
X12651134Y-11187984D02*
X12651134Y-11226079D01*
X12727325Y-11187984D02*
X12727325Y-11226079D01*
X13022563Y-11464174D02*
X13013039Y-11454650D01*
X13013039Y-11454650D02*
X12993991Y-11426079D01*
X12993991Y-11426079D02*
X12984468Y-11407031D01*
X12984468Y-11407031D02*
X12974944Y-11378460D01*
X12974944Y-11378460D02*
X12965420Y-11330841D01*
X12965420Y-11330841D02*
X12965420Y-11292746D01*
X12965420Y-11292746D02*
X12974944Y-11245127D01*
X12974944Y-11245127D02*
X12984468Y-11216555D01*
X12984468Y-11216555D02*
X12993991Y-11197508D01*
X12993991Y-11197508D02*
X13013039Y-11168936D01*
X13013039Y-11168936D02*
X13022563Y-11159412D01*
X13203515Y-11387984D02*
X13089229Y-11387984D01*
X13146372Y-11387984D02*
X13146372Y-11187984D01*
X13146372Y-11187984D02*
X13127325Y-11216555D01*
X13127325Y-11216555D02*
X13108277Y-11235603D01*
X13108277Y-11235603D02*
X13089229Y-11245127D01*
X13279706Y-11207031D02*
X13289229Y-11197508D01*
X13289229Y-11197508D02*
X13308277Y-11187984D01*
X13308277Y-11187984D02*
X13355896Y-11187984D01*
X13355896Y-11187984D02*
X13374944Y-11197508D01*
X13374944Y-11197508D02*
X13384468Y-11207031D01*
X13384468Y-11207031D02*
X13393991Y-11226079D01*
X13393991Y-11226079D02*
X13393991Y-11245127D01*
X13393991Y-11245127D02*
X13384468Y-11273698D01*
X13384468Y-11273698D02*
X13270182Y-11387984D01*
X13270182Y-11387984D02*
X13393991Y-11387984D01*
X13632087Y-11387984D02*
X13632087Y-11187984D01*
X13717801Y-11387984D02*
X13717801Y-11283222D01*
X13717801Y-11283222D02*
X13708277Y-11264174D01*
X13708277Y-11264174D02*
X13689230Y-11254650D01*
X13689230Y-11254650D02*
X13660658Y-11254650D01*
X13660658Y-11254650D02*
X13641610Y-11264174D01*
X13641610Y-11264174D02*
X13632087Y-11273698D01*
X13841610Y-11387984D02*
X13822563Y-11378460D01*
X13822563Y-11378460D02*
X13813039Y-11368936D01*
X13813039Y-11368936D02*
X13803515Y-11349888D01*
X13803515Y-11349888D02*
X13803515Y-11292746D01*
X13803515Y-11292746D02*
X13813039Y-11273698D01*
X13813039Y-11273698D02*
X13822563Y-11264174D01*
X13822563Y-11264174D02*
X13841610Y-11254650D01*
X13841610Y-11254650D02*
X13870182Y-11254650D01*
X13870182Y-11254650D02*
X13889230Y-11264174D01*
X13889230Y-11264174D02*
X13898753Y-11273698D01*
X13898753Y-11273698D02*
X13908277Y-11292746D01*
X13908277Y-11292746D02*
X13908277Y-11349888D01*
X13908277Y-11349888D02*
X13898753Y-11368936D01*
X13898753Y-11368936D02*
X13889230Y-11378460D01*
X13889230Y-11378460D02*
X13870182Y-11387984D01*
X13870182Y-11387984D02*
X13841610Y-11387984D01*
X14022563Y-11387984D02*
X14003515Y-11378460D01*
X14003515Y-11378460D02*
X13993991Y-11359412D01*
X13993991Y-11359412D02*
X13993991Y-11187984D01*
X14174944Y-11378460D02*
X14155896Y-11387984D01*
X14155896Y-11387984D02*
X14117801Y-11387984D01*
X14117801Y-11387984D02*
X14098753Y-11378460D01*
X14098753Y-11378460D02*
X14089230Y-11359412D01*
X14089230Y-11359412D02*
X14089230Y-11283222D01*
X14089230Y-11283222D02*
X14098753Y-11264174D01*
X14098753Y-11264174D02*
X14117801Y-11254650D01*
X14117801Y-11254650D02*
X14155896Y-11254650D01*
X14155896Y-11254650D02*
X14174944Y-11264174D01*
X14174944Y-11264174D02*
X14184468Y-11283222D01*
X14184468Y-11283222D02*
X14184468Y-11302269D01*
X14184468Y-11302269D02*
X14089230Y-11321317D01*
X14260658Y-11378460D02*
X14279706Y-11387984D01*
X14279706Y-11387984D02*
X14317801Y-11387984D01*
X14317801Y-11387984D02*
X14336849Y-11378460D01*
X14336849Y-11378460D02*
X14346372Y-11359412D01*
X14346372Y-11359412D02*
X14346372Y-11349888D01*
X14346372Y-11349888D02*
X14336849Y-11330841D01*
X14336849Y-11330841D02*
X14317801Y-11321317D01*
X14317801Y-11321317D02*
X14289230Y-11321317D01*
X14289230Y-11321317D02*
X14270182Y-11311793D01*
X14270182Y-11311793D02*
X14260658Y-11292746D01*
X14260658Y-11292746D02*
X14260658Y-11283222D01*
X14260658Y-11283222D02*
X14270182Y-11264174D01*
X14270182Y-11264174D02*
X14289230Y-11254650D01*
X14289230Y-11254650D02*
X14317801Y-11254650D01*
X14317801Y-11254650D02*
X14336849Y-11264174D01*
X14413039Y-11464174D02*
X14422563Y-11454650D01*
X14422563Y-11454650D02*
X14441611Y-11426079D01*
X14441611Y-11426079D02*
X14451134Y-11407031D01*
X14451134Y-11407031D02*
X14460658Y-11378460D01*
X14460658Y-11378460D02*
X14470182Y-11330841D01*
X14470182Y-11330841D02*
X14470182Y-11292746D01*
X14470182Y-11292746D02*
X14460658Y-11245127D01*
X14460658Y-11245127D02*
X14451134Y-11216555D01*
X14451134Y-11216555D02*
X14441611Y-11197508D01*
X14441611Y-11197508D02*
X14422563Y-11168936D01*
X14422563Y-11168936D02*
X14413039Y-11159412D01*
X9347500Y-11460500D02*
X9347500Y-11660500D01*
X9247500Y-11560500D02*
X9447500Y-11560500D01*
X9698753Y-11471031D02*
X9708277Y-11461508D01*
X9708277Y-11461508D02*
X9727324Y-11451984D01*
X9727324Y-11451984D02*
X9774944Y-11451984D01*
X9774944Y-11451984D02*
X9793991Y-11461508D01*
X9793991Y-11461508D02*
X9803515Y-11471031D01*
X9803515Y-11471031D02*
X9813039Y-11490079D01*
X9813039Y-11490079D02*
X9813039Y-11509127D01*
X9813039Y-11509127D02*
X9803515Y-11537698D01*
X9803515Y-11537698D02*
X9689229Y-11651984D01*
X9689229Y-11651984D02*
X9813039Y-11651984D01*
X9898753Y-11632936D02*
X9908277Y-11642460D01*
X9908277Y-11642460D02*
X9898753Y-11651984D01*
X9898753Y-11651984D02*
X9889229Y-11642460D01*
X9889229Y-11642460D02*
X9898753Y-11632936D01*
X9898753Y-11632936D02*
X9898753Y-11651984D01*
X9974944Y-11451984D02*
X10098753Y-11451984D01*
X10098753Y-11451984D02*
X10032086Y-11528174D01*
X10032086Y-11528174D02*
X10060658Y-11528174D01*
X10060658Y-11528174D02*
X10079705Y-11537698D01*
X10079705Y-11537698D02*
X10089229Y-11547222D01*
X10089229Y-11547222D02*
X10098753Y-11566269D01*
X10098753Y-11566269D02*
X10098753Y-11613888D01*
X10098753Y-11613888D02*
X10089229Y-11632936D01*
X10089229Y-11632936D02*
X10079705Y-11642460D01*
X10079705Y-11642460D02*
X10060658Y-11651984D01*
X10060658Y-11651984D02*
X10003515Y-11651984D01*
X10003515Y-11651984D02*
X9984467Y-11642460D01*
X9984467Y-11642460D02*
X9974944Y-11632936D01*
X10222563Y-11451984D02*
X10241610Y-11451984D01*
X10241610Y-11451984D02*
X10260658Y-11461508D01*
X10260658Y-11461508D02*
X10270182Y-11471031D01*
X10270182Y-11471031D02*
X10279705Y-11490079D01*
X10279705Y-11490079D02*
X10289229Y-11528174D01*
X10289229Y-11528174D02*
X10289229Y-11575793D01*
X10289229Y-11575793D02*
X10279705Y-11613888D01*
X10279705Y-11613888D02*
X10270182Y-11632936D01*
X10270182Y-11632936D02*
X10260658Y-11642460D01*
X10260658Y-11642460D02*
X10241610Y-11651984D01*
X10241610Y-11651984D02*
X10222563Y-11651984D01*
X10222563Y-11651984D02*
X10203515Y-11642460D01*
X10203515Y-11642460D02*
X10193991Y-11632936D01*
X10193991Y-11632936D02*
X10184467Y-11613888D01*
X10184467Y-11613888D02*
X10174944Y-11575793D01*
X10174944Y-11575793D02*
X10174944Y-11528174D01*
X10174944Y-11528174D02*
X10184467Y-11490079D01*
X10184467Y-11490079D02*
X10193991Y-11471031D01*
X10193991Y-11471031D02*
X10203515Y-11461508D01*
X10203515Y-11461508D02*
X10222563Y-11451984D01*
X10413039Y-11451984D02*
X10432086Y-11451984D01*
X10432086Y-11451984D02*
X10451134Y-11461508D01*
X10451134Y-11461508D02*
X10460658Y-11471031D01*
X10460658Y-11471031D02*
X10470182Y-11490079D01*
X10470182Y-11490079D02*
X10479705Y-11528174D01*
X10479705Y-11528174D02*
X10479705Y-11575793D01*
X10479705Y-11575793D02*
X10470182Y-11613888D01*
X10470182Y-11613888D02*
X10460658Y-11632936D01*
X10460658Y-11632936D02*
X10451134Y-11642460D01*
X10451134Y-11642460D02*
X10432086Y-11651984D01*
X10432086Y-11651984D02*
X10413039Y-11651984D01*
X10413039Y-11651984D02*
X10393991Y-11642460D01*
X10393991Y-11642460D02*
X10384467Y-11632936D01*
X10384467Y-11632936D02*
X10374944Y-11613888D01*
X10374944Y-11613888D02*
X10365420Y-11575793D01*
X10365420Y-11575793D02*
X10365420Y-11528174D01*
X10365420Y-11528174D02*
X10374944Y-11490079D01*
X10374944Y-11490079D02*
X10384467Y-11471031D01*
X10384467Y-11471031D02*
X10393991Y-11461508D01*
X10393991Y-11461508D02*
X10413039Y-11451984D01*
X10565420Y-11651984D02*
X10565420Y-11518650D01*
X10565420Y-11537698D02*
X10574944Y-11528174D01*
X10574944Y-11528174D02*
X10593991Y-11518650D01*
X10593991Y-11518650D02*
X10622563Y-11518650D01*
X10622563Y-11518650D02*
X10641610Y-11528174D01*
X10641610Y-11528174D02*
X10651134Y-11547222D01*
X10651134Y-11547222D02*
X10651134Y-11651984D01*
X10651134Y-11547222D02*
X10660658Y-11528174D01*
X10660658Y-11528174D02*
X10679705Y-11518650D01*
X10679705Y-11518650D02*
X10708277Y-11518650D01*
X10708277Y-11518650D02*
X10727325Y-11528174D01*
X10727325Y-11528174D02*
X10736848Y-11547222D01*
X10736848Y-11547222D02*
X10736848Y-11651984D01*
X10832086Y-11651984D02*
X10832086Y-11518650D01*
X10832086Y-11537698D02*
X10841610Y-11528174D01*
X10841610Y-11528174D02*
X10860658Y-11518650D01*
X10860658Y-11518650D02*
X10889229Y-11518650D01*
X10889229Y-11518650D02*
X10908277Y-11528174D01*
X10908277Y-11528174D02*
X10917801Y-11547222D01*
X10917801Y-11547222D02*
X10917801Y-11651984D01*
X10917801Y-11547222D02*
X10927325Y-11528174D01*
X10927325Y-11528174D02*
X10946372Y-11518650D01*
X10946372Y-11518650D02*
X10974944Y-11518650D01*
X10974944Y-11518650D02*
X10993991Y-11528174D01*
X10993991Y-11528174D02*
X11003515Y-11547222D01*
X11003515Y-11547222D02*
X11003515Y-11651984D01*
X11393991Y-11442460D02*
X11222563Y-11699603D01*
X11651134Y-11451984D02*
X11670182Y-11451984D01*
X11670182Y-11451984D02*
X11689229Y-11461508D01*
X11689229Y-11461508D02*
X11698753Y-11471031D01*
X11698753Y-11471031D02*
X11708277Y-11490079D01*
X11708277Y-11490079D02*
X11717801Y-11528174D01*
X11717801Y-11528174D02*
X11717801Y-11575793D01*
X11717801Y-11575793D02*
X11708277Y-11613888D01*
X11708277Y-11613888D02*
X11698753Y-11632936D01*
X11698753Y-11632936D02*
X11689229Y-11642460D01*
X11689229Y-11642460D02*
X11670182Y-11651984D01*
X11670182Y-11651984D02*
X11651134Y-11651984D01*
X11651134Y-11651984D02*
X11632086Y-11642460D01*
X11632086Y-11642460D02*
X11622563Y-11632936D01*
X11622563Y-11632936D02*
X11613039Y-11613888D01*
X11613039Y-11613888D02*
X11603515Y-11575793D01*
X11603515Y-11575793D02*
X11603515Y-11528174D01*
X11603515Y-11528174D02*
X11613039Y-11490079D01*
X11613039Y-11490079D02*
X11622563Y-11471031D01*
X11622563Y-11471031D02*
X11632086Y-11461508D01*
X11632086Y-11461508D02*
X11651134Y-11451984D01*
X11803515Y-11632936D02*
X11813039Y-11642460D01*
X11813039Y-11642460D02*
X11803515Y-11651984D01*
X11803515Y-11651984D02*
X11793991Y-11642460D01*
X11793991Y-11642460D02*
X11803515Y-11632936D01*
X11803515Y-11632936D02*
X11803515Y-11651984D01*
X11936848Y-11451984D02*
X11955896Y-11451984D01*
X11955896Y-11451984D02*
X11974944Y-11461508D01*
X11974944Y-11461508D02*
X11984467Y-11471031D01*
X11984467Y-11471031D02*
X11993991Y-11490079D01*
X11993991Y-11490079D02*
X12003515Y-11528174D01*
X12003515Y-11528174D02*
X12003515Y-11575793D01*
X12003515Y-11575793D02*
X11993991Y-11613888D01*
X11993991Y-11613888D02*
X11984467Y-11632936D01*
X11984467Y-11632936D02*
X11974944Y-11642460D01*
X11974944Y-11642460D02*
X11955896Y-11651984D01*
X11955896Y-11651984D02*
X11936848Y-11651984D01*
X11936848Y-11651984D02*
X11917801Y-11642460D01*
X11917801Y-11642460D02*
X11908277Y-11632936D01*
X11908277Y-11632936D02*
X11898753Y-11613888D01*
X11898753Y-11613888D02*
X11889229Y-11575793D01*
X11889229Y-11575793D02*
X11889229Y-11528174D01*
X11889229Y-11528174D02*
X11898753Y-11490079D01*
X11898753Y-11490079D02*
X11908277Y-11471031D01*
X11908277Y-11471031D02*
X11917801Y-11461508D01*
X11917801Y-11461508D02*
X11936848Y-11451984D01*
X12098753Y-11651984D02*
X12136848Y-11651984D01*
X12136848Y-11651984D02*
X12155896Y-11642460D01*
X12155896Y-11642460D02*
X12165420Y-11632936D01*
X12165420Y-11632936D02*
X12184467Y-11604365D01*
X12184467Y-11604365D02*
X12193991Y-11566269D01*
X12193991Y-11566269D02*
X12193991Y-11490079D01*
X12193991Y-11490079D02*
X12184467Y-11471031D01*
X12184467Y-11471031D02*
X12174944Y-11461508D01*
X12174944Y-11461508D02*
X12155896Y-11451984D01*
X12155896Y-11451984D02*
X12117801Y-11451984D01*
X12117801Y-11451984D02*
X12098753Y-11461508D01*
X12098753Y-11461508D02*
X12089229Y-11471031D01*
X12089229Y-11471031D02*
X12079706Y-11490079D01*
X12079706Y-11490079D02*
X12079706Y-11537698D01*
X12079706Y-11537698D02*
X12089229Y-11556746D01*
X12089229Y-11556746D02*
X12098753Y-11566269D01*
X12098753Y-11566269D02*
X12117801Y-11575793D01*
X12117801Y-11575793D02*
X12155896Y-11575793D01*
X12155896Y-11575793D02*
X12174944Y-11566269D01*
X12174944Y-11566269D02*
X12184467Y-11556746D01*
X12184467Y-11556746D02*
X12193991Y-11537698D01*
X12317801Y-11451984D02*
X12336848Y-11451984D01*
X12336848Y-11451984D02*
X12355896Y-11461508D01*
X12355896Y-11461508D02*
X12365420Y-11471031D01*
X12365420Y-11471031D02*
X12374944Y-11490079D01*
X12374944Y-11490079D02*
X12384467Y-11528174D01*
X12384467Y-11528174D02*
X12384467Y-11575793D01*
X12384467Y-11575793D02*
X12374944Y-11613888D01*
X12374944Y-11613888D02*
X12365420Y-11632936D01*
X12365420Y-11632936D02*
X12355896Y-11642460D01*
X12355896Y-11642460D02*
X12336848Y-11651984D01*
X12336848Y-11651984D02*
X12317801Y-11651984D01*
X12317801Y-11651984D02*
X12298753Y-11642460D01*
X12298753Y-11642460D02*
X12289229Y-11632936D01*
X12289229Y-11632936D02*
X12279706Y-11613888D01*
X12279706Y-11613888D02*
X12270182Y-11575793D01*
X12270182Y-11575793D02*
X12270182Y-11528174D01*
X12270182Y-11528174D02*
X12279706Y-11490079D01*
X12279706Y-11490079D02*
X12289229Y-11471031D01*
X12289229Y-11471031D02*
X12298753Y-11461508D01*
X12298753Y-11461508D02*
X12317801Y-11451984D01*
X12555896Y-11451984D02*
X12517801Y-11451984D01*
X12517801Y-11451984D02*
X12498753Y-11461508D01*
X12498753Y-11461508D02*
X12489229Y-11471031D01*
X12489229Y-11471031D02*
X12470182Y-11499603D01*
X12470182Y-11499603D02*
X12460658Y-11537698D01*
X12460658Y-11537698D02*
X12460658Y-11613888D01*
X12460658Y-11613888D02*
X12470182Y-11632936D01*
X12470182Y-11632936D02*
X12479706Y-11642460D01*
X12479706Y-11642460D02*
X12498753Y-11651984D01*
X12498753Y-11651984D02*
X12536848Y-11651984D01*
X12536848Y-11651984D02*
X12555896Y-11642460D01*
X12555896Y-11642460D02*
X12565420Y-11632936D01*
X12565420Y-11632936D02*
X12574944Y-11613888D01*
X12574944Y-11613888D02*
X12574944Y-11566269D01*
X12574944Y-11566269D02*
X12565420Y-11547222D01*
X12565420Y-11547222D02*
X12555896Y-11537698D01*
X12555896Y-11537698D02*
X12536848Y-11528174D01*
X12536848Y-11528174D02*
X12498753Y-11528174D01*
X12498753Y-11528174D02*
X12479706Y-11537698D01*
X12479706Y-11537698D02*
X12470182Y-11547222D01*
X12470182Y-11547222D02*
X12460658Y-11566269D01*
X12651134Y-11451984D02*
X12651134Y-11490079D01*
X12727325Y-11451984D02*
X12727325Y-11490079D01*
X13022563Y-11728174D02*
X13013039Y-11718650D01*
X13013039Y-11718650D02*
X12993991Y-11690079D01*
X12993991Y-11690079D02*
X12984468Y-11671031D01*
X12984468Y-11671031D02*
X12974944Y-11642460D01*
X12974944Y-11642460D02*
X12965420Y-11594841D01*
X12965420Y-11594841D02*
X12965420Y-11556746D01*
X12965420Y-11556746D02*
X12974944Y-11509127D01*
X12974944Y-11509127D02*
X12984468Y-11480555D01*
X12984468Y-11480555D02*
X12993991Y-11461508D01*
X12993991Y-11461508D02*
X13013039Y-11432936D01*
X13013039Y-11432936D02*
X13022563Y-11423412D01*
X13184468Y-11451984D02*
X13146372Y-11451984D01*
X13146372Y-11451984D02*
X13127325Y-11461508D01*
X13127325Y-11461508D02*
X13117801Y-11471031D01*
X13117801Y-11471031D02*
X13098753Y-11499603D01*
X13098753Y-11499603D02*
X13089229Y-11537698D01*
X13089229Y-11537698D02*
X13089229Y-11613888D01*
X13089229Y-11613888D02*
X13098753Y-11632936D01*
X13098753Y-11632936D02*
X13108277Y-11642460D01*
X13108277Y-11642460D02*
X13127325Y-11651984D01*
X13127325Y-11651984D02*
X13165420Y-11651984D01*
X13165420Y-11651984D02*
X13184468Y-11642460D01*
X13184468Y-11642460D02*
X13193991Y-11632936D01*
X13193991Y-11632936D02*
X13203515Y-11613888D01*
X13203515Y-11613888D02*
X13203515Y-11566269D01*
X13203515Y-11566269D02*
X13193991Y-11547222D01*
X13193991Y-11547222D02*
X13184468Y-11537698D01*
X13184468Y-11537698D02*
X13165420Y-11528174D01*
X13165420Y-11528174D02*
X13127325Y-11528174D01*
X13127325Y-11528174D02*
X13108277Y-11537698D01*
X13108277Y-11537698D02*
X13098753Y-11547222D01*
X13098753Y-11547222D02*
X13089229Y-11566269D01*
X13441610Y-11651984D02*
X13441610Y-11451984D01*
X13527325Y-11651984D02*
X13527325Y-11547222D01*
X13527325Y-11547222D02*
X13517801Y-11528174D01*
X13517801Y-11528174D02*
X13498753Y-11518650D01*
X13498753Y-11518650D02*
X13470182Y-11518650D01*
X13470182Y-11518650D02*
X13451134Y-11528174D01*
X13451134Y-11528174D02*
X13441610Y-11537698D01*
X13651134Y-11651984D02*
X13632087Y-11642460D01*
X13632087Y-11642460D02*
X13622563Y-11632936D01*
X13622563Y-11632936D02*
X13613039Y-11613888D01*
X13613039Y-11613888D02*
X13613039Y-11556746D01*
X13613039Y-11556746D02*
X13622563Y-11537698D01*
X13622563Y-11537698D02*
X13632087Y-11528174D01*
X13632087Y-11528174D02*
X13651134Y-11518650D01*
X13651134Y-11518650D02*
X13679706Y-11518650D01*
X13679706Y-11518650D02*
X13698753Y-11528174D01*
X13698753Y-11528174D02*
X13708277Y-11537698D01*
X13708277Y-11537698D02*
X13717801Y-11556746D01*
X13717801Y-11556746D02*
X13717801Y-11613888D01*
X13717801Y-11613888D02*
X13708277Y-11632936D01*
X13708277Y-11632936D02*
X13698753Y-11642460D01*
X13698753Y-11642460D02*
X13679706Y-11651984D01*
X13679706Y-11651984D02*
X13651134Y-11651984D01*
X13832087Y-11651984D02*
X13813039Y-11642460D01*
X13813039Y-11642460D02*
X13803515Y-11623412D01*
X13803515Y-11623412D02*
X13803515Y-11451984D01*
X13984468Y-11642460D02*
X13965420Y-11651984D01*
X13965420Y-11651984D02*
X13927325Y-11651984D01*
X13927325Y-11651984D02*
X13908277Y-11642460D01*
X13908277Y-11642460D02*
X13898753Y-11623412D01*
X13898753Y-11623412D02*
X13898753Y-11547222D01*
X13898753Y-11547222D02*
X13908277Y-11528174D01*
X13908277Y-11528174D02*
X13927325Y-11518650D01*
X13927325Y-11518650D02*
X13965420Y-11518650D01*
X13965420Y-11518650D02*
X13984468Y-11528174D01*
X13984468Y-11528174D02*
X13993991Y-11547222D01*
X13993991Y-11547222D02*
X13993991Y-11566269D01*
X13993991Y-11566269D02*
X13898753Y-11585317D01*
X14070182Y-11642460D02*
X14089230Y-11651984D01*
X14089230Y-11651984D02*
X14127325Y-11651984D01*
X14127325Y-11651984D02*
X14146372Y-11642460D01*
X14146372Y-11642460D02*
X14155896Y-11623412D01*
X14155896Y-11623412D02*
X14155896Y-11613888D01*
X14155896Y-11613888D02*
X14146372Y-11594841D01*
X14146372Y-11594841D02*
X14127325Y-11585317D01*
X14127325Y-11585317D02*
X14098753Y-11585317D01*
X14098753Y-11585317D02*
X14079706Y-11575793D01*
X14079706Y-11575793D02*
X14070182Y-11556746D01*
X14070182Y-11556746D02*
X14070182Y-11547222D01*
X14070182Y-11547222D02*
X14079706Y-11528174D01*
X14079706Y-11528174D02*
X14098753Y-11518650D01*
X14098753Y-11518650D02*
X14127325Y-11518650D01*
X14127325Y-11518650D02*
X14146372Y-11528174D01*
X14222563Y-11728174D02*
X14232087Y-11718650D01*
X14232087Y-11718650D02*
X14251134Y-11690079D01*
X14251134Y-11690079D02*
X14260658Y-11671031D01*
X14260658Y-11671031D02*
X14270182Y-11642460D01*
X14270182Y-11642460D02*
X14279706Y-11594841D01*
X14279706Y-11594841D02*
X14279706Y-11556746D01*
X14279706Y-11556746D02*
X14270182Y-11509127D01*
X14270182Y-11509127D02*
X14260658Y-11480555D01*
X14260658Y-11480555D02*
X14251134Y-11461508D01*
X14251134Y-11461508D02*
X14232087Y-11432936D01*
X14232087Y-11432936D02*
X14222563Y-11423412D01*
X9418211Y-11951211D02*
X9418211Y-11809789D01*
X9276789Y-11809789D01*
X9276789Y-11951211D01*
X9418211Y-11951211D01*
X9689229Y-11771984D02*
X9813039Y-11771984D01*
X9813039Y-11771984D02*
X9746372Y-11848174D01*
X9746372Y-11848174D02*
X9774944Y-11848174D01*
X9774944Y-11848174D02*
X9793991Y-11857698D01*
X9793991Y-11857698D02*
X9803515Y-11867222D01*
X9803515Y-11867222D02*
X9813039Y-11886269D01*
X9813039Y-11886269D02*
X9813039Y-11933888D01*
X9813039Y-11933888D02*
X9803515Y-11952936D01*
X9803515Y-11952936D02*
X9793991Y-11962460D01*
X9793991Y-11962460D02*
X9774944Y-11971984D01*
X9774944Y-11971984D02*
X9717801Y-11971984D01*
X9717801Y-11971984D02*
X9698753Y-11962460D01*
X9698753Y-11962460D02*
X9689229Y-11952936D01*
X9898753Y-11952936D02*
X9908277Y-11962460D01*
X9908277Y-11962460D02*
X9898753Y-11971984D01*
X9898753Y-11971984D02*
X9889229Y-11962460D01*
X9889229Y-11962460D02*
X9898753Y-11952936D01*
X9898753Y-11952936D02*
X9898753Y-11971984D01*
X10032086Y-11771984D02*
X10051134Y-11771984D01*
X10051134Y-11771984D02*
X10070182Y-11781508D01*
X10070182Y-11781508D02*
X10079705Y-11791031D01*
X10079705Y-11791031D02*
X10089229Y-11810079D01*
X10089229Y-11810079D02*
X10098753Y-11848174D01*
X10098753Y-11848174D02*
X10098753Y-11895793D01*
X10098753Y-11895793D02*
X10089229Y-11933888D01*
X10089229Y-11933888D02*
X10079705Y-11952936D01*
X10079705Y-11952936D02*
X10070182Y-11962460D01*
X10070182Y-11962460D02*
X10051134Y-11971984D01*
X10051134Y-11971984D02*
X10032086Y-11971984D01*
X10032086Y-11971984D02*
X10013039Y-11962460D01*
X10013039Y-11962460D02*
X10003515Y-11952936D01*
X10003515Y-11952936D02*
X9993991Y-11933888D01*
X9993991Y-11933888D02*
X9984467Y-11895793D01*
X9984467Y-11895793D02*
X9984467Y-11848174D01*
X9984467Y-11848174D02*
X9993991Y-11810079D01*
X9993991Y-11810079D02*
X10003515Y-11791031D01*
X10003515Y-11791031D02*
X10013039Y-11781508D01*
X10013039Y-11781508D02*
X10032086Y-11771984D01*
X10222563Y-11771984D02*
X10241610Y-11771984D01*
X10241610Y-11771984D02*
X10260658Y-11781508D01*
X10260658Y-11781508D02*
X10270182Y-11791031D01*
X10270182Y-11791031D02*
X10279705Y-11810079D01*
X10279705Y-11810079D02*
X10289229Y-11848174D01*
X10289229Y-11848174D02*
X10289229Y-11895793D01*
X10289229Y-11895793D02*
X10279705Y-11933888D01*
X10279705Y-11933888D02*
X10270182Y-11952936D01*
X10270182Y-11952936D02*
X10260658Y-11962460D01*
X10260658Y-11962460D02*
X10241610Y-11971984D01*
X10241610Y-11971984D02*
X10222563Y-11971984D01*
X10222563Y-11971984D02*
X10203515Y-11962460D01*
X10203515Y-11962460D02*
X10193991Y-11952936D01*
X10193991Y-11952936D02*
X10184467Y-11933888D01*
X10184467Y-11933888D02*
X10174944Y-11895793D01*
X10174944Y-11895793D02*
X10174944Y-11848174D01*
X10174944Y-11848174D02*
X10184467Y-11810079D01*
X10184467Y-11810079D02*
X10193991Y-11791031D01*
X10193991Y-11791031D02*
X10203515Y-11781508D01*
X10203515Y-11781508D02*
X10222563Y-11771984D01*
X10413039Y-11771984D02*
X10432086Y-11771984D01*
X10432086Y-11771984D02*
X10451134Y-11781508D01*
X10451134Y-11781508D02*
X10460658Y-11791031D01*
X10460658Y-11791031D02*
X10470182Y-11810079D01*
X10470182Y-11810079D02*
X10479705Y-11848174D01*
X10479705Y-11848174D02*
X10479705Y-11895793D01*
X10479705Y-11895793D02*
X10470182Y-11933888D01*
X10470182Y-11933888D02*
X10460658Y-11952936D01*
X10460658Y-11952936D02*
X10451134Y-11962460D01*
X10451134Y-11962460D02*
X10432086Y-11971984D01*
X10432086Y-11971984D02*
X10413039Y-11971984D01*
X10413039Y-11971984D02*
X10393991Y-11962460D01*
X10393991Y-11962460D02*
X10384467Y-11952936D01*
X10384467Y-11952936D02*
X10374944Y-11933888D01*
X10374944Y-11933888D02*
X10365420Y-11895793D01*
X10365420Y-11895793D02*
X10365420Y-11848174D01*
X10365420Y-11848174D02*
X10374944Y-11810079D01*
X10374944Y-11810079D02*
X10384467Y-11791031D01*
X10384467Y-11791031D02*
X10393991Y-11781508D01*
X10393991Y-11781508D02*
X10413039Y-11771984D01*
X10565420Y-11971984D02*
X10565420Y-11838650D01*
X10565420Y-11857698D02*
X10574944Y-11848174D01*
X10574944Y-11848174D02*
X10593991Y-11838650D01*
X10593991Y-11838650D02*
X10622563Y-11838650D01*
X10622563Y-11838650D02*
X10641610Y-11848174D01*
X10641610Y-11848174D02*
X10651134Y-11867222D01*
X10651134Y-11867222D02*
X10651134Y-11971984D01*
X10651134Y-11867222D02*
X10660658Y-11848174D01*
X10660658Y-11848174D02*
X10679705Y-11838650D01*
X10679705Y-11838650D02*
X10708277Y-11838650D01*
X10708277Y-11838650D02*
X10727325Y-11848174D01*
X10727325Y-11848174D02*
X10736848Y-11867222D01*
X10736848Y-11867222D02*
X10736848Y-11971984D01*
X10832086Y-11971984D02*
X10832086Y-11838650D01*
X10832086Y-11857698D02*
X10841610Y-11848174D01*
X10841610Y-11848174D02*
X10860658Y-11838650D01*
X10860658Y-11838650D02*
X10889229Y-11838650D01*
X10889229Y-11838650D02*
X10908277Y-11848174D01*
X10908277Y-11848174D02*
X10917801Y-11867222D01*
X10917801Y-11867222D02*
X10917801Y-11971984D01*
X10917801Y-11867222D02*
X10927325Y-11848174D01*
X10927325Y-11848174D02*
X10946372Y-11838650D01*
X10946372Y-11838650D02*
X10974944Y-11838650D01*
X10974944Y-11838650D02*
X10993991Y-11848174D01*
X10993991Y-11848174D02*
X11003515Y-11867222D01*
X11003515Y-11867222D02*
X11003515Y-11971984D01*
X11393991Y-11762460D02*
X11222563Y-12019603D01*
X11651134Y-11771984D02*
X11670182Y-11771984D01*
X11670182Y-11771984D02*
X11689229Y-11781508D01*
X11689229Y-11781508D02*
X11698753Y-11791031D01*
X11698753Y-11791031D02*
X11708277Y-11810079D01*
X11708277Y-11810079D02*
X11717801Y-11848174D01*
X11717801Y-11848174D02*
X11717801Y-11895793D01*
X11717801Y-11895793D02*
X11708277Y-11933888D01*
X11708277Y-11933888D02*
X11698753Y-11952936D01*
X11698753Y-11952936D02*
X11689229Y-11962460D01*
X11689229Y-11962460D02*
X11670182Y-11971984D01*
X11670182Y-11971984D02*
X11651134Y-11971984D01*
X11651134Y-11971984D02*
X11632086Y-11962460D01*
X11632086Y-11962460D02*
X11622563Y-11952936D01*
X11622563Y-11952936D02*
X11613039Y-11933888D01*
X11613039Y-11933888D02*
X11603515Y-11895793D01*
X11603515Y-11895793D02*
X11603515Y-11848174D01*
X11603515Y-11848174D02*
X11613039Y-11810079D01*
X11613039Y-11810079D02*
X11622563Y-11791031D01*
X11622563Y-11791031D02*
X11632086Y-11781508D01*
X11632086Y-11781508D02*
X11651134Y-11771984D01*
X11803515Y-11952936D02*
X11813039Y-11962460D01*
X11813039Y-11962460D02*
X11803515Y-11971984D01*
X11803515Y-11971984D02*
X11793991Y-11962460D01*
X11793991Y-11962460D02*
X11803515Y-11952936D01*
X11803515Y-11952936D02*
X11803515Y-11971984D01*
X12003515Y-11971984D02*
X11889229Y-11971984D01*
X11946372Y-11971984D02*
X11946372Y-11771984D01*
X11946372Y-11771984D02*
X11927325Y-11800555D01*
X11927325Y-11800555D02*
X11908277Y-11819603D01*
X11908277Y-11819603D02*
X11889229Y-11829127D01*
X12193991Y-11971984D02*
X12079706Y-11971984D01*
X12136848Y-11971984D02*
X12136848Y-11771984D01*
X12136848Y-11771984D02*
X12117801Y-11800555D01*
X12117801Y-11800555D02*
X12098753Y-11819603D01*
X12098753Y-11819603D02*
X12079706Y-11829127D01*
X12308277Y-11857698D02*
X12289229Y-11848174D01*
X12289229Y-11848174D02*
X12279706Y-11838650D01*
X12279706Y-11838650D02*
X12270182Y-11819603D01*
X12270182Y-11819603D02*
X12270182Y-11810079D01*
X12270182Y-11810079D02*
X12279706Y-11791031D01*
X12279706Y-11791031D02*
X12289229Y-11781508D01*
X12289229Y-11781508D02*
X12308277Y-11771984D01*
X12308277Y-11771984D02*
X12346372Y-11771984D01*
X12346372Y-11771984D02*
X12365420Y-11781508D01*
X12365420Y-11781508D02*
X12374944Y-11791031D01*
X12374944Y-11791031D02*
X12384467Y-11810079D01*
X12384467Y-11810079D02*
X12384467Y-11819603D01*
X12384467Y-11819603D02*
X12374944Y-11838650D01*
X12374944Y-11838650D02*
X12365420Y-11848174D01*
X12365420Y-11848174D02*
X12346372Y-11857698D01*
X12346372Y-11857698D02*
X12308277Y-11857698D01*
X12308277Y-11857698D02*
X12289229Y-11867222D01*
X12289229Y-11867222D02*
X12279706Y-11876746D01*
X12279706Y-11876746D02*
X12270182Y-11895793D01*
X12270182Y-11895793D02*
X12270182Y-11933888D01*
X12270182Y-11933888D02*
X12279706Y-11952936D01*
X12279706Y-11952936D02*
X12289229Y-11962460D01*
X12289229Y-11962460D02*
X12308277Y-11971984D01*
X12308277Y-11971984D02*
X12346372Y-11971984D01*
X12346372Y-11971984D02*
X12365420Y-11962460D01*
X12365420Y-11962460D02*
X12374944Y-11952936D01*
X12374944Y-11952936D02*
X12384467Y-11933888D01*
X12384467Y-11933888D02*
X12384467Y-11895793D01*
X12384467Y-11895793D02*
X12374944Y-11876746D01*
X12374944Y-11876746D02*
X12365420Y-11867222D01*
X12365420Y-11867222D02*
X12346372Y-11857698D01*
X12574944Y-11971984D02*
X12460658Y-11971984D01*
X12517801Y-11971984D02*
X12517801Y-11771984D01*
X12517801Y-11771984D02*
X12498753Y-11800555D01*
X12498753Y-11800555D02*
X12479706Y-11819603D01*
X12479706Y-11819603D02*
X12460658Y-11829127D01*
X12651134Y-11771984D02*
X12651134Y-11810079D01*
X12727325Y-11771984D02*
X12727325Y-11810079D01*
X13022563Y-12048174D02*
X13013039Y-12038650D01*
X13013039Y-12038650D02*
X12993991Y-12010079D01*
X12993991Y-12010079D02*
X12984468Y-11991031D01*
X12984468Y-11991031D02*
X12974944Y-11962460D01*
X12974944Y-11962460D02*
X12965420Y-11914841D01*
X12965420Y-11914841D02*
X12965420Y-11876746D01*
X12965420Y-11876746D02*
X12974944Y-11829127D01*
X12974944Y-11829127D02*
X12984468Y-11800555D01*
X12984468Y-11800555D02*
X12993991Y-11781508D01*
X12993991Y-11781508D02*
X13013039Y-11752936D01*
X13013039Y-11752936D02*
X13022563Y-11743412D01*
X13127325Y-11857698D02*
X13108277Y-11848174D01*
X13108277Y-11848174D02*
X13098753Y-11838650D01*
X13098753Y-11838650D02*
X13089229Y-11819603D01*
X13089229Y-11819603D02*
X13089229Y-11810079D01*
X13089229Y-11810079D02*
X13098753Y-11791031D01*
X13098753Y-11791031D02*
X13108277Y-11781508D01*
X13108277Y-11781508D02*
X13127325Y-11771984D01*
X13127325Y-11771984D02*
X13165420Y-11771984D01*
X13165420Y-11771984D02*
X13184468Y-11781508D01*
X13184468Y-11781508D02*
X13193991Y-11791031D01*
X13193991Y-11791031D02*
X13203515Y-11810079D01*
X13203515Y-11810079D02*
X13203515Y-11819603D01*
X13203515Y-11819603D02*
X13193991Y-11838650D01*
X13193991Y-11838650D02*
X13184468Y-11848174D01*
X13184468Y-11848174D02*
X13165420Y-11857698D01*
X13165420Y-11857698D02*
X13127325Y-11857698D01*
X13127325Y-11857698D02*
X13108277Y-11867222D01*
X13108277Y-11867222D02*
X13098753Y-11876746D01*
X13098753Y-11876746D02*
X13089229Y-11895793D01*
X13089229Y-11895793D02*
X13089229Y-11933888D01*
X13089229Y-11933888D02*
X13098753Y-11952936D01*
X13098753Y-11952936D02*
X13108277Y-11962460D01*
X13108277Y-11962460D02*
X13127325Y-11971984D01*
X13127325Y-11971984D02*
X13165420Y-11971984D01*
X13165420Y-11971984D02*
X13184468Y-11962460D01*
X13184468Y-11962460D02*
X13193991Y-11952936D01*
X13193991Y-11952936D02*
X13203515Y-11933888D01*
X13203515Y-11933888D02*
X13203515Y-11895793D01*
X13203515Y-11895793D02*
X13193991Y-11876746D01*
X13193991Y-11876746D02*
X13184468Y-11867222D01*
X13184468Y-11867222D02*
X13165420Y-11857698D01*
X13441610Y-11971984D02*
X13441610Y-11771984D01*
X13527325Y-11971984D02*
X13527325Y-11867222D01*
X13527325Y-11867222D02*
X13517801Y-11848174D01*
X13517801Y-11848174D02*
X13498753Y-11838650D01*
X13498753Y-11838650D02*
X13470182Y-11838650D01*
X13470182Y-11838650D02*
X13451134Y-11848174D01*
X13451134Y-11848174D02*
X13441610Y-11857698D01*
X13651134Y-11971984D02*
X13632087Y-11962460D01*
X13632087Y-11962460D02*
X13622563Y-11952936D01*
X13622563Y-11952936D02*
X13613039Y-11933888D01*
X13613039Y-11933888D02*
X13613039Y-11876746D01*
X13613039Y-11876746D02*
X13622563Y-11857698D01*
X13622563Y-11857698D02*
X13632087Y-11848174D01*
X13632087Y-11848174D02*
X13651134Y-11838650D01*
X13651134Y-11838650D02*
X13679706Y-11838650D01*
X13679706Y-11838650D02*
X13698753Y-11848174D01*
X13698753Y-11848174D02*
X13708277Y-11857698D01*
X13708277Y-11857698D02*
X13717801Y-11876746D01*
X13717801Y-11876746D02*
X13717801Y-11933888D01*
X13717801Y-11933888D02*
X13708277Y-11952936D01*
X13708277Y-11952936D02*
X13698753Y-11962460D01*
X13698753Y-11962460D02*
X13679706Y-11971984D01*
X13679706Y-11971984D02*
X13651134Y-11971984D01*
X13832087Y-11971984D02*
X13813039Y-11962460D01*
X13813039Y-11962460D02*
X13803515Y-11943412D01*
X13803515Y-11943412D02*
X13803515Y-11771984D01*
X13984468Y-11962460D02*
X13965420Y-11971984D01*
X13965420Y-11971984D02*
X13927325Y-11971984D01*
X13927325Y-11971984D02*
X13908277Y-11962460D01*
X13908277Y-11962460D02*
X13898753Y-11943412D01*
X13898753Y-11943412D02*
X13898753Y-11867222D01*
X13898753Y-11867222D02*
X13908277Y-11848174D01*
X13908277Y-11848174D02*
X13927325Y-11838650D01*
X13927325Y-11838650D02*
X13965420Y-11838650D01*
X13965420Y-11838650D02*
X13984468Y-11848174D01*
X13984468Y-11848174D02*
X13993991Y-11867222D01*
X13993991Y-11867222D02*
X13993991Y-11886269D01*
X13993991Y-11886269D02*
X13898753Y-11905317D01*
X14070182Y-11962460D02*
X14089230Y-11971984D01*
X14089230Y-11971984D02*
X14127325Y-11971984D01*
X14127325Y-11971984D02*
X14146372Y-11962460D01*
X14146372Y-11962460D02*
X14155896Y-11943412D01*
X14155896Y-11943412D02*
X14155896Y-11933888D01*
X14155896Y-11933888D02*
X14146372Y-11914841D01*
X14146372Y-11914841D02*
X14127325Y-11905317D01*
X14127325Y-11905317D02*
X14098753Y-11905317D01*
X14098753Y-11905317D02*
X14079706Y-11895793D01*
X14079706Y-11895793D02*
X14070182Y-11876746D01*
X14070182Y-11876746D02*
X14070182Y-11867222D01*
X14070182Y-11867222D02*
X14079706Y-11848174D01*
X14079706Y-11848174D02*
X14098753Y-11838650D01*
X14098753Y-11838650D02*
X14127325Y-11838650D01*
X14127325Y-11838650D02*
X14146372Y-11848174D01*
X14222563Y-12048174D02*
X14232087Y-12038650D01*
X14232087Y-12038650D02*
X14251134Y-12010079D01*
X14251134Y-12010079D02*
X14260658Y-11991031D01*
X14260658Y-11991031D02*
X14270182Y-11962460D01*
X14270182Y-11962460D02*
X14279706Y-11914841D01*
X14279706Y-11914841D02*
X14279706Y-11876746D01*
X14279706Y-11876746D02*
X14270182Y-11829127D01*
X14270182Y-11829127D02*
X14260658Y-11800555D01*
X14260658Y-11800555D02*
X14251134Y-11781508D01*
X14251134Y-11781508D02*
X14232087Y-11752936D01*
X14232087Y-11752936D02*
X14222563Y-11743412D01*
M02*
