G04 #@! TF.GenerationSoftware,KiCad,Pcbnew,8.0.5*
G04 #@! TF.CreationDate,2024-09-26T10:19:01+02:00*
G04 #@! TF.ProjectId,BL-R8812AF1 2x mount,424c2d52-3838-4313-9241-463120327820,rev?*
G04 #@! TF.SameCoordinates,Original*
G04 #@! TF.FileFunction,Legend,Bot*
G04 #@! TF.FilePolarity,Positive*
%FSLAX46Y46*%
G04 Gerber Fmt 4.6, Leading zero omitted, Abs format (unit mm)*
G04 Created by KiCad (PCBNEW 8.0.5) date 2024-09-26 10:19:01*
%MOMM*%
%LPD*%
G01*
G04 APERTURE LIST*
%ADD10C,0.200000*%
%ADD11C,0.000000*%
%ADD12C,4.000000*%
%ADD13R,1.600000X1.500000*%
%ADD14C,1.600000*%
%ADD15C,3.000000*%
%ADD16R,1.500000X1.600000*%
G04 APERTURE END LIST*
D10*
X130337047Y-87935135D02*
X130337047Y-88825612D01*
X130337047Y-88825612D02*
X130284666Y-88930374D01*
X130284666Y-88930374D02*
X130232285Y-88982755D01*
X130232285Y-88982755D02*
X130127523Y-89035135D01*
X130127523Y-89035135D02*
X129917999Y-89035135D01*
X129917999Y-89035135D02*
X129813237Y-88982755D01*
X129813237Y-88982755D02*
X129760856Y-88930374D01*
X129760856Y-88930374D02*
X129708475Y-88825612D01*
X129708475Y-88825612D02*
X129708475Y-87935135D01*
X129237047Y-88982755D02*
X129079904Y-89035135D01*
X129079904Y-89035135D02*
X128817999Y-89035135D01*
X128817999Y-89035135D02*
X128713237Y-88982755D01*
X128713237Y-88982755D02*
X128660856Y-88930374D01*
X128660856Y-88930374D02*
X128608475Y-88825612D01*
X128608475Y-88825612D02*
X128608475Y-88720850D01*
X128608475Y-88720850D02*
X128660856Y-88616088D01*
X128660856Y-88616088D02*
X128713237Y-88563707D01*
X128713237Y-88563707D02*
X128817999Y-88511326D01*
X128817999Y-88511326D02*
X129027523Y-88458945D01*
X129027523Y-88458945D02*
X129132285Y-88406564D01*
X129132285Y-88406564D02*
X129184666Y-88354183D01*
X129184666Y-88354183D02*
X129237047Y-88249421D01*
X129237047Y-88249421D02*
X129237047Y-88144659D01*
X129237047Y-88144659D02*
X129184666Y-88039897D01*
X129184666Y-88039897D02*
X129132285Y-87987516D01*
X129132285Y-87987516D02*
X129027523Y-87935135D01*
X129027523Y-87935135D02*
X128765618Y-87935135D01*
X128765618Y-87935135D02*
X128608475Y-87987516D01*
X127770380Y-88458945D02*
X127613237Y-88511326D01*
X127613237Y-88511326D02*
X127560856Y-88563707D01*
X127560856Y-88563707D02*
X127508475Y-88668469D01*
X127508475Y-88668469D02*
X127508475Y-88825612D01*
X127508475Y-88825612D02*
X127560856Y-88930374D01*
X127560856Y-88930374D02*
X127613237Y-88982755D01*
X127613237Y-88982755D02*
X127717999Y-89035135D01*
X127717999Y-89035135D02*
X128137047Y-89035135D01*
X128137047Y-89035135D02*
X128137047Y-87935135D01*
X128137047Y-87935135D02*
X127770380Y-87935135D01*
X127770380Y-87935135D02*
X127665618Y-87987516D01*
X127665618Y-87987516D02*
X127613237Y-88039897D01*
X127613237Y-88039897D02*
X127560856Y-88144659D01*
X127560856Y-88144659D02*
X127560856Y-88249421D01*
X127560856Y-88249421D02*
X127613237Y-88354183D01*
X127613237Y-88354183D02*
X127665618Y-88406564D01*
X127665618Y-88406564D02*
X127770380Y-88458945D01*
X127770380Y-88458945D02*
X128137047Y-88458945D01*
X126198952Y-89035135D02*
X126198952Y-87935135D01*
X125727523Y-89035135D02*
X125727523Y-88458945D01*
X125727523Y-88458945D02*
X125779904Y-88354183D01*
X125779904Y-88354183D02*
X125884666Y-88301802D01*
X125884666Y-88301802D02*
X126041809Y-88301802D01*
X126041809Y-88301802D02*
X126146571Y-88354183D01*
X126146571Y-88354183D02*
X126198952Y-88406564D01*
X124732285Y-88301802D02*
X124732285Y-89035135D01*
X125203714Y-88301802D02*
X125203714Y-88877993D01*
X125203714Y-88877993D02*
X125151333Y-88982755D01*
X125151333Y-88982755D02*
X125046571Y-89035135D01*
X125046571Y-89035135D02*
X124889428Y-89035135D01*
X124889428Y-89035135D02*
X124784666Y-88982755D01*
X124784666Y-88982755D02*
X124732285Y-88930374D01*
X124208476Y-89035135D02*
X124208476Y-87935135D01*
X124208476Y-88354183D02*
X124103714Y-88301802D01*
X124103714Y-88301802D02*
X123894190Y-88301802D01*
X123894190Y-88301802D02*
X123789428Y-88354183D01*
X123789428Y-88354183D02*
X123737047Y-88406564D01*
X123737047Y-88406564D02*
X123684666Y-88511326D01*
X123684666Y-88511326D02*
X123684666Y-88825612D01*
X123684666Y-88825612D02*
X123737047Y-88930374D01*
X123737047Y-88930374D02*
X123789428Y-88982755D01*
X123789428Y-88982755D02*
X123894190Y-89035135D01*
X123894190Y-89035135D02*
X124103714Y-89035135D01*
X124103714Y-89035135D02*
X124208476Y-88982755D01*
X122479905Y-88301802D02*
X122270381Y-89035135D01*
X122270381Y-89035135D02*
X122060857Y-88511326D01*
X122060857Y-88511326D02*
X121851333Y-89035135D01*
X121851333Y-89035135D02*
X121641809Y-88301802D01*
X121222762Y-89035135D02*
X121222762Y-88301802D01*
X121222762Y-87935135D02*
X121275143Y-87987516D01*
X121275143Y-87987516D02*
X121222762Y-88039897D01*
X121222762Y-88039897D02*
X121170381Y-87987516D01*
X121170381Y-87987516D02*
X121222762Y-87935135D01*
X121222762Y-87935135D02*
X121222762Y-88039897D01*
X120856095Y-88301802D02*
X120437047Y-88301802D01*
X120698952Y-87935135D02*
X120698952Y-88877993D01*
X120698952Y-88877993D02*
X120646571Y-88982755D01*
X120646571Y-88982755D02*
X120541809Y-89035135D01*
X120541809Y-89035135D02*
X120437047Y-89035135D01*
X120070381Y-89035135D02*
X120070381Y-87935135D01*
X119598952Y-89035135D02*
X119598952Y-88458945D01*
X119598952Y-88458945D02*
X119651333Y-88354183D01*
X119651333Y-88354183D02*
X119756095Y-88301802D01*
X119756095Y-88301802D02*
X119913238Y-88301802D01*
X119913238Y-88301802D02*
X120018000Y-88354183D01*
X120018000Y-88354183D02*
X120070381Y-88406564D01*
X131934666Y-89810835D02*
X131882285Y-89758454D01*
X131882285Y-89758454D02*
X131777523Y-89706073D01*
X131777523Y-89706073D02*
X131515618Y-89706073D01*
X131515618Y-89706073D02*
X131410856Y-89758454D01*
X131410856Y-89758454D02*
X131358475Y-89810835D01*
X131358475Y-89810835D02*
X131306094Y-89915597D01*
X131306094Y-89915597D02*
X131306094Y-90020359D01*
X131306094Y-90020359D02*
X131358475Y-90177502D01*
X131358475Y-90177502D02*
X131987047Y-90806073D01*
X131987047Y-90806073D02*
X131306094Y-90806073D01*
X130939428Y-90806073D02*
X130363237Y-90072740D01*
X130939428Y-90072740D02*
X130363237Y-90806073D01*
X128739428Y-90229883D02*
X128582285Y-90282264D01*
X128582285Y-90282264D02*
X128529904Y-90334645D01*
X128529904Y-90334645D02*
X128477523Y-90439407D01*
X128477523Y-90439407D02*
X128477523Y-90596550D01*
X128477523Y-90596550D02*
X128529904Y-90701312D01*
X128529904Y-90701312D02*
X128582285Y-90753693D01*
X128582285Y-90753693D02*
X128687047Y-90806073D01*
X128687047Y-90806073D02*
X129106095Y-90806073D01*
X129106095Y-90806073D02*
X129106095Y-89706073D01*
X129106095Y-89706073D02*
X128739428Y-89706073D01*
X128739428Y-89706073D02*
X128634666Y-89758454D01*
X128634666Y-89758454D02*
X128582285Y-89810835D01*
X128582285Y-89810835D02*
X128529904Y-89915597D01*
X128529904Y-89915597D02*
X128529904Y-90020359D01*
X128529904Y-90020359D02*
X128582285Y-90125121D01*
X128582285Y-90125121D02*
X128634666Y-90177502D01*
X128634666Y-90177502D02*
X128739428Y-90229883D01*
X128739428Y-90229883D02*
X129106095Y-90229883D01*
X127482285Y-90806073D02*
X128006095Y-90806073D01*
X128006095Y-90806073D02*
X128006095Y-89706073D01*
X127115619Y-90387026D02*
X126277524Y-90387026D01*
X125125142Y-90806073D02*
X125491809Y-90282264D01*
X125753714Y-90806073D02*
X125753714Y-89706073D01*
X125753714Y-89706073D02*
X125334666Y-89706073D01*
X125334666Y-89706073D02*
X125229904Y-89758454D01*
X125229904Y-89758454D02*
X125177523Y-89810835D01*
X125177523Y-89810835D02*
X125125142Y-89915597D01*
X125125142Y-89915597D02*
X125125142Y-90072740D01*
X125125142Y-90072740D02*
X125177523Y-90177502D01*
X125177523Y-90177502D02*
X125229904Y-90229883D01*
X125229904Y-90229883D02*
X125334666Y-90282264D01*
X125334666Y-90282264D02*
X125753714Y-90282264D01*
X124496571Y-90177502D02*
X124601333Y-90125121D01*
X124601333Y-90125121D02*
X124653714Y-90072740D01*
X124653714Y-90072740D02*
X124706095Y-89967978D01*
X124706095Y-89967978D02*
X124706095Y-89915597D01*
X124706095Y-89915597D02*
X124653714Y-89810835D01*
X124653714Y-89810835D02*
X124601333Y-89758454D01*
X124601333Y-89758454D02*
X124496571Y-89706073D01*
X124496571Y-89706073D02*
X124287047Y-89706073D01*
X124287047Y-89706073D02*
X124182285Y-89758454D01*
X124182285Y-89758454D02*
X124129904Y-89810835D01*
X124129904Y-89810835D02*
X124077523Y-89915597D01*
X124077523Y-89915597D02*
X124077523Y-89967978D01*
X124077523Y-89967978D02*
X124129904Y-90072740D01*
X124129904Y-90072740D02*
X124182285Y-90125121D01*
X124182285Y-90125121D02*
X124287047Y-90177502D01*
X124287047Y-90177502D02*
X124496571Y-90177502D01*
X124496571Y-90177502D02*
X124601333Y-90229883D01*
X124601333Y-90229883D02*
X124653714Y-90282264D01*
X124653714Y-90282264D02*
X124706095Y-90387026D01*
X124706095Y-90387026D02*
X124706095Y-90596550D01*
X124706095Y-90596550D02*
X124653714Y-90701312D01*
X124653714Y-90701312D02*
X124601333Y-90753693D01*
X124601333Y-90753693D02*
X124496571Y-90806073D01*
X124496571Y-90806073D02*
X124287047Y-90806073D01*
X124287047Y-90806073D02*
X124182285Y-90753693D01*
X124182285Y-90753693D02*
X124129904Y-90701312D01*
X124129904Y-90701312D02*
X124077523Y-90596550D01*
X124077523Y-90596550D02*
X124077523Y-90387026D01*
X124077523Y-90387026D02*
X124129904Y-90282264D01*
X124129904Y-90282264D02*
X124182285Y-90229883D01*
X124182285Y-90229883D02*
X124287047Y-90177502D01*
X123448952Y-90177502D02*
X123553714Y-90125121D01*
X123553714Y-90125121D02*
X123606095Y-90072740D01*
X123606095Y-90072740D02*
X123658476Y-89967978D01*
X123658476Y-89967978D02*
X123658476Y-89915597D01*
X123658476Y-89915597D02*
X123606095Y-89810835D01*
X123606095Y-89810835D02*
X123553714Y-89758454D01*
X123553714Y-89758454D02*
X123448952Y-89706073D01*
X123448952Y-89706073D02*
X123239428Y-89706073D01*
X123239428Y-89706073D02*
X123134666Y-89758454D01*
X123134666Y-89758454D02*
X123082285Y-89810835D01*
X123082285Y-89810835D02*
X123029904Y-89915597D01*
X123029904Y-89915597D02*
X123029904Y-89967978D01*
X123029904Y-89967978D02*
X123082285Y-90072740D01*
X123082285Y-90072740D02*
X123134666Y-90125121D01*
X123134666Y-90125121D02*
X123239428Y-90177502D01*
X123239428Y-90177502D02*
X123448952Y-90177502D01*
X123448952Y-90177502D02*
X123553714Y-90229883D01*
X123553714Y-90229883D02*
X123606095Y-90282264D01*
X123606095Y-90282264D02*
X123658476Y-90387026D01*
X123658476Y-90387026D02*
X123658476Y-90596550D01*
X123658476Y-90596550D02*
X123606095Y-90701312D01*
X123606095Y-90701312D02*
X123553714Y-90753693D01*
X123553714Y-90753693D02*
X123448952Y-90806073D01*
X123448952Y-90806073D02*
X123239428Y-90806073D01*
X123239428Y-90806073D02*
X123134666Y-90753693D01*
X123134666Y-90753693D02*
X123082285Y-90701312D01*
X123082285Y-90701312D02*
X123029904Y-90596550D01*
X123029904Y-90596550D02*
X123029904Y-90387026D01*
X123029904Y-90387026D02*
X123082285Y-90282264D01*
X123082285Y-90282264D02*
X123134666Y-90229883D01*
X123134666Y-90229883D02*
X123239428Y-90177502D01*
X121982285Y-90806073D02*
X122610857Y-90806073D01*
X122296571Y-90806073D02*
X122296571Y-89706073D01*
X122296571Y-89706073D02*
X122401333Y-89863216D01*
X122401333Y-89863216D02*
X122506095Y-89967978D01*
X122506095Y-89967978D02*
X122610857Y-90020359D01*
X121563238Y-89810835D02*
X121510857Y-89758454D01*
X121510857Y-89758454D02*
X121406095Y-89706073D01*
X121406095Y-89706073D02*
X121144190Y-89706073D01*
X121144190Y-89706073D02*
X121039428Y-89758454D01*
X121039428Y-89758454D02*
X120987047Y-89810835D01*
X120987047Y-89810835D02*
X120934666Y-89915597D01*
X120934666Y-89915597D02*
X120934666Y-90020359D01*
X120934666Y-90020359D02*
X120987047Y-90177502D01*
X120987047Y-90177502D02*
X121615619Y-90806073D01*
X121615619Y-90806073D02*
X120934666Y-90806073D01*
X120515619Y-90491788D02*
X119991809Y-90491788D01*
X120620381Y-90806073D02*
X120253714Y-89706073D01*
X120253714Y-89706073D02*
X119887047Y-90806073D01*
X119153714Y-90229883D02*
X119520381Y-90229883D01*
X119520381Y-90806073D02*
X119520381Y-89706073D01*
X119520381Y-89706073D02*
X118996571Y-89706073D01*
X118001333Y-90806073D02*
X118629905Y-90806073D01*
X118315619Y-90806073D02*
X118315619Y-89706073D01*
X118315619Y-89706073D02*
X118420381Y-89863216D01*
X118420381Y-89863216D02*
X118525143Y-89967978D01*
X118525143Y-89967978D02*
X118629905Y-90020359D01*
X130677523Y-92577011D02*
X131044190Y-92053202D01*
X131306095Y-92577011D02*
X131306095Y-91477011D01*
X131306095Y-91477011D02*
X130887047Y-91477011D01*
X130887047Y-91477011D02*
X130782285Y-91529392D01*
X130782285Y-91529392D02*
X130729904Y-91581773D01*
X130729904Y-91581773D02*
X130677523Y-91686535D01*
X130677523Y-91686535D02*
X130677523Y-91843678D01*
X130677523Y-91843678D02*
X130729904Y-91948440D01*
X130729904Y-91948440D02*
X130782285Y-92000821D01*
X130782285Y-92000821D02*
X130887047Y-92053202D01*
X130887047Y-92053202D02*
X131306095Y-92053202D01*
X130363238Y-91477011D02*
X129734666Y-91477011D01*
X130048952Y-92577011D02*
X130048952Y-91477011D01*
X128844190Y-92577011D02*
X129368000Y-92577011D01*
X129368000Y-92577011D02*
X129368000Y-91477011D01*
X128320381Y-91948440D02*
X128425143Y-91896059D01*
X128425143Y-91896059D02*
X128477524Y-91843678D01*
X128477524Y-91843678D02*
X128529905Y-91738916D01*
X128529905Y-91738916D02*
X128529905Y-91686535D01*
X128529905Y-91686535D02*
X128477524Y-91581773D01*
X128477524Y-91581773D02*
X128425143Y-91529392D01*
X128425143Y-91529392D02*
X128320381Y-91477011D01*
X128320381Y-91477011D02*
X128110857Y-91477011D01*
X128110857Y-91477011D02*
X128006095Y-91529392D01*
X128006095Y-91529392D02*
X127953714Y-91581773D01*
X127953714Y-91581773D02*
X127901333Y-91686535D01*
X127901333Y-91686535D02*
X127901333Y-91738916D01*
X127901333Y-91738916D02*
X127953714Y-91843678D01*
X127953714Y-91843678D02*
X128006095Y-91896059D01*
X128006095Y-91896059D02*
X128110857Y-91948440D01*
X128110857Y-91948440D02*
X128320381Y-91948440D01*
X128320381Y-91948440D02*
X128425143Y-92000821D01*
X128425143Y-92000821D02*
X128477524Y-92053202D01*
X128477524Y-92053202D02*
X128529905Y-92157964D01*
X128529905Y-92157964D02*
X128529905Y-92367488D01*
X128529905Y-92367488D02*
X128477524Y-92472250D01*
X128477524Y-92472250D02*
X128425143Y-92524631D01*
X128425143Y-92524631D02*
X128320381Y-92577011D01*
X128320381Y-92577011D02*
X128110857Y-92577011D01*
X128110857Y-92577011D02*
X128006095Y-92524631D01*
X128006095Y-92524631D02*
X127953714Y-92472250D01*
X127953714Y-92472250D02*
X127901333Y-92367488D01*
X127901333Y-92367488D02*
X127901333Y-92157964D01*
X127901333Y-92157964D02*
X127953714Y-92053202D01*
X127953714Y-92053202D02*
X128006095Y-92000821D01*
X128006095Y-92000821D02*
X128110857Y-91948440D01*
X127272762Y-91948440D02*
X127377524Y-91896059D01*
X127377524Y-91896059D02*
X127429905Y-91843678D01*
X127429905Y-91843678D02*
X127482286Y-91738916D01*
X127482286Y-91738916D02*
X127482286Y-91686535D01*
X127482286Y-91686535D02*
X127429905Y-91581773D01*
X127429905Y-91581773D02*
X127377524Y-91529392D01*
X127377524Y-91529392D02*
X127272762Y-91477011D01*
X127272762Y-91477011D02*
X127063238Y-91477011D01*
X127063238Y-91477011D02*
X126958476Y-91529392D01*
X126958476Y-91529392D02*
X126906095Y-91581773D01*
X126906095Y-91581773D02*
X126853714Y-91686535D01*
X126853714Y-91686535D02*
X126853714Y-91738916D01*
X126853714Y-91738916D02*
X126906095Y-91843678D01*
X126906095Y-91843678D02*
X126958476Y-91896059D01*
X126958476Y-91896059D02*
X127063238Y-91948440D01*
X127063238Y-91948440D02*
X127272762Y-91948440D01*
X127272762Y-91948440D02*
X127377524Y-92000821D01*
X127377524Y-92000821D02*
X127429905Y-92053202D01*
X127429905Y-92053202D02*
X127482286Y-92157964D01*
X127482286Y-92157964D02*
X127482286Y-92367488D01*
X127482286Y-92367488D02*
X127429905Y-92472250D01*
X127429905Y-92472250D02*
X127377524Y-92524631D01*
X127377524Y-92524631D02*
X127272762Y-92577011D01*
X127272762Y-92577011D02*
X127063238Y-92577011D01*
X127063238Y-92577011D02*
X126958476Y-92524631D01*
X126958476Y-92524631D02*
X126906095Y-92472250D01*
X126906095Y-92472250D02*
X126853714Y-92367488D01*
X126853714Y-92367488D02*
X126853714Y-92157964D01*
X126853714Y-92157964D02*
X126906095Y-92053202D01*
X126906095Y-92053202D02*
X126958476Y-92000821D01*
X126958476Y-92000821D02*
X127063238Y-91948440D01*
X125806095Y-92577011D02*
X126434667Y-92577011D01*
X126120381Y-92577011D02*
X126120381Y-91477011D01*
X126120381Y-91477011D02*
X126225143Y-91634154D01*
X126225143Y-91634154D02*
X126329905Y-91738916D01*
X126329905Y-91738916D02*
X126434667Y-91791297D01*
X125387048Y-91581773D02*
X125334667Y-91529392D01*
X125334667Y-91529392D02*
X125229905Y-91477011D01*
X125229905Y-91477011D02*
X124968000Y-91477011D01*
X124968000Y-91477011D02*
X124863238Y-91529392D01*
X124863238Y-91529392D02*
X124810857Y-91581773D01*
X124810857Y-91581773D02*
X124758476Y-91686535D01*
X124758476Y-91686535D02*
X124758476Y-91791297D01*
X124758476Y-91791297D02*
X124810857Y-91948440D01*
X124810857Y-91948440D02*
X125439429Y-92577011D01*
X125439429Y-92577011D02*
X124758476Y-92577011D01*
X124339429Y-92262726D02*
X123815619Y-92262726D01*
X124444191Y-92577011D02*
X124077524Y-91477011D01*
X124077524Y-91477011D02*
X123710857Y-92577011D01*
X123344191Y-91477011D02*
X123344191Y-92367488D01*
X123344191Y-92367488D02*
X123291810Y-92472250D01*
X123291810Y-92472250D02*
X123239429Y-92524631D01*
X123239429Y-92524631D02*
X123134667Y-92577011D01*
X123134667Y-92577011D02*
X122925143Y-92577011D01*
X122925143Y-92577011D02*
X122820381Y-92524631D01*
X122820381Y-92524631D02*
X122768000Y-92472250D01*
X122768000Y-92472250D02*
X122715619Y-92367488D01*
X122715619Y-92367488D02*
X122715619Y-91477011D01*
X121458477Y-91477011D02*
X121196572Y-92577011D01*
X121196572Y-92577011D02*
X120987048Y-91791297D01*
X120987048Y-91791297D02*
X120777524Y-92577011D01*
X120777524Y-92577011D02*
X120515620Y-91477011D01*
X120096572Y-92577011D02*
X120096572Y-91477011D01*
X119206095Y-92000821D02*
X119572762Y-92000821D01*
X119572762Y-92577011D02*
X119572762Y-91477011D01*
X119572762Y-91477011D02*
X119048952Y-91477011D01*
X118629905Y-92577011D02*
X118629905Y-91477011D01*
X130991808Y-94347949D02*
X130991808Y-93614616D01*
X130991808Y-93719378D02*
X130939427Y-93666997D01*
X130939427Y-93666997D02*
X130834665Y-93614616D01*
X130834665Y-93614616D02*
X130677522Y-93614616D01*
X130677522Y-93614616D02*
X130572760Y-93666997D01*
X130572760Y-93666997D02*
X130520379Y-93771759D01*
X130520379Y-93771759D02*
X130520379Y-94347949D01*
X130520379Y-93771759D02*
X130467998Y-93666997D01*
X130467998Y-93666997D02*
X130363236Y-93614616D01*
X130363236Y-93614616D02*
X130206093Y-93614616D01*
X130206093Y-93614616D02*
X130101332Y-93666997D01*
X130101332Y-93666997D02*
X130048951Y-93771759D01*
X130048951Y-93771759D02*
X130048951Y-94347949D01*
X129367998Y-94347949D02*
X129472760Y-94295569D01*
X129472760Y-94295569D02*
X129525141Y-94243188D01*
X129525141Y-94243188D02*
X129577522Y-94138426D01*
X129577522Y-94138426D02*
X129577522Y-93824140D01*
X129577522Y-93824140D02*
X129525141Y-93719378D01*
X129525141Y-93719378D02*
X129472760Y-93666997D01*
X129472760Y-93666997D02*
X129367998Y-93614616D01*
X129367998Y-93614616D02*
X129210855Y-93614616D01*
X129210855Y-93614616D02*
X129106093Y-93666997D01*
X129106093Y-93666997D02*
X129053712Y-93719378D01*
X129053712Y-93719378D02*
X129001331Y-93824140D01*
X129001331Y-93824140D02*
X129001331Y-94138426D01*
X129001331Y-94138426D02*
X129053712Y-94243188D01*
X129053712Y-94243188D02*
X129106093Y-94295569D01*
X129106093Y-94295569D02*
X129210855Y-94347949D01*
X129210855Y-94347949D02*
X129367998Y-94347949D01*
X128058474Y-94347949D02*
X128058474Y-93247949D01*
X128058474Y-94295569D02*
X128163236Y-94347949D01*
X128163236Y-94347949D02*
X128372760Y-94347949D01*
X128372760Y-94347949D02*
X128477522Y-94295569D01*
X128477522Y-94295569D02*
X128529903Y-94243188D01*
X128529903Y-94243188D02*
X128582284Y-94138426D01*
X128582284Y-94138426D02*
X128582284Y-93824140D01*
X128582284Y-93824140D02*
X128529903Y-93719378D01*
X128529903Y-93719378D02*
X128477522Y-93666997D01*
X128477522Y-93666997D02*
X128372760Y-93614616D01*
X128372760Y-93614616D02*
X128163236Y-93614616D01*
X128163236Y-93614616D02*
X128058474Y-93666997D01*
X127063236Y-93614616D02*
X127063236Y-94347949D01*
X127534665Y-93614616D02*
X127534665Y-94190807D01*
X127534665Y-94190807D02*
X127482284Y-94295569D01*
X127482284Y-94295569D02*
X127377522Y-94347949D01*
X127377522Y-94347949D02*
X127220379Y-94347949D01*
X127220379Y-94347949D02*
X127115617Y-94295569D01*
X127115617Y-94295569D02*
X127063236Y-94243188D01*
X126382284Y-94347949D02*
X126487046Y-94295569D01*
X126487046Y-94295569D02*
X126539427Y-94190807D01*
X126539427Y-94190807D02*
X126539427Y-93247949D01*
X125544189Y-94295569D02*
X125648951Y-94347949D01*
X125648951Y-94347949D02*
X125858475Y-94347949D01*
X125858475Y-94347949D02*
X125963237Y-94295569D01*
X125963237Y-94295569D02*
X126015618Y-94190807D01*
X126015618Y-94190807D02*
X126015618Y-93771759D01*
X126015618Y-93771759D02*
X125963237Y-93666997D01*
X125963237Y-93666997D02*
X125858475Y-93614616D01*
X125858475Y-93614616D02*
X125648951Y-93614616D01*
X125648951Y-93614616D02*
X125544189Y-93666997D01*
X125544189Y-93666997D02*
X125491808Y-93771759D01*
X125491808Y-93771759D02*
X125491808Y-93876521D01*
X125491808Y-93876521D02*
X126015618Y-93981283D01*
X125072761Y-94295569D02*
X124967999Y-94347949D01*
X124967999Y-94347949D02*
X124758475Y-94347949D01*
X124758475Y-94347949D02*
X124653713Y-94295569D01*
X124653713Y-94295569D02*
X124601332Y-94190807D01*
X124601332Y-94190807D02*
X124601332Y-94138426D01*
X124601332Y-94138426D02*
X124653713Y-94033664D01*
X124653713Y-94033664D02*
X124758475Y-93981283D01*
X124758475Y-93981283D02*
X124915618Y-93981283D01*
X124915618Y-93981283D02*
X125020380Y-93928902D01*
X125020380Y-93928902D02*
X125072761Y-93824140D01*
X125072761Y-93824140D02*
X125072761Y-93771759D01*
X125072761Y-93771759D02*
X125020380Y-93666997D01*
X125020380Y-93666997D02*
X124915618Y-93614616D01*
X124915618Y-93614616D02*
X124758475Y-93614616D01*
X124758475Y-93614616D02*
X124653713Y-93666997D01*
X122820380Y-94347949D02*
X122820380Y-93771759D01*
X122820380Y-93771759D02*
X122872761Y-93666997D01*
X122872761Y-93666997D02*
X122977523Y-93614616D01*
X122977523Y-93614616D02*
X123187047Y-93614616D01*
X123187047Y-93614616D02*
X123291809Y-93666997D01*
X122820380Y-94295569D02*
X122925142Y-94347949D01*
X122925142Y-94347949D02*
X123187047Y-94347949D01*
X123187047Y-94347949D02*
X123291809Y-94295569D01*
X123291809Y-94295569D02*
X123344190Y-94190807D01*
X123344190Y-94190807D02*
X123344190Y-94086045D01*
X123344190Y-94086045D02*
X123291809Y-93981283D01*
X123291809Y-93981283D02*
X123187047Y-93928902D01*
X123187047Y-93928902D02*
X122925142Y-93928902D01*
X122925142Y-93928902D02*
X122820380Y-93876521D01*
X122296571Y-93614616D02*
X122296571Y-94347949D01*
X122296571Y-93719378D02*
X122244190Y-93666997D01*
X122244190Y-93666997D02*
X122139428Y-93614616D01*
X122139428Y-93614616D02*
X121982285Y-93614616D01*
X121982285Y-93614616D02*
X121877523Y-93666997D01*
X121877523Y-93666997D02*
X121825142Y-93771759D01*
X121825142Y-93771759D02*
X121825142Y-94347949D01*
X120829904Y-94347949D02*
X120829904Y-93247949D01*
X120829904Y-94295569D02*
X120934666Y-94347949D01*
X120934666Y-94347949D02*
X121144190Y-94347949D01*
X121144190Y-94347949D02*
X121248952Y-94295569D01*
X121248952Y-94295569D02*
X121301333Y-94243188D01*
X121301333Y-94243188D02*
X121353714Y-94138426D01*
X121353714Y-94138426D02*
X121353714Y-93824140D01*
X121353714Y-93824140D02*
X121301333Y-93719378D01*
X121301333Y-93719378D02*
X121248952Y-93666997D01*
X121248952Y-93666997D02*
X121144190Y-93614616D01*
X121144190Y-93614616D02*
X120934666Y-93614616D01*
X120934666Y-93614616D02*
X120829904Y-93666997D01*
X119520381Y-93352711D02*
X119468000Y-93300330D01*
X119468000Y-93300330D02*
X119363238Y-93247949D01*
X119363238Y-93247949D02*
X119101333Y-93247949D01*
X119101333Y-93247949D02*
X118996571Y-93300330D01*
X118996571Y-93300330D02*
X118944190Y-93352711D01*
X118944190Y-93352711D02*
X118891809Y-93457473D01*
X118891809Y-93457473D02*
X118891809Y-93562235D01*
X118891809Y-93562235D02*
X118944190Y-93719378D01*
X118944190Y-93719378D02*
X119572762Y-94347949D01*
X119572762Y-94347949D02*
X118891809Y-94347949D01*
X130939426Y-96066507D02*
X131044188Y-96118887D01*
X131044188Y-96118887D02*
X131253712Y-96118887D01*
X131253712Y-96118887D02*
X131358474Y-96066507D01*
X131358474Y-96066507D02*
X131410855Y-95961745D01*
X131410855Y-95961745D02*
X131410855Y-95542697D01*
X131410855Y-95542697D02*
X131358474Y-95437935D01*
X131358474Y-95437935D02*
X131253712Y-95385554D01*
X131253712Y-95385554D02*
X131044188Y-95385554D01*
X131044188Y-95385554D02*
X130939426Y-95437935D01*
X130939426Y-95437935D02*
X130887045Y-95542697D01*
X130887045Y-95542697D02*
X130887045Y-95647459D01*
X130887045Y-95647459D02*
X131410855Y-95752221D01*
X130520379Y-96118887D02*
X129944188Y-95385554D01*
X130520379Y-95385554D02*
X129944188Y-96118887D01*
X129682284Y-95385554D02*
X129263236Y-95385554D01*
X129525141Y-95018887D02*
X129525141Y-95961745D01*
X129525141Y-95961745D02*
X129472760Y-96066507D01*
X129472760Y-96066507D02*
X129367998Y-96118887D01*
X129367998Y-96118887D02*
X129263236Y-96118887D01*
X128896570Y-96118887D02*
X128896570Y-95385554D01*
X128896570Y-95595078D02*
X128844189Y-95490316D01*
X128844189Y-95490316D02*
X128791808Y-95437935D01*
X128791808Y-95437935D02*
X128687046Y-95385554D01*
X128687046Y-95385554D02*
X128582284Y-95385554D01*
X127744189Y-96118887D02*
X127744189Y-95542697D01*
X127744189Y-95542697D02*
X127796570Y-95437935D01*
X127796570Y-95437935D02*
X127901332Y-95385554D01*
X127901332Y-95385554D02*
X128110856Y-95385554D01*
X128110856Y-95385554D02*
X128215618Y-95437935D01*
X127744189Y-96066507D02*
X127848951Y-96118887D01*
X127848951Y-96118887D02*
X128110856Y-96118887D01*
X128110856Y-96118887D02*
X128215618Y-96066507D01*
X128215618Y-96066507D02*
X128267999Y-95961745D01*
X128267999Y-95961745D02*
X128267999Y-95856983D01*
X128267999Y-95856983D02*
X128215618Y-95752221D01*
X128215618Y-95752221D02*
X128110856Y-95699840D01*
X128110856Y-95699840D02*
X127848951Y-95699840D01*
X127848951Y-95699840D02*
X127744189Y-95647459D01*
X126382285Y-95018887D02*
X126382285Y-95909364D01*
X126382285Y-95909364D02*
X126329904Y-96014126D01*
X126329904Y-96014126D02*
X126277523Y-96066507D01*
X126277523Y-96066507D02*
X126172761Y-96118887D01*
X126172761Y-96118887D02*
X125963237Y-96118887D01*
X125963237Y-96118887D02*
X125858475Y-96066507D01*
X125858475Y-96066507D02*
X125806094Y-96014126D01*
X125806094Y-96014126D02*
X125753713Y-95909364D01*
X125753713Y-95909364D02*
X125753713Y-95018887D01*
X125282285Y-96066507D02*
X125125142Y-96118887D01*
X125125142Y-96118887D02*
X124863237Y-96118887D01*
X124863237Y-96118887D02*
X124758475Y-96066507D01*
X124758475Y-96066507D02*
X124706094Y-96014126D01*
X124706094Y-96014126D02*
X124653713Y-95909364D01*
X124653713Y-95909364D02*
X124653713Y-95804602D01*
X124653713Y-95804602D02*
X124706094Y-95699840D01*
X124706094Y-95699840D02*
X124758475Y-95647459D01*
X124758475Y-95647459D02*
X124863237Y-95595078D01*
X124863237Y-95595078D02*
X125072761Y-95542697D01*
X125072761Y-95542697D02*
X125177523Y-95490316D01*
X125177523Y-95490316D02*
X125229904Y-95437935D01*
X125229904Y-95437935D02*
X125282285Y-95333173D01*
X125282285Y-95333173D02*
X125282285Y-95228411D01*
X125282285Y-95228411D02*
X125229904Y-95123649D01*
X125229904Y-95123649D02*
X125177523Y-95071268D01*
X125177523Y-95071268D02*
X125072761Y-95018887D01*
X125072761Y-95018887D02*
X124810856Y-95018887D01*
X124810856Y-95018887D02*
X124653713Y-95071268D01*
X123815618Y-95542697D02*
X123658475Y-95595078D01*
X123658475Y-95595078D02*
X123606094Y-95647459D01*
X123606094Y-95647459D02*
X123553713Y-95752221D01*
X123553713Y-95752221D02*
X123553713Y-95909364D01*
X123553713Y-95909364D02*
X123606094Y-96014126D01*
X123606094Y-96014126D02*
X123658475Y-96066507D01*
X123658475Y-96066507D02*
X123763237Y-96118887D01*
X123763237Y-96118887D02*
X124182285Y-96118887D01*
X124182285Y-96118887D02*
X124182285Y-95018887D01*
X124182285Y-95018887D02*
X123815618Y-95018887D01*
X123815618Y-95018887D02*
X123710856Y-95071268D01*
X123710856Y-95071268D02*
X123658475Y-95123649D01*
X123658475Y-95123649D02*
X123606094Y-95228411D01*
X123606094Y-95228411D02*
X123606094Y-95333173D01*
X123606094Y-95333173D02*
X123658475Y-95437935D01*
X123658475Y-95437935D02*
X123710856Y-95490316D01*
X123710856Y-95490316D02*
X123815618Y-95542697D01*
X123815618Y-95542697D02*
X124182285Y-95542697D01*
X122244190Y-95385554D02*
X122244190Y-96485554D01*
X122244190Y-95437935D02*
X122139428Y-95385554D01*
X122139428Y-95385554D02*
X121929904Y-95385554D01*
X121929904Y-95385554D02*
X121825142Y-95437935D01*
X121825142Y-95437935D02*
X121772761Y-95490316D01*
X121772761Y-95490316D02*
X121720380Y-95595078D01*
X121720380Y-95595078D02*
X121720380Y-95909364D01*
X121720380Y-95909364D02*
X121772761Y-96014126D01*
X121772761Y-96014126D02*
X121825142Y-96066507D01*
X121825142Y-96066507D02*
X121929904Y-96118887D01*
X121929904Y-96118887D02*
X122139428Y-96118887D01*
X122139428Y-96118887D02*
X122244190Y-96066507D01*
X121091809Y-96118887D02*
X121196571Y-96066507D01*
X121196571Y-96066507D02*
X121248952Y-96014126D01*
X121248952Y-96014126D02*
X121301333Y-95909364D01*
X121301333Y-95909364D02*
X121301333Y-95595078D01*
X121301333Y-95595078D02*
X121248952Y-95490316D01*
X121248952Y-95490316D02*
X121196571Y-95437935D01*
X121196571Y-95437935D02*
X121091809Y-95385554D01*
X121091809Y-95385554D02*
X120934666Y-95385554D01*
X120934666Y-95385554D02*
X120829904Y-95437935D01*
X120829904Y-95437935D02*
X120777523Y-95490316D01*
X120777523Y-95490316D02*
X120725142Y-95595078D01*
X120725142Y-95595078D02*
X120725142Y-95909364D01*
X120725142Y-95909364D02*
X120777523Y-96014126D01*
X120777523Y-96014126D02*
X120829904Y-96066507D01*
X120829904Y-96066507D02*
X120934666Y-96118887D01*
X120934666Y-96118887D02*
X121091809Y-96118887D01*
X120253714Y-96118887D02*
X120253714Y-95385554D01*
X120253714Y-95595078D02*
X120201333Y-95490316D01*
X120201333Y-95490316D02*
X120148952Y-95437935D01*
X120148952Y-95437935D02*
X120044190Y-95385554D01*
X120044190Y-95385554D02*
X119939428Y-95385554D01*
X119729905Y-95385554D02*
X119310857Y-95385554D01*
X119572762Y-95018887D02*
X119572762Y-95961745D01*
X119572762Y-95961745D02*
X119520381Y-96066507D01*
X119520381Y-96066507D02*
X119415619Y-96118887D01*
X119415619Y-96118887D02*
X119310857Y-96118887D01*
X118996572Y-96066507D02*
X118891810Y-96118887D01*
X118891810Y-96118887D02*
X118682286Y-96118887D01*
X118682286Y-96118887D02*
X118577524Y-96066507D01*
X118577524Y-96066507D02*
X118525143Y-95961745D01*
X118525143Y-95961745D02*
X118525143Y-95909364D01*
X118525143Y-95909364D02*
X118577524Y-95804602D01*
X118577524Y-95804602D02*
X118682286Y-95752221D01*
X118682286Y-95752221D02*
X118839429Y-95752221D01*
X118839429Y-95752221D02*
X118944191Y-95699840D01*
X118944191Y-95699840D02*
X118996572Y-95595078D01*
X118996572Y-95595078D02*
X118996572Y-95542697D01*
X118996572Y-95542697D02*
X118944191Y-95437935D01*
X118944191Y-95437935D02*
X118839429Y-95385554D01*
X118839429Y-95385554D02*
X118682286Y-95385554D01*
X118682286Y-95385554D02*
X118577524Y-95437935D01*
X132510855Y-97575540D02*
X131987045Y-97575540D01*
X132615617Y-97889825D02*
X132248950Y-96789825D01*
X132248950Y-96789825D02*
X131882283Y-97889825D01*
X131515617Y-97889825D02*
X131515617Y-97156492D01*
X131515617Y-97366016D02*
X131463236Y-97261254D01*
X131463236Y-97261254D02*
X131410855Y-97208873D01*
X131410855Y-97208873D02*
X131306093Y-97156492D01*
X131306093Y-97156492D02*
X131201331Y-97156492D01*
X130991808Y-97156492D02*
X130572760Y-97156492D01*
X130834665Y-96789825D02*
X130834665Y-97732683D01*
X130834665Y-97732683D02*
X130782284Y-97837445D01*
X130782284Y-97837445D02*
X130677522Y-97889825D01*
X130677522Y-97889825D02*
X130572760Y-97889825D01*
X129734665Y-97156492D02*
X129734665Y-97889825D01*
X130206094Y-97156492D02*
X130206094Y-97732683D01*
X130206094Y-97732683D02*
X130153713Y-97837445D01*
X130153713Y-97837445D02*
X130048951Y-97889825D01*
X130048951Y-97889825D02*
X129891808Y-97889825D01*
X129891808Y-97889825D02*
X129787046Y-97837445D01*
X129787046Y-97837445D02*
X129734665Y-97785064D01*
X129210856Y-97889825D02*
X129210856Y-97156492D01*
X129210856Y-97366016D02*
X129158475Y-97261254D01*
X129158475Y-97261254D02*
X129106094Y-97208873D01*
X129106094Y-97208873D02*
X129001332Y-97156492D01*
X129001332Y-97156492D02*
X128896570Y-97156492D01*
X127691809Y-97889825D02*
X127691809Y-96789825D01*
X127691809Y-96789825D02*
X127272761Y-96789825D01*
X127272761Y-96789825D02*
X127167999Y-96842206D01*
X127167999Y-96842206D02*
X127115618Y-96894587D01*
X127115618Y-96894587D02*
X127063237Y-96999349D01*
X127063237Y-96999349D02*
X127063237Y-97156492D01*
X127063237Y-97156492D02*
X127115618Y-97261254D01*
X127115618Y-97261254D02*
X127167999Y-97313635D01*
X127167999Y-97313635D02*
X127272761Y-97366016D01*
X127272761Y-97366016D02*
X127691809Y-97366016D01*
X126172761Y-97837445D02*
X126277523Y-97889825D01*
X126277523Y-97889825D02*
X126487047Y-97889825D01*
X126487047Y-97889825D02*
X126591809Y-97837445D01*
X126591809Y-97837445D02*
X126644190Y-97732683D01*
X126644190Y-97732683D02*
X126644190Y-97313635D01*
X126644190Y-97313635D02*
X126591809Y-97208873D01*
X126591809Y-97208873D02*
X126487047Y-97156492D01*
X126487047Y-97156492D02*
X126277523Y-97156492D01*
X126277523Y-97156492D02*
X126172761Y-97208873D01*
X126172761Y-97208873D02*
X126120380Y-97313635D01*
X126120380Y-97313635D02*
X126120380Y-97418397D01*
X126120380Y-97418397D02*
X126644190Y-97523159D01*
X126382285Y-97889825D02*
X126487047Y-97994587D01*
X126487047Y-97994587D02*
X126539428Y-98099349D01*
X126539428Y-98099349D02*
X126487047Y-98204111D01*
X126487047Y-98204111D02*
X126382285Y-98256492D01*
X126382285Y-98256492D02*
X126277523Y-98256492D01*
X125648952Y-97889825D02*
X125648952Y-96789825D01*
X125544190Y-97470778D02*
X125229904Y-97889825D01*
X125229904Y-97156492D02*
X125648952Y-97575540D01*
X124601333Y-97889825D02*
X124706095Y-97837445D01*
X124706095Y-97837445D02*
X124758476Y-97785064D01*
X124758476Y-97785064D02*
X124810857Y-97680302D01*
X124810857Y-97680302D02*
X124810857Y-97366016D01*
X124810857Y-97366016D02*
X124758476Y-97261254D01*
X124758476Y-97261254D02*
X124706095Y-97208873D01*
X124706095Y-97208873D02*
X124601333Y-97156492D01*
X124601333Y-97156492D02*
X124444190Y-97156492D01*
X124444190Y-97156492D02*
X124339428Y-97208873D01*
X124339428Y-97208873D02*
X124287047Y-97261254D01*
X124287047Y-97261254D02*
X124234666Y-97366016D01*
X124234666Y-97366016D02*
X124234666Y-97680302D01*
X124234666Y-97680302D02*
X124287047Y-97785064D01*
X124287047Y-97785064D02*
X124339428Y-97837445D01*
X124339428Y-97837445D02*
X124444190Y-97889825D01*
X124444190Y-97889825D02*
X124601333Y-97889825D01*
X123815619Y-97837445D02*
X123710857Y-97889825D01*
X123710857Y-97889825D02*
X123501333Y-97889825D01*
X123501333Y-97889825D02*
X123396571Y-97837445D01*
X123396571Y-97837445D02*
X123344190Y-97732683D01*
X123344190Y-97732683D02*
X123344190Y-97680302D01*
X123344190Y-97680302D02*
X123396571Y-97575540D01*
X123396571Y-97575540D02*
X123501333Y-97523159D01*
X123501333Y-97523159D02*
X123658476Y-97523159D01*
X123658476Y-97523159D02*
X123763238Y-97470778D01*
X123763238Y-97470778D02*
X123815619Y-97366016D01*
X123815619Y-97366016D02*
X123815619Y-97313635D01*
X123815619Y-97313635D02*
X123763238Y-97208873D01*
X123763238Y-97208873D02*
X123658476Y-97156492D01*
X123658476Y-97156492D02*
X123501333Y-97156492D01*
X123501333Y-97156492D02*
X123396571Y-97208873D01*
X122977524Y-97156492D02*
X122401333Y-97156492D01*
X122401333Y-97156492D02*
X122977524Y-97889825D01*
X122977524Y-97889825D02*
X122401333Y-97889825D01*
X121196572Y-96894587D02*
X121144191Y-96842206D01*
X121144191Y-96842206D02*
X121039429Y-96789825D01*
X121039429Y-96789825D02*
X120777524Y-96789825D01*
X120777524Y-96789825D02*
X120672762Y-96842206D01*
X120672762Y-96842206D02*
X120620381Y-96894587D01*
X120620381Y-96894587D02*
X120568000Y-96999349D01*
X120568000Y-96999349D02*
X120568000Y-97104111D01*
X120568000Y-97104111D02*
X120620381Y-97261254D01*
X120620381Y-97261254D02*
X121248953Y-97889825D01*
X121248953Y-97889825D02*
X120568000Y-97889825D01*
X119887048Y-96789825D02*
X119782286Y-96789825D01*
X119782286Y-96789825D02*
X119677524Y-96842206D01*
X119677524Y-96842206D02*
X119625143Y-96894587D01*
X119625143Y-96894587D02*
X119572762Y-96999349D01*
X119572762Y-96999349D02*
X119520381Y-97208873D01*
X119520381Y-97208873D02*
X119520381Y-97470778D01*
X119520381Y-97470778D02*
X119572762Y-97680302D01*
X119572762Y-97680302D02*
X119625143Y-97785064D01*
X119625143Y-97785064D02*
X119677524Y-97837445D01*
X119677524Y-97837445D02*
X119782286Y-97889825D01*
X119782286Y-97889825D02*
X119887048Y-97889825D01*
X119887048Y-97889825D02*
X119991810Y-97837445D01*
X119991810Y-97837445D02*
X120044191Y-97785064D01*
X120044191Y-97785064D02*
X120096572Y-97680302D01*
X120096572Y-97680302D02*
X120148953Y-97470778D01*
X120148953Y-97470778D02*
X120148953Y-97208873D01*
X120148953Y-97208873D02*
X120096572Y-96999349D01*
X120096572Y-96999349D02*
X120044191Y-96894587D01*
X120044191Y-96894587D02*
X119991810Y-96842206D01*
X119991810Y-96842206D02*
X119887048Y-96789825D01*
X119101334Y-96894587D02*
X119048953Y-96842206D01*
X119048953Y-96842206D02*
X118944191Y-96789825D01*
X118944191Y-96789825D02*
X118682286Y-96789825D01*
X118682286Y-96789825D02*
X118577524Y-96842206D01*
X118577524Y-96842206D02*
X118525143Y-96894587D01*
X118525143Y-96894587D02*
X118472762Y-96999349D01*
X118472762Y-96999349D02*
X118472762Y-97104111D01*
X118472762Y-97104111D02*
X118525143Y-97261254D01*
X118525143Y-97261254D02*
X119153715Y-97889825D01*
X119153715Y-97889825D02*
X118472762Y-97889825D01*
X117529905Y-97156492D02*
X117529905Y-97889825D01*
X117791810Y-96737445D02*
X118053715Y-97523159D01*
X118053715Y-97523159D02*
X117372762Y-97523159D01*
D11*
G36*
X109868570Y-86122739D02*
G01*
X109940216Y-86153407D01*
X109997445Y-86193912D01*
X110031837Y-86226306D01*
X110031837Y-86170653D01*
X110031837Y-86115000D01*
X110138139Y-86115000D01*
X110244441Y-86115000D01*
X110244441Y-86640000D01*
X110244441Y-87165000D01*
X110138139Y-87165000D01*
X110031837Y-87165000D01*
X110031837Y-86820848D01*
X110031828Y-86791905D01*
X110031493Y-86686816D01*
X110030317Y-86603021D01*
X110027822Y-86537535D01*
X110023532Y-86487376D01*
X110016969Y-86449560D01*
X110007655Y-86421103D01*
X109995114Y-86399021D01*
X109978869Y-86380330D01*
X109958441Y-86362048D01*
X109945089Y-86351794D01*
X109885421Y-86324536D01*
X109819183Y-86320056D01*
X109750268Y-86338791D01*
X109727833Y-86348640D01*
X109700427Y-86360409D01*
X109688822Y-86365000D01*
X109686201Y-86362441D01*
X109671023Y-86345032D01*
X109645535Y-86314778D01*
X109613358Y-86275949D01*
X109540063Y-86186898D01*
X109570218Y-86163410D01*
X109610588Y-86140065D01*
X109671192Y-86119090D01*
X109736640Y-86107067D01*
X109796296Y-86106665D01*
X109868570Y-86122739D01*
G37*
G36*
X105574539Y-86104045D02*
G01*
X105644410Y-86119598D01*
X105712737Y-86148347D01*
X105767983Y-86185909D01*
X105817263Y-86230409D01*
X105817263Y-86172704D01*
X105817263Y-86115000D01*
X105923565Y-86115000D01*
X106029867Y-86115000D01*
X106029867Y-86640000D01*
X106029867Y-87165000D01*
X105923565Y-87165000D01*
X105817263Y-87165000D01*
X105817263Y-86823898D01*
X105817231Y-86751329D01*
X105816963Y-86665116D01*
X105816228Y-86598430D01*
X105814794Y-86548032D01*
X105812433Y-86510685D01*
X105808916Y-86483148D01*
X105804011Y-86462185D01*
X105797490Y-86444556D01*
X105789124Y-86427023D01*
X105785621Y-86420413D01*
X105744652Y-86369811D01*
X105690429Y-86335658D01*
X105628756Y-86319575D01*
X105565438Y-86323182D01*
X105506283Y-86348099D01*
X105483931Y-86360572D01*
X105468464Y-86357796D01*
X105449192Y-86337230D01*
X105434431Y-86319418D01*
X105405413Y-86284522D01*
X105373934Y-86246762D01*
X105324548Y-86187607D01*
X105355174Y-86163834D01*
X105392011Y-86142757D01*
X105444411Y-86122723D01*
X105500206Y-86108138D01*
X105548380Y-86102500D01*
X105574539Y-86104045D01*
G37*
G36*
X105356622Y-84467973D02*
G01*
X105435849Y-84493179D01*
X105503349Y-84535572D01*
X105553162Y-84578188D01*
X105557024Y-84524719D01*
X105560886Y-84471250D01*
X105664062Y-84467619D01*
X105767238Y-84463988D01*
X105767238Y-84989494D01*
X105767238Y-85515000D01*
X105660936Y-85515000D01*
X105554633Y-85515000D01*
X105554614Y-85168125D01*
X105554586Y-85120798D01*
X105554115Y-85018244D01*
X105552638Y-84936609D01*
X105549608Y-84872977D01*
X105544483Y-84824430D01*
X105536717Y-84788051D01*
X105525767Y-84760923D01*
X105511088Y-84740129D01*
X105492137Y-84722752D01*
X105468367Y-84705874D01*
X105447065Y-84694733D01*
X105398549Y-84681223D01*
X105345014Y-84676608D01*
X105295738Y-84681336D01*
X105260002Y-84695852D01*
X105241904Y-84707299D01*
X105221513Y-84714602D01*
X105216521Y-84712461D01*
X105196885Y-84695554D01*
X105168230Y-84665441D01*
X105134856Y-84626496D01*
X105112323Y-84598954D01*
X105086321Y-84564499D01*
X105076757Y-84541420D01*
X105084359Y-84524406D01*
X105109858Y-84508145D01*
X105153984Y-84487326D01*
X105192214Y-84473153D01*
X105272974Y-84460961D01*
X105356622Y-84467973D01*
G37*
G36*
X104746669Y-84475998D02*
G01*
X104835915Y-84509911D01*
X104916025Y-84562112D01*
X104983794Y-84632022D01*
X105036020Y-84719060D01*
X105069878Y-84818349D01*
X105087281Y-84928325D01*
X105087948Y-85041685D01*
X105072274Y-85152610D01*
X105040655Y-85255281D01*
X104993488Y-85343880D01*
X104943329Y-85403466D01*
X104870732Y-85458248D01*
X104779252Y-85499875D01*
X104752304Y-85508384D01*
X104652503Y-85524827D01*
X104551003Y-85520344D01*
X104452940Y-85496058D01*
X104363449Y-85453089D01*
X104287665Y-85392558D01*
X104240046Y-85343721D01*
X104314450Y-85279295D01*
X104388854Y-85214870D01*
X104453313Y-85258226D01*
X104510767Y-85290429D01*
X104588220Y-85312648D01*
X104666517Y-85310198D01*
X104747330Y-85283223D01*
X104789465Y-85254565D01*
X104831475Y-85200935D01*
X104860643Y-85130427D01*
X104875734Y-85046240D01*
X104875511Y-84951569D01*
X104870702Y-84909740D01*
X104849532Y-84823944D01*
X104814240Y-84758382D01*
X104764145Y-84712327D01*
X104698565Y-84685054D01*
X104616821Y-84675838D01*
X104558707Y-84680375D01*
X104489524Y-84703631D01*
X104427273Y-84748751D01*
X104394201Y-84779649D01*
X104320970Y-84713781D01*
X104312484Y-84706112D01*
X104278921Y-84675000D01*
X104254512Y-84651131D01*
X104244056Y-84639158D01*
X104247408Y-84631323D01*
X104265230Y-84611073D01*
X104293700Y-84584777D01*
X104362398Y-84534815D01*
X104456151Y-84489781D01*
X104553584Y-84465353D01*
X104651491Y-84460952D01*
X104746669Y-84475998D01*
G37*
G36*
X109867607Y-84466246D02*
G01*
X109947724Y-84490975D01*
X110018807Y-84536202D01*
X110069355Y-84579448D01*
X110069355Y-84522224D01*
X110069355Y-84465000D01*
X110175657Y-84465000D01*
X110281960Y-84465000D01*
X110281960Y-84990000D01*
X110281960Y-85515000D01*
X110175657Y-85515000D01*
X110069355Y-85515000D01*
X110069355Y-85175196D01*
X110069343Y-85133035D01*
X110069125Y-85039993D01*
X110068471Y-84967464D01*
X110067168Y-84912214D01*
X110065003Y-84871008D01*
X110061762Y-84840610D01*
X110057232Y-84817786D01*
X110051201Y-84799300D01*
X110043456Y-84781917D01*
X110038686Y-84772608D01*
X109997107Y-84719569D01*
X109941436Y-84687033D01*
X109872881Y-84675750D01*
X109867511Y-84675748D01*
X109806058Y-84681553D01*
X109758737Y-84700442D01*
X109717221Y-84735616D01*
X109710080Y-84743599D01*
X109694340Y-84765096D01*
X109681990Y-84790474D01*
X109672630Y-84822748D01*
X109665861Y-84864934D01*
X109661284Y-84920049D01*
X109658502Y-84991108D01*
X109657114Y-85081128D01*
X109656722Y-85193125D01*
X109656652Y-85515000D01*
X109549556Y-85515000D01*
X109442459Y-85515000D01*
X109446380Y-85118125D01*
X109446805Y-85075378D01*
X109448075Y-84966218D01*
X109449800Y-84878074D01*
X109452510Y-84807978D01*
X109456731Y-84752963D01*
X109462994Y-84710063D01*
X109471827Y-84676309D01*
X109483758Y-84648735D01*
X109499317Y-84624374D01*
X109519031Y-84600258D01*
X109543430Y-84573420D01*
X109551591Y-84564881D01*
X109620448Y-84511331D01*
X109699229Y-84476795D01*
X109783195Y-84461643D01*
X109867607Y-84466246D01*
G37*
G36*
X106830261Y-84849767D02*
G01*
X106830116Y-84953941D01*
X106829544Y-85045871D01*
X106828404Y-85118528D01*
X106826557Y-85174891D01*
X106823862Y-85217943D01*
X106820180Y-85250665D01*
X106815372Y-85276037D01*
X106809297Y-85297042D01*
X106801980Y-85315266D01*
X106766671Y-85373213D01*
X106717263Y-85429304D01*
X106660921Y-85476196D01*
X106604810Y-85506549D01*
X106589864Y-85511506D01*
X106517163Y-85524134D01*
X106439892Y-85522158D01*
X106364977Y-85506850D01*
X106299343Y-85479483D01*
X106249913Y-85441330D01*
X106235923Y-85427096D01*
X106217471Y-85416879D01*
X106207771Y-85429185D01*
X106204953Y-85465000D01*
X106204953Y-85515000D01*
X106098514Y-85515000D01*
X105992074Y-85515000D01*
X105995338Y-84993125D01*
X105998602Y-84471250D01*
X106100891Y-84467633D01*
X106203181Y-84464017D01*
X106207194Y-84811383D01*
X106207761Y-84859096D01*
X106209073Y-84952339D01*
X106210588Y-85025113D01*
X106212543Y-85080576D01*
X106215180Y-85121886D01*
X106218737Y-85152200D01*
X106223453Y-85174677D01*
X106229570Y-85192474D01*
X106237324Y-85208750D01*
X106249803Y-85229709D01*
X106296431Y-85277823D01*
X106356420Y-85305445D01*
X106427456Y-85311326D01*
X106485600Y-85300735D01*
X106538779Y-85272310D01*
X106585618Y-85222717D01*
X106590933Y-85215086D01*
X106597391Y-85202546D01*
X106602475Y-85185754D01*
X106606426Y-85161746D01*
X106609487Y-85127558D01*
X106611899Y-85080228D01*
X106613903Y-85016790D01*
X106615742Y-84934282D01*
X106617656Y-84829739D01*
X106623910Y-84471250D01*
X106727085Y-84467619D01*
X106830261Y-84463988D01*
X106830261Y-84849767D01*
G37*
G36*
X105316704Y-86612264D02*
G01*
X105314388Y-86695598D01*
X105307373Y-86777164D01*
X105296074Y-86849299D01*
X105280906Y-86904338D01*
X105280303Y-86905893D01*
X105232606Y-86995556D01*
X105166625Y-87068610D01*
X105083809Y-87123805D01*
X104985603Y-87159887D01*
X104935548Y-87169722D01*
X104824765Y-87173964D01*
X104716808Y-87154849D01*
X104615416Y-87113268D01*
X104524329Y-87050110D01*
X104475758Y-87007870D01*
X104551004Y-86942716D01*
X104626250Y-86877561D01*
X104696541Y-86919868D01*
X104710256Y-86927785D01*
X104792605Y-86961632D01*
X104873672Y-86972361D01*
X104950802Y-86959935D01*
X105021338Y-86924319D01*
X105039397Y-86908330D01*
X105071707Y-86863101D01*
X105095005Y-86808698D01*
X105104137Y-86755625D01*
X105104412Y-86715000D01*
X104777378Y-86715000D01*
X104450345Y-86715000D01*
X104457456Y-86580625D01*
X104461447Y-86527767D01*
X104465028Y-86506446D01*
X104679203Y-86506446D01*
X104679203Y-86540000D01*
X104893454Y-86540000D01*
X105107705Y-86540000D01*
X105100893Y-86489234D01*
X105083843Y-86431598D01*
X105047577Y-86374415D01*
X104998681Y-86332174D01*
X104953972Y-86315031D01*
X104892666Y-86308743D01*
X104830226Y-86316334D01*
X104776957Y-86337554D01*
X104751185Y-86358089D01*
X104715009Y-86403471D01*
X104689108Y-86456218D01*
X104679203Y-86506446D01*
X104465028Y-86506446D01*
X104479491Y-86420342D01*
X104511041Y-86331441D01*
X104557572Y-86258460D01*
X104620561Y-86198792D01*
X104701484Y-86149834D01*
X104715582Y-86142977D01*
X104757400Y-86124754D01*
X104793947Y-86114487D01*
X104835301Y-86110019D01*
X104891544Y-86109196D01*
X104903885Y-86109300D01*
X104966372Y-86112418D01*
X105014172Y-86120821D01*
X105055918Y-86135912D01*
X105070665Y-86142997D01*
X105151601Y-86197634D01*
X105218882Y-86271490D01*
X105270541Y-86361950D01*
X105304607Y-86466396D01*
X105305582Y-86470952D01*
X105313907Y-86534827D01*
X105314094Y-86540000D01*
X105316704Y-86612264D01*
G37*
G36*
X104189483Y-84972799D02*
G01*
X104182154Y-85103736D01*
X104175951Y-85144920D01*
X104147062Y-85254787D01*
X104102233Y-85345712D01*
X104040971Y-85418334D01*
X103962786Y-85473287D01*
X103867186Y-85511207D01*
X103831947Y-85518094D01*
X103771047Y-85523033D01*
X103701548Y-85522829D01*
X103655927Y-85520127D01*
X103605275Y-85513277D01*
X103561489Y-85500699D01*
X103513956Y-85479968D01*
X103472866Y-85458138D01*
X103426018Y-85429142D01*
X103391069Y-85403037D01*
X103347297Y-85364385D01*
X103422021Y-85296285D01*
X103444900Y-85275624D01*
X103474553Y-85250733D01*
X103493956Y-85239253D01*
X103508124Y-85238693D01*
X103522070Y-85246560D01*
X103555852Y-85269775D01*
X103612852Y-85300216D01*
X103669330Y-85316121D01*
X103734988Y-85320878D01*
X103752073Y-85320818D01*
X103800636Y-85317804D01*
X103836685Y-85308841D01*
X103869818Y-85291865D01*
X103910930Y-85256727D01*
X103949551Y-85197162D01*
X103972952Y-85123793D01*
X103981641Y-85077500D01*
X103653580Y-85077500D01*
X103325518Y-85077500D01*
X103331428Y-84924375D01*
X103332434Y-84902500D01*
X103537946Y-84902500D01*
X103759794Y-84902500D01*
X103981641Y-84902500D01*
X103972961Y-84855625D01*
X103965046Y-84821056D01*
X103935994Y-84752101D01*
X103892502Y-84703408D01*
X103834076Y-84674538D01*
X103760224Y-84665046D01*
X103732053Y-84666314D01*
X103661807Y-84683459D01*
X103606984Y-84720176D01*
X103568270Y-84775871D01*
X103546353Y-84849952D01*
X103537946Y-84902500D01*
X103332434Y-84902500D01*
X103332999Y-84890202D01*
X103340032Y-84809496D01*
X103352549Y-84745594D01*
X103372561Y-84692576D01*
X103402078Y-84644521D01*
X103443111Y-84595510D01*
X103460703Y-84577545D01*
X103537860Y-84518913D01*
X103624191Y-84480085D01*
X103715712Y-84461125D01*
X103808438Y-84462100D01*
X103898384Y-84483078D01*
X103981565Y-84524125D01*
X104053996Y-84585307D01*
X104100300Y-84645453D01*
X104147930Y-84741125D01*
X104177866Y-84851085D01*
X104182773Y-84902500D01*
X104189483Y-84972799D01*
G37*
G36*
X111316130Y-84946250D02*
G01*
X111317442Y-85029431D01*
X111305284Y-85153590D01*
X111275511Y-85261034D01*
X111228384Y-85351316D01*
X111164164Y-85423990D01*
X111083110Y-85478606D01*
X110985482Y-85514720D01*
X110977969Y-85516312D01*
X110938134Y-85520776D01*
X110885287Y-85522935D01*
X110828767Y-85522335D01*
X110775728Y-85519256D01*
X110728092Y-85512474D01*
X110686627Y-85500084D01*
X110641175Y-85479782D01*
X110601573Y-85457883D01*
X110555903Y-85427377D01*
X110522358Y-85399156D01*
X110481369Y-85356848D01*
X110557481Y-85290681D01*
X110633593Y-85224513D01*
X110661001Y-85249544D01*
X110663657Y-85251900D01*
X110695369Y-85275425D01*
X110732181Y-85297582D01*
X110764099Y-85309543D01*
X110821798Y-85319307D01*
X110885549Y-85320782D01*
X110945485Y-85313926D01*
X110991737Y-85298696D01*
X111004428Y-85290950D01*
X111048493Y-85248912D01*
X111082913Y-85192667D01*
X111102164Y-85130625D01*
X111110563Y-85077500D01*
X110782263Y-85077500D01*
X110453963Y-85077500D01*
X110459257Y-84929091D01*
X110460137Y-84905529D01*
X110460294Y-84902500D01*
X110666867Y-84902500D01*
X110888715Y-84902500D01*
X111110563Y-84902500D01*
X111102074Y-84849438D01*
X111097321Y-84825446D01*
X111070291Y-84756758D01*
X111026952Y-84706451D01*
X110968429Y-84675530D01*
X110895843Y-84665000D01*
X110865708Y-84666449D01*
X110795224Y-84684331D01*
X110739618Y-84722176D01*
X110699506Y-84779451D01*
X110675503Y-84855625D01*
X110666867Y-84902500D01*
X110460294Y-84902500D01*
X110463198Y-84846500D01*
X110467834Y-84803252D01*
X110475430Y-84768816D01*
X110487367Y-84736221D01*
X110505030Y-84698499D01*
X110538753Y-84640781D01*
X110605018Y-84565281D01*
X110685719Y-84509461D01*
X110778813Y-84474603D01*
X110882255Y-84461988D01*
X110891288Y-84461949D01*
X110977809Y-84468490D01*
X111051632Y-84489368D01*
X111121309Y-84526909D01*
X111156099Y-84552923D01*
X111220821Y-84623532D01*
X111268995Y-84712466D01*
X111300728Y-84819961D01*
X111310794Y-84902500D01*
X111316130Y-84946250D01*
G37*
G36*
X113332111Y-85008347D02*
G01*
X113329136Y-85110562D01*
X113317708Y-85195390D01*
X113297163Y-85266918D01*
X113266840Y-85329232D01*
X113250282Y-85354190D01*
X113190612Y-85419607D01*
X113118161Y-85472485D01*
X113040760Y-85506678D01*
X112946769Y-85524608D01*
X112847633Y-85522883D01*
X112753991Y-85500852D01*
X112669095Y-85460107D01*
X112596195Y-85402241D01*
X112538543Y-85328846D01*
X112499391Y-85241515D01*
X112490058Y-85201345D01*
X112480850Y-85133531D01*
X112475082Y-85054685D01*
X112474041Y-85011888D01*
X112683193Y-85011888D01*
X112689691Y-85104186D01*
X112708540Y-85178358D01*
X112740366Y-85236706D01*
X112785799Y-85281529D01*
X112824600Y-85301294D01*
X112884360Y-85312348D01*
X112948282Y-85307895D01*
X113007577Y-85287692D01*
X113013940Y-85284308D01*
X113050749Y-85260372D01*
X113077609Y-85231774D01*
X113095972Y-85194477D01*
X113107291Y-85144441D01*
X113113018Y-85077629D01*
X113114604Y-84990000D01*
X113114603Y-84987945D01*
X113113196Y-84905281D01*
X113108064Y-84842866D01*
X113097700Y-84796145D01*
X113080595Y-84760562D01*
X113055241Y-84731561D01*
X113020131Y-84704586D01*
X113002657Y-84693651D01*
X112975464Y-84682651D01*
X112942003Y-84678675D01*
X112893019Y-84679929D01*
X112879893Y-84680840D01*
X112811659Y-84694258D01*
X112759956Y-84722763D01*
X112723063Y-84768351D01*
X112699257Y-84833016D01*
X112686814Y-84918755D01*
X112683193Y-85011888D01*
X112474041Y-85011888D01*
X112473085Y-84972570D01*
X112475192Y-84894950D01*
X112481737Y-84829590D01*
X112482634Y-84824036D01*
X112510871Y-84719361D01*
X112557265Y-84630706D01*
X112620349Y-84559377D01*
X112698656Y-84506675D01*
X112790717Y-84473907D01*
X112895065Y-84462374D01*
X112927292Y-84462756D01*
X113010180Y-84470950D01*
X113079110Y-84491838D01*
X113141091Y-84528156D01*
X113203130Y-84582640D01*
X113245540Y-84628432D01*
X113277614Y-84673122D01*
X113300174Y-84721025D01*
X113315161Y-84777571D01*
X113324514Y-84848193D01*
X113330173Y-84938321D01*
X113331603Y-84990000D01*
X113332111Y-85008347D01*
G37*
G36*
X107862019Y-84983750D02*
G01*
X107861480Y-85056011D01*
X107858383Y-85139613D01*
X107851618Y-85205711D01*
X107840151Y-85258651D01*
X107822946Y-85302777D01*
X107798969Y-85342431D01*
X107767186Y-85381960D01*
X107728569Y-85421602D01*
X107653585Y-85476424D01*
X107568743Y-85511207D01*
X107566577Y-85511808D01*
X107491879Y-85523522D01*
X107407933Y-85522872D01*
X107325471Y-85510662D01*
X107255223Y-85487698D01*
X107191271Y-85451900D01*
X107122230Y-85392013D01*
X107070490Y-85316554D01*
X107034953Y-85223808D01*
X107014520Y-85112064D01*
X107011568Y-85081763D01*
X107008753Y-84988342D01*
X107221772Y-84988342D01*
X107224952Y-85063828D01*
X107233757Y-85132639D01*
X107247385Y-85188735D01*
X107265030Y-85226078D01*
X107289412Y-85253560D01*
X107321382Y-85281906D01*
X107325235Y-85284592D01*
X107366604Y-85302065D01*
X107420658Y-85311228D01*
X107441621Y-85311948D01*
X107513954Y-85301191D01*
X107574024Y-85270026D01*
X107619343Y-85219601D01*
X107625842Y-85208726D01*
X107636505Y-85186452D01*
X107643714Y-85160698D01*
X107648337Y-85126082D01*
X107651238Y-85077226D01*
X107653284Y-85008750D01*
X107654241Y-84963400D01*
X107654514Y-84908139D01*
X107652693Y-84868764D01*
X107648138Y-84839688D01*
X107640210Y-84815328D01*
X107628271Y-84790100D01*
X107614606Y-84766157D01*
X107570472Y-84715780D01*
X107514569Y-84686789D01*
X107444145Y-84677500D01*
X107427705Y-84677833D01*
X107357701Y-84689294D01*
X107303513Y-84718012D01*
X107263989Y-84765261D01*
X107237978Y-84832313D01*
X107224327Y-84920442D01*
X107221772Y-84988342D01*
X107008753Y-84988342D01*
X107007547Y-84948295D01*
X107019270Y-84828823D01*
X107046338Y-84725002D01*
X107088352Y-84638487D01*
X107144913Y-84570932D01*
X107172355Y-84547736D01*
X107250411Y-84499007D01*
X107335947Y-84471314D01*
X107434412Y-84462619D01*
X107524977Y-84469920D01*
X107622749Y-84497822D01*
X107706612Y-84546182D01*
X107775831Y-84614557D01*
X107829673Y-84702500D01*
X107838803Y-84722508D01*
X107848165Y-84746943D01*
X107854604Y-84772708D01*
X107858665Y-84804537D01*
X107860891Y-84847165D01*
X107861828Y-84905325D01*
X107861835Y-84908139D01*
X107862019Y-84983750D01*
G37*
G36*
X109533029Y-86783852D02*
G01*
X109530538Y-86812971D01*
X109521224Y-86890728D01*
X109508325Y-86950322D01*
X109489981Y-86996930D01*
X109464329Y-87035731D01*
X109429511Y-87071902D01*
X109421540Y-87079160D01*
X109382750Y-87112787D01*
X109352195Y-87134255D01*
X109321902Y-87148390D01*
X109283896Y-87160015D01*
X109267631Y-87164077D01*
X109222826Y-87172788D01*
X109186815Y-87176656D01*
X109156114Y-87174775D01*
X109092567Y-87160416D01*
X109027222Y-87135106D01*
X108970860Y-87102544D01*
X108918789Y-87064843D01*
X108918789Y-87114921D01*
X108918789Y-87165000D01*
X108812487Y-87165000D01*
X108706184Y-87165000D01*
X108706184Y-86594120D01*
X108920098Y-86594120D01*
X108920704Y-86670832D01*
X108921501Y-86694515D01*
X108926536Y-86769726D01*
X108935964Y-86826057D01*
X108951357Y-86868256D01*
X108974289Y-86901070D01*
X109006332Y-86929246D01*
X109028642Y-86941993D01*
X109082436Y-86956827D01*
X109142856Y-86958782D01*
X109199699Y-86946924D01*
X109212914Y-86941648D01*
X109251661Y-86919133D01*
X109280405Y-86887626D01*
X109300231Y-86844009D01*
X109312220Y-86785166D01*
X109317458Y-86707981D01*
X109317025Y-86609336D01*
X109316675Y-86596858D01*
X109312612Y-86515651D01*
X109304881Y-86454840D01*
X109291833Y-86410417D01*
X109271817Y-86378373D01*
X109243185Y-86354699D01*
X109204287Y-86335387D01*
X109196267Y-86332226D01*
X109126925Y-86317827D01*
X109061751Y-86325841D01*
X109004741Y-86354365D01*
X108959894Y-86401498D01*
X108931204Y-86465337D01*
X108928231Y-86479079D01*
X108922706Y-86528256D01*
X108920098Y-86594120D01*
X108706184Y-86594120D01*
X108706184Y-86426994D01*
X108706184Y-85688988D01*
X108809360Y-85692619D01*
X108912536Y-85696250D01*
X108915917Y-85956050D01*
X108919299Y-86215850D01*
X108976932Y-86176217D01*
X108980704Y-86173656D01*
X109048992Y-86136440D01*
X109121191Y-86111563D01*
X109187389Y-86102500D01*
X109235392Y-86107071D01*
X109313266Y-86131426D01*
X109386983Y-86173144D01*
X109449853Y-86228102D01*
X109495182Y-86292174D01*
X109496838Y-86295554D01*
X109512782Y-86344187D01*
X109525256Y-86412355D01*
X109533889Y-86495232D01*
X109538310Y-86587991D01*
X109538147Y-86685806D01*
X109536989Y-86707981D01*
X109533029Y-86783852D01*
G37*
G36*
X107095217Y-86861062D02*
G01*
X107087516Y-86930100D01*
X107058077Y-87007807D01*
X107008337Y-87073133D01*
X106940125Y-87123816D01*
X106855273Y-87157595D01*
X106817299Y-87166232D01*
X106726988Y-87175574D01*
X106642325Y-87169281D01*
X106568416Y-87148019D01*
X106510368Y-87112457D01*
X106467583Y-87074910D01*
X106467583Y-87119955D01*
X106467583Y-87165000D01*
X106360506Y-87165000D01*
X106253429Y-87165000D01*
X106257114Y-86777890D01*
X106470136Y-86777890D01*
X106470239Y-86818828D01*
X106480750Y-86876679D01*
X106502012Y-86922105D01*
X106531915Y-86949254D01*
X106532350Y-86949459D01*
X106561787Y-86958257D01*
X106606496Y-86966194D01*
X106656977Y-86971572D01*
X106728786Y-86972111D01*
X106799404Y-86959635D01*
X106850782Y-86933130D01*
X106882163Y-86893019D01*
X106892792Y-86839726D01*
X106887762Y-86806322D01*
X106863662Y-86768714D01*
X106819037Y-86741247D01*
X106753199Y-86723672D01*
X106665458Y-86715739D01*
X106555126Y-86717199D01*
X106473836Y-86721250D01*
X106470136Y-86777890D01*
X106257114Y-86777890D01*
X106257330Y-86755249D01*
X106261231Y-86345499D01*
X106293020Y-86283374D01*
X106305690Y-86261755D01*
X106355873Y-86204421D01*
X106421834Y-86157133D01*
X106496880Y-86125090D01*
X106515251Y-86121057D01*
X106561196Y-86115206D01*
X106618934Y-86111112D01*
X106680187Y-86109480D01*
X106731329Y-86110287D01*
X106817344Y-86118121D01*
X106886933Y-86135498D01*
X106945083Y-86163920D01*
X106996782Y-86204891D01*
X107049119Y-86254733D01*
X107011600Y-86285033D01*
X107004694Y-86290539D01*
X106966708Y-86319511D01*
X106927568Y-86347850D01*
X106881054Y-86380368D01*
X106843280Y-86348599D01*
X106806449Y-86326715D01*
X106744959Y-86309666D01*
X106672371Y-86305003D01*
X106595067Y-86313624D01*
X106577928Y-86317312D01*
X106527045Y-86334152D01*
X106495189Y-86359488D01*
X106477710Y-86398648D01*
X106469959Y-86456960D01*
X106464863Y-86536943D01*
X106663195Y-86542938D01*
X106715481Y-86544746D01*
X106791420Y-86549006D01*
X106849717Y-86555654D01*
X106895083Y-86565913D01*
X106932230Y-86581007D01*
X106965870Y-86602161D01*
X107000715Y-86630598D01*
X107004523Y-86633999D01*
X107055485Y-86696215D01*
X107085614Y-86771654D01*
X107092925Y-86839726D01*
X107095217Y-86861062D01*
G37*
G36*
X111307507Y-86921714D02*
G01*
X111306634Y-86925556D01*
X111276183Y-87007543D01*
X111226640Y-87073449D01*
X111157898Y-87123379D01*
X111069848Y-87157441D01*
X111031497Y-87166220D01*
X110941404Y-87175571D01*
X110856852Y-87169280D01*
X110782984Y-87148019D01*
X110724942Y-87112457D01*
X110682157Y-87074910D01*
X110682157Y-87119955D01*
X110682157Y-87165000D01*
X110574946Y-87165000D01*
X110467735Y-87165000D01*
X110471770Y-86755625D01*
X110472109Y-86721250D01*
X110688410Y-86721250D01*
X110690761Y-86801874D01*
X110693628Y-86847050D01*
X110703973Y-86897033D01*
X110723283Y-86930292D01*
X110753467Y-86951376D01*
X110760066Y-86954005D01*
X110800878Y-86963429D01*
X110855206Y-86969552D01*
X110913853Y-86971927D01*
X110967622Y-86970111D01*
X111007317Y-86963657D01*
X111012123Y-86962152D01*
X111066015Y-86934809D01*
X111099973Y-86895926D01*
X111112354Y-86848438D01*
X111101514Y-86795281D01*
X111092050Y-86777044D01*
X111071158Y-86754818D01*
X111039633Y-86739216D01*
X110993912Y-86729215D01*
X110930433Y-86723795D01*
X110845633Y-86721935D01*
X110688410Y-86721250D01*
X110472109Y-86721250D01*
X110475805Y-86346250D01*
X110510379Y-86280682D01*
X110515044Y-86272136D01*
X110558053Y-86214365D01*
X110616403Y-86169071D01*
X110694663Y-86132581D01*
X110745736Y-86119976D01*
X110813902Y-86112130D01*
X110890505Y-86109284D01*
X110967449Y-86111468D01*
X111036638Y-86118714D01*
X111089974Y-86131054D01*
X111103973Y-86136580D01*
X111143306Y-86156746D01*
X111184287Y-86182631D01*
X111220949Y-86209938D01*
X111247322Y-86234370D01*
X111257440Y-86251630D01*
X111256961Y-86253087D01*
X111244037Y-86267608D01*
X111217054Y-86291866D01*
X111180827Y-86321473D01*
X111139161Y-86352062D01*
X111106675Y-86369831D01*
X111088785Y-86370192D01*
X111049037Y-86341513D01*
X111017487Y-86323032D01*
X110987184Y-86313323D01*
X110949375Y-86309629D01*
X110895311Y-86309190D01*
X110857696Y-86310138D01*
X110787644Y-86318907D01*
X110737636Y-86338579D01*
X110705099Y-86371265D01*
X110687464Y-86419076D01*
X110682157Y-86484121D01*
X110682157Y-86537013D01*
X110879129Y-86542372D01*
X110913811Y-86543387D01*
X110984479Y-86546260D01*
X111036869Y-86550099D01*
X111075781Y-86555491D01*
X111106017Y-86563023D01*
X111132378Y-86573279D01*
X111204980Y-86618589D01*
X111261492Y-86680217D01*
X111298679Y-86753791D01*
X111314648Y-86835546D01*
X111313580Y-86848438D01*
X111307507Y-86921714D01*
G37*
G36*
X108522044Y-84467847D02*
G01*
X108592205Y-84483218D01*
X108638577Y-84502485D01*
X108707329Y-84548829D01*
X108760116Y-84608261D01*
X108795756Y-84676985D01*
X108813068Y-84751202D01*
X108810871Y-84827113D01*
X108787984Y-84900920D01*
X108743225Y-84968825D01*
X108718865Y-84994753D01*
X108691751Y-85017852D01*
X108660896Y-85036299D01*
X108622768Y-85051180D01*
X108573833Y-85063581D01*
X108510557Y-85074588D01*
X108429405Y-85085287D01*
X108326845Y-85096763D01*
X108286414Y-85103317D01*
X108240265Y-85121595D01*
X108214160Y-85151069D01*
X108205938Y-85193468D01*
X108206007Y-85198305D01*
X108216722Y-85245542D01*
X108247279Y-85281669D01*
X108299960Y-85309500D01*
X108366612Y-85324672D01*
X108448326Y-85324309D01*
X108533936Y-85307954D01*
X108616764Y-85276923D01*
X108690130Y-85232535D01*
X108731730Y-85200821D01*
X108778361Y-85237916D01*
X108789705Y-85247149D01*
X108825506Y-85278411D01*
X108853832Y-85305932D01*
X108882672Y-85336852D01*
X108832226Y-85380011D01*
X108821456Y-85388874D01*
X108750652Y-85436018D01*
X108666421Y-85477657D01*
X108578549Y-85508824D01*
X108518827Y-85519841D01*
X108438121Y-85524211D01*
X108352276Y-85520557D01*
X108270940Y-85509338D01*
X108203759Y-85491013D01*
X108152428Y-85465853D01*
X108092574Y-85422808D01*
X108043086Y-85372319D01*
X108011029Y-85320633D01*
X108003613Y-85297618D01*
X107995039Y-85239355D01*
X107994504Y-85173169D01*
X108001784Y-85109463D01*
X108016657Y-85058642D01*
X108031373Y-85030285D01*
X108070342Y-84980470D01*
X108122732Y-84942192D01*
X108191229Y-84914184D01*
X108278516Y-84895180D01*
X108387277Y-84883916D01*
X108435670Y-84879824D01*
X108507179Y-84867985D01*
X108556779Y-84849598D01*
X108586193Y-84823477D01*
X108597144Y-84788434D01*
X108591354Y-84743282D01*
X108586701Y-84729233D01*
X108565056Y-84697440D01*
X108528737Y-84677255D01*
X108474738Y-84667480D01*
X108400051Y-84666913D01*
X108357269Y-84669469D01*
X108308778Y-84676346D01*
X108266582Y-84689410D01*
X108219625Y-84711387D01*
X108141786Y-84751524D01*
X108103484Y-84707922D01*
X108084780Y-84686398D01*
X108049454Y-84644031D01*
X108026518Y-84613785D01*
X108018346Y-84598706D01*
X108027071Y-84587694D01*
X108053477Y-84569008D01*
X108091900Y-84546519D01*
X108136573Y-84523378D01*
X108181726Y-84502732D01*
X108221594Y-84487732D01*
X108265436Y-84476459D01*
X108349345Y-84464581D01*
X108437986Y-84461673D01*
X108522044Y-84467847D01*
G37*
G36*
X107436778Y-86477383D02*
G01*
X107446199Y-86512041D01*
X107470276Y-86599674D01*
X107492065Y-86677662D01*
X107510731Y-86743102D01*
X107525440Y-86793093D01*
X107535358Y-86824735D01*
X107539651Y-86835126D01*
X107540220Y-86834021D01*
X107546915Y-86815728D01*
X107559997Y-86777415D01*
X107578467Y-86722090D01*
X107601327Y-86652759D01*
X107627579Y-86572428D01*
X107656223Y-86484106D01*
X107663430Y-86461824D01*
X107691755Y-86374676D01*
X107717567Y-86295911D01*
X107739841Y-86228612D01*
X107757552Y-86175865D01*
X107769673Y-86140754D01*
X107775179Y-86126363D01*
X107785650Y-86121412D01*
X107815261Y-86116785D01*
X107855907Y-86115000D01*
X107929608Y-86115000D01*
X108045101Y-86471250D01*
X108055679Y-86503786D01*
X108084188Y-86590553D01*
X108110094Y-86668074D01*
X108132393Y-86733435D01*
X108150085Y-86783723D01*
X108162165Y-86816026D01*
X108167633Y-86827428D01*
X108170929Y-86820707D01*
X108180188Y-86793003D01*
X108194154Y-86746869D01*
X108211870Y-86685572D01*
X108232377Y-86612378D01*
X108254718Y-86530553D01*
X108269475Y-86475918D01*
X108292105Y-86392447D01*
X108312831Y-86316370D01*
X108330506Y-86251873D01*
X108343986Y-86203145D01*
X108352125Y-86174375D01*
X108369487Y-86115000D01*
X108482896Y-86115000D01*
X108501882Y-86115048D01*
X108549251Y-86116095D01*
X108576905Y-86119036D01*
X108588886Y-86124572D01*
X108589239Y-86133403D01*
X108587656Y-86137982D01*
X108579136Y-86163946D01*
X108564266Y-86209910D01*
X108543879Y-86273283D01*
X108518806Y-86351474D01*
X108489878Y-86441889D01*
X108457928Y-86541938D01*
X108423787Y-86649028D01*
X108406874Y-86702078D01*
X108373836Y-86805446D01*
X108343449Y-86900175D01*
X108316532Y-86983734D01*
X108293905Y-87053589D01*
X108276385Y-87107211D01*
X108264792Y-87142067D01*
X108259944Y-87155625D01*
X108259419Y-87156215D01*
X108242595Y-87160663D01*
X108208263Y-87163807D01*
X108163118Y-87165000D01*
X108071750Y-87165000D01*
X107968683Y-86818125D01*
X107962734Y-86798123D01*
X107936406Y-86710130D01*
X107912279Y-86630303D01*
X107891324Y-86561805D01*
X107874516Y-86507799D01*
X107862827Y-86471448D01*
X107857231Y-86455916D01*
X107855900Y-86456135D01*
X107848009Y-86472189D01*
X107834469Y-86508423D01*
X107816206Y-86562064D01*
X107794149Y-86630335D01*
X107769224Y-86710461D01*
X107742359Y-86799666D01*
X107635873Y-87158750D01*
X107539468Y-87162400D01*
X107528380Y-87162777D01*
X107484993Y-87163312D01*
X107454548Y-87162165D01*
X107443063Y-87159516D01*
X107441800Y-87154754D01*
X107434034Y-87129153D01*
X107419869Y-87083667D01*
X107400088Y-87020779D01*
X107375476Y-86942969D01*
X107346815Y-86852718D01*
X107314889Y-86752507D01*
X107280483Y-86644816D01*
X107260444Y-86582099D01*
X107227341Y-86478117D01*
X107197175Y-86382887D01*
X107170732Y-86298920D01*
X107148798Y-86228722D01*
X107132158Y-86174801D01*
X107121597Y-86139667D01*
X107117903Y-86125826D01*
X107120363Y-86123554D01*
X107141368Y-86119170D01*
X107179201Y-86116134D01*
X107228226Y-86115000D01*
X107338549Y-86115000D01*
X107436778Y-86477383D01*
G37*
G36*
X112295451Y-85815000D02*
G01*
X112295451Y-87165000D01*
X112189148Y-87165000D01*
X112082846Y-87165000D01*
X112082846Y-86823898D01*
X112082814Y-86751329D01*
X112082547Y-86665116D01*
X112081811Y-86598430D01*
X112080378Y-86548032D01*
X112078017Y-86510685D01*
X112074499Y-86483148D01*
X112069594Y-86462185D01*
X112063074Y-86444556D01*
X112054707Y-86427023D01*
X112038430Y-86401132D01*
X111992611Y-86356755D01*
X111935869Y-86326307D01*
X111876494Y-86315000D01*
X111844954Y-86318632D01*
X111788117Y-86340229D01*
X111737393Y-86376334D01*
X111702133Y-86421250D01*
X111699080Y-86427353D01*
X111692055Y-86444008D01*
X111686561Y-86463541D01*
X111682362Y-86489110D01*
X111679222Y-86523876D01*
X111676906Y-86571000D01*
X111675178Y-86633643D01*
X111673803Y-86714964D01*
X111672545Y-86818125D01*
X111668694Y-87165000D01*
X111562322Y-87165000D01*
X111455950Y-87165000D01*
X111459871Y-86768125D01*
X111460023Y-86752852D01*
X111461197Y-86644976D01*
X111462457Y-86558773D01*
X111464002Y-86491285D01*
X111466029Y-86439558D01*
X111468737Y-86400636D01*
X111472323Y-86371563D01*
X111476987Y-86349383D01*
X111482926Y-86331142D01*
X111490339Y-86313882D01*
X111498280Y-86297759D01*
X111550074Y-86223387D01*
X111616296Y-86166461D01*
X111693137Y-86127945D01*
X111776787Y-86108802D01*
X111863436Y-86109996D01*
X111949275Y-86132491D01*
X112030493Y-86177250D01*
X112082846Y-86215156D01*
X112082846Y-85814477D01*
X112082846Y-85413798D01*
X112024033Y-85454243D01*
X111962481Y-85491446D01*
X111892988Y-85518107D01*
X111822628Y-85526951D01*
X111776169Y-85524811D01*
X111686806Y-85503377D01*
X111605279Y-85458471D01*
X111557750Y-85417646D01*
X111515253Y-85360641D01*
X111486363Y-85290278D01*
X111468338Y-85201413D01*
X111464479Y-85163920D01*
X111461013Y-85096198D01*
X111459981Y-85018471D01*
X111460311Y-84996250D01*
X111676740Y-84996250D01*
X111677129Y-85038443D01*
X111680990Y-85115915D01*
X111689998Y-85174759D01*
X111705392Y-85219209D01*
X111728411Y-85253502D01*
X111760294Y-85281871D01*
X111764029Y-85284431D01*
X111805951Y-85301945D01*
X111860343Y-85311007D01*
X111900664Y-85311271D01*
X111962518Y-85298415D01*
X112010851Y-85267613D01*
X112046220Y-85217937D01*
X112069185Y-85148460D01*
X112080305Y-85058253D01*
X112080139Y-84946390D01*
X112073446Y-84867299D01*
X112057524Y-84793379D01*
X112031456Y-84739536D01*
X111993653Y-84703673D01*
X111942529Y-84683693D01*
X111876494Y-84677500D01*
X111830619Y-84680037D01*
X111775183Y-84695096D01*
X111734362Y-84725971D01*
X111703560Y-84775262D01*
X111701865Y-84778987D01*
X111690916Y-84807007D01*
X111683627Y-84836986D01*
X111679301Y-84874683D01*
X111677238Y-84925852D01*
X111676740Y-84996250D01*
X111460311Y-84996250D01*
X111461197Y-84936567D01*
X111464474Y-84856314D01*
X111469629Y-84783541D01*
X111476474Y-84724077D01*
X111484825Y-84683750D01*
X111503963Y-84643206D01*
X111543412Y-84590581D01*
X111594006Y-84541076D01*
X111648936Y-84501177D01*
X111701398Y-84477371D01*
X111773985Y-84464104D01*
X111870974Y-84467719D01*
X111965238Y-84495604D01*
X112054707Y-84547351D01*
X112065084Y-84554818D01*
X112077531Y-84559989D01*
X112082162Y-84548637D01*
X112082846Y-84516524D01*
X112082846Y-84465000D01*
X112189148Y-84465000D01*
X112295451Y-84465000D01*
X112295451Y-85058253D01*
X112295451Y-85815000D01*
G37*
G36*
X108473017Y-76665224D02*
G01*
X108574283Y-76665479D01*
X108655495Y-76666048D01*
X108718985Y-76667027D01*
X108767087Y-76668510D01*
X108802134Y-76670595D01*
X108826457Y-76673378D01*
X108842391Y-76676955D01*
X108852267Y-76681422D01*
X108858419Y-76686875D01*
X108862071Y-76694492D01*
X108871356Y-76726019D01*
X108884095Y-76779231D01*
X108899887Y-76852244D01*
X108918330Y-76943174D01*
X108939024Y-77050137D01*
X108961568Y-77171250D01*
X108976897Y-77255024D01*
X108998307Y-77371647D01*
X109016056Y-77467221D01*
X109030660Y-77543937D01*
X109042637Y-77603982D01*
X109052505Y-77649545D01*
X109060781Y-77682814D01*
X109067983Y-77705978D01*
X109074629Y-77721226D01*
X109081237Y-77730745D01*
X109088323Y-77736725D01*
X109096405Y-77741353D01*
X109110097Y-77747963D01*
X109145929Y-77763788D01*
X109197538Y-77785736D01*
X109261389Y-77812376D01*
X109333950Y-77842281D01*
X109411685Y-77874019D01*
X109491062Y-77906163D01*
X109568546Y-77937283D01*
X109640604Y-77965950D01*
X109703703Y-77990734D01*
X109754307Y-78010206D01*
X109788885Y-78022938D01*
X109803901Y-78027499D01*
X109807411Y-78026225D01*
X109829315Y-78013746D01*
X109868554Y-77989164D01*
X109922867Y-77953970D01*
X109989986Y-77909654D01*
X110067650Y-77857706D01*
X110153592Y-77799616D01*
X110245548Y-77736874D01*
X110284668Y-77710103D01*
X110374600Y-77648878D01*
X110457675Y-77592760D01*
X110531607Y-77543264D01*
X110594108Y-77501909D01*
X110642891Y-77470213D01*
X110675669Y-77449692D01*
X110690156Y-77441864D01*
X110696048Y-77444557D01*
X110718380Y-77462053D01*
X110754498Y-77493846D01*
X110802131Y-77537691D01*
X110859007Y-77591346D01*
X110922854Y-77652567D01*
X110991402Y-77719110D01*
X111062379Y-77788733D01*
X111133512Y-77859191D01*
X111202531Y-77928242D01*
X111267164Y-77993643D01*
X111325139Y-78053149D01*
X111374185Y-78104518D01*
X111412030Y-78145506D01*
X111436403Y-78173870D01*
X111445032Y-78187367D01*
X111444618Y-78188859D01*
X111434523Y-78207071D01*
X111412069Y-78242946D01*
X111378787Y-78294166D01*
X111336210Y-78358417D01*
X111285868Y-78433383D01*
X111229294Y-78516748D01*
X111168018Y-78606196D01*
X111155002Y-78625127D01*
X111093829Y-78714534D01*
X111037142Y-78798079D01*
X110986569Y-78873315D01*
X110943738Y-78937796D01*
X110910276Y-78989073D01*
X110887812Y-79024701D01*
X110877972Y-79042231D01*
X110876342Y-79047342D01*
X110875046Y-79060533D01*
X110877460Y-79078934D01*
X110884489Y-79105072D01*
X110897039Y-79141472D01*
X110916015Y-79190661D01*
X110942321Y-79255166D01*
X110976863Y-79337513D01*
X111020545Y-79440229D01*
X111057681Y-79526434D01*
X111101251Y-79625069D01*
X111137753Y-79704537D01*
X111166694Y-79763800D01*
X111187583Y-79801825D01*
X111199927Y-79817574D01*
X111202295Y-79818530D01*
X111225739Y-79824710D01*
X111270239Y-79834655D01*
X111333006Y-79847799D01*
X111411250Y-79863578D01*
X111502179Y-79881426D01*
X111603003Y-79900778D01*
X111710932Y-79921070D01*
X111762351Y-79930686D01*
X111893948Y-79955839D01*
X112003361Y-79977630D01*
X112090087Y-79995950D01*
X112153621Y-80010690D01*
X112193458Y-80021741D01*
X112209096Y-80028993D01*
X112210032Y-80032330D01*
X112212351Y-80057167D01*
X112214479Y-80103199D01*
X112216358Y-80167686D01*
X112217929Y-80247886D01*
X112219136Y-80341055D01*
X112219920Y-80444453D01*
X112220222Y-80555336D01*
X112220414Y-81064423D01*
X112192275Y-81081874D01*
X112192097Y-81081980D01*
X112173069Y-81088268D01*
X112132424Y-81098299D01*
X112073098Y-81111460D01*
X111998024Y-81127140D01*
X111910137Y-81144723D01*
X111812371Y-81163597D01*
X111707661Y-81183150D01*
X111704601Y-81183712D01*
X111600135Y-81203233D01*
X111502767Y-81222037D01*
X111415419Y-81239516D01*
X111341012Y-81255059D01*
X111282468Y-81268056D01*
X111242708Y-81277898D01*
X111224652Y-81283975D01*
X111218065Y-81292033D01*
X111201814Y-81321394D01*
X111179127Y-81368483D01*
X111151381Y-81429915D01*
X111119948Y-81502305D01*
X111086205Y-81582269D01*
X111051524Y-81666421D01*
X111017281Y-81751377D01*
X110984850Y-81833752D01*
X110955605Y-81910161D01*
X110930921Y-81977220D01*
X110912172Y-82031544D01*
X110900734Y-82069748D01*
X110897979Y-82088448D01*
X110898339Y-82089456D01*
X110908543Y-82107477D01*
X110931147Y-82143308D01*
X110964560Y-82194550D01*
X111007194Y-82258803D01*
X111057456Y-82333668D01*
X111113758Y-82416748D01*
X111174510Y-82505642D01*
X111184569Y-82520313D01*
X111244394Y-82608056D01*
X111299257Y-82689346D01*
X111347612Y-82761831D01*
X111387914Y-82823162D01*
X111418615Y-82870989D01*
X111438170Y-82902962D01*
X111445032Y-82916731D01*
X111443231Y-82920206D01*
X111427201Y-82939751D01*
X111396093Y-82974067D01*
X111351763Y-83021213D01*
X111296065Y-83079249D01*
X111230853Y-83146235D01*
X111157982Y-83220231D01*
X111079307Y-83299296D01*
X111042880Y-83335640D01*
X110965903Y-83411897D01*
X110894900Y-83481509D01*
X110831806Y-83542622D01*
X110778560Y-83593381D01*
X110737098Y-83631933D01*
X110709356Y-83656424D01*
X110697272Y-83665000D01*
X110696537Y-83664859D01*
X110680169Y-83656121D01*
X110645922Y-83634921D01*
X110596151Y-83602811D01*
X110533212Y-83561338D01*
X110459459Y-83512054D01*
X110377247Y-83456508D01*
X110288931Y-83396250D01*
X110277293Y-83388279D01*
X110189195Y-83328440D01*
X110107113Y-83273533D01*
X110033465Y-83225116D01*
X109970670Y-83184746D01*
X109921149Y-83153981D01*
X109887320Y-83134380D01*
X109871602Y-83127500D01*
X109863006Y-83129397D01*
X109833194Y-83141091D01*
X109788420Y-83161675D01*
X109733086Y-83189082D01*
X109671599Y-83221250D01*
X109634967Y-83240747D01*
X109578381Y-83270189D01*
X109531519Y-83293731D01*
X109498455Y-83309344D01*
X109483266Y-83315000D01*
X109469632Y-83307880D01*
X109451484Y-83286875D01*
X109449418Y-83283148D01*
X109437692Y-83258077D01*
X109417981Y-83213274D01*
X109391213Y-83150989D01*
X109358318Y-83073477D01*
X109320223Y-82982989D01*
X109277858Y-82881777D01*
X109232149Y-82772094D01*
X109184027Y-82656193D01*
X109134418Y-82536325D01*
X109084253Y-82414743D01*
X109034459Y-82293700D01*
X108985964Y-82175447D01*
X108939697Y-82062238D01*
X108896588Y-81956324D01*
X108857563Y-81859958D01*
X108823551Y-81775392D01*
X108795482Y-81704878D01*
X108774282Y-81650670D01*
X108760882Y-81615019D01*
X108756209Y-81600178D01*
X108758610Y-81591747D01*
X108777284Y-81568865D01*
X108809360Y-81544424D01*
X108845848Y-81520959D01*
X108996053Y-81410534D01*
X109122619Y-81292461D01*
X109225830Y-81166279D01*
X109305972Y-81031528D01*
X109363329Y-80887746D01*
X109398186Y-80734473D01*
X109410828Y-80571250D01*
X109404204Y-80427452D01*
X109375891Y-80270489D01*
X109324794Y-80122653D01*
X109250260Y-79982119D01*
X109151635Y-79847060D01*
X109141057Y-79834708D01*
X109057166Y-79752600D01*
X108955462Y-79674850D01*
X108842211Y-79605364D01*
X108723680Y-79548052D01*
X108606135Y-79506822D01*
X108561990Y-79497227D01*
X108481366Y-79487388D01*
X108388481Y-79482557D01*
X108290609Y-79482669D01*
X108195021Y-79487656D01*
X108108990Y-79497452D01*
X108039788Y-79511991D01*
X107946000Y-79544431D01*
X107818460Y-79604794D01*
X107697685Y-79679979D01*
X107589690Y-79766116D01*
X107500488Y-79859330D01*
X107431720Y-79953036D01*
X107352640Y-80094219D01*
X107295421Y-80242951D01*
X107260392Y-80396716D01*
X107247887Y-80552999D01*
X107258234Y-80709284D01*
X107291766Y-80863057D01*
X107348814Y-81011801D01*
X107355859Y-81026454D01*
X107418103Y-81139141D01*
X107490204Y-81239856D01*
X107575859Y-81332663D01*
X107678764Y-81421626D01*
X107802615Y-81510809D01*
X107822002Y-81524068D01*
X107866436Y-81557408D01*
X107895423Y-81584036D01*
X107905790Y-81601173D01*
X107905157Y-81603991D01*
X107897197Y-81626571D01*
X107880847Y-81669142D01*
X107857035Y-81729451D01*
X107826690Y-81805246D01*
X107790742Y-81894277D01*
X107750118Y-81994291D01*
X107705747Y-82103037D01*
X107658558Y-82218264D01*
X107609479Y-82337719D01*
X107559440Y-82459152D01*
X107509369Y-82580310D01*
X107460194Y-82698942D01*
X107412845Y-82812797D01*
X107368249Y-82919622D01*
X107327336Y-83017167D01*
X107291035Y-83103180D01*
X107260274Y-83175408D01*
X107235981Y-83231601D01*
X107219085Y-83269507D01*
X107210516Y-83286875D01*
X107194629Y-83305413D01*
X107177019Y-83314674D01*
X107170154Y-83312616D01*
X107143403Y-83300773D01*
X107101254Y-83280182D01*
X107047837Y-83252886D01*
X106987283Y-83220924D01*
X106952354Y-83202497D01*
X106893529Y-83172791D01*
X106843176Y-83149009D01*
X106805759Y-83133222D01*
X106785745Y-83127500D01*
X106759637Y-83133511D01*
X106728772Y-83150411D01*
X106710223Y-83164187D01*
X106670294Y-83192668D01*
X106617110Y-83229790D01*
X106553494Y-83273653D01*
X106482267Y-83322357D01*
X106406253Y-83374002D01*
X106328272Y-83426686D01*
X106251149Y-83478511D01*
X106177704Y-83527577D01*
X106110760Y-83571982D01*
X106053140Y-83609827D01*
X106007666Y-83639212D01*
X105977160Y-83658236D01*
X105964445Y-83665000D01*
X105959133Y-83662003D01*
X105937559Y-83643954D01*
X105902171Y-83611553D01*
X105855238Y-83567067D01*
X105799026Y-83512767D01*
X105735805Y-83450923D01*
X105667842Y-83383805D01*
X105597404Y-83313681D01*
X105526760Y-83242823D01*
X105458177Y-83173499D01*
X105393923Y-83107979D01*
X105336267Y-83048534D01*
X105287475Y-82997432D01*
X105249816Y-82956945D01*
X105225557Y-82929340D01*
X105216967Y-82916889D01*
X105217153Y-82915987D01*
X105226175Y-82899075D01*
X105247640Y-82864343D01*
X105280002Y-82814139D01*
X105321714Y-82750817D01*
X105371231Y-82676726D01*
X105427005Y-82594217D01*
X105487489Y-82505642D01*
X105496695Y-82492218D01*
X105556889Y-82404033D01*
X105612398Y-82322017D01*
X105661632Y-82248571D01*
X105703002Y-82186091D01*
X105734916Y-82136978D01*
X105755786Y-82103631D01*
X105764020Y-82088448D01*
X105763222Y-82078302D01*
X105754530Y-82046202D01*
X105738066Y-81996857D01*
X105715206Y-81933652D01*
X105687324Y-81859974D01*
X105655796Y-81779209D01*
X105621997Y-81694741D01*
X105587302Y-81609958D01*
X105553088Y-81528244D01*
X105520728Y-81452986D01*
X105491599Y-81387569D01*
X105467076Y-81335379D01*
X105448533Y-81299802D01*
X105437347Y-81284224D01*
X105437158Y-81284109D01*
X105418438Y-81277970D01*
X105378098Y-81268073D01*
X105319059Y-81255029D01*
X105244243Y-81239446D01*
X105156570Y-81221932D01*
X105058961Y-81203097D01*
X104954338Y-81183549D01*
X104951570Y-81183040D01*
X104847005Y-81163472D01*
X104749458Y-81144591D01*
X104661866Y-81127013D01*
X104587162Y-81111353D01*
X104528281Y-81098225D01*
X104488157Y-81088244D01*
X104469724Y-81082024D01*
X104441586Y-81064423D01*
X104441777Y-80555336D01*
X104441834Y-80511789D01*
X104442341Y-80403442D01*
X104443319Y-80303624D01*
X104444708Y-80215078D01*
X104446449Y-80140551D01*
X104448482Y-80082788D01*
X104450748Y-80044533D01*
X104453188Y-80028533D01*
X104454949Y-80026925D01*
X104476937Y-80018438D01*
X104523170Y-80006246D01*
X104593742Y-79990330D01*
X104688748Y-79970668D01*
X104808285Y-79947240D01*
X104952446Y-79920024D01*
X104983239Y-79914280D01*
X105089482Y-79894211D01*
X105187797Y-79875264D01*
X105275405Y-79858000D01*
X105349526Y-79842980D01*
X105407380Y-79830764D01*
X105446187Y-79821913D01*
X105463167Y-79816988D01*
X105463424Y-79816837D01*
X105475083Y-79801040D01*
X105495123Y-79763968D01*
X105522663Y-79707485D01*
X105556820Y-79633458D01*
X105596711Y-79543751D01*
X105641454Y-79440229D01*
X105663396Y-79388751D01*
X105702619Y-79296038D01*
X105733133Y-79222492D01*
X105755842Y-79165588D01*
X105771652Y-79122798D01*
X105781467Y-79091594D01*
X105786194Y-79069449D01*
X105786736Y-79053838D01*
X105783999Y-79042231D01*
X105783089Y-79040234D01*
X105770523Y-79018798D01*
X105745663Y-78979769D01*
X105710137Y-78925594D01*
X105665574Y-78858721D01*
X105613604Y-78781597D01*
X105555854Y-78696668D01*
X105493953Y-78606383D01*
X105479307Y-78585078D01*
X105418929Y-78496584D01*
X105363623Y-78414484D01*
X105314925Y-78341133D01*
X105274374Y-78278884D01*
X105243506Y-78230090D01*
X105223858Y-78197104D01*
X105216967Y-78182280D01*
X105218481Y-78178537D01*
X105233911Y-78158235D01*
X105264147Y-78123865D01*
X105306893Y-78077721D01*
X105359854Y-78022094D01*
X105420735Y-77959277D01*
X105487241Y-77891563D01*
X105557075Y-77821243D01*
X105627944Y-77750611D01*
X105697551Y-77681959D01*
X105763602Y-77617579D01*
X105823800Y-77559763D01*
X105875851Y-77510805D01*
X105917459Y-77472997D01*
X105946330Y-77448631D01*
X105960167Y-77440000D01*
X105963706Y-77441110D01*
X105985998Y-77453255D01*
X106025610Y-77477581D01*
X106080245Y-77512587D01*
X106147605Y-77556772D01*
X106225392Y-77608634D01*
X106311308Y-77666673D01*
X106403055Y-77729386D01*
X106439305Y-77754261D01*
X106529286Y-77815605D01*
X106612654Y-77871881D01*
X106687085Y-77921558D01*
X106750260Y-77963103D01*
X106799855Y-77994985D01*
X106833549Y-78015672D01*
X106849020Y-78023631D01*
X106849861Y-78023696D01*
X106869038Y-78019107D01*
X106907316Y-78006328D01*
X106961182Y-77986767D01*
X107027127Y-77961835D01*
X107101639Y-77932941D01*
X107181208Y-77901493D01*
X107262323Y-77868902D01*
X107341474Y-77836575D01*
X107415150Y-77805923D01*
X107479840Y-77778355D01*
X107532033Y-77755279D01*
X107568220Y-77738106D01*
X107584888Y-77728244D01*
X107586870Y-77723890D01*
X107593989Y-77697977D01*
X107604776Y-77651397D01*
X107618684Y-77586786D01*
X107635164Y-77506782D01*
X107653669Y-77414019D01*
X107673650Y-77311135D01*
X107694560Y-77200765D01*
X107712543Y-77105549D01*
X107736744Y-76980683D01*
X107757867Y-76875912D01*
X107775713Y-76792151D01*
X107790087Y-76730314D01*
X107800791Y-76691315D01*
X107807627Y-76676070D01*
X107810784Y-76675180D01*
X107835292Y-76672908D01*
X107881035Y-76670823D01*
X107945268Y-76668982D01*
X108025246Y-76667441D01*
X108118222Y-76666257D01*
X108221451Y-76665488D01*
X108332188Y-76665191D01*
X108349363Y-76665185D01*
X108473017Y-76665224D01*
G37*
G36*
X140841200Y-79533990D02*
G01*
X141243254Y-79783190D01*
X141471320Y-80015071D01*
X141692357Y-80420386D01*
X141764650Y-80899000D01*
X141739082Y-81188348D01*
X141576806Y-81632453D01*
X141270269Y-81997498D01*
X140825693Y-82274369D01*
X140597611Y-82347417D01*
X140171855Y-82363537D01*
X139746698Y-82252598D01*
X139368322Y-82029571D01*
X139082911Y-81709427D01*
X138914843Y-81346135D01*
X138845942Y-80913917D01*
X138905013Y-80505262D01*
X139072311Y-80137775D01*
X139328094Y-79829059D01*
X139652617Y-79596719D01*
X140026138Y-79458358D01*
X140428914Y-79431580D01*
X140841200Y-79533990D01*
G37*
G36*
X141625004Y-83667322D02*
G01*
X141730392Y-83770992D01*
X141876110Y-83948341D01*
X142098908Y-84240444D01*
X141901250Y-84412556D01*
X141806486Y-84485042D01*
X141562809Y-84639260D01*
X141285829Y-84788057D01*
X140982521Y-84905570D01*
X140417650Y-84994146D01*
X139833833Y-84940575D01*
X139265840Y-84749808D01*
X138748440Y-84426795D01*
X138688778Y-84372206D01*
X138611130Y-84211087D01*
X138676300Y-84026205D01*
X138889214Y-83795471D01*
X138975856Y-83723833D01*
X139069862Y-83696946D01*
X139194524Y-83750372D01*
X139401396Y-83894031D01*
X139426269Y-83911764D01*
X139885226Y-84143579D01*
X140357867Y-84210779D01*
X140831571Y-84113642D01*
X141293715Y-83852443D01*
X141342257Y-83816264D01*
X141509807Y-83702205D01*
X141602786Y-83656237D01*
X141625004Y-83667322D01*
G37*
G36*
X140564996Y-76821922D02*
G01*
X141078416Y-76931957D01*
X141538383Y-77131019D01*
X141895621Y-77409301D01*
X142087651Y-77618034D01*
X141867306Y-77879899D01*
X141816007Y-77939645D01*
X141680998Y-78084013D01*
X141608179Y-78141764D01*
X141584537Y-78133122D01*
X141454624Y-78058091D01*
X141260508Y-77931066D01*
X141241120Y-77917979D01*
X140755531Y-77677824D01*
X140270935Y-77603142D01*
X139795306Y-77693853D01*
X139336617Y-77949880D01*
X139058458Y-78160356D01*
X138814413Y-77926546D01*
X138765445Y-77877630D01*
X138626294Y-77710447D01*
X138570368Y-77594403D01*
X138590945Y-77542176D01*
X138724429Y-77404619D01*
X138948176Y-77238778D01*
X139222484Y-77072621D01*
X139507652Y-76934116D01*
X139574904Y-76908152D01*
X140047400Y-76810718D01*
X140564996Y-76821922D01*
G37*
G36*
X124898245Y-80153091D02*
G01*
X125010232Y-80235888D01*
X125096967Y-80267315D01*
X125118395Y-80194867D01*
X125137154Y-80131796D01*
X125250026Y-80078602D01*
X125494381Y-80063474D01*
X125870368Y-80063474D01*
X125870368Y-81316764D01*
X125870368Y-82570053D01*
X125494381Y-82570053D01*
X125118395Y-82570053D01*
X125118395Y-81709461D01*
X125118009Y-81585540D01*
X125106133Y-81179844D01*
X125070667Y-80908891D01*
X125002201Y-80747065D01*
X124891327Y-80668754D01*
X124728637Y-80648342D01*
X124602292Y-80670681D01*
X124488717Y-80771967D01*
X124416161Y-80974786D01*
X124377702Y-81300585D01*
X124366421Y-81770810D01*
X124366421Y-82570053D01*
X123990434Y-82570053D01*
X123614447Y-82570053D01*
X123614447Y-81663442D01*
X123614509Y-81616935D01*
X123628219Y-81086190D01*
X123670579Y-80694343D01*
X123748345Y-80416445D01*
X123868273Y-80227551D01*
X124037120Y-80102712D01*
X124265512Y-80012410D01*
X124594633Y-80001935D01*
X124898245Y-80153091D01*
G37*
G36*
X123097471Y-79538181D02*
G01*
X123078325Y-79687264D01*
X123014210Y-79828473D01*
X122883362Y-79881292D01*
X122808186Y-79897882D01*
X122754363Y-79941825D01*
X122721123Y-80040599D01*
X122703513Y-80222272D01*
X122696579Y-80514912D01*
X122695368Y-80946588D01*
X122695368Y-81985185D01*
X122904250Y-81985185D01*
X123027296Y-81998898D01*
X123097525Y-82079858D01*
X123113131Y-82277619D01*
X123113131Y-82570053D01*
X122277605Y-82570053D01*
X121442079Y-82570053D01*
X121442079Y-82277619D01*
X121451874Y-82105354D01*
X121509702Y-82007033D01*
X121650960Y-81985185D01*
X121859842Y-81985185D01*
X121859842Y-80946588D01*
X121858772Y-80531118D01*
X121852201Y-80232832D01*
X121835177Y-80046774D01*
X121802745Y-79944877D01*
X121749954Y-79899073D01*
X121671848Y-79881292D01*
X121585311Y-79859514D01*
X121504192Y-79767371D01*
X121483855Y-79562158D01*
X121483855Y-79269724D01*
X122303721Y-79245747D01*
X123123587Y-79221770D01*
X123097471Y-79538181D01*
G37*
G36*
X120857210Y-80899000D02*
G01*
X120857210Y-82570053D01*
X120481223Y-82570053D01*
X120105237Y-82570053D01*
X120105237Y-81985185D01*
X120105237Y-81400316D01*
X119557995Y-81400316D01*
X119359290Y-81394052D01*
X119011643Y-81350349D01*
X118765660Y-81273573D01*
X118641820Y-81194160D01*
X118411287Y-80920493D01*
X118288541Y-80564106D01*
X118285016Y-80314132D01*
X119102605Y-80314132D01*
X119131927Y-80553587D01*
X119234768Y-80681180D01*
X119276062Y-80693069D01*
X119477506Y-80720810D01*
X119736083Y-80731895D01*
X120105237Y-80731895D01*
X120105237Y-80314132D01*
X120105237Y-79896369D01*
X119736083Y-79896369D01*
X119693969Y-79896486D01*
X119385478Y-79913316D01*
X119206207Y-79973946D01*
X119122976Y-80100258D01*
X119102605Y-80314132D01*
X118285016Y-80314132D01*
X118282898Y-80163981D01*
X118403674Y-79759098D01*
X118449000Y-79670887D01*
X118587332Y-79484673D01*
X118776089Y-79357306D01*
X119044178Y-79278751D01*
X119420507Y-79238976D01*
X119933982Y-79227948D01*
X120857210Y-79227948D01*
X120857210Y-80314132D01*
X120857210Y-80899000D01*
G37*
G36*
X142087651Y-78559730D02*
G01*
X142177975Y-78618107D01*
X142367779Y-78766682D01*
X142634289Y-78985721D01*
X142954734Y-79255492D01*
X143306339Y-79556264D01*
X143666331Y-79868305D01*
X144011938Y-80171882D01*
X144320385Y-80447263D01*
X144568900Y-80674716D01*
X144734709Y-80834510D01*
X144795039Y-80906911D01*
X144789417Y-80917647D01*
X144694248Y-81017800D01*
X144495853Y-81203891D01*
X144212952Y-81458964D01*
X143864266Y-81766067D01*
X143468515Y-82108244D01*
X143346594Y-82212323D01*
X142956565Y-82539266D01*
X142612459Y-82818805D01*
X142334238Y-83035287D01*
X142141866Y-83173056D01*
X142055306Y-83216458D01*
X142037594Y-83207739D01*
X141918900Y-83103159D01*
X141769433Y-82929271D01*
X141570244Y-82670979D01*
X142578260Y-81810002D01*
X142794486Y-81623446D01*
X143105618Y-81347529D01*
X143351583Y-81119928D01*
X143511381Y-80960280D01*
X143564013Y-80888222D01*
X143540584Y-80859905D01*
X143411631Y-80735692D01*
X143190142Y-80534504D01*
X142898453Y-80276486D01*
X142558901Y-79981782D01*
X141576052Y-79136144D01*
X141795956Y-78847835D01*
X141855421Y-78773026D01*
X141996651Y-78620298D01*
X142085876Y-78559527D01*
X142087651Y-78559730D01*
G37*
G36*
X138572323Y-78569441D02*
G01*
X138686583Y-78669847D01*
X138838722Y-78843498D01*
X139065299Y-79127464D01*
X138065860Y-79986116D01*
X137856900Y-80166950D01*
X137543428Y-80443738D01*
X137292807Y-80672037D01*
X137126613Y-80832034D01*
X137066421Y-80903915D01*
X137088302Y-80934867D01*
X137214529Y-81061089D01*
X137434184Y-81263260D01*
X137725604Y-81521627D01*
X138067125Y-81816436D01*
X139067829Y-82669809D01*
X138850958Y-82954142D01*
X138794722Y-83024521D01*
X138649257Y-83177485D01*
X138552225Y-83238474D01*
X138549066Y-83237902D01*
X138454624Y-83175931D01*
X138260857Y-83025338D01*
X137990586Y-82805617D01*
X137666637Y-82536264D01*
X137311831Y-82236775D01*
X136948992Y-81926646D01*
X136600945Y-81625372D01*
X136290512Y-81352450D01*
X136040516Y-81127374D01*
X135873781Y-80969640D01*
X135813131Y-80898745D01*
X135814205Y-80895475D01*
X135889719Y-80814605D01*
X136068113Y-80649019D01*
X136326625Y-80418190D01*
X136642493Y-80141592D01*
X136992954Y-79838695D01*
X137355247Y-79528974D01*
X137706610Y-79231900D01*
X138024279Y-78966946D01*
X138285495Y-78753584D01*
X138467494Y-78611288D01*
X138547514Y-78559529D01*
X138572323Y-78569441D01*
G37*
G36*
X134728104Y-80966019D02*
G01*
X134655872Y-81480247D01*
X134479577Y-81932841D01*
X134208966Y-82294539D01*
X133853787Y-82536081D01*
X133484375Y-82634263D01*
X133013259Y-82619225D01*
X132551395Y-82465612D01*
X132238953Y-82252311D01*
X131991336Y-81922833D01*
X131848488Y-81484226D01*
X131808062Y-80987452D01*
X132585032Y-80987452D01*
X132626103Y-81332632D01*
X132710195Y-81620997D01*
X132826724Y-81798120D01*
X132893514Y-81845227D01*
X133190725Y-81934693D01*
X133524188Y-81865034D01*
X133598702Y-81828982D01*
X133744062Y-81711944D01*
X133832841Y-81532351D01*
X133877446Y-81255729D01*
X133890280Y-80847604D01*
X133864245Y-80484594D01*
X133753455Y-80154547D01*
X133552691Y-79960099D01*
X133258712Y-79896369D01*
X133145472Y-79903529D01*
X132878232Y-80008993D01*
X132698833Y-80247452D01*
X132599167Y-80627895D01*
X132597566Y-80639886D01*
X132585032Y-80987452D01*
X131808062Y-80987452D01*
X131802605Y-80920389D01*
X131822624Y-80488103D01*
X131905677Y-80096263D01*
X132068289Y-79783543D01*
X132326494Y-79506674D01*
X132505581Y-79374446D01*
X132911056Y-79210196D01*
X133341584Y-79179672D01*
X133763168Y-79272768D01*
X134141815Y-79479379D01*
X134443529Y-79789400D01*
X134634316Y-80192724D01*
X134686529Y-80419418D01*
X134719097Y-80847604D01*
X134728104Y-80966019D01*
G37*
G36*
X116854751Y-79210020D02*
G01*
X117268267Y-79368874D01*
X117379878Y-79444553D01*
X117661727Y-79753348D01*
X117852291Y-80151212D01*
X117952829Y-80604657D01*
X117964600Y-81080197D01*
X117888865Y-81544346D01*
X117726884Y-81963616D01*
X117479914Y-82304522D01*
X117149218Y-82533576D01*
X117002272Y-82587176D01*
X116565514Y-82650038D01*
X116124175Y-82594978D01*
X115727320Y-82432272D01*
X115424017Y-82172200D01*
X115351544Y-82074391D01*
X115272624Y-81895518D01*
X115334382Y-81758078D01*
X115546623Y-81617731D01*
X115834061Y-81462935D01*
X116034715Y-81696209D01*
X116125780Y-81785424D01*
X116400175Y-81919109D01*
X116691666Y-81906740D01*
X116955767Y-81745916D01*
X116966002Y-81735532D01*
X117056020Y-81618499D01*
X117108532Y-81468067D01*
X117133058Y-81239748D01*
X117139118Y-80889053D01*
X117138690Y-80755402D01*
X117129446Y-80459553D01*
X117100348Y-80273038D01*
X117041215Y-80152870D01*
X116941869Y-80056063D01*
X116833231Y-79983455D01*
X116540233Y-79897683D01*
X116252476Y-79939993D01*
X116024441Y-80107341D01*
X115970251Y-80175083D01*
X115870058Y-80264744D01*
X115755597Y-80261541D01*
X115558837Y-80175419D01*
X115382028Y-80077452D01*
X115278731Y-79951807D01*
X115317569Y-79797057D01*
X115494794Y-79578267D01*
X115602012Y-79478328D01*
X115973685Y-79270407D01*
X116407244Y-79179084D01*
X116854751Y-79210020D01*
G37*
G36*
X128571501Y-80951849D02*
G01*
X128585829Y-81305677D01*
X128570605Y-81627168D01*
X128484956Y-81990213D01*
X128306901Y-82264595D01*
X128017309Y-82490177D01*
X127888539Y-82554666D01*
X127502039Y-82643166D01*
X127084181Y-82624292D01*
X126704591Y-82497646D01*
X126601398Y-82438075D01*
X126430571Y-82283882D01*
X126413477Y-82117918D01*
X126542065Y-81911132D01*
X126662274Y-81782143D01*
X126752398Y-81766729D01*
X126875804Y-81862393D01*
X127055164Y-81966752D01*
X127302054Y-82006482D01*
X127540730Y-81966403D01*
X127720851Y-81856224D01*
X127792079Y-81685655D01*
X127769173Y-81642599D01*
X127649195Y-81598051D01*
X127406599Y-81568375D01*
X127019217Y-81549669D01*
X126246355Y-81525645D01*
X126269777Y-81161497D01*
X126308910Y-80956746D01*
X127040105Y-80956746D01*
X127044541Y-80979704D01*
X127155802Y-81044836D01*
X127421903Y-81066106D01*
X127524225Y-81065334D01*
X127706214Y-81048705D01*
X127776908Y-80993975D01*
X127777002Y-80879794D01*
X127714115Y-80742726D01*
X127512407Y-80610149D01*
X127424353Y-80582590D01*
X127272286Y-80580456D01*
X127157308Y-80687101D01*
X127086350Y-80806612D01*
X127040105Y-80956746D01*
X126308910Y-80956746D01*
X126357050Y-80704866D01*
X126561063Y-80350766D01*
X126879936Y-80117758D01*
X127312857Y-80006740D01*
X127701231Y-80033221D01*
X128095017Y-80205009D01*
X128412784Y-80508252D01*
X128421014Y-80519633D01*
X128520548Y-80708199D01*
X128556433Y-80879794D01*
X128571501Y-80951849D01*
G37*
G36*
X131302287Y-81392768D02*
G01*
X131301289Y-81906436D01*
X131301289Y-83582293D01*
X130946191Y-83556600D01*
X130591092Y-83530908D01*
X130566340Y-82964897D01*
X130558882Y-82800603D01*
X130542194Y-82574121D01*
X130512434Y-82471990D01*
X130456116Y-82465576D01*
X130359756Y-82526245D01*
X130206367Y-82605595D01*
X129885432Y-82648679D01*
X129558602Y-82569507D01*
X129274203Y-82383892D01*
X129080562Y-82107648D01*
X129053003Y-82031391D01*
X128984700Y-81676927D01*
X128968539Y-81304530D01*
X129714692Y-81304530D01*
X129732405Y-81594666D01*
X129800282Y-81823572D01*
X129902688Y-81913367D01*
X130110749Y-81980630D01*
X130334582Y-81990105D01*
X130493614Y-81929483D01*
X130521345Y-81826655D01*
X130541587Y-81604230D01*
X130549316Y-81311777D01*
X130548657Y-81208030D01*
X130533238Y-80926653D01*
X130491841Y-80768298D01*
X130417153Y-80699058D01*
X130367159Y-80681704D01*
X130076626Y-80659170D01*
X129845086Y-80779639D01*
X129818028Y-80813828D01*
X129744210Y-81021479D01*
X129714692Y-81304530D01*
X128968539Y-81304530D01*
X128966526Y-81258134D01*
X128998480Y-80849592D01*
X129080562Y-80525879D01*
X129087060Y-80510878D01*
X129282867Y-80245476D01*
X129569155Y-80053703D01*
X129880895Y-79979921D01*
X130075306Y-80016801D01*
X130302807Y-80107396D01*
X130312859Y-80112545D01*
X130486444Y-80177282D01*
X130549316Y-80144594D01*
X130559938Y-80121149D01*
X130689998Y-80080930D01*
X130946191Y-80079784D01*
X131078834Y-80092065D01*
X131260147Y-80126794D01*
X131322177Y-80167915D01*
X131320975Y-80174286D01*
X131314729Y-80301003D01*
X131309322Y-80563814D01*
X131305070Y-80936482D01*
X131302781Y-81311777D01*
X131302287Y-81392768D01*
G37*
%LPC*%
D12*
X105758000Y-90899000D03*
X111158000Y-90899000D03*
X105758000Y-96299000D03*
X111158000Y-96299000D03*
X137762000Y-90899000D03*
X143162000Y-90899000D03*
X137762000Y-96299000D03*
X143162000Y-96299000D03*
X98000000Y-100400000D03*
X156000000Y-77400000D03*
X98000000Y-77400000D03*
X156000000Y-100400000D03*
D13*
X130500000Y-75227000D03*
D14*
X128000000Y-75227000D03*
X126000000Y-75227000D03*
X123500000Y-75227000D03*
D15*
X133570000Y-72517000D03*
X120430000Y-72517000D03*
X157624000Y-82330000D03*
X157624000Y-95470000D03*
D14*
X154914000Y-85400000D03*
X154914000Y-87900000D03*
X154914000Y-89900000D03*
D16*
X154914000Y-92400000D03*
D15*
X96503000Y-95597000D03*
X96503000Y-82457000D03*
D14*
X99213000Y-92527000D03*
X99213000Y-90027000D03*
X99213000Y-88027000D03*
D16*
X99213000Y-85527000D03*
%LPD*%
M02*
